<?xml version="1.0" encoding="utf-8"?>
<svg version="1.2" baseProfile="tiny" id="Layer_1" xmlns="http://www.w3.org/2000/svg" xmlns:xlink="http://www.w3.org/1999/xlink"
	 x="0px" y="0px" viewBox="0 0 147 47.9" xml:space="preserve">
<path fill="#FFFFFF" d="M147,0H0v3.6l0,0l0,17.6l2,0.3v-7.2l0.2,0c0.9,0.1,1.3,0.9,1.9,2.8l1.4,5l2.4,0.4l-1.8-6.1
	c-0.6-1.9-1.3-3.2-2-3.5c0.5-0.1,0.9-0.8,1.1-1.4l0.6-1.8c0.4-1.2,0.7-1.4,1.1-1.3l0.5,0.1l0.1-3.5l4.9,0.9v17.5l2.2,0.4l3.8-11.3
	v12l2,0.3V7.1l5,0.9v17.5l2,0.3v-7.2l3.7,0.6l0,7.2l2,0.3V9.4l7.3,1.3c-1.7,1-2.7,4-2.7,8.1c0,5.3,1.6,9.4,4.4,9.9
	c2.8,0.5,4.4-3.1,4.4-8.4c0-4.1-0.9-7.5-2.6-9l14,2.4V31l3.9,0.7c2.1,0.4,3.5-0.8,3.5-4.5c0-2.1-0.7-3.7-1.8-4.4
	c1-0.5,1.5-1.9,1.5-3.6c0-2.3-0.7-3.8-1.8-4.6l13.5,2.4v17.2l2,0.3V20.4l4.1,0.7V18l6.3,1.1c-1.5,1.2-2.4,4.1-2.4,7.9
	c0,5.3,1.6,9.4,4.4,9.9c2.8,0.5,4.4-3.1,4.4-8.4c0-3.8-0.8-7-2.3-8.7l6.9,1.2v17.1l2,0.3l0-5.6l1.6,0.3c2.3,0.4,3.6-1.9,3.6-5.5
	c0-2.9-0.8-4.7-2-5.7l8.5,1.5c-1.4,1.2-2.2,4.1-2.2,7.8c0,5.3,1.6,9.4,4.4,9.9c2.8,0.5,4.4-3.1,4.4-8.4c0-3.7-0.8-6.8-2.2-8.6l8,1.4
	V30c0,4,0,9-1.5,8.8l-0.5-0.1l0,7.7l2,0.3v-4.1l5.6,0.9v4.1l2,0.3v-7.7l-1.1-0.2V26.7l5.6,1v16.9l6.8,1.2v-3.5l-4.8-0.8v-3.7l4,0.7
	v-3.5l-4-0.7v-3.3l4.8,0.8v-6.4L21,3.6h126V0z M44.3,19.9c0,3.6-0.9,5.6-2.3,5.4c-1.4-0.2-2.3-2.5-2.3-6.1c0-3.6,0.9-5.6,2.3-5.4
	C43.4,14,44.3,16.3,44.3,19.9z M61.1,17c0.9,0.2,1.6,0.7,1.6,2.1c0,1.4-0.5,2.1-1.4,2l-1.5-0.3l0-4L61.1,17z M61.5,28.6l-1.8-0.3
	v-4.4l1.6,0.3c1.1,0.2,1.7,1,1.7,2.7C63,28.2,62.5,28.7,61.5,28.6z M90.9,33.5c-1.4-0.2-2.3-2.5-2.3-6.1c0-3.6,0.9-5.6,2.3-5.4
	c1.4,0.2,2.3,2.5,2.3,6.1C93.2,31.8,92.3,33.8,90.9,33.5z M103.3,29.6l-1.4-0.2v-5.1l1.4,0.2c1.2,0.2,1.7,1.4,1.7,2.8
	C105,28.5,104.6,29.9,103.3,29.6z M115.7,37.7c-1.4-0.2-2.3-2.5-2.3-6.1c0-3.6,0.9-5.6,2.3-5.4c1.4,0.2,2.3,2.5,2.3,6.1
	C118,36,117.1,38,115.7,37.7z M126.7,39.1c1.2-0.9,1.1-5.6,1.1-10.1v-0.3l2.6,0.4v10.5L126.7,39.1z M4.5,6.6l-1,3
	c-0.3,0.9-0.5,1.6-1.1,1.5L2,11V4l4.3,0.8C5.7,4.7,5.1,5,4.5,6.6z M14.3,17.9V6.1l3.8,0.7L14.3,17.9z M31,15.7l-3.7-0.6V8.4L31,9
	V15.7z"/>
</svg>
