<?xml version="1.0" standalone="no"?>
<!DOCTYPE svg PUBLIC "-//W3C//DTD SVG 1.1//EN" "http://www.w3.org/Graphics/SVG/1.1/DTD/svg11.dtd" >
<svg xmlns="http://www.w3.org/2000/svg" xmlns:xlink="http://www.w3.org/1999/xlink" version="1.1">
<metadata>
Created by FontForge 20160407 at Fri Jun  3 16:17:00 2016
 By Jimmy Wärting
Copyright (c) 2009 by abstrkt. All rights reserved.
</metadata>
<defs>
<font id="VremenaGroteskBookItalic" horiz-adv-x="556" >
  <font-face 
    font-family="Vremena Grotesk Book Italic"
    font-weight="400"
    font-style="italic"
    font-stretch="normal"
    units-per-em="1000"
    panose-1="0 0 0 0 0 0 0 0 0 0"
    ascent="750"
    descent="-250"
    x-height="520"
    cap-height="720"
    bbox="-90 -342 4625 1035"
    underline-thickness="50"
    underline-position="-100"
    unicode-range="U+0020-2122"
  />
<missing-glyph horiz-adv-x="278" 
 />
    <glyph glyph-name=".notdef" horiz-adv-x="278" 
 />
    <glyph glyph-name=".null" horiz-adv-x="0" 
 />
    <glyph glyph-name="CR" horiz-adv-x="278" 
 />
    <glyph glyph-name="space" unicode=" " horiz-adv-x="278" 
 />
    <glyph glyph-name="afii10069" unicode="&#x434;" horiz-adv-x="533" 
d="M231 660l14 75c273 0 357 -210 302 -485c-35 -172 -146 -265 -290 -265c-114 0 -222 93 -191 265s142 265 266 265c75 0 126 -38 148 -73c6 114 -91 218 -249 218zM156 250c-27 -142 57 -190 116 -190c79 0 163 48 190 190c28 142 -46 190 -115 190
c-89 0 -163 -48 -191 -190z" />
    <glyph glyph-name="afii10070" unicode="&#x435;" horiz-adv-x="510" 
d="M516 158c-53 -116 -150 -173 -263 -173c-144 0 -218 103 -185 275c34 172 147 275 291 275c129 0 181 -83 181 -146c-1 -119 -99 -152 -206 -152h-180c-17 -125 44 -177 119 -177c61 0 128 38 161 116zM345 460c-62 0 -138 -45 -175 -151h177c64 0 104 18 106 77
c2 49 -51 74 -108 74z" />
    <glyph glyph-name="afii10072" unicode="&#x436;" horiz-adv-x="740" 
d="M448 225l-42 -225h-90l42 225h-7c-40 0 -76 -16 -111 -65l-115 -160h-105l129 173c40 51 75 80 115 89v4c-37 10 -50 46 -62 106c-8 38 -6 65 -53 65h-25l16 83h18c58 0 85 -3 105 -52c7 -16 25 -92 31 -120c12 -46 41 -48 71 -48h7l43 220h90l-43 -220h7
c30 0 53 2 81 48c18 28 64 104 77 120c40 49 77 52 135 52h18l-16 -83h-25c-47 0 -55 -27 -77 -65c-36 -60 -63 -96 -104 -106v-4c36 -9 59 -38 81 -89l63 -173h-105l-55 160c-17 49 -47 65 -87 65h-7z" />
    <glyph glyph-name="afii10073" unicode="&#x437;" horiz-adv-x="459" 
d="M225 235l14 68c34 1 64 1 71 2c42 6 77 33 85 75c9 49 -21 83 -80 83s-108 -41 -128 -102l-76 23c38 97 120 151 219 151c105 0 175 -53 155 -153c-8 -48 -41 -89 -93 -107c52 -15 80 -64 68 -130c-21 -108 -127 -160 -229 -160c-118 0 -181 56 -180 161l87 18
c3 -63 30 -107 107 -107c65 0 117 35 128 91c16 84 -60 87 -98 87h-50z" />
    <glyph glyph-name="afii10074" unicode="&#x438;" horiz-adv-x="526" 
d="M476 520h90l-99 -520h-81l14 75c-49 -57 -111 -90 -183 -90c-144 0 -161 92 -137 216l61 319h90l-60 -315c-17 -90 -9 -144 69 -144c82 0 160 62 182 176z" />
    <glyph glyph-name="afii10075" unicode="&#x439;" horiz-adv-x="524" 
d="M479 720h60c-17 -85 -74 -147 -174 -147s-130 63 -114 147h60c-5 -50 20 -76 68 -76s85 26 100 76zM474 520h90l-99 -520h-81l14 75c-49 -57 -111 -90 -183 -90c-144 0 -161 92 -137 216l61 319h90l-60 -315c-17 -90 -9 -144 69 -144c82 0 160 62 182 176z" />
    <glyph glyph-name="afii10076" unicode="&#x43a;" horiz-adv-x="517" 
d="M60 0l99 520h90l-43 -220h32c30 0 55 7 88 48c23 28 66 104 78 120c38 49 77 52 135 52h18l-16 -83h-25c-47 0 -55 -27 -77 -65c-36 -60 -70 -93 -111 -103l-1 -4c36 -9 69 -41 91 -92l63 -173h-105l-55 160c-18 47 -47 65 -87 65h-42l-42 -225h-90z" />
    <glyph glyph-name="afii10077" unicode="&#x43b;" horiz-adv-x="539" 
d="M162 307l41 213h376l-99 -520h-90l85 445h-196l-30 -158c-26 -130 -59 -302 -192 -302c-29 0 -50 10 -57 15l14 79c10 -6 23 -11 37 -11c69 -1 93 146 111 239z" />
    <glyph glyph-name="afii10078" unicode="&#x43c;" horiz-adv-x="676" 
d="M60 0l99 520h141l57 -416l231 416h128l-99 -520h-90l80 418l-231 -418h-79l-64 438l-83 -438h-90z" />
    <glyph glyph-name="afii10079" unicode="&#x43d;" horiz-adv-x="544" 
d="M60 0l99 520h90l-43 -220h245l43 220h90l-99 -520h-90l42 225h-245l-42 -225h-90z" />
    <glyph glyph-name="afii10080" unicode="&#x43e;" horiz-adv-x="532" 
d="M68 260c34 172 152 275 296 275s224 -103 190 -275c-33 -172 -152 -275 -296 -275s-223 103 -190 275zM158 260c-27 -142 36 -200 115 -200s164 58 191 200c28 142 -35 200 -114 200s-164 -58 -192 -200z" />
    <glyph glyph-name="afii10081" unicode="&#x43f;" horiz-adv-x="545" 
d="M150 0h-90l99 520h81l-14 -75c50 64 110 90 182 90c144 0 161 -92 138 -216l-61 -319h-90l60 315c17 90 -1 144 -79 144c-82 0 -151 -62 -173 -176z" />
    <glyph glyph-name="afii10082" unicode="&#x440;" horiz-adv-x="547" 
d="M110 -200h-90l138 720h80l-13 -71c39 50 94 86 163 86c144 0 201 -113 170 -275s-132 -275 -276 -275c-62 0 -102 28 -124 70zM187 260c-26 -132 26 -200 105 -200s150 68 176 200s-20 200 -99 200c-69 0 -156 -68 -182 -200z" />
    <glyph glyph-name="afii10083" unicode="&#x441;" horiz-adv-x="513" 
d="M158 260c-27 -142 31 -200 110 -200c61 0 116 35 151 117l83 -20c-49 -109 -137 -172 -249 -172c-144 0 -218 103 -185 275c34 172 147 275 291 275c112 0 196 -59 182 -178h-85c8 83 -50 103 -111 103c-79 0 -159 -58 -187 -200z" />
    <glyph glyph-name="afii10084" unicode="&#x442;" horiz-adv-x="832" 
d="M150 0h-90l99 520h81l-14 -74c48 64 105 89 174 89c76 0 120 -35 129 -96c47 69 114 96 179 96c107 0 151 -63 128 -179l-67 -356h-90l62 327c13 69 11 132 -66 132c-91 0 -142 -73 -158 -158l-57 -301h-90l64 337c15 78 -7 122 -68 122c-107 0 -147 -95 -165 -190z" />
    <glyph glyph-name="afii10086" unicode="&#x444;" horiz-adv-x="810" 
d="M489 260c-26 -132 4 -200 80 -200s135 68 161 200s-8 200 -84 200c-66 0 -131 -68 -157 -200zM401 260c26 132 -13 200 -79 200c-76 0 -136 -68 -162 -200s9 -200 85 -200s130 68 156 200zM402 -200h-90l48 255c-25 -35 -80 -70 -142 -70c-139 0 -177 123 -148 275
s112 275 256 275c69 0 105 -44 113 -76l45 236l98 40l-53 -276c20 32 72 76 141 76c144 0 179 -123 150 -275s-115 -275 -254 -275c-62 0 -103 35 -116 70z" />
    <glyph glyph-name="afii10087" unicode="&#x445;" horiz-adv-x="507" 
d="M114 0h-104l235 266l-124 254h103l84 -188l157 188h102l-224 -251l139 -269h-101l-97 200z" />
    <glyph glyph-name="afii10088" unicode="&#x446;" 
d="M476 520h90l-74 -387c-13 -63 -2 -83 57 -83l-38 -200h-90l25 135c-39 0 -53 53 -46 90c-49 -57 -111 -90 -183 -90c-144 0 -161 92 -137 216l61 319h90l-60 -315c-17 -90 -9 -144 69 -144c82 0 160 62 182 176z" />
    <glyph glyph-name="afii10089" unicode="&#x447;" horiz-adv-x="500" 
d="M107 373l28 147h90l-21 -110c-19 -98 -28 -163 75 -163c33 0 77 9 125 37l46 236h90l-99 -520h-90l41 219c-48 -34 -94 -45 -141 -45c-128 0 -167 79 -144 199z" />
    <glyph glyph-name="afii10090" unicode="&#x448;" horiz-adv-x="813" 
d="M763 520h90l-99 -520h-81l14 74c-49 -64 -106 -89 -175 -89c-76 0 -120 35 -129 96c-47 -69 -114 -96 -179 -96c-107 0 -150 63 -128 179l68 356h90l-63 -327c-13 -69 -20 -132 57 -132c91 0 151 73 168 158l57 301h90l-65 -337c-14 -78 -2 -122 59 -122
c107 0 156 95 174 190z" />
    <glyph glyph-name="afii10091" unicode="&#x449;" horiz-adv-x="843" 
d="M763 520h90l-74 -387c-13 -63 -2 -83 57 -83l-38 -200h-90l25 135c-39 0 -53 51 -46 88c-49 -63 -106 -88 -175 -88c-76 0 -120 35 -129 96c-47 -69 -114 -96 -179 -96c-107 0 -150 63 -128 179l68 356h90l-63 -327c-13 -69 -20 -132 57 -132c91 0 151 73 168 158l57 301
h90l-65 -337c-14 -78 -2 -122 59 -122c107 0 156 95 174 190z" />
    <glyph glyph-name="afii10092" unicode="&#x44a;" horiz-adv-x="547" 
d="M90 447l14 73h214l-53 -232c32 32 73 52 127 52c91 0 183 -65 161 -186c-22 -120 -129 -169 -222 -169h-17c-85 0 -184 78 -153 239l50 223h-121zM461 152c13 62 -17 121 -92 121c-37 0 -78 -15 -116 -43l-5 -25c-20 -114 38 -148 97 -148c53 0 103 35 116 95z" />
    <glyph glyph-name="afii10093" unicode="&#x44b;" horiz-adv-x="658" 
d="M509 0l99 520h90l-99 -520h-90zM376 152c13 62 -17 121 -92 121c-37 0 -78 -15 -116 -43l-5 -25c-20 -114 38 -148 97 -148c53 0 103 35 116 95zM76 224l67 296h90l-53 -232c32 32 73 52 127 52c91 0 183 -65 161 -186c-22 -120 -129 -169 -222 -169h-17
c-85 0 -184 78 -153 239z" />
    <glyph glyph-name="afii10094" unicode="&#x44c;" horiz-adv-x="462" 
d="M76 224l67 296h90l-53 -232c32 32 73 52 127 52c91 0 183 -65 161 -186c-22 -120 -129 -169 -222 -169h-17c-85 0 -184 78 -153 239zM376 152c13 62 -17 121 -92 121c-37 0 -78 -15 -116 -43l-5 -25c-19 -104 38 -148 97 -148c53 0 103 35 116 95z" />
    <glyph glyph-name="afii10095" unicode="&#x44d;" horiz-adv-x="503" 
d="M233 225l14 75h192c10 113 -42 160 -104 160c-66 0 -122 -35 -158 -118l-82 20c48 109 137 173 254 173c144 0 209 -103 175 -275c-33 -172 -147 -275 -291 -275c-112 0 -176 63 -183 172l91 20c3 -82 46 -117 107 -117c72 0 145 48 177 165h-192z" />
    <glyph glyph-name="afii10096" unicode="&#x44e;" horiz-adv-x="759" 
d="M60 0l99 520h90l-43 -220h106c43 148 152 235 278 235c137 0 214 -103 180 -275c-33 -172 -149 -275 -286 -275c-128 0 -202 89 -186 240h-106l-42 -225h-90zM394 260c-27 -142 30 -200 105 -200s154 58 181 200c28 142 -29 200 -104 200s-154 -58 -182 -200z" />
    <glyph glyph-name="afii10097" unicode="&#x44f;" horiz-adv-x="518" 
d="M337 520h221l-99 -520h-90l38 201h-41c-80 0 -118 -30 -162 -88l-85 -113h-109l96 124c41 52 83 89 123 95c-87 8 -127 59 -111 146c20 105 110 155 219 155zM421 274l33 171h-113c-83 0 -120 -32 -129 -83c-15 -76 48 -88 122 -88h87z" />
    <glyph glyph-name="afii10017" unicode="&#x410;" horiz-adv-x="675" 
d="M428 720h97l140 -720h-103l-32 175h-324l-99 -175h-97zM455 611l-201 -351h261z" />
    <glyph glyph-name="afii10018" unicode="&#x411;" horiz-adv-x="657" 
d="M218 720h483l-17 -85h-388l-39 -205h163c179 0 254 -74 226 -219c-31 -165 -171 -211 -316 -211h-250zM241 345l-51 -260h163c95 0 176 21 196 129c17 87 -30 131 -143 131h-165z" />
    <glyph glyph-name="afii10019" unicode="&#x412;" horiz-adv-x="674" 
d="M353 0h-273l138 720h259c146 0 241 -59 216 -187c-13 -68 -56 -131 -140 -157c81 -21 126 -83 110 -168c-30 -152 -147 -208 -310 -208zM296 635l-43 -225h155c83 0 168 23 184 111c20 98 -59 114 -153 114h-143zM236 325l-46 -240h178c98 0 175 25 194 123
c19 97 -68 117 -161 117h-165z" />
    <glyph glyph-name="afii10020" unicode="&#x413;" horiz-adv-x="553" 
d="M80 0l138 720h453l-17 -85h-358l-121 -635h-95z" />
    <glyph glyph-name="afii10021" unicode="&#x414;" horiz-adv-x="742" 
d="M259 512l41 208h464l-123 -636h76l-54 -283h-95l39 199h-502l-39 -199h-93l52 283h28c115 0 175 265 206 428zM546 84l106 551h-274l-13 -72c-36 -181 -91 -435 -191 -479h372z" />
    <glyph glyph-name="afii10022" unicode="&#x415;" horiz-adv-x="657" 
d="M587 0h-507l138 720h497l-17 -85h-402l-43 -225h352l-17 -85h-352l-46 -240h412z" />
    <glyph glyph-name="afii10024" unicode="&#x416;" horiz-adv-x="1025" 
d="M621 325l-61 -325h-95l61 325h-36c-87 0 -121 -25 -196 -131l-137 -194h-117l179 238c56 75 123 123 175 130c-43 11 -68 66 -77 95l-31 107c-16 61 -52 63 -85 63h-16l17 87h47c62 0 92 -23 121 -109l47 -147c16 -46 46 -54 92 -54h34l60 310h95l-60 -310h34
c46 0 80 8 112 54l105 147c61 86 101 109 163 109h47l-17 -87h-16c-33 0 -69 -2 -111 -63l-71 -107c-19 -29 -66 -84 -113 -95c50 -7 97 -55 125 -130l89 -238h-117l-65 194c-35 106 -59 131 -146 131h-36z" />
    <glyph glyph-name="afii10025" unicode="&#x417;" horiz-adv-x="630" 
d="M316 325l17 85h75c77 0 133 52 145 119c17 83 -51 126 -120 126c-95 0 -156 -59 -187 -148l-86 17c44 128 152 211 290 211c127 0 224 -69 199 -202c-16 -77 -68 -133 -135 -157c87 -16 120 -90 105 -171c-30 -153 -173 -220 -307 -220c-135 0 -237 64 -234 217l91 24
c-3 -105 59 -161 158 -161c76 0 173 30 195 141c19 102 -66 119 -131 119h-75z" />
    <glyph glyph-name="afii10026" unicode="&#x418;" horiz-adv-x="722" 
d="M185 0h-105l138 720h95l-111 -575l473 575h105l-138 -720h-95l111 580z" />
    <glyph glyph-name="afii10027" unicode="&#x419;" horiz-adv-x="722" 
d="M644 920h70c-16 -85 -88 -167 -208 -167s-156 83 -140 167h70c-5 -50 18 -86 86 -86s107 36 122 86zM185 0h-105l138 720h95l-111 -575l473 575h105l-138 -720h-95l111 580z" />
    <glyph glyph-name="afii10028" unicode="&#x41a;" horiz-adv-x="670" 
d="M80 0l138 720h95l-60 -310h54c46 0 78 9 112 54l115 147c65 84 101 109 163 109h47l-17 -87h-16c-33 0 -66 -4 -111 -63l-81 -107c-21 -28 -66 -84 -113 -95c50 -7 94 -57 125 -130l99 -238h-112l-75 194c-42 102 -79 131 -166 131h-41l-61 -325h-95z" />
    <glyph glyph-name="afii10029" unicode="&#x41b;" horiz-adv-x="716" 
d="M225 412l60 308h489l-138 -720h-95l121 635h-299l-33 -172c-43 -222 -66 -478 -249 -478c-31 0 -49 7 -66 15l12 92c10 -7 25 -17 50 -17c95 0 117 174 148 337z" />
    <glyph glyph-name="afii10030" unicode="&#x41c;" horiz-adv-x="863" 
d="M175 0h-95l138 720h139l99 -597l334 597h131l-138 -720h-95l114 598l-328 -598h-85l-100 598z" />
    <glyph glyph-name="afii10031" unicode="&#x41d;" horiz-adv-x="722" 
d="M175 0h-95l138 720h95l-60 -310h372l60 310h95l-138 -720h-95l61 325h-372z" />
    <glyph glyph-name="afii10032" unicode="&#x41e;" horiz-adv-x="785" 
d="M119 360c39 207 195 375 415 375c219 0 309 -168 270 -375c-41 -207 -196 -375 -415 -375c-220 0 -311 168 -270 375zM219 360c-33 -167 25 -295 185 -295c149 0 267 128 300 295c31 167 -37 295 -186 295c-150 0 -268 -128 -299 -295z" />
    <glyph glyph-name="afii10033" unicode="&#x41f;" horiz-adv-x="712" 
d="M175 0h-95l138 720h552l-138 -720h-95l121 635h-362z" />
    <glyph glyph-name="afii10034" unicode="&#x420;" horiz-adv-x="657" 
d="M175 0h-95l138 720h250c145 0 268 -46 236 -211c-28 -145 -132 -219 -311 -219h-163zM296 635l-49 -260h165c113 0 177 44 194 131c20 108 -52 129 -147 129h-163z" />
    <glyph glyph-name="afii10035" unicode="&#x421;" horiz-adv-x="734" 
d="M219 360c-33 -167 15 -295 175 -295c108 0 189 67 237 168l93 -19c-58 -135 -181 -229 -345 -229c-220 0 -301 168 -260 375c39 207 185 375 405 375c164 0 278 -90 251 -239h-90c9 110 -59 159 -177 159c-150 0 -258 -128 -289 -295z" />
    <glyph glyph-name="afii10036" unicode="&#x422;" horiz-adv-x="619" 
d="M357 0h-95l121 635h-242l17 85h579l-17 -85h-242z" />
    <glyph glyph-name="afii10037" unicode="&#x423;" horiz-adv-x="650" 
d="M335 196l-187 524h102l150 -425l279 425h99l-376 -561c-66 -99 -111 -174 -222 -174c-25 0 -70 8 -90 41l47 71c15 -13 30 -28 59 -28c40 0 69 20 105 75z" />
    <glyph glyph-name="afii10038" unicode="&#x424;" horiz-adv-x="821" 
d="M454 -15h-95l19 100c-184 2 -307 81 -269 275c36 193 190 272 375 275l20 100h95l-20 -100c185 -3 307 -82 271 -275c-38 -194 -191 -273 -377 -275zM750 360c28 152 -71 193 -186 195l-75 -390c107 2 231 42 261 195zM209 360c-30 -153 69 -193 185 -195l75 390
c-109 -2 -232 -43 -260 -195z" />
    <glyph glyph-name="afii10039" unicode="&#x425;" horiz-adv-x="687" 
d="M134 0h-114l348 373l-177 347h103l134 -276l254 276h103l-317 -342l199 -378h-108l-153 303z" />
    <glyph glyph-name="afii10040" unicode="&#x426;" horiz-adv-x="738" 
d="M665 720h95l-123 -636h76l-54 -283h-95l39 199h-523l138 720h95l-123 -635h352z" />
    <glyph glyph-name="afii10041" unicode="&#x427;" horiz-adv-x="656" 
d="M714 720l-138 -720h-95l56 299c-81 -38 -148 -48 -212 -48c-184 0 -216 112 -183 284l36 185h95l-34 -176c-25 -129 -19 -211 115 -211c67 0 130 12 199 45l66 342h95z" />
    <glyph glyph-name="afii10042" unicode="&#x428;" horiz-adv-x="929" 
d="M892 720h95l-138 -720h-769l138 720h95l-123 -635h242l123 635h95l-123 -635h242z" />
    <glyph glyph-name="afii10043" unicode="&#x429;" horiz-adv-x="965" 
d="M987 720l-123 -636h76l-54 -283h-95l39 199h-750l138 720h95l-123 -635h242l123 635h95l-123 -635h242l123 635h95z" />
    <glyph glyph-name="afii10044" unicode="&#x42a;" horiz-adv-x="747" 
d="M413 720l-56 -290h153c179 0 254 -74 226 -219c-31 -165 -171 -211 -316 -211h-240l121 635h-160l17 85h255zM341 345l-51 -260h153c95 0 176 21 196 129c17 87 -30 131 -143 131h-155z" />
    <glyph glyph-name="afii10045" unicode="&#x42b;" horiz-adv-x="885" 
d="M805 0h-95l138 720h95zM218 720h95l-56 -290h163c179 0 254 -74 226 -219c-31 -165 -171 -211 -316 -211h-250zM241 345l-51 -260h163c95 0 176 21 196 129c17 87 -30 131 -143 131h-165z" />
    <glyph glyph-name="afii10046" unicode="&#x42c;" horiz-adv-x="657" 
d="M218 720h95l-56 -290h163c179 0 254 -74 226 -219c-31 -165 -171 -211 -316 -211h-250zM241 345l-51 -260h163c95 0 176 21 196 129c17 87 -30 131 -143 131h-165z" />
    <glyph glyph-name="afii10047" unicode="&#x42d;" horiz-adv-x="734" 
d="M336 325l17 85h307c13 142 -40 245 -174 245c-118 0 -202 -69 -242 -169l-92 19c58 139 186 230 350 230c220 0 290 -168 251 -375c-41 -207 -186 -375 -406 -375c-164 0 -251 94 -257 229l101 19c10 -101 63 -168 171 -168c148 0 244 110 282 260h-308z" />
    <glyph glyph-name="afii10048" unicode="&#x42e;" horiz-adv-x="1025" 
d="M175 0h-95l138 720h95l-60 -310h147c53 183 196 325 389 325c209 0 294 -168 255 -375c-41 -207 -191 -375 -400 -375c-198 0 -285 149 -262 340h-146zM489 360c-33 -167 20 -295 170 -295c139 0 252 128 285 295c31 167 -32 295 -171 295c-140 0 -253 -128 -284 -295z
" />
    <glyph glyph-name="afii10049" unicode="&#x42f;" horiz-adv-x="687" 
d="M745 720l-138 -720h-95l55 290h-93c-111 0 -175 -70 -250 -169l-90 -121h-124l128 167c49 62 106 124 183 145c-111 12 -166 87 -144 197c31 160 173 211 318 211h250zM584 375l49 260h-163c-95 0 -176 -31 -195 -129c-17 -87 31 -131 144 -131h165z" />
    <glyph glyph-name="a" unicode="a" horiz-adv-x="516" 
d="M382 64c-63 -58 -128 -79 -190 -79c-96 0 -168 46 -148 152c22 112 119 157 237 168c56 5 119 15 147 27l4 20c16 81 -30 111 -99 111c-65 0 -114 -36 -144 -104l-82 19c49 120 149 157 249 157c139 0 188 -70 163 -201l-44 -228c-11 -53 -7 -87 8 -106h-91
c-14 14 -12 39 -10 64zM391 140l24 123c-26 -11 -86 -22 -138 -30c-57 -9 -124 -21 -138 -92c-12 -66 32 -84 80 -84c67 0 138 48 172 83z" />
    <glyph glyph-name="b" unicode="b" horiz-adv-x="548" 
d="M198 720h90l-49 -255c38 42 88 70 150 70c144 0 201 -113 170 -275s-132 -275 -276 -275c-69 0 -110 36 -131 86l-12 -71h-80zM188 260c-26 -132 36 -200 105 -200c79 0 150 68 176 200s-20 200 -99 200s-156 -68 -182 -200z" />
    <glyph glyph-name="c" unicode="c" horiz-adv-x="513" 
d="M158 260c-27 -142 31 -200 110 -200c61 0 116 35 151 117l83 -20c-49 -109 -137 -172 -249 -172c-144 0 -218 103 -185 275c34 172 147 275 291 275c112 0 196 -59 182 -178h-85c8 83 -50 103 -111 103c-79 0 -159 -58 -187 -200z" />
    <glyph glyph-name="d" unicode="d" horiz-adv-x="538" 
d="M518 720h90l-138 -720h-80l12 71c-39 -50 -94 -86 -163 -86c-144 0 -201 113 -170 275s132 275 276 275c62 0 102 -28 124 -70zM440 260c26 132 -25 200 -104 200s-151 -68 -177 -200s21 -200 100 -200c69 0 155 68 181 200z" />
    <glyph glyph-name="e" unicode="e" horiz-adv-x="510" 
d="M516 158c-53 -116 -150 -173 -263 -173c-144 0 -218 103 -185 275c34 172 147 275 291 275c129 0 181 -83 181 -146c-1 -119 -99 -152 -206 -152h-180c-17 -125 44 -177 119 -177c61 0 128 38 161 116zM345 460c-62 0 -138 -45 -175 -151h177c64 0 104 18 106 77
c2 49 -51 74 -108 74z" />
    <glyph glyph-name="f" unicode="f" horiz-adv-x="322" 
d="M-70 -200l32 75c16 -5 24 -6 34 -6c56 0 82 52 92 105l92 477h-78l13 69h78l4 21c21 110 83 170 183 170c33 0 67 -8 82 -16l-31 -72c-13 6 -39 10 -55 10c-55 0 -81 -33 -92 -90l-4 -23h101l-13 -69h-101l-92 -479c-21 -106 -72 -182 -183 -182c-23 0 -42 4 -62 10z" />
    <glyph glyph-name="g" unicode="g" horiz-adv-x="528" 
d="M475 40c-24 -129 -91 -260 -274 -260c-92 0 -176 44 -170 130c4 51 42 95 111 98c-72 41 -97 133 -74 252c31 162 132 275 276 275c69 0 110 -36 131 -86l13 71h80zM439 260c26 132 -35 200 -104 200c-79 0 -151 -68 -177 -200s21 -200 100 -200s155 68 181 200zM238 -15
c-30 0 -56 5 -78 14c-19 -10 -45 -28 -47 -63c-4 -62 56 -80 102 -80c95 0 151 65 167 162l6 37c-38 -42 -88 -70 -150 -70z" />
    <glyph glyph-name="h" unicode="h" horiz-adv-x="545" 
d="M150 0h-90l138 720h90l-52 -271c40 57 100 86 172 86c144 0 161 -92 138 -216l-61 -319h-90l60 315c17 90 -1 144 -79 144c-82 0 -151 -62 -173 -176z" />
    <glyph glyph-name="i" unicode="i" horiz-adv-x="218" 
d="M269 619h-90l19 101h90zM150 0h-90l99 520h90z" />
    <glyph glyph-name="j" unicode="j" horiz-adv-x="222" 
d="M-90 -200l32 75c16 -5 24 -6 34 -6c56 0 72 52 82 105l105 546h90l-105 -548c-21 -106 -65 -182 -175 -182c-24 0 -43 4 -63 10zM273 619h-90l19 101h90z" />
    <glyph glyph-name="k" unicode="k" horiz-adv-x="517" 
d="M60 0l138 720h90l-82 -420h32c30 0 58 7 91 48c23 28 66 104 78 120c38 49 74 52 132 52h18l-16 -83h-25c-47 0 -55 -27 -77 -65c-36 -60 -70 -93 -111 -103l-1 -4c36 -9 69 -41 91 -92l63 -173h-105l-55 160c-18 47 -47 65 -87 65h-42l-42 -225h-90z" />
    <glyph glyph-name="l" unicode="l" horiz-adv-x="221" 
d="M150 0h-90l133 695l98 40z" />
    <glyph glyph-name="m" unicode="m" horiz-adv-x="832" 
d="M150 0h-90l99 520h81l-14 -74c48 64 105 89 174 89c76 0 120 -35 129 -96c47 69 114 96 179 96c107 0 151 -63 128 -179l-67 -356h-90l62 327c13 69 11 132 -66 132c-91 0 -142 -73 -158 -158l-57 -301h-90l64 337c15 78 -7 122 -68 122c-107 0 -147 -95 -165 -190z" />
    <glyph glyph-name="n" unicode="n" horiz-adv-x="545" 
d="M150 0h-90l99 520h81l-14 -75c50 64 110 90 182 90c144 0 161 -92 138 -216l-61 -319h-90l60 315c17 90 -1 144 -79 144c-82 0 -151 -62 -173 -176z" />
    <glyph glyph-name="o" unicode="o" horiz-adv-x="532" 
d="M68 260c34 172 152 275 296 275s224 -103 190 -275c-33 -172 -152 -275 -296 -275s-223 103 -190 275zM158 260c-27 -142 36 -200 115 -200s164 58 191 200c28 142 -35 200 -114 200s-164 -58 -192 -200z" />
    <glyph glyph-name="p" unicode="p" horiz-adv-x="547" 
d="M110 -200h-90l138 720h80l-13 -71c39 50 94 86 163 86c144 0 201 -113 170 -275s-132 -275 -276 -275c-62 0 -102 28 -124 70zM187 260c-26 -132 26 -200 105 -200s150 68 176 200s-20 200 -99 200c-69 0 -156 -68 -182 -200z" />
    <glyph glyph-name="q" unicode="q" horiz-adv-x="529" 
d="M431 -200h-90l48 255c-38 -42 -88 -70 -150 -70c-144 0 -201 113 -170 275s132 275 276 275c69 0 110 -36 131 -86l13 71h80zM440 260c26 132 -35 200 -104 200c-79 0 -151 -68 -177 -200s21 -200 100 -200s155 68 181 200z" />
    <glyph glyph-name="r" unicode="r" horiz-adv-x="412" 
d="M150 0h-90l99 520h81l-17 -90c46 70 97 105 162 105c40 0 66 -9 87 -28l-43 -79c-17 14 -33 22 -64 22c-86 0 -143 -68 -162 -169z" />
    <glyph glyph-name="s" unicode="s" horiz-adv-x="489" 
d="M62 150l90 13c-3 -55 23 -103 109 -103c51 0 120 17 131 75c8 40 -6 61 -57 75l-120 34c-65 19 -120 51 -104 137c22 109 124 154 231 154c124 0 182 -69 163 -158h-83c3 57 -29 83 -96 83c-65 0 -118 -27 -126 -69c-8 -35 22 -52 52 -60l132 -38c62 -18 118 -53 99 -150
c-22 -115 -136 -158 -240 -158c-127 0 -193 60 -181 165z" />
    <glyph glyph-name="t" unicode="t" horiz-adv-x="306" 
d="M270 76l-4 -76c-22 -6 -50 -10 -69 -10c-109 0 -110 60 -91 162l58 299h-74l13 69h74l26 137l98 43l-34 -180h89l-13 -69h-89l-58 -304c-9 -45 -16 -77 31 -77c10 0 25 1 43 6z" />
    <glyph glyph-name="u" unicode="u" horiz-adv-x="526" 
d="M476 520h90l-99 -520h-81l14 75c-49 -57 -111 -90 -183 -90c-144 0 -161 92 -137 216l61 319h90l-60 -315c-17 -90 -9 -144 69 -144c82 0 160 62 182 176z" />
    <glyph glyph-name="v" unicode="v" horiz-adv-x="495" 
d="M280 0h-82l-98 520h92l65 -416l228 416h90z" />
    <glyph glyph-name="w" unicode="w" horiz-adv-x="731" 
d="M247 0h-93l-58 520h91l34 -412l186 412h91l28 -401l196 401h85l-261 -520h-91l-25 399z" />
    <glyph glyph-name="x" unicode="x" horiz-adv-x="507" 
d="M114 0h-104l235 266l-124 254h103l84 -188l157 188h102l-224 -251l139 -269h-101l-97 200z" />
    <glyph glyph-name="y" unicode="y" horiz-adv-x="507" 
d="M0 -200l5 78c16 -6 43 -9 58 -9c39 0 80 21 111 73l36 63l-103 515h93l74 -405l225 405h88l-324 -576c-53 -91 -113 -154 -198 -154c-17 0 -48 3 -65 10z" />
    <glyph glyph-name="z" unicode="z" horiz-adv-x="482" 
d="M419 0h-389l14 75l358 370h-268l14 75h374l-14 -75l-363 -370h318z" />
    <glyph glyph-name="A" unicode="A" horiz-adv-x="675" 
d="M428 720h97l140 -720h-103l-32 175h-324l-99 -175h-97zM455 611l-201 -351h261z" />
    <glyph glyph-name="B" unicode="B" horiz-adv-x="674" 
d="M353 0h-273l138 720h259c146 0 241 -59 216 -187c-13 -68 -56 -131 -140 -157c81 -21 126 -83 110 -168c-30 -152 -147 -208 -310 -208zM296 635l-43 -225h155c83 0 168 23 184 111c20 98 -59 114 -153 114h-143zM236 325l-46 -240h178c98 0 175 25 194 123
c19 97 -68 117 -161 117h-165z" />
    <glyph glyph-name="C" unicode="C" horiz-adv-x="734" 
d="M219 360c-33 -167 15 -295 175 -295c108 0 189 67 237 168l93 -19c-58 -135 -181 -229 -345 -229c-220 0 -301 168 -260 375c39 207 185 375 405 375c164 0 278 -90 251 -239h-90c9 110 -59 159 -177 159c-150 0 -258 -128 -289 -295z" />
    <glyph glyph-name="D" unicode="D" horiz-adv-x="709" 
d="M315 0h-235l138 720h224c232 0 330 -126 286 -358c-44 -225 -181 -362 -413 -362zM296 635l-106 -551h130c176 0 274 92 310 279c39 204 -49 272 -207 272h-127z" />
    <glyph glyph-name="E" unicode="E" horiz-adv-x="657" 
d="M587 0h-507l138 720h497l-17 -85h-402l-43 -225h352l-17 -85h-352l-46 -240h412z" />
    <glyph glyph-name="F" unicode="F" horiz-adv-x="611" 
d="M175 0h-95l138 720h481l-17 -85h-386l-43 -225h336l-17 -85h-336z" />
    <glyph glyph-name="G" unicode="G" horiz-adv-x="760" 
d="M219 360c-33 -167 38 -295 198 -295c69 0 171 27 218 81l26 135h-213l16 84h305l-49 -253c-65 -72 -196 -127 -321 -127c-220 0 -321 168 -280 375c39 207 195 375 415 375c164 0 278 -90 251 -239h-90c19 117 -78 159 -179 159c-150 0 -266 -128 -297 -295z" />
    <glyph glyph-name="H" unicode="H" horiz-adv-x="722" 
d="M175 0h-95l138 720h95l-60 -310h372l60 310h95l-138 -720h-95l61 325h-372z" />
    <glyph glyph-name="I" unicode="I" horiz-adv-x="255" 
d="M175 0h-95l138 720h95z" />
    <glyph glyph-name="J" unicode="J" horiz-adv-x="516" 
d="M57 193l89 12c-12 -73 4 -140 89 -140c96 0 132 75 148 158l96 497h95l-96 -492c-30 -157 -120 -243 -258 -243c-131 0 -191 80 -163 208z" />
    <glyph glyph-name="K" unicode="K" horiz-adv-x="698" 
d="M175 0h-95l138 720h95l-71 -368l412 368h122l-359 -311l241 -409h-125l-195 342l-118 -104z" />
    <glyph glyph-name="L" unicode="L" horiz-adv-x="608" 
d="M578 0h-498l138 720h95l-123 -635h403z" />
    <glyph glyph-name="M" unicode="M" horiz-adv-x="863" 
d="M175 0h-95l138 720h139l99 -597l334 597h131l-138 -720h-95l114 598l-328 -598h-85l-100 598z" />
    <glyph glyph-name="N" unicode="N" horiz-adv-x="724" 
d="M171 0h-91l138 720h97l266 -566l110 566h91l-138 -720h-97l-268 566z" />
    <glyph glyph-name="O" unicode="O" horiz-adv-x="785" 
d="M119 360c39 207 195 375 415 375c219 0 309 -168 270 -375c-41 -207 -196 -375 -415 -375c-220 0 -311 168 -270 375zM219 360c-33 -167 25 -295 185 -295c149 0 267 128 300 295c31 167 -37 295 -186 295c-150 0 -268 -128 -299 -295z" />
    <glyph glyph-name="P" unicode="P" horiz-adv-x="657" 
d="M175 0h-95l138 720h250c145 0 268 -46 236 -211c-28 -145 -132 -219 -311 -219h-163zM296 635l-49 -260h165c113 0 177 44 194 131c20 108 -52 129 -147 129h-163z" />
    <glyph glyph-name="Q" unicode="Q" horiz-adv-x="785" 
d="M119 360c39 207 195 375 415 375c219 0 309 -168 270 -375c-22 -108 -75 -206 -150 -274l59 -86l-81 -59l-60 88c-53 -28 -116 -44 -183 -44c-220 0 -311 168 -270 375zM468 182l79 59l57 -84c49 52 84 123 100 203c31 167 -37 295 -186 295c-150 0 -268 -128 -299 -295
c-33 -167 25 -295 185 -295c44 0 86 11 122 31z" />
    <glyph glyph-name="R" unicode="R" horiz-adv-x="677" 
d="M80 0l138 720h240c145 0 267 -51 236 -211c-22 -110 -94 -173 -219 -194c69 -21 103 -86 126 -148l66 -167h-109l-46 121c-35 99 -73 169 -184 169h-98l-55 -290h-95zM296 635l-49 -260h155c113 0 177 44 194 131c19 98 -52 129 -147 129h-153z" />
    <glyph glyph-name="S" unicode="S" horiz-adv-x="665" 
d="M94 230l95 8c-14 -115 55 -173 168 -173c104 0 178 52 192 129c9 46 -6 84 -59 106c-34 15 -156 45 -196 59c-121 42 -129 104 -115 172c26 137 165 204 286 204c160 0 252 -74 223 -221h-91c13 92 -37 141 -144 141c-75 0 -165 -34 -182 -118c-7 -37 7 -68 45 -83
c31 -13 131 -43 197 -62c99 -30 160 -83 139 -193c-28 -147 -179 -214 -306 -214c-181 0 -273 82 -252 245z" />
    <glyph glyph-name="T" unicode="T" horiz-adv-x="619" 
d="M357 0h-95l121 635h-242l17 85h579l-17 -85h-242z" />
    <glyph glyph-name="U" unicode="U" horiz-adv-x="723" 
d="M604 297l82 423h95l-80 -418c-36 -185 -146 -317 -343 -317c-195 0 -256 132 -220 317l80 418h95l-82 -423c-26 -138 11 -227 144 -227s203 89 229 227z" />
    <glyph glyph-name="V" unicode="V" horiz-adv-x="675" 
d="M385 0h-97l-140 720h103l106 -611l349 611h97z" />
    <glyph glyph-name="W" unicode="W" horiz-adv-x="940" 
d="M293 0h-95l-50 720h97l27 -605l279 605h114l52 -605l255 605h96l-326 -720h-95l-57 628z" />
    <glyph glyph-name="X" unicode="X" horiz-adv-x="687" 
d="M134 0h-114l348 373l-177 347h103l134 -276l254 276h103l-317 -342l199 -378h-108l-153 303z" />
    <glyph glyph-name="Y" unicode="Y" horiz-adv-x="675" 
d="M385 0h-95l58 303l-200 417h115l152 -337l278 337h110l-360 -417z" />
    <glyph glyph-name="Z" unicode="Z" horiz-adv-x="672" 
d="M612 0h-552l15 85l534 550h-408l17 85h522l-17 -85l-539 -550h443z" />
    <glyph glyph-name="afii10068" unicode="&#x433;" horiz-adv-x="465" 
d="M457 150c-28 -105 -115 -165 -232 -165c-94 0 -190 43 -173 158c14 97 89 131 157 150l138 38c32 9 58 25 66 60c8 42 -25 69 -90 69c-57 0 -101 -30 -120 -87l-84 12c26 89 102 150 216 150c97 0 188 -45 166 -154c-16 -86 -78 -114 -151 -134l-124 -34
c-55 -15 -81 -38 -85 -78c-6 -58 52 -75 93 -75c76 0 120 48 139 103z" />
    <glyph glyph-name="zero" unicode="0" 
d="M114 360c43 217 137 375 306 375s203 -158 160 -375c-42 -217 -136 -375 -305 -375s-203 158 -161 375zM490 360c14 72 23 138 17 189l-287 -460c15 -19 38 -29 69 -29c109 0 169 133 201 300zM204 360c-13 -71 -23 -137 -18 -188l288 459c-15 19 -38 29 -68 29
c-109 0 -169 -133 -202 -300z" />
    <glyph glyph-name="one" unicode="1" 
d="M505 720l-139 -720h-95l107 555c-38 -57 -108 -105 -186 -105l16 85c105 10 193 103 223 185h74z" />
    <glyph glyph-name="two" unicode="2" 
d="M164 85h348l-16 -85h-460c30 171 151 229 288 322c99 67 168 130 182 200c15 76 -20 133 -104 133c-87 0 -147 -65 -165 -153l-88 10c34 136 135 223 270 223c132 0 203 -78 177 -215c-22 -109 -133 -202 -232 -264c-86 -54 -180 -112 -200 -171z" />
    <glyph glyph-name="three" unicode="3" 
d="M313 431h42c72 0 122 52 135 117s-22 110 -91 110c-82 0 -135 -62 -149 -135l-89 12c35 124 132 200 251 200s198 -61 173 -185c-15 -78 -69 -126 -137 -151c80 -24 116 -97 98 -192c-26 -130 -137 -222 -277 -222c-136 0 -212 80 -193 204l97 13
c-12 -77 23 -137 111 -137c91 0 155 64 170 145c16 81 -22 146 -113 146h-42z" />
    <glyph glyph-name="four" unicode="4" 
d="M424 0h-95l33 171h-299l16 85l405 464h79l-90 -464h97l-16 -85h-97zM170 256h208l60 309z" />
    <glyph glyph-name="five" unicode="5" 
d="M71 187l93 8c-5 -77 33 -130 112 -130c96 0 163 78 181 170c19 95 -22 160 -118 160c-57 0 -101 -22 -143 -67l-81 10l143 382h356l-16 -85h-285l-79 -205c47 35 97 45 144 45c138 0 202 -108 176 -240c-27 -139 -138 -250 -293 -250c-123 0 -205 76 -190 202z" />
    <glyph glyph-name="six" unicode="6" 
d="M595 557l-90 -10c-2 70 -32 108 -90 108c-135 0 -197 -164 -223 -286c54 77 120 98 185 98c139 0 198 -110 174 -235c-26 -131 -129 -247 -274 -247c-202 0 -212 173 -177 350c49 256 164 400 325 400c123 0 171 -68 170 -178zM178 226c-17 -89 25 -161 106 -161
c96 0 151 72 168 161c18 89 -9 161 -105 161c-76 0 -151 -72 -169 -161z" />
    <glyph glyph-name="seven" unicode="7" 
d="M514 635h-341l16 85h441l-16 -85c-180 -176 -310 -401 -368 -635h-96c46 218 195 466 364 635z" />
    <glyph glyph-name="eight" unicode="8" 
d="M83 200c19 95 84 167 173 199c-58 25 -92 73 -77 151c23 114 121 185 240 185s192 -71 169 -185c-15 -78 -67 -126 -135 -151c77 -32 115 -104 96 -199c-25 -130 -135 -215 -275 -215s-216 85 -191 215zM177 210c-15 -81 21 -145 112 -145s155 64 170 145
c16 81 -22 146 -113 146s-153 -65 -169 -146zM267 548c-13 -65 21 -117 93 -117s127 52 140 117s-22 117 -94 117s-126 -52 -139 -117z" />
    <glyph glyph-name="nine" unicode="9" 
d="M85 163l90 10c2 -70 42 -108 100 -108c135 0 188 168 214 290c-50 -61 -117 -92 -192 -92c-129 0 -190 109 -166 234c26 131 134 238 270 238c202 0 214 -173 179 -350c-49 -256 -157 -400 -318 -400c-123 0 -178 68 -177 178zM502 499c18 89 -25 156 -106 156
c-96 0 -155 -67 -173 -156c-17 -89 16 -156 112 -156c76 0 150 67 167 156z" />
    <glyph glyph-name="comma" unicode="," horiz-adv-x="246" 
d="M127 0h-51l19 100h100l-19 -100c-14 -71 -50 -118 -110 -142l-17 38c38 15 65 40 78 104z" />
    <glyph glyph-name="period" unicode="." horiz-adv-x="231" 
d="M161 0h-91l18 100h91z" />
    <glyph glyph-name="hyphen" unicode="-" horiz-adv-x="370" 
d="M362 217h-270l16 86h270z" />
    <glyph glyph-name="endash" unicode="&#x2013;" 
d="M559 225h-476l15 75h476z" />
    <glyph glyph-name="emdash" unicode="&#x2014;" horiz-adv-x="600" 
d="M643 225h-600l15 75h600z" />
    <glyph glyph-name="exclam" unicode="!" horiz-adv-x="239" 
d="M181 178h-56l83 542h99zM165 0h-91l18 100h91z" />
    <glyph glyph-name="question" unicode="?" 
d="M346 176h-85l5 27c16 81 52 140 127 185c50 30 100 78 112 139c18 94 -37 128 -109 128c-70 0 -133 -44 -162 -141l-84 10c38 132 140 211 260 211c138 0 215 -79 191 -202c-19 -98 -93 -149 -164 -200c-56 -40 -73 -73 -86 -130zM322 0h-100l19 100h100z" />
    <glyph glyph-name=".grave" horiz-adv-x="500" 
d="M4225 260c0 -142 69 -200 148 -200c61 0 110 35 129 117l87 -19c-28 -110 -104 -173 -216 -173c-144 0 -238 103 -238 275s94 275 238 275c112 0 188 -64 216 -173l-87 -20c-19 83 -68 118 -129 118c-69 0 -148 -58 -148 -200zM4511 260c0 31 -3 59 -9 82l-55 -12v-140
l55 -13c6 24 9 51 9 83zM4625 150v220l-36 -8c7 -31 12 -65 12 -102c0 -38 -5 -72 -12 -102z" />
    <glyph glyph-name="afii10065" unicode="&#x430;" horiz-adv-x="516" 
d="M382 64c-63 -58 -128 -79 -190 -79c-96 0 -168 46 -148 152c22 112 119 157 237 168c56 5 119 15 147 27l4 20c16 81 -30 111 -99 111c-65 0 -114 -36 -144 -104l-82 19c49 120 149 157 249 157c139 0 188 -70 163 -201l-44 -228c-11 -53 -7 -87 8 -106h-91
c-14 14 -12 39 -10 64zM391 140l24 123c-26 -11 -86 -22 -138 -30c-57 -9 -124 -21 -138 -92c-12 -66 32 -84 80 -84c67 0 138 48 172 83z" />
    <glyph glyph-name="afii10066" unicode="&#x431;" horiz-adv-x="537" 
d="M637 730l-28 -89c-17 -15 -51 -18 -73 -20l-130 -10c-132 -10 -195 -115 -215 -185c56 72 129 94 199 94c134 0 204 -98 172 -263c-32 -170 -154 -272 -295 -272c-138 0 -229 85 -185 315c28 142 106 377 329 396l152 13c29 3 58 8 74 21zM166 253
c-28 -142 39 -193 116 -193s162 51 190 193c27 142 -39 192 -116 192c-67 0 -163 -50 -190 -192z" />
    <glyph glyph-name="afii10067" unicode="&#x432;" horiz-adv-x="464" 
d="M492 388c-6 -49 -36 -97 -96 -116c62 -20 79 -82 68 -134c-18 -85 -97 -153 -213 -153c-180 0 -213 136 -178 291c38 167 125 259 262 259c87 0 169 -47 157 -147zM405 380c9 56 -38 80 -83 80c-46 0 -119 -33 -149 -144l-3 -11h103c57 0 121 5 132 75zM374 142
c9 50 -6 88 -94 88h-126l-2 -12c-21 -125 39 -158 109 -158c57 0 104 33 113 82z" />
    <glyph glyph-name="periodcentered" unicode="&#xb7;" horiz-adv-x="231" 
d="M202 212h-91l19 100h91z" />
    <glyph glyph-name="afii10071" unicode="&#x451;" horiz-adv-x="510" 
d="M516 158c-53 -116 -150 -173 -263 -173c-144 0 -218 103 -185 275c34 172 147 275 291 275c129 0 181 -83 181 -146c-1 -119 -99 -152 -206 -152h-180c-17 -125 44 -177 119 -177c61 0 128 38 161 116zM345 460c-62 0 -138 -45 -175 -151h177c64 0 104 18 106 77
c2 49 -51 74 -108 74zM321 620h-91l18 100h91zM521 620h-91l18 100h91z" />
    <glyph glyph-name="afii10023" unicode="&#x401;" horiz-adv-x="657" 
d="M587 0h-507l138 720h497l-17 -85h-402l-43 -225h352l-17 -85h-352l-46 -240h412zM417 820h-91l18 100h91zM617 820h-91l18 100h91z" />
    <glyph glyph-name="underscore" unicode="_" horiz-adv-x="696" 
d="M626 0h-556l14 75h556z" />
    <glyph glyph-name="colon" unicode=":" horiz-adv-x="231" 
d="M227 342h-91l19 100h91zM176 82h-91l20 100h91z" />
    <glyph glyph-name="ellipsis" unicode="&#x2026;" horiz-adv-x="571" 
d="M161 0h-91l19 100h91zM331 0h-91l19 100h91zM501 0h-91l19 100h91z" />
    <glyph glyph-name="plus" unicode="+" 
d="M378 325l-41 -211h-75l41 211h-190l14 75h190l41 210h75l-41 -210h191l-14 -75h-191z" />
    <glyph glyph-name="equal" unicode="=" 
d="M553 245h-456l15 75h456zM584 405h-456l15 75h456z" />
    <glyph glyph-name="quotedbl" unicode="&#x22;" horiz-adv-x="399" 
d="M241 482h-56l24 238h99zM401 482h-56l24 238h99z" />
    <glyph glyph-name="quotesingle" unicode="'" horiz-adv-x="239" 
d="M241 482h-56l24 238h99z" />
    <glyph glyph-name="bar" unicode="|" horiz-adv-x="255" 
d="M235 -100h-95v920h95v-920z" />
    <glyph glyph-name="brokenbar" unicode="&#xa6;" horiz-adv-x="255" 
d="M235 -100h-95v425h95v-425zM140 410v410h95v-410h-95z" />
    <glyph glyph-name="bracketleft" unicode="[" horiz-adv-x="337" 
d="M277 -100h-217l179 920h217l-17 -85h-122l-145 -750h122z" />
    <glyph glyph-name="bracketright" unicode="]" horiz-adv-x="337" 
d="M237 -100h-217l17 85h122l145 750h-122l17 85h217z" />
    <glyph glyph-name="slash" unicode="/" horiz-adv-x="336" 
d="M69 -100h-88l424 920h90z" />
    <glyph glyph-name="backslash" unicode="\" horiz-adv-x="336" 
d="M316 -100h-89l-68 920h90z" />
    <glyph glyph-name="semicolon" unicode=";" horiz-adv-x="231" 
d="M227 342h-91l19 100h91zM121 0h-51l19 100h100l-19 -100c-14 -71 -50 -118 -110 -142l-17 38c38 15 65 40 78 104z" />
    <glyph glyph-name="quotesinglbase" unicode="&#x201a;" horiz-adv-x="246" 
d="M127 0h-51l19 100h100l-19 -100c-14 -71 -50 -118 -110 -142l-17 38c38 15 65 40 78 104z" />
    <glyph glyph-name="quotedblbase" unicode="&#x201e;" horiz-adv-x="396" 
d="M127 0h-51l19 100h100l-19 -100c-14 -71 -50 -118 -110 -142l-17 38c38 15 65 40 78 104zM277 0h-51l19 100h100l-19 -100c-14 -71 -50 -118 -110 -142l-17 38c38 15 65 40 78 104z" />
    <glyph glyph-name="quotedblright" unicode="&#x201d;" horiz-adv-x="396" 
d="M247 620h-51l19 100h100l-19 -100c-14 -71 -50 -118 -110 -142l-16 38c38 15 65 40 77 104zM397 620h-51l19 100h100l-19 -100c-14 -71 -50 -118 -110 -142l-16 38c38 15 65 40 77 104z" />
    <glyph glyph-name="quotedblleft" unicode="&#x201c;" horiz-adv-x="396" 
d="M384 593h51l-20 -100h-100l20 100c14 71 50 118 109 142l17 -38c-38 -15 -65 -40 -77 -104zM234 593h51l-20 -100h-100l20 100c14 71 50 118 109 142l17 -38c-38 -15 -65 -40 -77 -104z" />
    <glyph glyph-name="quoteleft" unicode="&#x2018;" horiz-adv-x="246" 
d="M239 593h51l-19 -100h-100l19 100c14 71 50 118 110 142l16 -38c-38 -15 -65 -40 -77 -104z" />
    <glyph glyph-name="quoteright" unicode="&#x2019;" horiz-adv-x="246" 
d="M127 620h-51v100h100v-100c0 -71 -27 -118 -82 -142l-24 38c35 15 57 40 57 104z" />
    <glyph glyph-name="numbersign" unicode="#" 
d="M309 0h-89l98 205h-91l-98 -205h-89l98 205h-99l35 75h100l79 165h-103l35 75h104l96 200h90l-96 -200h90l96 200h90l-96 -200h98l-35 -75h-99l-80 -165h103l-35 -75h-104zM343 445l-80 -165h91l79 165h-90z" />
    <glyph glyph-name="guillemotright" unicode="&#xbb;" horiz-adv-x="411" 
d="M199 432l83 -169l-148 -169h-76l127 169l-62 169h76zM339 432l83 -169l-148 -169h-76l127 169l-62 169h76z" />
    <glyph glyph-name="guillemotleft" unicode="&#xab;" horiz-adv-x="411" 
d="M231 263l147 169h76l-126 -169l61 -169h-76zM91 263l147 169h76l-126 -169l61 -169h-76z" />
    <glyph glyph-name="guilsinglleft" unicode="&#x2039;" horiz-adv-x="301" 
d="M91 263l167 169h86l-166 -169l101 -169h-86z" />
    <glyph glyph-name="guilsinglright" unicode="&#x203a;" horiz-adv-x="301" 
d="M209 432l103 -169l-168 -169h-86l167 169l-102 169h86z" />
    <glyph glyph-name="less" unicode="&#x3c;" 
d="M151 301l19 97l424 229l-19 -98l-335 -177l266 -179l-20 -101z" />
    <glyph glyph-name="greater" unicode="&#x3e;" 
d="M550 398l-19 -97l-425 -229l20 101l336 179l-267 177l19 98z" />
    <glyph glyph-name="dollar" unicode="$" 
d="M378 732l17 88h75l-17 -88c103 -15 156 -85 139 -218c-32 -2 -65 -5 -97 -7c7 77 -4 129 -58 144l-46 -239c113 -30 186 -91 162 -213c-25 -127 -125 -207 -245 -213l-17 -86h-75l17 89c-125 19 -166 105 -151 231c32 3 64 5 96 8c-12 -90 15 -139 71 -156l53 268
c-140 42 -146 119 -132 191c23 122 116 188 208 201zM455 194c11 56 -9 97 -61 119c-7 3 -15 5 -21 8l-50 -255c65 7 117 49 132 128zM263 537c-9 -48 10 -82 57 -102l42 216c-48 -12 -86 -47 -99 -114z" />
    <glyph glyph-name="Euro" unicode="&#x20ac;" 
d="M422 395h-155l-7 -35l-5 -30h155l-15 -75h-152c-13 -114 2 -192 87 -192c79 0 118 68 151 168l89 -18c-53 -138 -127 -228 -255 -228c-141 0 -181 109 -166 270h-100l15 75h95l5 30l7 35h-95l15 75h100c49 158 130 265 269 265c128 0 169 -91 167 -230l-96 -19
c6 102 -7 171 -86 171c-84 0 -129 -77 -159 -187h151z" />
    <glyph glyph-name="asciicircum" unicode="^" 
d="M368 720h97l91 -249l-101 -1l-54 171l-122 -171h-98z" />
    <glyph glyph-name="braceright" unicode="}" horiz-adv-x="319" 
d="M186 755l12 59c12 5 25 10 49 10c112 0 127 -76 106 -182l-32 -165c-13 -67 18 -90 53 -90l-12 -60c-35 0 -74 -23 -87 -90l-33 -165c-20 -106 -65 -182 -177 -182c-24 0 -35 5 -45 10l12 59h36c58 0 73 52 83 105l37 193c13 63 57 87 90 100c-28 13 -63 37 -51 100
l38 193c10 53 15 105 -43 105h-36z" />
    <glyph glyph-name="braceleft" unicode="{" horiz-adv-x="319" 
d="M437 814l-12 -59h-36c-58 0 -73 -52 -83 -105l-38 -193c-12 -63 -57 -87 -89 -100c27 -13 63 -37 50 -100l-37 -193c-10 -53 -15 -105 43 -105h36l-12 -59c-12 -5 -25 -10 -49 -10c-112 0 -127 76 -107 182l33 165c13 67 -18 90 -53 90l12 60c35 0 74 23 87 90l32 165
c21 106 66 182 178 182c24 0 35 -5 45 -10z" />
    <glyph glyph-name="ampersand" unicode="&#x26;" horiz-adv-x="633" 
d="M613 0h-118c-15 20 -29 39 -43 59c-56 -46 -123 -74 -197 -74c-149 0 -202 86 -182 189c18 91 87 144 160 185c-1 2 -69 72 -46 191c25 125 126 185 231 185c145 0 169 -98 154 -175s-75 -144 -195 -208c-3 -2 -8 -4 -11 -6c34 -49 69 -97 103 -146c26 45 43 97 53 147
h89c-11 -77 -44 -154 -91 -217c29 -44 62 -87 93 -130zM319 414l5 -8c99 53 145 90 157 154c9 44 -9 95 -78 95c-72 0 -115 -55 -125 -105c-11 -60 8 -90 41 -136zM168 174c-13 -69 32 -109 95 -109c58 0 106 21 144 55c-43 59 -86 119 -129 178c-58 -35 -100 -72 -110 -124
z" />
    <glyph glyph-name="parenleft" unicode="(" horiz-adv-x="311" 
d="M119 360c33 169 139 336 268 460h63c-125 -150 -200 -279 -236 -460c-35 -181 -10 -310 57 -460h-63c-81 124 -121 291 -89 460z" />
    <glyph glyph-name="parenright" unicode=")" horiz-adv-x="311" 
d="M330 360c-32 -169 -138 -336 -267 -460h-63c125 150 200 279 235 460c36 181 11 310 -56 460h63c81 -124 121 -291 88 -460z" />
    <glyph glyph-name="degree" unicode="&#xb0;" horiz-adv-x="360" 
d="M160 605c0 71 59 130 130 130c72 0 130 -59 130 -130c0 -72 -58 -130 -130 -130c-71 0 -130 58 -130 130zM222 605c0 -38 31 -68 68 -68c38 0 67 30 67 68c0 37 -29 67 -67 67c-37 0 -68 -30 -68 -67z" />
    <glyph glyph-name="copyright" unicode="&#xa9;" horiz-adv-x="590" 
d="M85 260c0 162 108 275 260 275s260 -113 260 -275s-108 -275 -260 -275s-260 113 -260 275zM161 260c0 -113 65 -205 184 -205s184 92 184 205s-65 205 -184 205s-184 -92 -184 -205zM278 260c0 -51 24 -87 67 -87c32 0 53 20 61 51l65 -13c-15 -69 -58 -104 -126 -104
c-86 0 -133 72 -133 153s47 152 133 152c68 0 111 -35 126 -103l-65 -13c-9 30 -30 50 -61 50c-43 0 -67 -36 -67 -86z" />
    <glyph glyph-name="registered" unicode="&#xae;" horiz-adv-x="590" 
d="M85 260c0 162 108 275 260 275s260 -113 260 -275s-108 -275 -260 -275s-260 113 -260 275zM242 123v288h96c58 0 111 -18 111 -84c0 -44 -28 -70 -66 -78c31 -8 46 -34 59 -59l35 -67h-71l-23 48c-20 41 -34 58 -71 58h-7v-106h-63zM305 357v-74h32c35 0 48 15 48 39
c0 28 -21 35 -49 35h-31zM161 260c0 -113 65 -205 184 -205s184 92 184 205s-65 205 -184 205s-184 -92 -184 -205z" />
    <glyph glyph-name="trademark" unicode="&#x2122;" horiz-adv-x="642" 
d="M432 432h-68l44 224h-87l-44 -224h-68l44 224h-96l12 64h357l22 -199l101 199h102l-56 -288h-68l41 209l-106 -209h-64l-25 209z" />
    <glyph glyph-name="asterisk" unicode="*" horiz-adv-x="417" 
d="M340 735l-12 -118c36 15 73 31 109 46c8 -26 17 -52 25 -78c-39 -8 -77 -17 -116 -25c26 -30 52 -59 78 -89l-66 -48l-60 102l-62 -101l-66 48c26 29 52 59 78 88c-38 9 -75 18 -113 27c8 26 17 52 25 78l108 -48c-3 39 -7 79 -10 118h82z" />
    <glyph glyph-name="plusminus" unicode="&#xb1;" 
d="M395 415l-31 -161h-75l31 161h-190l15 75h190l37 190h75l-37 -190h191l-15 -75h-191zM528 115h-456l14 75h456z" />
    <glyph glyph-name="asciitilde" unicode="~" horiz-adv-x="526" 
d="M86 290l19 100c46 40 99 60 147 60c89 0 109 -90 178 -90c58 0 103 30 149 70l-19 -100c-46 -40 -99 -60 -147 -60c-89 0 -110 90 -179 90c-58 0 -102 -30 -148 -70z" />
    <glyph glyph-name="grave" unicode="`" horiz-adv-x="284" 
d="M248 720l76 -187h-71l-123 187h118z" />
    <glyph glyph-name="percent" horiz-adv-x="772" 
d="M148 0h89l526 720h-90zM148 560c20 103 92 165 178 165s134 -62 114 -165s-92 -165 -178 -165s-134 62 -114 165zM225 560c-12 -64 17 -90 52 -90s74 26 86 90c13 64 -16 90 -51 90c-31 0 -74 -26 -87 -90zM471 160c20 103 92 165 178 165s134 -62 114 -165
s-92 -165 -178 -165s-134 62 -114 165zM548 160c-13 -64 16 -90 51 -90s74 26 87 90c12 64 -17 90 -52 90c-31 0 -74 -26 -86 -90z" />
    <glyph glyph-name="dagger" unicode="&#x2020;" horiz-adv-x="364" 
d="M143 535l15 75h97l21 110h90l-21 -110h97l-15 -75h-97l-45 -235h-90l45 235h-97z" />
    <glyph glyph-name="daggerdbl" unicode="&#x2021;" horiz-adv-x="364" 
d="M416 475l-15 -75h-97l-19 -100h-90l19 100h-97l15 75h97l13 70h-97l15 75h97l19 100h90l-19 -100h97l-15 -75h-97l-13 -70h97z" />
    <glyph glyph-name="bullet" unicode="&#x2022;" horiz-adv-x="388" 
d="M130 351c0 34 12 63 36 87s53 36 88 36s64 -12 88 -36s36 -53 36 -87c0 -35 -12 -64 -36 -88s-53 -36 -88 -36s-64 12 -88 36s-36 53 -36 88z" />
    <glyph glyph-name="paragraph" unicode="&#xb6;" 
d="M271 -100h-80l100 516c-116 3 -182 82 -159 198c27 139 137 206 271 206h300l-17 -85h-81l-162 -835h-83l162 835h-89z" />
    <glyph glyph-name="afii61352" unicode="&#x2116;" horiz-adv-x="1034" 
d="M801 460c20 103 92 165 178 165s134 -62 114 -165s-92 -165 -178 -165s-134 62 -114 165zM878 460c-13 -64 16 -90 51 -90s74 26 87 90c12 64 -17 90 -52 90c-31 0 -74 -26 -86 -90zM1036 165h-292l14 75h292zM171 0h-91l139 720h97l266 -566l110 566h91l-139 -720h-97
l-266 566z" />
    <glyph glyph-name="at" unicode="@" horiz-adv-x="745" 
d="M622 455l-50 -256c-1 -7 -16 -74 23 -74c41 0 68 73 84 155c32 167 -40 275 -199 275c-150 0 -277 -128 -310 -295c-32 -167 36 -295 206 -295c51 0 110 15 155 51l55 -52c-62 -52 -156 -74 -225 -74c-220 0 -316 163 -276 370s200 370 410 370c209 0 309 -143 269 -350
c-20 -101 -79 -226 -182 -226c-43 0 -81 33 -80 74l-16 -22c-28 -31 -66 -52 -113 -52c-108 0 -151 84 -127 206c24 121 99 206 207 206c52 0 83 -27 99 -64l10 53h60zM513 260c17 89 -23 135 -70 135c-53 0 -102 -46 -119 -135s14 -135 67 -135s105 46 122 135z" />
    <glyph glyph-name="perthousand" unicode="&#x2030;" horiz-adv-x="1112" 
d="M148 0h89l526 720h-90zM148 560c20 103 92 165 178 165s134 -62 114 -165s-92 -165 -178 -165s-134 62 -114 165zM225 560c-12 -64 17 -90 52 -90s74 26 86 90c13 64 -16 90 -51 90c-31 0 -74 -26 -87 -90zM471 160c20 103 92 165 178 165s134 -62 114 -165
s-92 -165 -178 -165s-134 62 -114 165zM548 160c-13 -64 16 -90 51 -90s74 26 87 90c12 64 -17 90 -52 90c-31 0 -74 -26 -86 -90zM811 160c20 103 92 165 178 165s134 -62 114 -165s-92 -165 -178 -165s-134 62 -114 165zM888 160c-13 -64 16 -90 51 -90s74 26 87 90
c12 64 -17 90 -52 90c-31 0 -74 -26 -86 -90z" />
    <glyph glyph-name="section" unicode="&#xa7;" horiz-adv-x="493" 
d="M64 150l89 13c-3 -55 23 -103 109 -103c51 0 120 15 131 73c8 37 -8 48 -59 62l-120 34c-65 19 -118 61 -101 147c9 47 48 86 79 101c-33 19 -49 57 -40 104c22 109 124 154 231 154c124 0 178 -61 168 -150l-88 -12c3 57 -29 87 -96 87c-75 0 -118 -27 -127 -69
c-6 -35 24 -46 54 -55l132 -41c69 -21 116 -61 99 -148c-8 -43 -41 -84 -68 -100c24 -19 38 -56 28 -104c-22 -115 -136 -158 -240 -158c-127 0 -194 60 -181 165zM201 386c-7 -35 20 -62 50 -70c134 -39 137 -40 139 -40c20 11 37 29 42 54c7 40 -5 71 -55 85l-114 32
c-36 -11 -57 -33 -62 -61z" />
    <glyph glyph-name="currency" unicode="&#xa4;" 
d="M475 137l-55 69c-33 -20 -70 -31 -107 -31c-38 0 -71 11 -96 31l-82 -69l-43 53l85 72c-10 27 -12 60 -5 98c8 38 23 71 44 98l-57 73l63 53l55 -70c32 20 69 31 107 31c37 0 70 -11 95 -31l83 70l43 -53l-86 -73c10 -27 13 -60 5 -98c-7 -38 -22 -71 -43 -98l57 -72z
M249 360c-14 -74 23 -110 78 -110s106 36 120 110c15 74 -22 110 -77 110c-51 0 -106 -36 -121 -110z" />
    <glyph glyph-name="afii10085" unicode="&#x443;" horiz-adv-x="507" 
d="M0 -200l5 78c16 -6 43 -9 58 -9c39 0 80 21 111 73l36 63l-103 515h93l74 -405l225 405h88l-324 -576c-53 -91 -113 -154 -198 -154c-17 0 -48 3 -65 10z" />
    <glyph glyph-name="afii10102" unicode="&#x455;" horiz-adv-x="489" 
d="M62 150l90 13c-3 -55 23 -103 109 -103c51 0 120 17 131 75c8 40 -6 61 -57 75l-120 34c-65 19 -120 51 -104 137c22 109 124 154 231 154c124 0 182 -69 163 -158h-83c3 57 -29 83 -96 83c-65 0 -118 -27 -126 -69c-8 -35 22 -52 52 -60l132 -38c62 -18 118 -53 99 -150
c-22 -115 -136 -158 -240 -158c-127 0 -193 60 -181 165z" />
    <glyph glyph-name="afii10054" unicode="&#x405;" horiz-adv-x="665" 
d="M94 230l95 8c-14 -115 55 -173 168 -173c104 0 178 52 192 129c9 46 -6 84 -59 106c-34 15 -156 45 -196 59c-121 42 -129 104 -115 172c26 137 165 204 286 204c160 0 252 -74 223 -221h-91c13 92 -37 141 -144 141c-75 0 -165 -34 -182 -118c-7 -37 7 -68 45 -83
c31 -13 131 -43 197 -62c99 -30 160 -83 139 -193c-28 -147 -179 -214 -306 -214c-181 0 -273 82 -252 245z" />
    <glyph glyph-name="afii10105" unicode="&#x458;" horiz-adv-x="222" 
d="M-90 -200l32 75c16 -5 24 -6 34 -6c56 0 72 52 82 105l105 546h90l-105 -548c-21 -106 -65 -182 -175 -182c-24 0 -43 4 -63 10zM273 619h-90l19 101h90z" />
    <glyph glyph-name="afii10103" unicode="&#x456;" horiz-adv-x="218" 
d="M269 619h-90l19 101h90zM150 0h-90l99 520h90z" />
    <glyph glyph-name="uni0406" unicode="&#x406;" horiz-adv-x="255" 
d="M175 0h-95l138 720h95z" />
    <glyph glyph-name="afii10057" unicode="&#x408;" horiz-adv-x="516" 
d="M57 193l89 12c-12 -73 4 -140 89 -140c96 0 132 75 148 158l96 497h95l-96 -492c-30 -157 -120 -243 -258 -243c-131 0 -191 80 -163 208z" />
    <glyph glyph-name="afii10104" unicode="&#x457;" horiz-adv-x="218" 
d="M199 619h-90l19 101h90zM150 0h-90l99 520h90zM339 619h-90l19 101h90z" />
    <glyph glyph-name="afii10106" unicode="&#x459;" horiz-adv-x="758" 
d="M162 307l41 213h326l-53 -232c32 32 73 52 127 52c91 0 183 -65 161 -186c-22 -120 -129 -169 -222 -169h-17c-85 0 -184 78 -153 239l50 221h-143l-30 -158c-26 -130 -59 -302 -192 -302c-29 0 -50 10 -57 15l14 79c10 -6 23 -11 37 -11c69 -1 93 146 111 239zM672 152
c13 62 -17 121 -92 121c-37 0 -78 -15 -116 -43l-5 -25c-19 -104 38 -148 97 -148c53 0 103 35 116 95z" />
    <glyph glyph-name="afii10107" unicode="&#x45a;" horiz-adv-x="753" 
d="M384 300l50 220h90l-53 -232c32 32 73 52 127 52c91 0 183 -65 161 -186c-22 -120 -129 -169 -222 -169h-17c-85 0 -187 82 -153 240h-175l-42 -225h-90l99 520h90l-43 -220h178zM667 152c13 62 -17 121 -92 121c-37 0 -78 -15 -116 -43l-5 -25c-19 -104 38 -148 97 -148
c53 0 103 35 116 95z" />
    <glyph glyph-name="afii10101" unicode="&#x454;" horiz-adv-x="513" 
d="M345 460c-71 0 -143 -47 -177 -160h191l-14 -75h-192c-12 -117 43 -165 115 -165c61 0 116 35 151 117l83 -20c-49 -109 -137 -172 -249 -172c-144 0 -218 103 -185 275c34 172 147 275 291 275c112 0 196 -59 182 -178h-85c8 83 -50 103 -111 103z" />
    <glyph glyph-name="afii10053" unicode="&#x404;" horiz-adv-x="734" 
d="M508 655c-135 0 -236 -103 -277 -245h304l-17 -85h-305c-20 -150 32 -260 181 -260c108 0 189 67 237 168l93 -19c-58 -135 -181 -229 -345 -229c-220 0 -301 168 -260 375c39 207 185 375 405 375c164 0 278 -90 251 -239h-90c9 110 -59 159 -177 159z" />
    <glyph glyph-name="afii10145" unicode="&#x40f;" horiz-adv-x="712" 
d="M676 720h95l-139 -720h-228l-39 -199h-95l39 199h-229l139 720h95l-123 -635h362z" />
    <glyph glyph-name="afii10059" unicode="&#x40a;" horiz-adv-x="1064" 
d="M646 720h95l-56 -290h143c179 0 255 -74 227 -219c-33 -165 -173 -211 -318 -211h-230l63 325h-332l-63 -325h-95l139 720h95l-60 -310h332zM669 345l-51 -260h143c95 0 175 21 196 129c17 87 -30 131 -143 131h-145z" />
    <glyph glyph-name="afii10058" unicode="&#x409;" horiz-adv-x="1068" 
d="M227 412l59 308h459l-56 -290h143c179 0 255 -74 227 -219c-33 -165 -173 -211 -318 -211h-230l123 635h-269l-34 -172c-43 -222 -66 -478 -249 -478c-31 0 -50 7 -67 15l12 92c11 -7 25 -17 50 -17c95 0 118 174 150 337zM673 345l-51 -260h143c95 0 175 21 196 129
c17 87 -30 131 -143 131h-145z" />
    <glyph glyph-name="afii10056" unicode="&#x407;" horiz-adv-x="255" 
d="M175 0h-95l139 720h95zM257 819h-90l19 101h90zM407 819h-90l19 101h90z" />
    <glyph glyph-name="afii10050" unicode="&#x490;" horiz-adv-x="553" 
d="M80 0l139 720h358l26 130h95l-42 -215h-358l-123 -635h-95z" />
    <glyph glyph-name="afii10062" unicode="&#x40e;" horiz-adv-x="650" 
d="M335 196l-187 524h102l150 -425l279 425h99l-376 -561c-66 -99 -111 -174 -222 -174c-25 0 -70 8 -90 41l47 71c15 -13 30 -28 59 -28c40 0 69 20 105 75zM604 920h70c-16 -85 -88 -167 -208 -167s-156 83 -140 167h70c-5 -50 18 -86 86 -86s107 36 122 86z" />
    <glyph glyph-name="afii10110" unicode="&#x45e;" horiz-adv-x="507" 
d="M0 -200l5 78c16 -6 43 -9 58 -9c39 0 80 21 111 73l36 63l-103 515h93l74 -405l225 405h88l-324 -576c-53 -91 -113 -154 -198 -154c-17 0 -48 3 -65 10zM469 720h60c-17 -85 -74 -147 -174 -147s-130 63 -114 147h60c-5 -50 20 -76 68 -76s85 26 100 76z" />
    <glyph glyph-name="afii10052" unicode="&#x403;" horiz-adv-x="553" 
d="M80 0l138 720h453l-17 -85h-358l-121 -635h-95zM648 990l-174 -187h-71l127 187h118z" />
    <glyph glyph-name="afii10061" unicode="&#x40c;" horiz-adv-x="670" 
d="M80 0l138 720h95l-60 -310h54c46 0 78 9 112 54l115 147c65 84 101 109 163 109h47l-17 -87h-16c-33 0 -66 -4 -111 -63l-81 -107c-21 -28 -66 -84 -113 -95c50 -7 94 -57 125 -130l99 -238h-112l-75 194c-42 102 -79 131 -166 131h-41l-61 -325h-95zM658 990l-174 -187
h-71l127 187h118z" />
    <glyph glyph-name="afii10109" unicode="&#x45c;" horiz-adv-x="517" 
d="M60 0l99 520h90l-43 -220h32c30 0 55 7 88 48c23 28 66 104 78 120c38 49 77 52 135 52h18l-16 -83h-25c-47 0 -55 -27 -77 -65c-36 -60 -70 -93 -111 -103l-1 -4c36 -9 69 -41 91 -92l63 -173h-105l-55 160c-18 47 -47 65 -87 65h-42l-42 -225h-90zM538 790l-174 -187
h-71l127 187h118z" />
    <glyph glyph-name="afii10100" unicode="&#x453;" horiz-adv-x="465" 
d="M457 150c-28 -105 -115 -165 -232 -165c-94 0 -190 43 -173 158c14 97 89 131 157 150l138 38c32 9 58 25 66 60c8 42 -25 69 -90 69c-57 0 -101 -30 -120 -87l-84 12c26 89 102 150 216 150c97 0 188 -45 166 -154c-16 -86 -78 -114 -151 -134l-124 -34
c-55 -15 -81 -38 -85 -78c-6 -58 52 -75 93 -75c76 0 120 48 139 103zM538 790l-174 -187h-71l127 187h118z" />
    <glyph glyph-name="afii10193" unicode="&#x45f;" horiz-adv-x="526" 
d="M476 520h90l-99 -520h-81l14 75c-35 -40 -76 -69 -122 -81l-27 -144h-90l25 137c-116 12 -128 99 -106 214l61 319h90l-60 -315c-17 -90 -9 -144 69 -144c82 0 160 62 182 176z" />
    <glyph glyph-name="afii10098" unicode="&#x491;" horiz-adv-x="465" 
d="M176 640h86l-29 -132c27 20 64 27 102 27c97 0 185 -49 166 -154c-16 -86 -78 -114 -151 -134l-124 -34c-55 -15 -81 -38 -85 -78c-6 -58 52 -75 93 -75c76 0 120 48 139 103l84 -13c-28 -105 -115 -165 -232 -165c-94 0 -190 43 -173 158c14 97 89 131 157 150l138 38
c32 9 58 25 66 60c8 42 -25 69 -90 69c-57 0 -101 -30 -120 -87h-86z" />
    <glyph glyph-name="afii10060" unicode="&#x40b;" horiz-adv-x="748" 
d="M357 0h-95l121 635h-242l17 85h579l-17 -85h-242l-49 -260c40 56 100 85 172 85c144 0 161 -92 138 -216l-47 -244h-90l46 240c17 90 -1 144 -79 144c-76 0 -148 -51 -167 -150z" />
    <glyph glyph-name="afii10051" unicode="&#x402;" horiz-adv-x="748" 
d="M486 -5l32 75c16 -5 24 -6 34 -6c56 0 72 52 82 105l14 71c18 90 -1 144 -79 144c-76 0 -148 -51 -167 -150l-45 -234h-95l121 635h-242l17 85h579l-17 -85h-242l-49 -260c40 56 100 85 172 85c144 0 162 -92 138 -216l-15 -77c-21 -106 -65 -182 -175 -182
c-24 0 -43 4 -63 10z" />
    <glyph glyph-name="afii10108" unicode="&#x45b;" horiz-adv-x="584" 
d="M184 0h-90l101 520h-74l13 69h74l20 103l98 43l-28 -146h89l-13 -69h-89l-28 -141c40 57 101 86 173 86c144 0 161 -92 137 -216l-48 -249h-90l47 245c18 90 -1 144 -79 144c-80 0 -147 -59 -171 -168z" />
    <glyph glyph-name="afii10099" unicode="&#x452;" horiz-adv-x="584" 
d="M311 -5l32 75c16 -5 25 -6 35 -6c58 0 73 52 83 105l15 76c18 90 -1 144 -79 144c-80 0 -147 -59 -171 -168l-42 -221h-90l101 520h-74l13 69h74l20 103l98 43l-28 -146h89l-13 -69h-89l-28 -141c40 57 101 86 173 86c144 0 161 -92 137 -216l-16 -82
c-21 -106 -65 -182 -177 -182c-24 0 -43 4 -63 10z" />
    <glyph glyph-name="ydieresis" unicode="&#xff;" horiz-adv-x="507" 
d="M0 -200l5 78c16 -6 43 -9 58 -9c39 0 80 21 111 73l36 63l-103 515h93l74 -405l225 405h88l-324 -576c-53 -91 -113 -154 -198 -154c-17 0 -48 3 -65 10zM311 620h-91l18 100h91zM501 620h-91l18 100h91z" />
    <glyph glyph-name="thorn" unicode="&#xfe;" horiz-adv-x="547" 
d="M110 -200h-90l176 920h90l-51 -271c39 50 84 86 153 86c144 0 201 -113 170 -275s-132 -275 -276 -275c-62 0 -102 28 -124 70zM187 260c-26 -132 26 -200 105 -200s150 68 176 200s-20 200 -99 200c-69 0 -156 -68 -182 -200z" />
    <glyph glyph-name="yacute" unicode="&#xfd;" horiz-adv-x="507" 
d="M0 -200l5 78c16 -6 43 -9 58 -9c39 0 80 21 111 73l36 63l-103 515h93l74 -405l225 405h88l-324 -576c-53 -91 -113 -154 -198 -154c-17 0 -48 3 -65 10zM538 790l-174 -187h-71l127 187h118z" />
    <glyph glyph-name="udieresis" unicode="&#xfc;" horiz-adv-x="526" 
d="M476 520h90l-99 -520h-81l14 75c-49 -57 -111 -90 -183 -90c-144 0 -161 92 -137 216l61 319h90l-60 -315c-17 -90 -9 -144 69 -144c82 0 160 62 182 176zM325 620h-91l18 100h91zM505 620h-91l18 100h91z" />
    <glyph glyph-name="ucircumflex" unicode="&#xfb;" horiz-adv-x="526" 
d="M476 520h90l-99 -520h-81l14 75c-49 -57 -111 -90 -183 -90c-144 0 -161 92 -137 216l61 319h90l-60 -315c-17 -90 -9 -144 69 -144c82 0 160 62 182 176zM367 760h77l88 -160h-91l-47 101l-89 -101h-88z" />
    <glyph glyph-name="uacute" unicode="&#xfa;" horiz-adv-x="526" 
d="M476 520h90l-99 -520h-81l14 75c-49 -57 -111 -90 -183 -90c-144 0 -161 92 -137 216l61 319h90l-60 -315c-17 -90 -9 -144 69 -144c82 0 160 62 182 176zM538 790l-174 -187h-71l127 187h118z" />
    <glyph glyph-name="ugrave" unicode="&#xf9;" horiz-adv-x="526" 
d="M476 520h90l-99 -520h-81l14 75c-49 -57 -111 -90 -183 -90c-144 0 -161 92 -137 216l61 319h90l-60 -315c-17 -90 -9 -144 69 -144c82 0 160 62 182 176zM352 790l56 -187h-65l-103 187h112z" />
    <glyph glyph-name="oslash" unicode="&#xf8;" horiz-adv-x="532" 
d="M599 486l-56 -54c20 -45 24 -103 11 -172c-33 -172 -152 -275 -296 -275c-55 0 -99 15 -133 42l-43 -42l-48 49l48 47c-22 45 -28 106 -14 179c34 172 152 275 296 275c57 0 104 -17 138 -47l49 47zM158 260c-9 -44 -8 -79 -2 -108l281 273c-22 24 -53 35 -87 35
c-79 0 -164 -58 -192 -200zM464 260c7 39 8 72 4 99l-278 -269c22 -21 51 -30 83 -30c79 0 164 58 191 200z" />
    <glyph glyph-name="divide" unicode="&#xf7;" 
d="M549 325h-416l14 75h416zM416 480h-91l19 100h91zM351 145h-91l19 100h91z" />
    <glyph glyph-name="odieresis" unicode="&#xf6;" horiz-adv-x="532" 
d="M68 260c34 172 152 275 296 275s224 -103 190 -275c-33 -172 -152 -275 -296 -275s-223 103 -190 275zM158 260c-27 -142 36 -200 115 -200s164 58 191 200c28 142 -35 200 -114 200s-164 -58 -192 -200zM335 620h-91l18 100h91zM515 620h-91l18 100h91z" />
    <glyph glyph-name="otilde" unicode="&#xf5;" horiz-adv-x="532" 
d="M68 260c34 172 152 275 296 275s224 -103 190 -275c-33 -172 -152 -275 -296 -275s-223 103 -190 275zM158 260c-27 -142 36 -200 115 -200s164 58 191 200c28 142 -35 200 -114 200s-164 -58 -192 -200zM220 610l17 85c33 30 74 40 102 40c59 0 78 -50 127 -50
c18 0 59 10 94 50l-16 -85c-34 -30 -75 -40 -103 -40c-59 0 -77 50 -126 50c-28 0 -59 -10 -95 -50z" />
    <glyph glyph-name="ocircumflex" unicode="&#xf4;" horiz-adv-x="532" 
d="M68 260c34 172 152 275 296 275s224 -103 190 -275c-33 -172 -152 -275 -296 -275s-223 103 -190 275zM158 260c-27 -142 36 -200 115 -200s164 58 191 200c28 142 -35 200 -114 200s-164 -58 -192 -200zM377 760h77l88 -160h-91l-47 101l-89 -101h-88z" />
    <glyph glyph-name="oacute" unicode="&#xf3;" horiz-adv-x="532" 
d="M68 260c34 172 152 275 296 275s224 -103 190 -275c-33 -172 -152 -275 -296 -275s-223 103 -190 275zM158 260c-27 -142 36 -200 115 -200s164 58 191 200c28 142 -35 200 -114 200s-164 -58 -192 -200zM548 790l-174 -187h-71l127 187h118z" />
    <glyph glyph-name="ograve" unicode="&#xf2;" horiz-adv-x="532" 
d="M68 260c34 172 152 275 296 275s224 -103 190 -275c-33 -172 -152 -275 -296 -275s-223 103 -190 275zM158 260c-27 -142 36 -200 115 -200s164 58 191 200c28 142 -35 200 -114 200s-164 -58 -192 -200zM362 790l56 -187h-65l-103 187h112z" />
    <glyph glyph-name="ntilde" unicode="&#xf1;" horiz-adv-x="545" 
d="M150 0h-90l99 520h81l-14 -75c50 64 110 90 182 90c144 0 161 -92 138 -216l-61 -319h-90l60 315c17 90 -1 144 -79 144c-82 0 -151 -62 -173 -176zM230 610l17 85c33 30 74 40 102 40c59 0 78 -50 127 -50c18 0 59 10 94 50l-16 -85c-34 -30 -75 -40 -103 -40
c-59 0 -77 50 -126 50c-28 0 -59 -10 -95 -50z" />
    <glyph glyph-name="eth" unicode="&#xf0;" horiz-adv-x="533" 
d="M434 797l-26 -70c142 -78 181 -268 139 -477c-35 -172 -146 -265 -290 -265c-114 0 -222 93 -191 265s142 265 266 265c75 0 126 -38 148 -73c4 72 -34 152 -102 201l-22 -60l-68 24l25 69c-25 9 -52 14 -82 14l14 75c35 0 67 -5 96 -12l25 68zM156 250
c-27 -142 57 -190 116 -190c79 0 163 48 190 190c28 142 -46 190 -115 190c-89 0 -163 -48 -191 -190z" />
    <glyph glyph-name="idieresis" unicode="&#xef;" horiz-adv-x="218" 
d="M199 619h-90l19 101h90zM150 0h-90l99 520h90zM339 619h-90l19 101h90z" />
    <glyph glyph-name="icircumflex" unicode="&#xee;" horiz-adv-x="218" 
d="M150 0h-90l99 520h90zM217 760h77l88 -160h-91l-47 101l-89 -101h-88z" />
    <glyph glyph-name="iacute" unicode="&#xed;" horiz-adv-x="218" 
d="M150 0h-90l99 520h90zM408 790l-174 -187h-71l127 187h118z" />
    <glyph glyph-name="igrave" unicode="&#xec;" horiz-adv-x="218" 
d="M150 0h-90l99 520h90zM212 790l56 -187h-65l-103 187h112z" />
    <glyph glyph-name="edieresis" unicode="&#xeb;" horiz-adv-x="510" 
d="M516 158c-53 -116 -150 -173 -263 -173c-144 0 -218 103 -185 275c34 172 147 275 291 275c129 0 181 -83 181 -146c-1 -119 -99 -152 -206 -152h-180c-17 -125 44 -177 119 -177c61 0 128 38 161 116zM345 460c-62 0 -138 -45 -175 -151h177c64 0 104 18 106 77
c2 49 -51 74 -108 74zM321 620h-91l18 100h91zM521 620h-91l18 100h91z" />
    <glyph glyph-name="ecircumflex" unicode="&#xea;" horiz-adv-x="510" 
d="M516 158c-53 -116 -150 -173 -263 -173c-144 0 -218 103 -185 275c34 172 147 275 291 275c129 0 181 -83 181 -146c-1 -119 -99 -152 -206 -152h-180c-17 -125 44 -177 119 -177c61 0 128 38 161 116zM345 460c-62 0 -138 -45 -175 -151h177c64 0 104 18 106 77
c2 49 -51 74 -108 74zM367 760h77l88 -160h-91l-47 101l-89 -101h-88z" />
    <glyph glyph-name="eacute" unicode="&#xe9;" horiz-adv-x="510" 
d="M516 158c-53 -116 -150 -173 -263 -173c-144 0 -218 103 -185 275c34 172 147 275 291 275c129 0 181 -83 181 -146c-1 -119 -99 -152 -206 -152h-180c-17 -125 44 -177 119 -177c61 0 128 38 161 116zM345 460c-62 0 -138 -45 -175 -151h177c64 0 104 18 106 77
c2 49 -51 74 -108 74zM548 790l-174 -187h-71l127 187h118z" />
    <glyph glyph-name="egrave" unicode="&#xe8;" horiz-adv-x="510" 
d="M516 158c-53 -116 -150 -173 -263 -173c-144 0 -218 103 -185 275c34 172 147 275 291 275c129 0 181 -83 181 -146c-1 -119 -99 -152 -206 -152h-180c-17 -125 44 -177 119 -177c61 0 128 38 161 116zM345 460c-62 0 -138 -45 -175 -151h177c64 0 104 18 106 77
c2 49 -51 74 -108 74zM352 790l56 -187h-65l-103 187h112z" />
    <glyph glyph-name="ccedilla" unicode="&#xe7;" horiz-adv-x="513" 
d="M253 -117c6 30 -7 42 -23 42c-14 0 -25 -8 -33 -25l-34 14l45 75c-114 19 -170 118 -140 271c34 172 147 275 291 275c112 0 196 -59 182 -178h-85c8 83 -50 103 -111 103c-79 0 -159 -58 -187 -200c-27 -142 31 -200 110 -200c61 0 116 35 151 117l83 -20
c-49 -109 -137 -172 -249 -172h-14l-12 -20h11c43 0 65 -30 55 -82s-44 -83 -87 -83c-34 0 -54 19 -55 52l39 13c2 -17 10 -24 24 -24c16 0 33 12 39 42z" />
    <glyph glyph-name="aring" unicode="&#xe5;" horiz-adv-x="516" 
d="M382 64c-2 -25 -4 -50 10 -64h91c-15 19 -19 53 -8 106l44 228c25 131 -24 201 -163 201c-100 0 -200 -37 -249 -157l82 -19c30 68 79 104 144 104c69 0 115 -30 99 -111l-4 -20c-28 -12 -91 -22 -147 -27c-118 -11 -215 -56 -237 -168c-20 -106 52 -152 148 -152
c62 0 127 21 190 79zM415 263l-24 -123c-34 -35 -105 -83 -172 -83c-48 0 -92 18 -80 84c14 71 81 83 138 92c52 8 112 19 138 30zM269 735c14 71 85 130 156 130c72 0 118 -59 104 -130c-14 -72 -83 -130 -155 -130c-71 0 -119 58 -105 130zM331 735c-7 -38 18 -68 55 -68
c38 0 73 30 80 68c8 37 -16 67 -54 67c-37 0 -73 -30 -81 -67z" />
    <glyph glyph-name="adieresis" unicode="&#xe4;" horiz-adv-x="516" 
d="M382 64c-63 -58 -128 -79 -190 -79c-96 0 -168 46 -148 152c22 112 119 157 237 168c56 5 119 15 147 27l4 20c16 81 -30 111 -99 111c-65 0 -114 -36 -144 -104l-82 19c49 120 149 157 249 157c139 0 188 -70 163 -201l-44 -228c-11 -53 -7 -87 8 -106h-91
c-14 14 -12 39 -10 64zM391 140l24 123c-26 -11 -86 -22 -138 -30c-57 -9 -124 -21 -138 -92c-12 -66 32 -84 80 -84c67 0 138 48 172 83zM325 620h-91l18 100h91zM505 620h-91l18 100h91z" />
    <glyph glyph-name="atilde" unicode="&#xe3;" horiz-adv-x="516" 
d="M382 64c-63 -58 -128 -79 -190 -79c-96 0 -168 46 -148 152c22 112 119 157 237 168c56 5 119 15 147 27l4 20c16 81 -30 111 -99 111c-65 0 -114 -36 -144 -104l-82 19c49 120 149 157 249 157c139 0 188 -70 163 -201l-44 -228c-11 -53 -7 -87 8 -106h-91
c-14 14 -12 39 -10 64zM391 140l24 123c-26 -11 -86 -22 -138 -30c-57 -9 -124 -21 -138 -92c-12 -66 32 -84 80 -84c67 0 138 48 172 83zM210 610l17 85c33 30 74 40 102 40c59 0 78 -50 127 -50c18 0 59 10 94 50l-16 -85c-34 -30 -75 -40 -103 -40c-59 0 -77 50 -126 50
c-28 0 -59 -10 -95 -50z" />
    <glyph glyph-name="acircumflex" unicode="&#xe2;" horiz-adv-x="516" 
d="M382 64c-63 -58 -128 -79 -190 -79c-96 0 -168 46 -148 152c22 112 119 157 237 168c56 5 119 15 147 27l4 20c16 81 -30 111 -99 111c-65 0 -114 -36 -144 -104l-82 19c49 120 149 157 249 157c139 0 188 -70 163 -201l-44 -228c-11 -53 -7 -87 8 -106h-91
c-14 14 -12 39 -10 64zM391 140l24 123c-26 -11 -86 -22 -138 -30c-57 -9 -124 -21 -138 -92c-12 -66 32 -84 80 -84c67 0 138 48 172 83zM357 760h77l88 -160h-91l-47 101l-89 -101h-88z" />
    <glyph glyph-name="aacute" unicode="&#xe1;" horiz-adv-x="516" 
d="M382 64c-63 -58 -128 -79 -190 -79c-96 0 -168 46 -148 152c22 112 119 157 237 168c56 5 119 15 147 27l4 20c16 81 -30 111 -99 111c-65 0 -114 -36 -144 -104l-82 19c49 120 149 157 249 157c139 0 188 -70 163 -201l-44 -228c-11 -53 -7 -87 8 -106h-91
c-14 14 -12 39 -10 64zM391 140l24 123c-26 -11 -86 -22 -138 -30c-57 -9 -124 -21 -138 -92c-12 -66 32 -84 80 -84c67 0 138 48 172 83zM548 790l-174 -187h-71l127 187h118z" />
    <glyph glyph-name="agrave" unicode="&#xe0;" horiz-adv-x="516" 
d="M382 64c-63 -58 -128 -79 -190 -79c-96 0 -168 46 -148 152c22 112 119 157 237 168c56 5 119 15 147 27l4 20c16 81 -30 111 -99 111c-65 0 -114 -36 -144 -104l-82 19c49 120 149 157 249 157c139 0 188 -70 163 -201l-44 -228c-11 -53 -7 -87 8 -106h-91
c-14 14 -12 39 -10 64zM391 140l24 123c-26 -11 -86 -22 -138 -30c-57 -9 -124 -21 -138 -92c-12 -66 32 -84 80 -84c67 0 138 48 172 83zM352 790l56 -187h-65l-103 187h112z" />
    <glyph glyph-name="germandbls" unicode="&#xdf;" horiz-adv-x="623" 
d="M254 150l89 13c-3 -55 13 -103 79 -103c41 0 92 27 102 75c8 40 -3 74 -55 85l-64 14c-67 15 -118 61 -101 147c26 136 178 128 193 203c5 24 -17 59 -84 59c-75 0 -122 -43 -139 -130l-99 -513h-87l99 511c27 140 131 210 241 210c128 0 168 -63 154 -137
c-23 -120 -174 -109 -192 -203c-7 -35 22 -53 52 -60l76 -18c63 -15 116 -63 97 -160c-20 -105 -116 -158 -210 -158c-117 0 -164 60 -151 165z" />
    <glyph glyph-name="Thorn" unicode="&#xde;" horiz-adv-x="657" 
d="M175 0h-95l139 720h95l-27 -140h155c145 0 268 -46 236 -211c-28 -145 -132 -219 -311 -219h-163zM271 495l-51 -260h165c113 0 178 44 195 131c21 108 -51 129 -146 129h-163z" />
    <glyph glyph-name="Yacute" unicode="&#xdd;" horiz-adv-x="675" 
d="M385 0h-95l58 303l-200 417h115l152 -337l278 337h110l-360 -417zM678 990l-174 -187h-71l127 187h118z" />
    <glyph glyph-name="Udieresis" unicode="&#xdc;" horiz-adv-x="723" 
d="M604 297l82 423h95l-80 -418c-36 -185 -146 -317 -343 -317c-195 0 -256 132 -220 317l80 418h95l-82 -423c-26 -138 11 -227 144 -227s203 89 229 227zM457 820h-91l18 100h91zM657 820h-91l18 100h91z" />
    <glyph glyph-name="Ucircumflex" unicode="&#xdb;" horiz-adv-x="723" 
d="M604 297l82 423h95l-80 -418c-36 -185 -146 -317 -343 -317c-195 0 -256 132 -220 317l80 418h95l-82 -423c-26 -138 11 -227 144 -227s203 89 229 227zM497 950h77l114 -180h-91l-73 121l-123 -121h-88z" />
    <glyph glyph-name="Uacute" unicode="&#xda;" horiz-adv-x="723" 
d="M604 297l82 423h95l-80 -418c-36 -185 -146 -317 -343 -317c-195 0 -256 132 -220 317l80 418h95l-82 -423c-26 -138 11 -227 144 -227s203 89 229 227zM688 990l-174 -187h-71l127 187h118z" />
    <glyph glyph-name="Ugrave" unicode="&#xd9;" horiz-adv-x="723" 
d="M604 297l82 423h95l-80 -418c-36 -185 -146 -317 -343 -317c-195 0 -256 132 -220 317l80 418h95l-82 -423c-26 -138 11 -227 144 -227s203 89 229 227zM482 990l56 -187h-65l-103 187h112z" />
    <glyph glyph-name="Oslash" unicode="&#xd8;" horiz-adv-x="785" 
d="M850 687c-26 -25 -51 -49 -77 -74c38 -67 50 -156 31 -253c-40 -207 -197 -375 -415 -375c-84 0 -150 24 -196 66c-23 -22 -45 -44 -68 -66c-16 16 -33 32 -49 48c25 24 49 47 74 71c-41 67 -50 157 -31 256c40 207 194 375 415 375c85 0 150 -26 196 -69
c24 23 47 46 71 69c16 -16 33 -32 49 -48zM219 360c-14 -70 -12 -133 7 -182c144 140 289 279 433 419c-33 37 -80 58 -141 58c-150 0 -268 -128 -299 -295zM704 360c12 67 9 128 -10 176c-144 -139 -288 -279 -432 -418c32 -34 79 -53 142 -53c149 0 267 128 300 295z" />
    <glyph glyph-name="multiply" unicode="&#xd7;" 
d="M341 329l-155 -130l-43 53l156 130l-105 131l64 53l104 -131l156 131l42 -53l-155 -131l104 -130l-63 -53z" />
    <glyph glyph-name="Odieresis" unicode="&#xd6;" horiz-adv-x="785" 
d="M119 360c39 207 195 375 415 375c219 0 309 -168 270 -375c-41 -207 -196 -375 -415 -375c-220 0 -311 168 -270 375zM219 360c-33 -167 25 -295 185 -295c149 0 267 128 300 295c31 167 -37 295 -186 295c-150 0 -268 -128 -299 -295zM497 820h-91l18 100h91zM697 820
h-91l18 100h91z" />
    <glyph glyph-name="Otilde" unicode="&#xd5;" horiz-adv-x="785" 
d="M119 360c39 207 195 375 415 375c219 0 309 -168 270 -375c-41 -207 -196 -375 -415 -375c-220 0 -311 168 -270 375zM219 360c-33 -167 25 -295 185 -295c149 0 267 128 300 295c31 167 -37 295 -186 295c-150 0 -268 -128 -299 -295zM380 810l18 91c33 30 84 40 112 40
c59 0 88 -50 137 -50c18 0 69 10 104 50l-17 -91c-34 -30 -85 -40 -113 -40c-59 0 -87 50 -136 50c-28 0 -69 -10 -105 -50z" />
    <glyph glyph-name="Ocircumflex" unicode="&#xd4;" horiz-adv-x="785" 
d="M119 360c39 207 195 375 415 375c219 0 309 -168 270 -375c-41 -207 -196 -375 -415 -375c-220 0 -311 168 -270 375zM219 360c-33 -167 25 -295 185 -295c149 0 267 128 300 295c31 167 -37 295 -186 295c-150 0 -268 -128 -299 -295zM527 950h77l114 -180h-91l-73 121
l-123 -121h-88z" />
    <glyph glyph-name="Oacute" unicode="&#xd3;" horiz-adv-x="785" 
d="M119 360c39 207 195 375 415 375c219 0 309 -168 270 -375c-41 -207 -196 -375 -415 -375c-220 0 -311 168 -270 375zM219 360c-33 -167 25 -295 185 -295c149 0 267 128 300 295c31 167 -37 295 -186 295c-150 0 -268 -128 -299 -295zM728 990l-174 -187h-71l127 187
h118z" />
    <glyph glyph-name="Ograve" unicode="&#xd2;" horiz-adv-x="785" 
d="M119 360c39 207 195 375 415 375c219 0 309 -168 270 -375c-41 -207 -196 -375 -415 -375c-220 0 -311 168 -270 375zM219 360c-33 -167 25 -295 185 -295c149 0 267 128 300 295c31 167 -37 295 -186 295c-150 0 -268 -128 -299 -295zM492 990l56 -187h-65l-103 187h112
z" />
    <glyph glyph-name="Ntilde" unicode="&#xd1;" horiz-adv-x="724" 
d="M171 0h-91l138 720h97l266 -566l110 566h91l-138 -720h-97l-268 566zM340 810l18 91c33 30 84 40 112 40c59 0 88 -50 137 -50c18 0 69 10 104 50l-17 -91c-34 -30 -85 -40 -113 -40c-59 0 -87 50 -136 50c-28 0 -69 -10 -105 -50z" />
    <glyph glyph-name="Eth" unicode="&#xd0;" horiz-adv-x="799" 
d="M405 0h-235l62 325h-149l14 75h150l62 320h224c232 0 331 -126 286 -358c-44 -225 -182 -362 -414 -362zM328 325l-47 -241h130c176 0 274 92 310 279c40 204 -48 272 -206 272h-127l-46 -235h171l-14 -75h-171z" />
    <glyph glyph-name="Idieresis" unicode="&#xcf;" horiz-adv-x="255" 
d="M175 0h-95l139 720h95zM257 819h-90l19 101h90zM407 819h-90l19 101h90z" />
    <glyph glyph-name="Icircumflex" unicode="&#xce;" horiz-adv-x="255" 
d="M175 0h-95l138 720h95zM274 950h77l114 -180h-91l-73 121l-123 -121h-88z" />
    <glyph glyph-name="Iacute" unicode="&#xcd;" horiz-adv-x="255" 
d="M175 0h-95l138 720h95zM478 990l-174 -187h-71l127 187h118z" />
    <glyph glyph-name="Igrave" unicode="&#xcc;" horiz-adv-x="255" 
d="M175 0h-95l138 720h95zM282 990l56 -187h-65l-103 187h112z" />
    <glyph glyph-name="Edieresis" unicode="&#xcb;" horiz-adv-x="657" 
d="M587 0h-507l138 720h497l-17 -85h-402l-43 -225h352l-17 -85h-352l-46 -240h412zM417 820h-91l18 100h91zM617 820h-91l18 100h91z" />
    <glyph glyph-name="Ecircumflex" unicode="&#xca;" horiz-adv-x="657" 
d="M587 0h-507l138 720h497l-17 -85h-402l-43 -225h352l-17 -85h-352l-46 -240h412zM477 950h77l114 -180h-91l-73 121l-123 -121h-88z" />
    <glyph glyph-name="Eacute" unicode="&#xc9;" horiz-adv-x="657" 
d="M587 0h-507l138 720h497l-17 -85h-402l-43 -225h352l-17 -85h-352l-46 -240h412zM658 990l-174 -187h-71l127 187h118z" />
    <glyph glyph-name="Egrave" unicode="&#xc8;" horiz-adv-x="657" 
d="M587 0h-507l138 720h497l-17 -85h-402l-43 -225h352l-17 -85h-352l-46 -240h412zM462 990l56 -187h-65l-103 187h112z" />
    <glyph glyph-name="Ccedilla" unicode="&#xc7;" horiz-adv-x="734" 
d="M391 -142c7 36 -8 50 -28 50c-16 0 -29 -9 -39 -30l-42 17l56 92c-189 20 -258 179 -219 373c39 207 185 375 405 375c164 0 278 -90 251 -239h-90c9 110 -59 159 -177 159c-150 0 -258 -128 -289 -295c-33 -167 15 -295 175 -295c108 0 189 67 237 168l93 -19
c-58 -135 -181 -229 -345 -229h-2l-18 -29h13c52 0 79 -36 67 -98s-54 -100 -106 -100c-40 0 -63 23 -65 63l48 15c2 -20 11 -28 27 -28c20 0 41 14 48 50z" />
    <glyph glyph-name="AE" unicode="&#xc6;" horiz-adv-x="1064" 
d="M125 0h-105l596 720h507l-16 -85h-402l-44 -225h352l-16 -85h-352l-47 -240h412l-16 -85h-507l33 172h-254zM536 257l63 323l-264 -323h201z" />
    <glyph glyph-name="Aring" unicode="&#xc5;" horiz-adv-x="675" 
d="M525 720h-97l-418 -720h97l99 175h324l32 -175h103zM254 260l201 351l60 -351h-261zM383 905c14 71 85 130 156 130c72 0 118 -59 104 -130c-14 -72 -83 -130 -155 -130c-71 0 -119 58 -105 130zM445 905c-7 -38 18 -68 55 -68c38 0 73 30 80 68c8 37 -16 67 -54 67
c-37 0 -73 -30 -81 -67z" />
    <glyph glyph-name="Adieresis" unicode="&#xc4;" horiz-adv-x="675" 
d="M428 720h97l140 -720h-103l-32 175h-324l-99 -175h-97zM455 611l-201 -351h261zM437 820h-91l18 100h91zM637 820h-91l18 100h91z" />
    <glyph glyph-name="Atilde" unicode="&#xc3;" horiz-adv-x="675" 
d="M428 720h97l140 -720h-103l-32 175h-324l-99 -175h-97zM455 611l-201 -351h261zM380 810l18 91c33 30 84 40 112 40c59 0 88 -50 137 -50c18 0 69 10 104 50l-17 -91c-34 -30 -85 -40 -113 -40c-59 0 -87 50 -136 50c-28 0 -69 -10 -105 -50z" />
    <glyph glyph-name="Acircumflex" unicode="&#xc2;" horiz-adv-x="675" 
d="M428 720h97l140 -720h-103l-32 175h-324l-99 -175h-97zM455 611l-201 -351h261zM477 950h77l114 -180h-91l-73 121l-123 -121h-88z" />
    <glyph glyph-name="Aacute" unicode="&#xc1;" horiz-adv-x="675" 
d="M428 720h97l140 -720h-103l-32 175h-324l-99 -175h-97zM455 611l-201 -351h261zM658 990l-174 -187h-71l127 187h118z" />
    <glyph glyph-name="Agrave" unicode="&#xc0;" horiz-adv-x="675" 
d="M428 720h97l140 -720h-103l-32 175h-324l-99 -175h-97zM455 611l-201 -351h261zM492 990l56 -187h-65l-103 187h112z" />
    <glyph glyph-name="questiondown" unicode="&#xbf;" 
d="M301 344h85l-5 -27c-16 -81 -52 -140 -127 -185c-50 -30 -100 -78 -112 -139c-18 -94 37 -128 109 -128c70 0 133 44 162 141l84 -10c-38 -132 -140 -211 -260 -211c-138 0 -215 79 -191 202c19 98 93 149 164 200c56 40 73 73 86 130zM326 520h100l-20 -100h-100z" />
    <glyph glyph-name="yen" unicode="&#xa5;" horiz-adv-x="675" 
d="M385 0h-95l20 108h-150l15 75h150l11 55h-150l14 75h143l-194 407h115l152 -337l278 337h110l-353 -407h144l-14 -75h-150l-11 -55h150l-15 -75h-150z" />
    <glyph glyph-name="cent" unicode="&#xa2;" horiz-adv-x="513" 
d="M193 -115l20 103c-118 18 -175 117 -145 272c31 155 126 255 251 272l20 103h75l-20 -103c94 -11 159 -69 147 -175h-85c6 67 -30 93 -77 100l-76 -393c47 12 88 47 116 113l83 -20c-44 -98 -119 -158 -214 -170l-20 -102h-75zM158 260c-22 -117 13 -177 70 -195l76 389
c-65 -17 -123 -77 -146 -194z" />
    <glyph glyph-name="exclamdown" unicode="&#xa1;" horiz-adv-x="239" 
d="M157 342h56l-83 -542h-99zM175 520h91l-20 -100h-91z" />
    <glyph glyph-name="Ydieresis" unicode="&#x178;" horiz-adv-x="675" 
d="M385 0h-95l58 303l-200 417h115l152 -337l278 337h110l-360 -417zM427 820h-91l18 100h91zM627 820h-91l18 100h91z" />
    <glyph glyph-name="zcaron" unicode="&#x17e;" horiz-adv-x="482" 
d="M419 0h-389l14 75l358 370h-268l14 75h374l-14 -75l-363 -370h318zM384 600h-77l-88 160h87l48 -101l88 101h92z" />
    <glyph glyph-name="scaron" unicode="&#x161;" horiz-adv-x="489" 
d="M62 150l90 13c-3 -55 23 -103 109 -103c51 0 120 17 131 75c8 40 -6 61 -57 75l-120 34c-65 19 -120 51 -104 137c22 109 124 154 231 154c124 0 182 -69 163 -158h-83c3 57 -29 83 -96 83c-65 0 -118 -27 -126 -69c-8 -35 22 -52 52 -60l132 -38c62 -18 118 -53 99 -150
c-22 -115 -136 -158 -240 -158c-127 0 -193 60 -181 165zM384 600h-77l-88 160h87l48 -101l88 101h92z" />
    <glyph glyph-name="Zcaron" unicode="&#x17d;" horiz-adv-x="672" 
d="M612 0h-552l15 85l534 550h-408l17 85h522l-17 -85l-539 -550h443zM522 790h-77l-104 180h87l64 -121l112 121h92z" />
    <glyph glyph-name="OE" unicode="&#x152;" horiz-adv-x="1031" 
d="M961 0h-567c-232 0 -318 137 -274 362c45 232 192 358 424 358h546l-16 -85h-372l-44 -225h322l-16 -85h-322l-47 -240h382zM500 84l107 551h-77c-158 0 -272 -68 -312 -272c-36 -187 26 -279 202 -279h80z" />
    <glyph glyph-name="Scaron" unicode="&#x160;" horiz-adv-x="665" 
d="M94 230l95 8c-14 -115 55 -173 168 -173c104 0 178 52 192 129c9 46 -6 84 -59 106c-34 15 -156 45 -196 59c-121 42 -129 104 -115 172c26 137 165 204 286 204c160 0 252 -74 223 -221h-91c13 92 -37 141 -144 141c-75 0 -165 -34 -182 -118c-7 -37 7 -68 45 -83
c31 -13 131 -43 197 -62c99 -30 160 -83 139 -193c-28 -147 -179 -214 -306 -214c-181 0 -273 82 -252 245zM512 790h-77l-104 180h87l64 -121l112 121h92z" />
    <glyph glyph-name="Sacute" unicode="&#x15a;" horiz-adv-x="665" 
d="M94 230l95 8c-14 -115 55 -173 168 -173c104 0 178 52 192 129c9 46 -6 84 -59 106c-34 15 -156 45 -196 59c-121 42 -129 104 -115 172c26 137 165 204 286 204c160 0 252 -74 223 -221h-91c13 92 -37 141 -144 141c-75 0 -165 -34 -182 -118c-7 -37 7 -68 45 -83
c31 -13 131 -43 197 -62c99 -30 160 -83 139 -193c-28 -147 -179 -214 -306 -214c-181 0 -273 82 -252 245zM638 990l-174 -187h-71l127 187h118z" />
    <glyph glyph-name="tcommaaccent" unicode="&#x163;" horiz-adv-x="306" 
d="M270 76l-4 -76c-22 -6 -50 -10 -69 -10c-109 0 -110 60 -91 162l58 299h-74l13 69h74l26 137l98 43l-34 -180h89l-13 -69h-89l-58 -304c-9 -45 -16 -77 31 -77c10 0 25 1 43 6zM147 -200h-51l19 100h100l-19 -100c-14 -71 -50 -118 -110 -142l-17 38c38 15 65 40 78 104z
" />
    <glyph glyph-name="uhungarumlaut" unicode="&#x171;" horiz-adv-x="526" 
d="M476 520h90l-99 -520h-81l14 75c-49 -57 -111 -90 -183 -90c-144 0 -161 92 -137 216l61 319h90l-60 -315c-17 -90 -9 -144 69 -144c82 0 160 62 182 176zM438 790l-154 -187h-71l107 187h118zM628 790l-154 -187h-71l107 187h118z" />
    <glyph glyph-name="uring" unicode="&#x16f;" horiz-adv-x="526" 
d="M566 520h-90l-54 -283c-22 -114 -100 -176 -182 -176c-78 0 -86 54 -69 144l60 315h-90l-61 -319c-24 -124 -7 -216 137 -216c72 0 134 33 183 90l-14 -75h81zM259 735c14 71 85 130 156 130c72 0 118 -59 104 -130c-14 -72 -83 -130 -155 -130c-71 0 -119 58 -105 130z
M321 735c-7 -38 18 -68 55 -68c38 0 73 30 80 68c8 37 -16 67 -54 67c-37 0 -73 -30 -81 -67z" />
    <glyph glyph-name="rcaron" unicode="&#x159;" horiz-adv-x="412" 
d="M150 0h-90l99 520h81l-17 -90c46 70 97 105 162 105c40 0 66 -9 87 -28l-43 -79c-17 14 -33 22 -64 22c-86 0 -143 -68 -162 -169zM364 600h-77l-88 160h87l48 -101l88 101h92z" />
    <glyph glyph-name="ohungarumlaut" unicode="&#x151;" horiz-adv-x="532" 
d="M68 260c34 172 152 275 296 275s224 -103 190 -275c-33 -172 -152 -275 -296 -275s-223 103 -190 275zM158 260c-27 -142 36 -200 115 -200s164 58 191 200c28 142 -35 200 -114 200s-164 -58 -192 -200zM428 790l-154 -187h-71l107 187h118zM618 790l-154 -187h-71
l107 187h118z" />
    <glyph glyph-name="ncaron" unicode="&#x148;" horiz-adv-x="545" 
d="M150 0h-90l99 520h81l-14 -75c50 64 110 90 182 90c144 0 161 -92 138 -216l-61 -319h-90l60 315c17 90 -1 144 -79 144c-82 0 -151 -62 -173 -176zM414 600h-77l-88 160h87l48 -101l88 101h92z" />
    <glyph glyph-name="nacute" unicode="&#x144;" horiz-adv-x="545" 
d="M150 0h-90l99 520h81l-14 -75c50 64 110 90 182 90c144 0 161 -92 138 -216l-61 -319h-90l60 315c17 90 -1 144 -79 144c-82 0 -151 -62 -173 -176zM548 790l-174 -187h-71l127 187h118z" />
    <glyph glyph-name="dcroat" unicode="&#x111;" horiz-adv-x="538" 
d="M490 577h-74l12 66h75l15 77h90l-15 -77h65l-12 -66h-66l-110 -577h-80l12 71c-39 -50 -94 -86 -163 -86c-144 0 -201 113 -170 275s132 275 276 275c62 0 102 -28 124 -70zM440 260c26 132 -25 200 -104 200s-151 -68 -177 -200s21 -200 100 -200c69 0 155 68 181 200z
" />
    <glyph glyph-name="ecaron" unicode="&#x11b;" horiz-adv-x="510" 
d="M516 158c-53 -116 -150 -173 -263 -173c-144 0 -218 103 -185 275c34 172 147 275 291 275c129 0 181 -83 181 -146c-1 -119 -99 -152 -206 -152h-180c-17 -125 44 -177 119 -177c61 0 128 38 161 116zM345 460c-62 0 -138 -45 -175 -151h177c64 0 104 18 106 77
c2 49 -51 74 -108 74zM394 600h-77l-88 160h87l48 -101l88 101h92z" />
    <glyph glyph-name="eogonek" unicode="&#x119;" horiz-adv-x="510" 
d="M516 158c-34 -74 -87 -109 -146 -150c-32 -22 -56 -41 -64 -83c-7 -38 11 -64 44 -64c30 0 52 12 74 42c11 -13 23 -26 34 -39c-22 -29 -63 -68 -125 -68c-59 0 -111 37 -96 115c6 31 24 59 46 76c-10 -1 -20 -2 -30 -2c-144 0 -219 103 -185 275c33 172 147 275 291 275
c129 0 181 -83 181 -146c0 -119 -100 -152 -206 -152h-180c-17 -125 44 -177 119 -177c61 0 128 38 161 116c27 -6 55 -12 82 -18zM345 460c-62 0 -138 -45 -175 -151h177c62 0 103 18 106 77c2 49 -51 74 -108 74z" />
    <glyph glyph-name="ccaron" unicode="&#x10d;" horiz-adv-x="513" 
d="M158 260c-27 -142 31 -200 110 -200c61 0 116 35 151 117l83 -20c-49 -109 -137 -172 -249 -172c-144 0 -218 103 -185 275c34 172 147 275 291 275c112 0 196 -59 182 -178h-85c8 83 -50 103 -111 103c-79 0 -159 -58 -187 -200zM404 600h-77l-88 160h87l48 -101l88 101
h92z" />
    <glyph glyph-name="cacute" unicode="&#x107;" horiz-adv-x="513" 
d="M158 260c-27 -142 31 -200 110 -200c61 0 116 35 151 117l83 -20c-49 -109 -137 -172 -249 -172c-144 0 -218 103 -185 275c34 172 147 275 291 275c112 0 196 -59 182 -178h-85c8 83 -50 103 -111 103c-79 0 -159 -58 -187 -200zM538 790l-174 -187h-71l127 187h118z
" />
    <glyph glyph-name="lacute" unicode="&#x13a;" horiz-adv-x="221" 
d="M150 0h-90l133 695l98 40zM448 990l-174 -187h-71l127 187h118z" />
    <glyph glyph-name="abreve" unicode="&#x103;" horiz-adv-x="516" 
d="M382 64c-63 -58 -128 -79 -190 -79c-96 0 -168 46 -148 152c22 112 119 157 237 168c56 5 119 15 147 27l4 20c16 81 -30 111 -99 111c-65 0 -114 -36 -144 -104l-82 19c49 120 149 157 249 157c139 0 188 -70 163 -201l-44 -228c-11 -53 -7 -87 8 -106h-91
c-14 14 -12 39 -10 64zM391 140l24 123c-26 -11 -86 -22 -138 -30c-57 -9 -124 -21 -138 -92c-12 -66 32 -84 80 -84c67 0 138 48 172 83zM459 720h60c-17 -85 -74 -147 -174 -147s-130 63 -114 147h60c-5 -50 20 -76 68 -76s85 26 100 76z" />
    <glyph glyph-name="racute" unicode="&#x155;" horiz-adv-x="412" 
d="M150 0h-90l99 520h81l-17 -90c46 70 97 105 162 105c40 0 66 -9 87 -28l-43 -79c-17 14 -33 22 -64 22c-86 0 -143 -68 -162 -169zM488 790l-174 -187h-71l127 187h118z" />
    <glyph glyph-name="Tcommaaccent" unicode="&#x162;" horiz-adv-x="619" 
d="M357 0h-95l121 635h-242l17 85h579l-17 -85h-242zM274 -200h-51l19 100h100l-19 -100c-14 -71 -50 -118 -110 -142l-17 38c38 15 65 40 78 104z" />
    <glyph glyph-name="Uhungarumlaut" unicode="&#x170;" horiz-adv-x="723" 
d="M604 297l82 423h95l-80 -418c-36 -185 -146 -317 -343 -317c-195 0 -256 132 -220 317l80 418h95l-82 -423c-26 -138 11 -227 144 -227s203 89 229 227zM578 990l-154 -187h-71l107 187h118zM768 990l-154 -187h-71l107 187h118z" />
    <glyph glyph-name="Uring" unicode="&#x16e;" horiz-adv-x="723" 
d="M686 720l-82 -423c-26 -138 -96 -227 -229 -227s-170 89 -144 227l82 423h-95l-80 -418c-36 -185 25 -317 220 -317c197 0 307 132 343 317l80 418h-95zM403 905c14 71 85 130 156 130c72 0 118 -59 104 -130c-14 -72 -83 -130 -155 -130c-71 0 -119 58 -105 130z
M465 905c-7 -38 18 -68 55 -68c38 0 73 30 80 68c8 37 -16 67 -54 67c-37 0 -73 -30 -81 -67z" />
    <glyph glyph-name="Rcaron" unicode="&#x158;" horiz-adv-x="677" 
d="M80 0l138 720h240c145 0 267 -51 236 -211c-22 -110 -94 -173 -219 -194c69 -21 103 -86 126 -148l66 -167h-109l-46 121c-35 99 -73 169 -184 169h-98l-55 -290h-95zM296 635l-49 -260h155c113 0 177 44 194 131c19 98 -52 129 -147 129h-153zM482 790h-77l-104 180h87
l64 -121l112 121h92z" />
    <glyph glyph-name="Ohungarumlaut" unicode="&#x150;" horiz-adv-x="785" 
d="M119 360c39 207 195 375 415 375c219 0 309 -168 270 -375c-41 -207 -196 -375 -415 -375c-220 0 -311 168 -270 375zM219 360c-33 -167 25 -295 185 -295c149 0 267 128 300 295c31 167 -37 295 -186 295c-150 0 -268 -128 -299 -295zM598 990l-154 -187h-71l107 187
h118zM788 990l-154 -187h-71l107 187h118z" />
    <glyph glyph-name="Ncaron" unicode="&#x147;" horiz-adv-x="724" 
d="M171 0h-91l138 720h97l266 -566l110 566h91l-138 -720h-97l-268 566zM552 790h-77l-104 180h87l64 -121l112 121h92z" />
    <glyph glyph-name="Nacute" unicode="&#x143;" horiz-adv-x="724" 
d="M171 0h-91l138 720h97l266 -566l110 566h91l-138 -720h-97l-268 566zM688 990l-174 -187h-71l127 187h118z" />
    <glyph glyph-name="Dcroat" unicode="&#x110;" horiz-adv-x="799" 
d="M405 0h-235l62 325h-149l14 75h150l62 320h224c232 0 331 -126 286 -358c-44 -225 -182 -362 -414 -362zM328 325l-47 -241h130c176 0 274 92 310 279c40 204 -48 272 -206 272h-127l-46 -235h171l-14 -75h-171z" />
    <glyph glyph-name="Dcaron" unicode="&#x10e;" horiz-adv-x="709" 
d="M315 0h-235l138 720h224c232 0 330 -126 286 -358c-44 -225 -181 -362 -413 -362zM296 635l-106 -551h130c176 0 274 92 310 279c39 204 -49 272 -207 272h-127zM492 790h-77l-104 180h87l64 -121l112 121h92z" />
    <glyph glyph-name="Ecaron" unicode="&#x11a;" horiz-adv-x="657" 
d="M587 0h-507l138 720h497l-17 -85h-402l-43 -225h352l-17 -85h-352l-46 -240h412zM522 790h-77l-104 180h87l64 -121l112 121h92z" />
    <glyph glyph-name="Eogonek" unicode="&#x118;" horiz-adv-x="657" 
d="M464 0h-384l139 720h497l-16 -85h-402l-44 -225h352l-16 -85h-352l-47 -240h412l-16 -85h-33c-45 0 -85 -36 -93 -75c-7 -38 11 -64 44 -64c30 0 52 12 74 42l34 -39c-22 -29 -63 -68 -125 -68c-59 0 -111 37 -96 115c8 38 37 74 72 89z" />
    <glyph glyph-name="Ccaron" unicode="&#x10c;" horiz-adv-x="734" 
d="M219 360c-33 -167 15 -295 175 -295c108 0 189 67 237 168l93 -19c-58 -135 -181 -229 -345 -229c-220 0 -301 168 -260 375c39 207 185 375 405 375c164 0 278 -90 251 -239h-90c9 110 -59 159 -177 159c-150 0 -258 -128 -289 -295zM572 790h-77l-104 180h87l64 -121
l112 121h92z" />
    <glyph glyph-name="Cacute" unicode="&#x106;" horiz-adv-x="734" 
d="M219 360c-33 -167 15 -295 175 -295c108 0 189 67 237 168l93 -19c-58 -135 -181 -229 -345 -229c-220 0 -301 168 -260 375c39 207 185 375 405 375c164 0 278 -90 251 -239h-90c9 110 -59 159 -177 159c-150 0 -258 -128 -289 -295zM708 990l-174 -187h-71l127 187h118
z" />
    <glyph glyph-name="Lacute" unicode="&#x139;" horiz-adv-x="608" 
d="M578 0h-498l138 720h95l-123 -635h403zM498 990l-174 -187h-71l127 187h118z" />
    <glyph glyph-name="Abreve" unicode="&#x102;" horiz-adv-x="675" 
d="M428 720h97l140 -720h-103l-32 175h-324l-99 -175h-97zM455 611l-201 -351h261zM624 920h70c-16 -85 -88 -167 -208 -167s-156 83 -140 167h70c-5 -50 18 -86 86 -86s107 36 122 86z" />
    <glyph glyph-name="Racute" unicode="&#x154;" horiz-adv-x="677" 
d="M80 0l138 720h240c145 0 267 -51 236 -211c-22 -110 -94 -173 -219 -194c69 -21 103 -86 126 -148l66 -167h-109l-46 121c-35 99 -73 169 -184 169h-98l-55 -290h-95zM296 635l-49 -260h155c113 0 177 44 194 131c19 98 -52 129 -147 129h-153zM638 990l-174 -187h-71
l127 187h118z" />
    <glyph glyph-name="zdotaccent" unicode="&#x17c;" horiz-adv-x="482" 
d="M419 0h-389l14 75l358 370h-268l14 75h374l-14 -75l-363 -370h318zM384 619h-90l19 101h90z" />
    <glyph glyph-name="Lcaron" unicode="&#x13d;" horiz-adv-x="608" 
d="M578 0h-498l138 720h95l-123 -635h403zM322 790h-77l-104 180h87l64 -121l112 121h92z" />
    <glyph glyph-name="scommaaccent" unicode="&#x219;" horiz-adv-x="489" 
d="M62 150l90 13c-3 -55 23 -103 109 -103c51 0 120 17 131 75c8 40 -6 61 -57 75l-120 34c-65 19 -120 51 -104 137c22 109 124 154 231 154c124 0 182 -69 163 -158h-83c3 57 -29 83 -96 83c-65 0 -118 -27 -126 -69c-8 -35 22 -52 52 -60l132 -38c62 -18 118 -53 99 -150
c-22 -115 -136 -158 -240 -158c-127 0 -193 60 -181 165zM207 -200h-51l19 100h100l-19 -100c-14 -71 -50 -118 -110 -142l-17 38c38 15 65 40 78 104z" />
    <glyph glyph-name="aogonek" unicode="&#x105;" horiz-adv-x="544" 
d="M399 64c-63 -58 -128 -79 -190 -79c-96 0 -168 46 -148 152c22 112 119 157 237 168c56 5 119 15 147 27l4 20c16 81 -30 111 -99 111c-65 0 -113 -36 -145 -104l-81 19c49 120 149 157 249 157c139 0 188 -70 162 -201l-44 -228c-10 -53 -7 -87 8 -106h-30
c-45 0 -89 -26 -98 -75c-7 -38 11 -64 44 -64c30 0 52 12 74 42l34 -39c-22 -29 -63 -68 -125 -68c-59 0 -111 37 -96 115c11 57 54 92 102 106c-8 13 -7 34 -5 47zM408 140l24 123c-26 -11 -86 -22 -138 -30c-57 -9 -124 -21 -138 -92c-13 -66 33 -84 81 -84
c67 0 137 48 171 83z" />
    <glyph glyph-name="lslash" unicode="&#x142;" horiz-adv-x="380" 
d="M237 0h-90l65 338l-100 -56l-25 65l142 79l53 269l97 40l-49 -253l95 53l26 -65l-138 -77z" />
    <glyph glyph-name="Zdotaccent" unicode="&#x17b;" horiz-adv-x="672" 
d="M612 0h-552l15 85l534 550h-408l17 85h522l-17 -85l-539 -550h443zM517 819h-90l19 101h90z" />
    <glyph glyph-name="Scommaaccent" unicode="&#x218;" horiz-adv-x="665" 
d="M94 230l95 8c-14 -115 55 -173 168 -173c104 0 178 52 192 129c9 46 -6 84 -59 106c-34 15 -156 45 -196 59c-121 42 -129 104 -115 172c26 137 165 204 286 204c160 0 252 -74 223 -221h-91c13 92 -37 141 -144 141c-75 0 -165 -34 -182 -118c-7 -37 7 -68 45 -83
c31 -13 131 -43 197 -62c99 -30 160 -83 139 -193c-28 -147 -179 -214 -306 -214c-181 0 -273 82 -252 245zM307 -200h-51l19 100h100l-19 -100c-14 -71 -50 -118 -110 -142l-17 38c38 15 65 40 78 104z" />
    <glyph glyph-name="Aogonek" unicode="&#x104;" horiz-adv-x="675" 
d="M429 720h97l139 -720h-23c-49 0 -93 -34 -101 -75c-7 -38 11 -64 44 -64c30 0 52 12 74 42l34 -39c-22 -29 -63 -68 -125 -68c-59 0 -111 37 -96 115c10 51 49 84 87 99l-28 165h-324l-100 -175h-97zM456 611l-201 -351h261z" />
    <glyph glyph-name="Lslash" unicode="&#x141;" horiz-adv-x="668" 
d="M638 0h-498l64 333l-92 -51l-25 65l134 75l58 298h95l-47 -239l98 54l26 -65l-141 -78l-59 -307h403z" />
    <glyph glyph-name="zacute" unicode="&#x17a;" horiz-adv-x="482" 
d="M419 0h-389l14 75l358 370h-268l14 75h374l-14 -75l-363 -370h318zM518 790l-174 -187h-71l127 187h118z" />
    <glyph glyph-name="sacute" unicode="&#x15b;" horiz-adv-x="489" 
d="M62 150l90 13c-3 -55 23 -103 109 -103c51 0 120 17 131 75c8 40 -6 61 -57 75l-120 34c-65 19 -120 51 -104 137c22 109 124 154 231 154c124 0 182 -69 163 -158h-83c3 57 -29 83 -96 83c-65 0 -118 -27 -126 -69c-8 -35 22 -52 52 -60l132 -38c62 -18 118 -53 99 -150
c-22 -115 -136 -158 -240 -158c-127 0 -193 60 -181 165zM518 790l-174 -187h-71l127 187h118z" />
    <glyph glyph-name="Zacute" unicode="&#x179;" horiz-adv-x="672" 
d="M612 0h-552l15 85l534 550h-408l17 85h522l-17 -85l-539 -550h443zM648 990l-174 -187h-71l127 187h118z" />
    <glyph glyph-name="Tcaron" unicode="&#x164;" horiz-adv-x="619" 
d="M357 0h-95l121 635h-242l17 85h579l-17 -85h-242zM492 790h-77l-104 180h87l64 -121l112 121h92z" />
    <glyph glyph-name="dcaron" unicode="&#x10f;" horiz-adv-x="650" 
d="M534 720h90l-139 -720h-80l13 71c-39 -50 -94 -86 -163 -86c-144 0 -201 113 -170 275c32 162 132 275 276 275c62 0 102 -28 124 -70zM456 260c26 132 -25 200 -104 200s-151 -68 -177 -200s20 -200 99 -200c69 0 156 68 182 200zM721 620h-51l19 100h100l-19 -100
c-14 -71 -50 -118 -110 -142l-16 38c38 15 65 40 77 104z" />
    <glyph glyph-name="lcaron" unicode="&#x13e;" horiz-adv-x="320" 
d="M155 0h-90l135 695l97 40zM391 620h-51l19 100h100l-19 -100c-14 -71 -50 -118 -110 -142l-16 38c38 15 65 40 77 104z" />
    <glyph glyph-name="tcaron" unicode="&#x165;" horiz-adv-x="420" 
d="M286 76l-4 -76c-22 -6 -49 -10 -68 -10c-109 0 -111 60 -91 162l58 299h-74l14 69h74l26 137l99 43l-35 -180h89l-14 -69h-89l-59 -304c-9 -45 -15 -77 32 -77c10 0 25 1 42 6zM491 620h-51l19 100h100l-19 -100c-14 -71 -50 -118 -110 -142l-16 38c38 15 65 40 77 104z
" />
    <glyph glyph-name="oe" unicode="&#x153;" horiz-adv-x="907" 
d="M68 260c34 172 152 275 296 275c85 0 148 -36 178 -102c54 66 128 102 214 102c129 0 181 -83 181 -146c-1 -119 -99 -152 -206 -152h-180c-17 -125 44 -177 119 -177c61 0 128 38 161 116l82 -18c-53 -116 -150 -173 -263 -173c-86 0 -146 36 -175 102
c-55 -66 -131 -102 -217 -102c-144 0 -223 103 -190 275zM158 260c-27 -142 36 -200 115 -200s164 58 191 200c28 142 -35 200 -114 200s-164 -58 -192 -200zM742 460c-62 0 -138 -45 -175 -151h177c64 0 104 18 106 77c2 49 -51 74 -108 74z" />
    <glyph glyph-name="ae" unicode="&#xe6;" horiz-adv-x="863" 
d="M869 158c-53 -116 -150 -173 -263 -173c-75 0 -131 28 -163 79c-66 -53 -136 -79 -204 -79c-116 0 -190 49 -178 152c13 112 119 157 237 168c56 5 109 15 137 27c1 7 3 13 4 20c16 81 -20 111 -89 111c-65 0 -113 -36 -145 -104c-27 6 -54 13 -81 19
c49 120 149 157 249 157c84 0 126 -28 148 -77c51 50 117 77 191 77c129 0 181 -83 181 -146c0 -119 -100 -152 -206 -152h-180c-17 -125 44 -177 119 -177c61 0 128 38 161 116c27 -6 55 -12 82 -18zM257 57c67 0 115 23 163 63c-8 29 -9 63 -5 101c1 13 3 25 6 40
c-27 -11 -77 -21 -127 -28c-57 -9 -129 -22 -138 -92c-8 -66 43 -84 101 -84zM698 460c-62 0 -138 -45 -175 -151h177c62 0 103 18 106 77c2 49 -51 74 -108 74z" />
    </font>
</defs>
</svg>
