<?xml version="1.0" standalone="no"?>
<!DOCTYPE svg PUBLIC "-//W3C//DTD SVG 1.1//EN" "http://www.w3.org/Graphics/SVG/1.1/DTD/svg11.dtd" >
<svg xmlns="http://www.w3.org/2000/svg" xmlns:xlink="http://www.w3.org/1999/xlink" version="1.1">
<metadata>
Created by FontForge 20160407 at Fri Jun  3 16:17:00 2016
 By Jimmy Wärting
Copyright (c) 2009 by abstrkt. All rights reserved.
</metadata>
<defs>
<font id="VremenaGroteskBoldItalic" horiz-adv-x="596" >
  <font-face 
    font-family="Vremena Grotesk Bold Italic"
    font-weight="400"
    font-style="italic"
    font-stretch="normal"
    units-per-em="1000"
    panose-1="0 0 0 0 0 0 0 0 0 0"
    ascent="750"
    descent="-250"
    x-height="520"
    cap-height="720"
    bbox="-100 -377 4625 1035"
    underline-thickness="50"
    underline-position="-100"
    unicode-range="U+0020-2122"
  />
<missing-glyph horiz-adv-x="278" 
 />
    <glyph glyph-name=".notdef" horiz-adv-x="278" 
 />
    <glyph glyph-name=".null" horiz-adv-x="0" 
 />
    <glyph glyph-name="CR" horiz-adv-x="278" 
 />
    <glyph glyph-name="space" unicode=" " horiz-adv-x="278" 
 />
    <glyph glyph-name="afii10069" unicode="&#x434;" horiz-adv-x="561" 
d="M228 596l37 139c296 0 378 -225 316 -495c-41 -182 -180 -255 -309 -255c-99 0 -243 68 -206 260s170 250 259 250c74 0 128 -38 142 -60c-4 63 -42 161 -239 161zM215 240c-18 -97 32 -130 81 -130s117 33 135 130c19 97 -31 130 -80 130s-117 -33 -136 -130z" />
    <glyph glyph-name="afii10070" unicode="&#x435;" horiz-adv-x="556" 
d="M544 141c-59 -103 -146 -156 -271 -156c-134 0 -242 83 -205 275s178 275 311 275c107 0 213 -48 206 -169c-6 -114 -102 -149 -225 -149h-150c-10 -72 30 -107 97 -107c48 0 84 27 102 60zM351 410c-50 0 -102 -34 -119 -91h137c38 0 62 18 61 47c-1 30 -40 44 -79 44z
" />
    <glyph glyph-name="afii10072" unicode="&#x436;" horiz-adv-x="787" 
d="M498 200l-37 -200h-150l37 200h-12c-30 0 -44 -15 -69 -51l-92 -149h-165l119 173c40 51 73 84 110 92l1 4c-37 10 -49 39 -59 73c-8 34 -9 45 -44 45h-19l15 133h29c71 0 100 -8 126 -67c7 -16 15 -66 24 -94c9 -31 28 -34 48 -34h12l38 195h150l-38 -195h12
c20 0 35 3 58 34c19 28 45 78 58 94c48 59 87 67 158 67h29l-35 -133h-19c-35 0 -40 -11 -64 -45c-22 -34 -44 -63 -85 -73l-1 -4c33 -8 54 -41 76 -92l53 -173h-165l-36 149c-13 36 -21 51 -51 51h-12z" />
    <glyph glyph-name="afii10073" unicode="&#x437;" horiz-adv-x="469" 
d="M242 215l20 108h31c41 0 54 19 60 44c5 24 -9 46 -48 46c-38 0 -64 -19 -78 -52l-126 23c38 100 125 151 234 151c115 0 190 -53 170 -153c-13 -72 -71 -101 -108 -107c52 -6 98 -51 85 -120c-23 -122 -140 -170 -252 -170c-118 0 -191 52 -189 161l142 18
c-1 -43 33 -57 70 -57c47 0 80 20 88 57c7 39 -19 51 -57 51h-42z" />
    <glyph glyph-name="afii10074" unicode="&#x438;" horiz-adv-x="574" 
d="M464 520h150l-99 -520h-141l14 75c-51 -64 -101 -90 -163 -90c-144 0 -171 92 -147 216l61 319h150l-60 -315c-12 -60 3 -94 61 -94c52 0 103 42 120 126z" />
    <glyph glyph-name="afii10075" unicode="&#x439;" horiz-adv-x="574" 
d="M482 720h105c-19 -95 -97 -147 -197 -147s-160 53 -141 147h105c-3 -40 25 -56 53 -56s62 16 75 56zM464 520h150l-99 -520h-141l14 75c-51 -64 -101 -90 -163 -90c-144 0 -171 92 -147 216l61 319h150l-60 -315c-12 -60 3 -94 61 -94c52 0 103 42 120 126z" />
    <glyph glyph-name="afii10076" unicode="&#x43a;" horiz-adv-x="578" 
d="M50 0l99 520h150l-38 -195h22c30 0 41 3 74 34c24 24 52 78 64 94c43 59 95 67 166 67h31l-40 -133h-16c-35 0 -45 -11 -69 -45c-22 -34 -44 -58 -84 -68l-1 -4c34 -8 58 -46 80 -97l53 -173h-165l-41 149c-13 36 -36 51 -76 51h-22l-37 -200h-150z" />
    <glyph glyph-name="afii10077" unicode="&#x43b;" horiz-adv-x="589" 
d="M152 257l51 263h426l-99 -520h-150l75 395h-136l-36 -188c-22 -110 -73 -222 -196 -222c-29 0 -70 10 -77 15l22 119c9 -6 23 -11 37 -11c59 -1 69 76 83 149z" />
    <glyph glyph-name="afii10078" unicode="&#x43c;" horiz-adv-x="736" 
d="M50 0l99 520h201l46 -346l192 346h188l-99 -520h-150l56 295l-162 -295h-119l-46 295l-56 -295h-150z" />
    <glyph glyph-name="afii10079" unicode="&#x43d;" horiz-adv-x="579" 
d="M50 0l99 520h150l-38 -195h170l38 195h150l-99 -520h-150l37 200h-170l-37 -200h-150z" />
    <glyph glyph-name="afii10080" unicode="&#x43e;" horiz-adv-x="572" 
d="M68 260c37 192 172 275 311 275s242 -83 205 -275s-172 -275 -311 -275s-242 83 -205 275zM218 260c-18 -97 10 -150 79 -150s119 53 137 150s-10 150 -79 150s-119 -53 -137 -150z" />
    <glyph glyph-name="afii10081" unicode="&#x43f;" horiz-adv-x="584" 
d="M200 0h-150l99 520h141l-14 -75c50 64 100 90 162 90c144 0 171 -92 148 -216l-61 -319h-150l60 315c12 60 -4 94 -62 94c-52 0 -103 -42 -120 -126z" />
    <glyph glyph-name="afii10082" unicode="&#x440;" horiz-adv-x="577" 
d="M160 -200h-150l138 720h140l-11 -61c39 50 91 76 150 76c124 0 206 -93 171 -275s-158 -275 -282 -275c-42 0 -89 13 -109 60zM237 260c-19 -102 12 -150 76 -150s116 48 135 150c20 102 -17 150 -76 150s-115 -48 -135 -150z" />
    <glyph glyph-name="afii10083" unicode="&#x441;" horiz-adv-x="540" 
d="M218 260c-18 -97 4 -150 69 -150c48 0 86 25 109 86l144 -21c-55 -139 -165 -190 -277 -190c-134 0 -232 83 -195 275s167 275 301 275c122 0 233 -59 191 -223h-150c13 56 -7 98 -65 98c-62 0 -109 -53 -127 -150z" />
    <glyph glyph-name="afii10084" unicode="&#x442;" horiz-adv-x="862" 
d="M200 0h-150l99 520h141l-14 -74c48 64 95 89 164 89c76 0 120 -35 129 -96c47 69 104 96 169 96c97 0 151 -63 128 -179l-67 -356h-150l60 317c10 54 3 92 -44 92c-51 0 -96 -43 -110 -118l-55 -291h-150l60 317c13 68 -8 92 -44 92c-57 0 -99 -55 -115 -140z" />
    <glyph glyph-name="afii10086" unicode="&#x444;" horiz-adv-x="847" 
d="M527 260c-23 -117 10 -150 56 -150s102 33 125 150c22 112 -20 150 -66 150c-36 0 -92 -28 -115 -150zM398 260c23 122 -21 150 -57 150c-46 0 -102 -38 -124 -150c-23 -117 21 -150 67 -150s91 33 114 150zM450 -200h-150l47 245c-26 -32 -61 -60 -123 -60
c-124 0 -186 118 -156 275c31 157 128 275 257 275c69 0 96 -34 105 -56l42 216l158 40l-50 -256c19 22 58 56 127 56c129 0 182 -118 151 -275c-30 -157 -138 -275 -262 -275c-62 0 -87 28 -99 60z" />
    <glyph glyph-name="afii10087" unicode="&#x445;" horiz-adv-x="575" 
d="M182 0h-172l230 266l-119 254h176l56 -148l113 148h169l-209 -251l124 -269h-173l-68 160z" />
    <glyph glyph-name="afii10088" unicode="&#x446;" horiz-adv-x="617" 
d="M464 520h150l-68 -353c-14 -70 5 -90 81 -90l-45 -237h-140l27 145c-30 0 -86 27 -81 90c-51 -64 -101 -90 -163 -90c-144 0 -171 92 -147 216l61 319h150l-60 -315c-12 -60 3 -94 61 -94c52 0 103 42 120 126z" />
    <glyph glyph-name="afii10089" unicode="&#x447;" horiz-adv-x="554" 
d="M97 353l32 167h150l-23 -120c-17 -88 -16 -128 47 -128c33 0 75 12 100 32l41 216h150l-99 -520h-150l36 189c-39 -21 -86 -35 -131 -35c-135 0 -176 79 -153 199z" />
    <glyph glyph-name="afii10090" unicode="&#x448;" horiz-adv-x="852" 
d="M742 520h150l-99 -520h-141l14 74c-49 -64 -96 -89 -165 -89c-76 0 -120 35 -129 96c-47 -69 -104 -96 -169 -96c-97 0 -150 63 -128 179l68 356h150l-60 -317c-11 -54 -4 -92 43 -92c51 0 96 43 111 118l55 291h150l-60 -317c-14 -68 7 -92 43 -92c57 0 99 55 115 140z
" />
    <glyph glyph-name="afii10091" unicode="&#x449;" horiz-adv-x="895" 
d="M742 520h150l-68 -353c-14 -70 5 -90 81 -90l-45 -237h-140l27 145c-30 0 -86 26 -81 89c-49 -64 -96 -89 -165 -89c-76 0 -120 35 -129 96c-47 -69 -104 -96 -169 -96c-97 0 -150 63 -128 179l68 356h150l-60 -317c-11 -54 -4 -92 43 -92c51 0 96 43 111 118l55 291h150
l-60 -317c-14 -68 7 -92 43 -92c57 0 99 55 115 140z" />
    <glyph glyph-name="afii10092" unicode="&#x44a;" horiz-adv-x="571" 
d="M90 397l24 123h263l-49 -205c40 38 90 43 121 43c71 0 162 -59 137 -186c-25 -125 -130 -187 -236 -187h-22c-113 0 -203 80 -162 263l33 149h-109zM435 178c6 38 -14 75 -69 75c-21 0 -42 -8 -54 -16l-8 -41c-9 -51 8 -89 49 -89c33 0 73 24 82 71z" />
    <glyph glyph-name="afii10093" unicode="&#x44b;" horiz-adv-x="722" 
d="M513 0l99 520h150l-99 -520h-150zM340 178c6 38 -14 75 -69 75c-21 0 -42 -8 -54 -16l-8 -41c-9 -51 8 -89 49 -89c33 0 73 24 82 71zM71 248l61 272h150l-49 -205c40 38 90 43 121 43c71 0 162 -59 137 -186c-25 -125 -130 -187 -236 -187h-22c-113 0 -203 80 -162 263z
" />
    <glyph glyph-name="afii10094" unicode="&#x44c;" horiz-adv-x="476" 
d="M71 248l61 272h150l-49 -205c40 38 90 43 121 43c71 0 162 -59 137 -186c-25 -125 -130 -187 -236 -187h-22c-113 0 -203 80 -162 263zM340 178c6 38 -14 75 -69 75c-21 0 -42 -8 -54 -16l-7 -31c-12 -51 0 -99 48 -99c33 0 73 24 82 71z" />
    <glyph glyph-name="afii10095" unicode="&#x44d;" horiz-adv-x="562" 
d="M261 210l21 105h148c7 62 -29 95 -75 95c-48 0 -94 -24 -115 -88l-142 22c55 139 170 191 282 191c139 0 230 -88 194 -275c-37 -192 -167 -275 -306 -275c-112 0 -207 48 -208 190l152 21c-1 -61 32 -86 80 -86c50 0 100 24 118 100h-149z" />
    <glyph glyph-name="afii10096" unicode="&#x44e;" horiz-adv-x="788" 
d="M50 0l99 520h150l-38 -195h60c52 146 171 210 284 210c129 0 232 -83 195 -275s-172 -275 -301 -275c-114 0 -209 65 -203 215h-59l-37 -200h-150zM454 260c-18 -97 7 -150 69 -150s109 53 127 150s-7 150 -69 150s-109 -53 -127 -150z" />
    <glyph glyph-name="afii10097" unicode="&#x44f;" horiz-adv-x="537" 
d="M352 520h225l-99 -520h-140l31 171h-18c-56 0 -87 -26 -116 -71l-62 -100h-163l83 124c33 48 82 94 142 100c-78 -2 -138 54 -124 131c21 105 122 165 241 165zM391 284l24 121h-57c-63 0 -88 -28 -94 -58c-8 -41 12 -63 96 -63h31z" />
    <glyph glyph-name="afii10017" unicode="&#x410;" horiz-adv-x="730" 
d="M434 720h144l142 -720h-165l-24 130h-287l-71 -130h-163zM463 521l-144 -259h190z" />
    <glyph glyph-name="afii10018" unicode="&#x411;" horiz-adv-x="682" 
d="M208 720h523l-28 -145h-363l-22 -115h153c159 0 243 -84 215 -229c-35 -175 -166 -231 -301 -231h-315zM291 320l-35 -180h148c75 0 108 36 119 94c9 47 -9 86 -92 86h-140z" />
    <glyph glyph-name="afii10019" unicode="&#x412;" horiz-adv-x="684" 
d="M373 0h-303l138 720h293c146 0 241 -59 216 -187c-13 -68 -60 -131 -144 -157c81 -21 126 -83 110 -168c-30 -152 -147 -208 -310 -208zM339 595l-32 -165h119c73 0 119 33 130 91c12 58 -36 74 -110 74h-107zM283 305l-35 -180h138c78 0 125 25 136 83
c13 67 -31 97 -114 97h-125z" />
    <glyph glyph-name="afii10020" unicode="&#x413;" horiz-adv-x="583" 
d="M70 0l138 720h483l-28 -145h-323l-110 -575h-160z" />
    <glyph glyph-name="afii10021" unicode="&#x414;" horiz-adv-x="797" 
d="M259 512l41 208h519l-111 -576h86l-60 -313h-160l33 169h-437l-33 -169h-158l58 313h38c115 0 153 205 184 368zM548 144l83 431h-204l-2 -12c-36 -181 -68 -375 -169 -419h292z" />
    <glyph glyph-name="afii10022" unicode="&#x415;" horiz-adv-x="657" 
d="M607 0h-537l138 720h527l-28 -145h-367l-26 -135h317l-28 -145h-317l-29 -150h377z" />
    <glyph glyph-name="afii10024" unicode="&#x416;" horiz-adv-x="1040" 
d="M656 295l-56 -295h-160l56 295h-16c-57 0 -98 -23 -146 -101l-117 -194h-187l159 238c52 77 128 123 180 130c-42 6 -61 37 -71 65l-32 79c-19 51 -38 61 -71 61h-26l28 147h47c62 0 104 -1 140 -92l51 -129c15 -37 27 -69 73 -69h14l56 290h160l-56 -290h14
c46 0 70 32 99 69l101 129c72 91 114 92 176 92h47l-28 -147h-26c-33 0 -56 -10 -97 -61l-60 -79c-22 -28 -53 -59 -97 -65c50 -7 108 -53 130 -130l69 -238h-187l-45 194c-16 78 -49 101 -106 101h-16z" />
    <glyph glyph-name="afii10025" unicode="&#x417;" horiz-adv-x="630" 
d="M303 305l25 130h65c72 0 99 32 108 79c10 52 -22 81 -81 81c-65 0 -108 -29 -128 -88l-140 28c46 129 158 200 296 200c127 0 236 -69 211 -202c-16 -77 -68 -133 -135 -157c87 -16 121 -86 105 -167c-30 -160 -183 -224 -317 -224c-135 0 -250 54 -244 217l151 24
c5 -65 30 -104 115 -104c79 0 127 32 140 94c12 62 -31 89 -96 89h-75z" />
    <glyph glyph-name="afii10026" unicode="&#x418;" horiz-adv-x="767" 
d="M240 0h-170l138 720h160l-94 -485l391 485h170l-138 -720h-160l94 490z" />
    <glyph glyph-name="afii10027" unicode="&#x419;" horiz-adv-x="767" 
d="M624 920h120c-18 -95 -88 -167 -218 -167s-168 73 -150 167h120c-10 -50 10 -73 48 -73s70 23 80 73zM240 0h-170l138 720h160l-94 -485l391 485h170l-138 -720h-160l94 490z" />
    <glyph glyph-name="afii10028" unicode="&#x41a;" horiz-adv-x="710" 
d="M70 0l138 720h160l-56 -290h34c46 0 70 32 99 69l101 129c72 91 144 92 206 92h37l-38 -147h-36c-33 0 -56 -10 -97 -61l-60 -79c-22 -28 -53 -59 -97 -65c50 -7 99 -57 130 -130l99 -238h-180l-75 194c-28 73 -59 101 -126 101h-23l-56 -295h-160z" />
    <glyph glyph-name="afii10029" unicode="&#x41b;" horiz-adv-x="756" 
d="M225 412l60 308h539l-138 -720h-160l110 575h-224l-39 -202c-41 -212 -99 -388 -272 -388c-31 0 -71 8 -86 20l23 147c11 -7 25 -17 50 -17c85 0 106 114 137 277z" />
    <glyph glyph-name="afii10030" unicode="&#x41c;" horiz-adv-x="923" 
d="M230 0h-160l138 720h200l90 -527l293 527h200l-138 -720h-160l84 443l-248 -443h-135l-80 443z" />
    <glyph glyph-name="afii10031" unicode="&#x41d;" horiz-adv-x="747" 
d="M230 0h-160l138 720h160l-54 -280h287l54 280h160l-138 -720h-160l56 295h-287z" />
    <glyph glyph-name="afii10032" unicode="&#x41e;" horiz-adv-x="765" 
d="M109 360c41 217 195 375 415 375c219 0 311 -158 270 -375c-43 -217 -196 -375 -415 -375c-220 0 -313 158 -270 375zM274 360c-29 -147 22 -235 132 -235c109 0 194 88 223 235c28 147 -23 235 -132 235c-110 0 -195 -88 -223 -235z" />
    <glyph glyph-name="afii10033" unicode="&#x41f;" horiz-adv-x="747" 
d="M230 0h-160l138 720h607l-138 -720h-160l110 575h-287z" />
    <glyph glyph-name="afii10034" unicode="&#x420;" horiz-adv-x="672" 
d="M230 0h-160l138 720h275c145 0 274 -66 240 -241c-27 -145 -147 -249 -326 -249h-123zM341 580l-41 -210h110c103 0 140 59 150 106c11 58 -16 104 -111 104h-108z" />
    <glyph glyph-name="afii10035" unicode="&#x421;" horiz-adv-x="741" 
d="M274 360c-29 -147 27 -235 137 -235c78 0 139 40 180 125l149 -44c-71 -138 -183 -221 -356 -221c-220 0 -318 158 -275 375c41 217 205 375 425 375c163 0 293 -92 265 -256h-165c6 80 -49 116 -127 116c-110 0 -205 -88 -233 -235z" />
    <glyph glyph-name="afii10036" unicode="&#x422;" horiz-adv-x="664" 
d="M412 0h-160l110 575h-222l28 145h604l-28 -145h-222z" />
    <glyph glyph-name="afii10037" unicode="&#x423;" horiz-adv-x="705" 
d="M335 196l-187 524h167l125 -371l232 371h161l-361 -561c-79 -124 -158 -174 -249 -174c-55 0 -113 16 -133 41l59 131c15 -13 51 -34 83 -34c33 0 65 12 89 50z" />
    <glyph glyph-name="afii10038" unicode="&#x424;" horiz-adv-x="846" 
d="M499 -15h-160l18 90c-175 2 -296 91 -258 285c36 193 191 282 368 285l17 90h160l-17 -90c173 -3 294 -92 258 -285c-38 -194 -193 -283 -368 -285zM720 360c19 102 -36 138 -122 140l-53 -280c77 2 154 37 175 140zM264 360c-21 -103 35 -138 121 -140l53 280
c-78 -2 -155 -38 -174 -140z" />
    <glyph glyph-name="afii10039" unicode="&#x425;" horiz-adv-x="722" 
d="M204 0h-184l330 373l-174 347h188l97 -228l191 228h183l-309 -352l176 -368h-178l-108 250z" />
    <glyph glyph-name="afii10040" unicode="&#x426;" horiz-adv-x="793" 
d="M655 720h160l-111 -576h86l-60 -313h-160l33 169h-533l138 720h160l-111 -575h287z" />
    <glyph glyph-name="afii10041" unicode="&#x427;" horiz-adv-x="681" 
d="M749 720l-138 -720h-160l52 276c-41 -20 -96 -35 -170 -35c-194 0 -224 122 -191 294l36 185h160l-34 -176c-23 -119 -5 -166 89 -166c57 0 105 11 136 32l60 310h160z" />
    <glyph glyph-name="afii10042" unicode="&#x428;" horiz-adv-x="974" 
d="M882 720h160l-138 -720h-834l138 720h160l-111 -575h177l111 575h160l-111 -575h177z" />
    <glyph glyph-name="afii10043" unicode="&#x429;" horiz-adv-x="1020" 
d="M1042 720l-111 -576h86l-60 -313h-160l33 169h-760l138 720h160l-111 -575h177l111 575h160l-111 -575h177l111 575h160z" />
    <glyph glyph-name="afii10044" unicode="&#x42a;" horiz-adv-x="772" 
d="M473 720l-47 -240h123c179 0 261 -94 233 -239c-33 -175 -187 -241 -332 -241h-275l110 575h-155l28 145h315zM401 350l-40 -210h108c95 0 140 46 151 104c9 47 -6 106 -109 106h-110z" />
    <glyph glyph-name="afii10045" unicode="&#x42b;" horiz-adv-x="940" 
d="M870 0h-160l138 720h160zM208 720h160l-47 -240h123c179 0 261 -94 233 -239c-33 -175 -187 -241 -332 -241h-275zM296 350l-40 -210h108c95 0 140 46 151 104c9 47 -6 106 -109 106h-110z" />
    <glyph glyph-name="afii10046" unicode="&#x42c;" horiz-adv-x="667" 
d="M208 720h160l-47 -240h123c179 0 261 -94 233 -239c-33 -175 -187 -241 -332 -241h-275zM296 350l-40 -210h108c95 0 140 46 151 104c9 47 -6 106 -109 106h-110z" />
    <glyph glyph-name="afii10047" unicode="&#x42d;" horiz-adv-x="741" 
d="M343 305l24 125h245c13 104 -44 165 -135 165c-78 0 -152 -36 -191 -126l-144 44c67 144 199 222 362 222c230 0 307 -158 266 -375c-43 -217 -176 -375 -416 -375c-173 0 -258 83 -275 221l165 44c9 -85 59 -125 137 -125c95 0 182 61 207 180h-245z" />
    <glyph glyph-name="afii10048" unicode="&#x42e;" horiz-adv-x="1035" 
d="M230 0h-160l138 720h160l-54 -280h105c59 175 193 295 385 295c219 0 301 -158 260 -375c-43 -217 -186 -375 -405 -375c-198 0 -284 127 -269 310h-104zM564 360c-29 -147 12 -235 122 -235c109 0 184 88 213 235c28 147 -13 235 -122 235c-110 0 -185 -88 -213 -235z
" />
    <glyph glyph-name="afii10049" unicode="&#x42f;" horiz-adv-x="695" 
d="M763 720l-138 -720h-160l47 250h-38c-81 0 -136 -23 -195 -129l-66 -121h-193l101 167c41 66 105 131 182 140c-100 12 -166 82 -145 192c31 160 165 221 320 221h285zM538 385l37 190h-68c-95 0 -173 -6 -189 -94c-14 -69 37 -96 150 -96h70z" />
    <glyph glyph-name="a" unicode="a" horiz-adv-x="551" 
d="M350 54c-52 -52 -100 -69 -162 -69c-94 0 -163 51 -144 147c21 112 107 154 236 169c55 6 88 12 116 24l3 12c6 34 -5 76 -68 76c-58 0 -88 -39 -105 -77l-119 42c49 120 158 157 255 157c133 0 214 -60 182 -221l-39 -208c-11 -53 -5 -87 10 -106h-151
c-14 13 -15 37 -14 54zM366 165l13 70c-20 -7 -45 -16 -97 -26c-48 -9 -81 -26 -87 -67c-3 -23 6 -45 49 -45c47 0 98 33 122 68z" />
    <glyph glyph-name="b" unicode="b" horiz-adv-x="587" 
d="M188 720h150l-47 -245c39 47 90 60 132 60c124 0 211 -93 176 -275s-153 -275 -277 -275c-59 0 -101 26 -121 76l-11 -61h-140zM238 260c-19 -102 18 -150 77 -150s115 48 134 150c20 102 -13 150 -77 150s-114 -48 -134 -150z" />
    <glyph glyph-name="c" unicode="c" horiz-adv-x="540" 
d="M218 260c-18 -97 4 -150 69 -150c48 0 86 25 109 86l144 -21c-55 -139 -165 -190 -277 -190c-134 0 -232 83 -195 275s167 275 301 275c122 0 233 -59 191 -223h-150c13 56 -7 98 -65 98c-62 0 -109 -53 -127 -150z" />
    <glyph glyph-name="d" unicode="d" horiz-adv-x="578" 
d="M508 720h150l-138 -720h-140l11 61c-40 -50 -92 -76 -151 -76c-124 0 -206 93 -171 275s158 275 282 275c42 0 89 -13 110 -60zM430 260c20 102 -12 150 -76 150s-115 -48 -135 -150c-19 -102 17 -150 76 -150s116 48 135 150z" />
    <glyph glyph-name="e" unicode="e" horiz-adv-x="556" 
d="M544 141c-59 -103 -146 -156 -271 -156c-134 0 -242 83 -205 275s178 275 311 275c107 0 213 -48 206 -169c-6 -114 -102 -149 -225 -149h-150c-10 -72 30 -107 97 -107c48 0 84 27 102 60zM351 410c-50 0 -102 -34 -119 -91h137c38 0 62 18 61 47c-1 30 -40 44 -79 44z
" />
    <glyph glyph-name="f" unicode="f" horiz-adv-x="414" 
d="M-50 -196l42 124c15 -5 22 -6 32 -6c58 0 73 52 83 105l73 374h-78l22 119h78l4 21c21 110 87 190 197 190c43 0 96 -8 111 -16l-40 -122c-13 6 -38 10 -54 10c-33 0 -57 -16 -67 -60l-4 -23h111l-22 -119h-111l-83 -429c-21 -106 -97 -182 -209 -182c-24 0 -65 5 -85 14
z" />
    <glyph glyph-name="g" unicode="g" horiz-adv-x="575" 
d="M519 20c-25 -129 -118 -240 -301 -240c-102 0 -197 41 -192 130c3 46 39 99 136 100c-78 32 -123 116 -96 255c35 182 152 270 276 270c59 0 101 -26 122 -76l11 61h140zM427 265c20 102 -19 145 -78 145s-113 -43 -133 -145c-19 -102 14 -145 78 -145s114 43 133 145z
M243 -5c-23 0 -45 3 -65 9c-12 -10 -21 -26 -22 -48c-3 -44 35 -60 84 -60c75 0 115 55 129 122l5 27c-38 -39 -89 -50 -131 -50z" />
    <glyph glyph-name="h" unicode="h" horiz-adv-x="584" 
d="M200 0h-150l138 720h150l-52 -265c46 57 90 80 152 80c144 0 171 -92 148 -216l-61 -319h-150l60 315c12 60 -4 94 -62 94c-52 0 -103 -42 -120 -126z" />
    <glyph glyph-name="i" unicode="i" horiz-adv-x="258" 
d="M311 584h-150l27 136h150zM200 0h-150l99 520h150z" />
    <glyph glyph-name="j" unicode="j" horiz-adv-x="261" 
d="M-100 -196l42 124c16 -5 24 -6 34 -6c56 0 71 52 81 105l95 493h150l-105 -548c-21 -106 -100 -182 -211 -182c-23 0 -66 5 -86 14zM314 584h-150l27 136h150z" />
    <glyph glyph-name="k" unicode="k" horiz-adv-x="578" 
d="M50 0l138 720h150l-77 -395h22c30 0 41 3 74 34c24 24 52 78 64 94c43 59 95 67 166 67h31l-40 -133h-16c-35 0 -45 -11 -69 -45c-22 -34 -44 -58 -84 -68l-1 -4c34 -8 58 -46 80 -97l53 -173h-165l-41 149c-13 36 -36 51 -76 51h-22l-37 -200h-150z" />
    <glyph glyph-name="l" unicode="l" horiz-adv-x="261" 
d="M200 0h-150l133 695l158 40z" />
    <glyph glyph-name="m" unicode="m" horiz-adv-x="862" 
d="M200 0h-150l99 520h141l-14 -74c48 64 95 89 164 89c76 0 120 -35 129 -96c47 69 104 96 169 96c97 0 151 -63 128 -179l-67 -356h-150l60 317c10 54 3 92 -44 92c-51 0 -96 -43 -110 -118l-55 -291h-150l60 317c13 68 -8 92 -44 92c-57 0 -99 -55 -115 -140z" />
    <glyph glyph-name="n" unicode="n" horiz-adv-x="584" 
d="M200 0h-150l99 520h141l-14 -75c50 64 100 90 162 90c144 0 171 -92 148 -216l-61 -319h-150l60 315c12 60 -4 94 -62 94c-52 0 -103 -42 -120 -126z" />
    <glyph glyph-name="o" unicode="o" horiz-adv-x="572" 
d="M68 260c37 192 172 275 311 275s242 -83 205 -275s-172 -275 -311 -275s-242 83 -205 275zM218 260c-18 -97 10 -150 79 -150s119 53 137 150s-10 150 -79 150s-119 -53 -137 -150z" />
    <glyph glyph-name="p" unicode="p" horiz-adv-x="577" 
d="M160 -200h-150l138 720h140l-11 -61c39 50 91 76 150 76c124 0 206 -93 171 -275s-158 -275 -282 -275c-42 0 -89 13 -109 60zM237 260c-19 -102 12 -150 76 -150s116 48 135 150c20 102 -17 150 -76 150s-115 -48 -135 -150z" />
    <glyph glyph-name="q" unicode="q" horiz-adv-x="588" 
d="M480 -200h-150l47 245c-40 -47 -91 -60 -133 -60c-124 0 -211 93 -176 275s153 275 277 275c59 0 101 -26 122 -76l11 61h140zM429 260c20 102 -18 150 -77 150s-114 -48 -134 -150c-19 -102 13 -150 77 -150s115 48 134 150z" />
    <glyph glyph-name="r" unicode="r" horiz-adv-x="462" 
d="M200 0h-150l99 520h141l-17 -90c46 70 87 105 162 105c40 0 66 -7 87 -26l-47 -134c-19 10 -40 20 -71 20c-86 0 -141 -63 -160 -164z" />
    <glyph glyph-name="s" unicode="s" horiz-adv-x="515" 
d="M51 150l128 21c-2 -45 36 -71 92 -71c41 0 95 10 103 52c5 24 -11 36 -32 41l-137 27c-66 15 -116 63 -99 149c23 119 131 166 248 166c124 0 201 -73 176 -182h-129c12 53 -37 67 -74 67c-41 0 -87 -12 -94 -47c-4 -17 5 -31 31 -36l134 -25c54 -12 128 -49 107 -156
c-22 -115 -125 -171 -259 -171c-127 0 -204 70 -195 165z" />
    <glyph glyph-name="t" unicode="t" horiz-adv-x="385" 
d="M348 126l-14 -119c-22 -11 -79 -17 -98 -17c-109 0 -140 60 -121 162l49 249h-74l22 119h74l20 107l159 43l-29 -150h99l-22 -119h-99l-40 -204c-9 -45 -15 -77 32 -77c10 0 25 1 42 6z" />
    <glyph glyph-name="u" unicode="u" horiz-adv-x="574" 
d="M464 520h150l-99 -520h-141l14 75c-51 -64 -101 -90 -163 -90c-144 0 -171 92 -147 216l61 319h150l-60 -315c-12 -60 3 -94 61 -94c52 0 103 42 120 126z" />
    <glyph glyph-name="v" unicode="v" horiz-adv-x="555" 
d="M335 0h-132l-113 520h152l60 -336l193 336h150z" />
    <glyph glyph-name="w" unicode="w" horiz-adv-x="771" 
d="M277 0h-133l-58 520h151l15 -352l155 352h131l19 -341l155 341h145l-261 -520h-131l-24 349z" />
    <glyph glyph-name="x" unicode="x" horiz-adv-x="575" 
d="M182 0h-172l230 266l-119 254h176l56 -148l113 148h169l-209 -251l124 -269h-173l-68 160z" />
    <glyph glyph-name="y" unicode="y" horiz-adv-x="556" 
d="M10 -195l15 133c16 -7 33 -14 68 -14c39 0 78 14 108 67l8 14l-103 515h153l54 -343l185 343h148l-309 -549c-67 -120 -148 -181 -243 -181c-37 0 -67 8 -84 15z" />
    <glyph glyph-name="z" unicode="z" horiz-adv-x="517" 
d="M444 0h-414l23 125l299 270h-228l24 125h409l-24 -125l-304 -270h288z" />
    <glyph glyph-name="A" unicode="A" horiz-adv-x="730" 
d="M434 720h144l142 -720h-165l-24 130h-287l-71 -130h-163zM463 521l-144 -259h190z" />
    <glyph glyph-name="B" unicode="B" horiz-adv-x="694" 
d="M383 0h-313l138 720h303c146 0 241 -59 216 -187c-13 -68 -60 -131 -144 -157c81 -21 126 -83 110 -168c-30 -152 -147 -208 -310 -208zM339 595l-32 -165h129c73 0 119 33 130 91c12 58 -36 74 -110 74h-117zM283 305l-35 -180h148c78 0 125 25 136 83
c13 67 -31 97 -114 97h-135z" />
    <glyph glyph-name="C" unicode="C" horiz-adv-x="741" 
d="M274 360c-29 -147 27 -235 137 -235c78 0 139 40 180 125l149 -44c-71 -138 -183 -221 -356 -221c-220 0 -318 158 -275 375c41 217 205 375 425 375c163 0 293 -92 265 -256h-165c6 80 -49 116 -127 116c-110 0 -205 -88 -233 -235z" />
    <glyph glyph-name="D" unicode="D" horiz-adv-x="714" 
d="M320 0h-250l138 720h239c242 0 340 -126 296 -358c-44 -225 -181 -362 -423 -362zM340 575l-83 -431h65c136 0 226 52 258 219c36 184 -60 212 -178 212h-62z" />
    <glyph glyph-name="E" unicode="E" horiz-adv-x="667" 
d="M607 0h-537l138 720h527l-28 -145h-367l-26 -135h317l-28 -145h-317l-29 -150h377z" />
    <glyph glyph-name="F" unicode="F" horiz-adv-x="637" 
d="M230 0h-160l138 720h517l-28 -145h-357l-26 -135h277l-28 -145h-277z" />
    <glyph glyph-name="G" unicode="G" horiz-adv-x="761" 
d="M274 360c-29 -147 27 -235 147 -235c77 0 119 18 153 42l19 94h-148l23 124h305l-53 -273c-69 -80 -197 -127 -326 -127c-230 0 -328 158 -285 375c41 217 205 375 435 375c163 0 291 -82 257 -236h-166c14 60 -40 96 -118 96c-120 0 -215 -88 -243 -235z" />
    <glyph glyph-name="H" unicode="H" horiz-adv-x="757" 
d="M230 0h-160l138 720h160l-54 -280h297l54 280h160l-138 -720h-160l56 295h-297z" />
    <glyph glyph-name="I" unicode="I" horiz-adv-x="300" 
d="M230 0h-160l138 720h160z" />
    <glyph glyph-name="J" unicode="J" horiz-adv-x="572" 
d="M63 223l157 22c-12 -73 -5 -120 60 -120c76 0 95 55 111 138l88 457h161l-93 -482c-36 -187 -156 -253 -294 -253c-131 0 -226 65 -190 238z" />
    <glyph glyph-name="K" unicode="K" horiz-adv-x="730" 
d="M230 0h-160l138 720h160l-60 -311l328 311h192l-338 -305l210 -415h-187l-142 309l-100 -91z" />
    <glyph glyph-name="L" unicode="L" horiz-adv-x="638" 
d="M608 0h-538l138 720h160l-111 -575h378z" />
    <glyph glyph-name="M" unicode="M" horiz-adv-x="923" 
d="M230 0h-160l138 720h200l90 -527l293 527h200l-138 -720h-160l84 443l-248 -443h-135l-80 443z" />
    <glyph glyph-name="N" unicode="N" horiz-adv-x="769" 
d="M226 0h-156l138 720h162l222 -461l89 461h156l-138 -720h-162l-224 461z" />
    <glyph glyph-name="O" unicode="O" horiz-adv-x="765" 
d="M109 360c41 217 195 375 415 375c219 0 311 -158 270 -375c-43 -217 -196 -375 -415 -375c-220 0 -313 158 -270 375zM274 360c-29 -147 22 -235 132 -235c109 0 194 88 223 235c28 147 -23 235 -132 235c-110 0 -195 -88 -223 -235z" />
    <glyph glyph-name="P" unicode="P" horiz-adv-x="672" 
d="M230 0h-160l138 720h275c145 0 274 -66 240 -241c-27 -145 -147 -249 -326 -249h-123zM341 580l-41 -210h110c103 0 140 59 150 106c11 58 -16 104 -111 104h-108z" />
    <glyph glyph-name="Q" unicode="Q" horiz-adv-x="765" 
d="M109 360c41 217 195 375 415 375c219 0 311 -158 270 -375c-21 -105 -67 -196 -134 -262l48 -68l-116 -89l-52 76c-49 -20 -103 -32 -161 -32c-220 0 -313 158 -270 375zM404 212l115 89l55 -80c25 37 44 84 55 139c28 147 -23 235 -132 235c-110 0 -195 -88 -223 -235
c-29 -147 22 -235 132 -235c18 0 35 2 53 7z" />
    <glyph glyph-name="R" unicode="R" horiz-adv-x="715" 
d="M70 0l138 720h283c156 0 263 -60 232 -217c-21 -110 -107 -180 -215 -194c71 -10 117 -77 133 -142l44 -167h-179l-30 121c-25 104 -65 129 -146 129h-53l-47 -250h-160zM340 575l-37 -190h70c103 0 169 27 183 96c16 84 -53 94 -148 94h-68z" />
    <glyph glyph-name="S" unicode="S" horiz-adv-x="647" 
d="M79 230l155 8c-9 -85 32 -113 115 -113c64 0 122 22 133 79c8 41 -9 60 -63 79c-35 13 -111 34 -151 47c-119 38 -127 118 -114 186c28 149 165 219 296 219c170 0 263 -71 231 -221h-157c11 52 -20 81 -97 81c-65 0 -110 -27 -116 -65c-6 -27 2 -43 34 -56
c30 -13 98 -33 163 -52c100 -30 162 -93 138 -213c-30 -152 -183 -224 -320 -224c-191 0 -266 92 -247 245z" />
    <glyph glyph-name="T" unicode="T" horiz-adv-x="664" 
d="M412 0h-160l110 575h-222l28 145h604l-28 -145h-222z" />
    <glyph glyph-name="U" unicode="U" horiz-adv-x="753" 
d="M583 317l78 403h160l-80 -418c-38 -195 -171 -317 -368 -317c-195 0 -283 122 -245 317l80 418h160l-78 -403c-27 -138 18 -187 111 -187s155 49 182 187z" />
    <glyph glyph-name="V" unicode="V" horiz-adv-x="740" 
d="M437 0h-142l-142 720h165l87 -521l295 521h163z" />
    <glyph glyph-name="W" unicode="W" horiz-adv-x="1030" 
d="M378 0h-190l-35 720h167l8 -545l233 545h184l28 -545l214 545h166l-311 -720h-190l-37 528z" />
    <glyph glyph-name="X" unicode="X" horiz-adv-x="722" 
d="M204 0h-184l330 373l-174 347h188l97 -228l191 228h183l-309 -352l176 -368h-178l-108 250z" />
    <glyph glyph-name="Y" unicode="Y" horiz-adv-x="705" 
d="M433 0h-161l55 293l-179 427h175l118 -277l222 277h170l-345 -427z" />
    <glyph glyph-name="Z" unicode="Z" horiz-adv-x="662" 
d="M612 0h-562l27 145l456 430h-353l28 145h532l-28 -145l-461 -430h388z" />
    <glyph glyph-name="afii10068" unicode="&#x433;" horiz-adv-x="479" 
d="M486 150c-29 -95 -122 -165 -249 -165c-124 0 -206 56 -183 171c21 107 107 146 167 158l124 25c26 5 38 17 42 34c7 35 -22 47 -63 47c-35 0 -64 -14 -79 -57h-129c20 109 111 172 225 172c107 0 197 -47 174 -166c-17 -86 -85 -136 -155 -151l-129 -27
c-21 -4 -40 -15 -45 -39c-8 -42 29 -52 70 -52c56 0 97 26 111 71z" />
    <glyph glyph-name="zero" unicode="0" 
d="M104 360c41 207 147 375 336 375s231 -168 190 -375c-40 -207 -146 -375 -335 -375s-231 168 -191 375zM490 360c9 42 13 83 10 118l-220 -356c11 -8 24 -12 39 -12c79 0 145 113 171 250zM244 360c-8 -42 -11 -82 -10 -117l220 355c-11 8 -23 12 -38 12
c-79 0 -145 -113 -172 -250z" />
    <glyph glyph-name="one" unicode="1" 
d="M555 720l-139 -720h-155l90 465c-24 -37 -71 -65 -149 -65l28 145c105 10 191 93 221 175h104z" />
    <glyph glyph-name="two" unicode="2" 
d="M274 145h283l-28 -145h-465c36 201 129 269 266 362c99 67 142 97 154 160c10 51 -23 73 -67 73c-47 0 -97 -25 -114 -103l-136 20c34 136 134 223 279 223c132 0 216 -68 188 -215c-22 -109 -122 -190 -221 -252c-87 -54 -130 -84 -139 -123z" />
    <glyph glyph-name="three" unicode="3" 
d="M319 461h52c52 0 78 32 87 77s-12 70 -52 70c-44 0 -83 -32 -94 -90l-140 22c33 118 141 195 260 195s207 -64 183 -185c-15 -78 -64 -131 -137 -151c84 -21 117 -94 98 -189c-27 -140 -147 -225 -287 -225c-136 0 -222 80 -203 204l157 13c-6 -47 25 -77 73 -77
c51 0 98 34 110 95s-10 106 -81 106h-52z" />
    <glyph glyph-name="four" unicode="4" 
d="M474 0h-155l27 141h-279l27 140l380 439h139l-85 -439h87l-27 -140h-87zM244 281h129l39 199z" />
    <glyph glyph-name="five" unicode="5" 
d="M76 187l152 28c-3 -56 31 -90 85 -90c71 0 115 53 129 125c13 65 -13 115 -83 115c-47 0 -78 -21 -105 -57l-139 20l145 392h384l-28 -145h-273l-40 -104c20 17 65 34 112 34c153 0 212 -113 184 -255c-29 -149 -146 -265 -316 -265c-133 0 -220 76 -207 202z" />
    <glyph glyph-name="six" unicode="6" 
d="M628 567l-136 -40c-7 48 -21 73 -67 73c-65 0 -120 -79 -144 -191c33 33 75 53 126 53c144 0 199 -105 175 -230c-26 -131 -129 -247 -274 -247c-192 0 -224 153 -185 350c51 266 172 400 333 400c123 0 173 -78 172 -168zM249 226c-11 -59 17 -101 78 -101
c56 0 105 42 116 101c12 59 -21 101 -77 101s-105 -42 -117 -101z" />
    <glyph glyph-name="seven" unicode="7" 
d="M482 575h-311l28 145h471l-28 -145c-164 -146 -270 -351 -326 -575h-156c44 208 171 446 322 575z" />
    <glyph glyph-name="eight" unicode="8" 
d="M94 203c18 95 72 159 162 196c-58 25 -82 73 -67 151c23 114 131 185 250 185s202 -71 179 -185c-15 -78 -57 -126 -125 -151c76 -37 105 -101 87 -196c-25 -130 -146 -218 -286 -218s-225 88 -200 218zM250 225c-13 -66 20 -100 71 -100s98 34 111 100
c13 68 -21 101 -72 101s-97 -33 -110 -101zM333 528c-9 -45 9 -77 51 -77s73 32 82 77s-10 77 -52 77s-72 -32 -81 -77z" />
    <glyph glyph-name="nine" unicode="9" 
d="M106 153l136 40c7 -48 31 -73 77 -73c65 0 120 79 134 191c-33 -33 -75 -53 -126 -53c-144 0 -199 105 -175 230c26 131 129 247 274 247c192 0 231 -123 187 -350c-53 -276 -164 -400 -325 -400c-123 0 -183 78 -182 168zM485 494c11 59 -17 101 -78 101
c-56 0 -105 -42 -116 -101c-12 -59 21 -101 77 -101s105 42 117 101z" />
    <glyph glyph-name="comma" unicode="," horiz-adv-x="251" 
d="M127 0h-77l29 150h151l-29 -150c-17 -85 -68 -133 -128 -157l-25 63c38 15 68 40 79 94z" />
    <glyph glyph-name="period" unicode="." horiz-adv-x="251" 
d="M201 0h-151l28 150h151z" />
    <glyph glyph-name="hyphen" unicode="-" horiz-adv-x="370" 
d="M357 192h-270l26 136h270z" />
    <glyph glyph-name="endash" unicode="&#x2013;" horiz-adv-x="556" 
d="M564 200h-496l25 125h496z" />
    <glyph glyph-name="emdash" unicode="&#x2014;" horiz-adv-x="710" 
d="M738 200h-700l25 125h700z" />
    <glyph glyph-name="exclam" unicode="!" horiz-adv-x="259" 
d="M230 228h-116l74 492h159zM205 0h-151l28 150h151z" />
    <glyph glyph-name="question" unicode="?" 
d="M402 208h-145l9 45c15 81 56 131 125 175c53 34 76 58 84 99c8 44 -19 68 -71 68c-40 0 -90 -34 -103 -101l-141 30c38 132 150 211 270 211c138 0 225 -79 201 -202c-19 -98 -84 -137 -148 -188c-42 -33 -61 -45 -74 -102zM367 0h-151l29 150h151z" />
    <glyph glyph-name=".grave" horiz-adv-x="500" 
d="M4225 260c0 -142 69 -200 148 -200c61 0 110 35 129 117l87 -19c-28 -110 -104 -173 -216 -173c-144 0 -238 103 -238 275s94 275 238 275c112 0 188 -64 216 -173l-87 -20c-19 83 -68 118 -129 118c-69 0 -148 -58 -148 -200zM4511 260c0 31 -3 59 -9 82l-55 -12v-140
l55 -13c6 24 9 51 9 83zM4625 150v220l-36 -8c7 -31 12 -65 12 -102c0 -38 -5 -72 -12 -102z" />
    <glyph glyph-name="afii10065" unicode="&#x430;" horiz-adv-x="551" 
d="M350 54c-52 -52 -100 -69 -162 -69c-94 0 -163 51 -144 147c21 112 107 154 236 169c55 6 88 12 116 24l3 12c6 34 -5 76 -68 76c-58 0 -88 -39 -105 -77l-119 42c49 120 158 157 255 157c133 0 214 -60 182 -221l-39 -208c-11 -53 -5 -87 10 -106h-151
c-14 13 -15 37 -14 54zM366 165l13 70c-20 -7 -45 -16 -97 -26c-48 -9 -81 -26 -87 -67c-3 -23 6 -45 49 -45c47 0 98 33 122 68z" />
    <glyph glyph-name="afii10066" unicode="&#x431;" horiz-adv-x="572" 
d="M662 750l-42 -149c-17 -13 -51 -18 -73 -20l-142 -10c-81 -6 -141 -53 -167 -140c51 57 119 73 169 73c136 0 214 -92 183 -257c-33 -170 -166 -262 -309 -262c-140 0 -242 89 -201 305c37 192 130 415 373 430l132 8c30 2 60 9 77 22zM222 243c-17 -92 21 -133 83 -133
s116 41 133 133c19 92 -19 132 -81 132s-116 -40 -135 -132z" />
    <glyph glyph-name="afii10067" unicode="&#x432;" horiz-adv-x="495" 
d="M532 381c-8 -50 -56 -96 -109 -111c69 -15 90 -73 79 -125c-25 -108 -127 -160 -233 -160c-174 0 -238 102 -197 291c33 153 120 259 284 259c97 0 194 -40 176 -154zM381 366c9 34 -17 54 -51 54c-50 0 -78 -34 -94 -84l-5 -16h35c57 0 103 1 115 46zM351 152
c6 37 -19 53 -77 53h-71l-3 -11c-12 -47 -2 -94 71 -94c47 0 76 27 80 52z" />
    <glyph glyph-name="periodcentered" unicode="&#xb7;" horiz-adv-x="251" 
d="M237 187h-151l29 150h151z" />
    <glyph glyph-name="afii10071" unicode="&#x451;" horiz-adv-x="556" 
d="M544 141c-59 -103 -146 -156 -271 -156c-134 0 -242 83 -205 275s178 275 311 275c107 0 213 -48 206 -169c-6 -114 -102 -149 -225 -149h-150c-10 -72 30 -107 97 -107c48 0 84 27 102 60zM351 410c-50 0 -102 -34 -119 -91h137c38 0 62 18 61 47c-1 30 -40 44 -79 44z
M352 580h-151l26 140h151zM578 580h-151l26 140h151z" />
    <glyph glyph-name="afii10023" unicode="&#x401;" horiz-adv-x="657" 
d="M607 0h-537l138 720h527l-28 -145h-367l-26 -135h317l-28 -145h-317l-29 -150h377zM434 780h-151l26 140h151zM675 780h-151l26 140h151z" />
    <glyph glyph-name="underscore" unicode="_" horiz-adv-x="656" 
d="M606 0h-556l24 125h556z" />
    <glyph glyph-name="colon" unicode=":" horiz-adv-x="251" 
d="M263 322h-151l29 150h151zM211 52h-151l29 150h151z" />
    <glyph glyph-name="ellipsis" unicode="&#x2026;" horiz-adv-x="671" 
d="M201 0h-151l29 150h151zM411 0h-151l29 150h151zM621 0h-151l29 150h151z" />
    <glyph glyph-name="plus" unicode="+" 
d="M423 300l-36 -186h-135l36 186h-180l24 125h180l36 185h135l-36 -185h181l-24 -125h-181z" />
    <glyph glyph-name="equal" unicode="=" 
d="M561 185h-456l27 135h456zM604 405h-456l26 135h456z" />
    <glyph glyph-name="quotedbl" unicode="&#x22;" horiz-adv-x="459" 
d="M281 482h-116l24 238h159zM481 482h-116l24 238h159z" />
    <glyph glyph-name="quotesingle" unicode="'" horiz-adv-x="259" 
d="M281 482h-116l24 238h159z" />
    <glyph glyph-name="bar" unicode="|" horiz-adv-x="280" 
d="M280 -100h-160v920h160v-920z" />
    <glyph glyph-name="brokenbar" unicode="&#xa6;" horiz-adv-x="280" 
d="M280 -100h-160v425h160v-425zM120 410v410h160v-410h-160z" />
    <glyph glyph-name="bracketleft" unicode="[" horiz-adv-x="357" 
d="M309 -140h-277l187 960h277l-26 -135h-122l-134 -690h122z" />
    <glyph glyph-name="bracketright" unicode="]" horiz-adv-x="357" 
d="M269 -140h-276l26 135h122l134 690h-122l26 135h277z" />
    <glyph glyph-name="slash" unicode="/" horiz-adv-x="401" 
d="M134 -100h-153l424 920h155z" />
    <glyph glyph-name="backslash" unicode="\" horiz-adv-x="401" 
d="M381 -100h-154l-68 920h155z" />
    <glyph glyph-name="semicolon" unicode=";" horiz-adv-x="251" 
d="M263 322h-151l29 150h151zM127 0h-77l29 150h151l-29 -150c-17 -85 -68 -133 -128 -157l-25 63c38 15 68 40 79 94z" />
    <glyph glyph-name="quotesinglbase" unicode="&#x201a;" horiz-adv-x="251" 
d="M127 0h-77l29 150h151l-29 -150c-17 -85 -68 -133 -128 -157l-25 63c38 15 68 40 79 94z" />
    <glyph glyph-name="quotedblbase" unicode="&#x201e;" horiz-adv-x="451" 
d="M127 0h-77l29 150h151l-29 -150c-17 -85 -68 -133 -128 -157l-25 63c38 15 68 40 79 94zM327 0h-77l29 150h151l-29 -150c-17 -85 -68 -133 -128 -157l-25 63c38 15 68 40 79 94z" />
    <glyph glyph-name="quotedblright" unicode="&#x201d;" horiz-adv-x="451" 
d="M237 570h-77l29 150h151l-29 -150c-16 -85 -68 -133 -127 -157l-25 63c38 15 68 40 78 94zM437 570h-77l29 150h151l-29 -150c-16 -85 -68 -133 -127 -157l-25 63c38 15 68 40 78 94z" />
    <glyph glyph-name="quotedblleft" unicode="&#x201c;" horiz-adv-x="451" 
d="M436 578h77l-29 -150h-151l29 150c16 85 68 133 127 157l25 -63c-38 -15 -68 -40 -78 -94zM236 578h77l-29 -150h-151l29 150c16 85 68 133 127 157l25 -63c-38 -15 -68 -40 -78 -94z" />
    <glyph glyph-name="quoteleft" unicode="&#x2018;" horiz-adv-x="251" 
d="M236 578h77l-29 -150h-151l29 150c16 85 68 133 127 157l25 -63c-38 -15 -68 -40 -78 -94z" />
    <glyph glyph-name="quoteright" unicode="&#x2019;" horiz-adv-x="251" 
d="M127 570h-77v150h151v-150c0 -85 -42 -133 -97 -157l-37 63c35 15 60 40 60 94z" />
    <glyph glyph-name="numbersign" unicode="#" horiz-adv-x="696" 
d="M439 0h-149l84 175h-91l-84 -175h-149l84 175h-100l64 125h96l60 125h-108l64 125h103l82 170h150l-82 -170h90l82 170h150l-82 -170h99l-64 -125h-95l-60 -125h107l-64 -125h-103zM403 425l-60 -125h91l60 125h-91z" />
    <glyph glyph-name="guillemotright" unicode="&#xbb;" horiz-adv-x="471" 
d="M229 432l83 -169l-148 -169h-126l127 169l-62 169h126zM419 432l83 -169l-148 -169h-126l127 169l-62 169h126z" />
    <glyph glyph-name="guillemotleft" unicode="&#xab;" horiz-adv-x="471" 
d="M261 263l147 169h126l-126 -169l61 -169h-126zM71 263l147 169h126l-126 -169l61 -169h-126z" />
    <glyph glyph-name="guilsinglleft" unicode="&#x2039;" horiz-adv-x="341" 
d="M71 263l167 169h166l-166 -169l101 -169h-166z" />
    <glyph glyph-name="guilsinglright" unicode="&#x203a;" horiz-adv-x="341" 
d="M269 432l103 -169l-168 -169h-166l167 169l-102 169h166z" />
    <glyph glyph-name="less" unicode="&#x3c;" 
d="M167 281l27 137l424 229l-31 -160l-277 -137l224 -139l-31 -159z" />
    <glyph glyph-name="greater" unicode="&#x3e;" 
d="M574 418l-27 -137l-424 -229l31 159l278 139l-225 137l31 160z" />
    <glyph glyph-name="dollar" unicode="$" 
d="M401 734l17 86h75l-17 -88c127 -13 185 -84 168 -218c-52 -2 -105 -5 -157 -7c0 38 -8 68 -39 81l-28 -143c128 -25 217 -92 189 -236c-27 -141 -158 -213 -278 -223l-17 -86h-75l17 87c-146 15 -202 104 -185 243c52 3 104 5 156 8c-7 -66 13 -98 57 -109l34 178
c-175 26 -187 130 -171 209c27 138 141 208 254 218zM444 204c6 31 -2 56 -29 74c-7 5 -16 9 -25 13l-32 -164c42 8 77 31 86 77zM304 530c-7 -34 3 -53 44 -71l26 133c-39 -8 -65 -32 -70 -62z" />
    <glyph glyph-name="Euro" unicode="&#x20ac;" 
d="M442 395h-125l-7 -35l-5 -30h125l-15 -75h-122c-9 -94 13 -132 68 -132c49 0 82 33 110 108l149 -18c-45 -148 -147 -228 -285 -228c-151 0 -211 109 -196 270h-80l15 75h75l5 30l7 35h-75l15 75h80c49 158 150 265 299 265c138 0 211 -81 197 -230l-156 -19
c1 77 -18 111 -67 111c-54 0 -94 -47 -118 -127h121z" />
    <glyph glyph-name="asciicircum" unicode="^" 
d="M368 720h137l101 -249l-141 -1l-50 141l-106 -141h-138z" />
    <glyph glyph-name="braceright" unicode="}" horiz-adv-x="349" 
d="M165 695l23 119c12 5 55 10 79 10c112 0 137 -76 116 -182l-26 -135c-13 -67 18 -90 53 -90l-24 -120c-35 0 -74 -23 -87 -90l-27 -135c-20 -106 -75 -182 -187 -182c-24 0 -65 5 -75 10l23 119h36c48 0 53 52 64 105l25 133c13 63 57 87 90 100c-28 13 -63 37 -51 100
l26 133c10 53 26 105 -22 105h-36z" />
    <glyph glyph-name="braceleft" unicode="{" horiz-adv-x="349" 
d="M477 814l-23 -119h-36c-48 0 -54 -52 -64 -105l-26 -133c-12 -63 -57 -87 -89 -100c27 -13 63 -37 50 -100l-25 -133c-11 -53 -26 -105 22 -105h36l-23 -119c-12 -5 -55 -10 -79 -10c-112 0 -137 76 -117 182l27 135c13 67 -18 90 -53 90l24 120c35 0 74 23 87 90l26 135
c21 106 76 182 188 182c24 0 65 -5 75 -10z" />
    <glyph glyph-name="ampersand" unicode="&#x26;" horiz-adv-x="638" 
d="M618 0h-158c-8 12 -17 25 -24 37c-50 -32 -108 -52 -176 -52c-149 0 -207 86 -185 199c19 96 80 153 148 197c-21 30 -52 85 -36 169c23 115 121 185 236 185c145 0 169 -98 154 -175c-12 -66 -49 -116 -121 -164c-17 -12 -37 -24 -60 -36c23 -37 45 -74 68 -111
c12 31 19 64 23 98h129c-12 -75 -38 -150 -81 -212c27 -45 55 -90 83 -135zM332 466l8 -15c82 51 99 71 106 109c6 31 -12 55 -49 55c-42 0 -72 -33 -79 -65c-7 -36 1 -60 14 -84zM213 194c-11 -59 30 -89 73 -89c35 0 66 10 92 27l-99 159c-33 -26 -58 -56 -66 -97z" />
    <glyph glyph-name="parenleft" unicode="(" horiz-adv-x="351" 
d="M119 360c33 169 131 346 268 460h123c-133 -140 -200 -279 -236 -460c-35 -181 -22 -320 57 -460h-123c-93 114 -121 291 -89 460z" />
    <glyph glyph-name="parenright" unicode=")" horiz-adv-x="351" 
d="M370 360c-32 -169 -130 -346 -267 -460h-122c132 140 199 279 234 460c36 181 23 320 -56 460h123c93 -114 121 -291 88 -460z" />
    <glyph glyph-name="degree" unicode="&#xb0;" horiz-adv-x="366" 
d="M150 592c0 78 65 143 143 143c79 0 143 -65 143 -143c0 -79 -64 -143 -143 -143c-78 0 -143 64 -143 143zM243 592c0 -28 23 -50 50 -50s48 22 48 50c0 26 -21 48 -48 48s-50 -22 -50 -48z" />
    <glyph glyph-name="copyright" unicode="&#xa9;" horiz-adv-x="590" 
d="M85 260c0 162 108 275 260 275s260 -113 260 -275s-108 -275 -260 -275s-260 113 -260 275zM183 260c0 -100 57 -181 162 -181s162 81 162 181c0 99 -57 181 -162 181s-162 -82 -162 -181zM303 260c0 -32 16 -54 42 -54c20 0 34 12 39 32l72 -21
c-12 -61 -51 -91 -111 -91c-76 0 -117 63 -117 134s41 134 117 134c60 0 99 -30 111 -91l-72 -21c-5 19 -19 30 -39 30c-26 0 -42 -22 -42 -52z" />
    <glyph glyph-name="registered" unicode="&#xae;" horiz-adv-x="590" 
d="M85 260c0 162 108 275 260 275s260 -113 260 -275s-108 -275 -260 -275s-260 113 -260 275zM242 137v260h96c52 0 110 -17 110 -76c0 -40 -27 -62 -61 -67c28 -7 46 -32 55 -56l24 -61h-84l-13 44c-12 39 -27 42 -44 42h-7v-86h-76zM318 328v-37h19c26 0 33 6 33 20
c0 12 -10 17 -34 17h-18zM183 260c0 -100 57 -181 162 -181s162 81 162 181c0 99 -57 181 -162 181s-162 -82 -162 -181z" />
    <glyph glyph-name="trademark" unicode="&#x2122;" horiz-adv-x="732" 
d="M492 432h-98l38 194h-87l-38 -194h-98l38 194h-96l18 94h417l26 -179l97 179h132l-56 -288h-98l31 159l-86 -159h-84l-25 159z" />
    <glyph glyph-name="asterisk" unicode="*" horiz-adv-x="399" 
d="M361 735l-19 -100c30 16 60 31 90 47c12 -39 25 -77 37 -116c-33 -4 -67 -9 -100 -13c24 -23 48 -47 72 -70l-99 -72l-43 92l-45 -91l-99 72c24 23 49 47 73 70c-33 5 -65 9 -98 14c12 39 25 77 37 116c29 -16 59 -32 88 -48c-5 33 -11 66 -16 99h122z" />
    <glyph glyph-name="plusminus" unicode="&#xb1;" 
d="M439 385l-25 -131h-135l25 131h-170l27 135h170l31 160h135l-31 -160h171l-27 -135h-171zM546 55h-476l26 135h476z" />
    <glyph glyph-name="asciitilde" unicode="~" horiz-adv-x="526" 
d="M81 265l29 150c46 40 99 60 147 60c89 0 109 -90 178 -90c58 0 103 30 149 70l-29 -150c-46 -40 -99 -60 -147 -60c-89 0 -109 90 -178 90c-58 0 -103 -30 -149 -70z" />
    <glyph glyph-name="grave" unicode="`" horiz-adv-x="324" 
d="M298 720l76 -187h-131l-123 187h178z" />
    <glyph glyph-name="percent" horiz-adv-x="822" 
d="M148 0h139l526 720h-140zM138 560c20 103 102 165 188 165s144 -62 124 -165s-102 -165 -188 -165s-144 62 -124 165zM245 560c-8 -44 16 -60 38 -60s52 16 60 60c9 44 -15 60 -37 60s-52 -16 -61 -60zM511 160c20 103 102 165 188 165s144 -62 124 -165
s-102 -165 -188 -165s-144 62 -124 165zM618 160c-9 -44 15 -60 37 -60s52 16 61 60c8 44 -16 60 -38 60s-52 -16 -60 -60z" />
    <glyph glyph-name="dagger" unicode="&#x2020;" horiz-adv-x="404" 
d="M124 485l24 125h97l21 110h150l-21 -110h97l-24 -125h-97l-46 -235h-150l46 235h-97z" />
    <glyph glyph-name="daggerdbl" unicode="&#x2021;" horiz-adv-x="384" 
d="M442 455l-24 -125h-87l-16 -80h-150l16 80h-87l24 125h87l12 60h-87l24 125h87l15 80h150l-15 -80h87l-24 -125h-87l-12 -60h87z" />
    <glyph glyph-name="bullet" unicode="&#x2022;" horiz-adv-x="388" 
d="M120 351c0 34 12 63 36 87s53 36 88 36s64 -12 88 -36s36 -53 36 -87c0 -35 -12 -64 -36 -88s-53 -36 -88 -36s-64 12 -88 36s-36 53 -36 88z" />
    <glyph glyph-name="paragraph" unicode="&#xb6;" horiz-adv-x="636" 
d="M271 -100h-80l100 516c-116 3 -182 82 -159 198c27 139 137 206 271 206h380l-17 -85h-81l-162 -835h-163l162 835h-89z" />
    <glyph glyph-name="afii61352" unicode="&#x2116;" horiz-adv-x="1104" 
d="M851 460c20 103 102 165 188 165s144 -62 124 -165s-102 -165 -188 -165s-144 62 -124 165zM958 460c-9 -44 15 -60 37 -60s52 16 61 60c8 44 -15 60 -37 60s-53 -16 -61 -60zM1102 145h-312l20 105h312zM226 0h-156l139 720h162l223 -456l88 456h156l-139 -720h-162
l-223 456z" />
    <glyph glyph-name="at" unicode="@" horiz-adv-x="775" 
d="M622 426l-36 -188c-1 -6 -13 -53 20 -53c35 0 65 42 74 92c30 152 -48 234 -193 234c-138 0 -251 -109 -279 -251s35 -260 189 -260c54 0 110 17 149 48l60 -84c-62 -52 -161 -74 -230 -74c-220 0 -331 163 -291 370s215 370 425 370c209 0 324 -143 284 -350
c-22 -111 -108 -195 -206 -195c-56 0 -80 25 -90 53l-12 -13c-28 -27 -56 -40 -106 -40c-81 0 -128 71 -108 175c20 103 95 175 176 175c35 0 63 -13 78 -34l5 25h91zM492 260c8 43 -9 75 -44 75c-37 0 -64 -32 -72 -75s5 -76 42 -76c38 0 66 33 74 76z" />
    <glyph glyph-name="perthousand" unicode="&#x2030;" horiz-adv-x="1182" 
d="M148 0h139l526 720h-140zM138 560c20 103 102 165 188 165s144 -62 124 -165s-102 -165 -188 -165s-144 62 -124 165zM245 560c-8 -44 16 -60 38 -60s52 16 60 60c9 44 -15 60 -37 60s-52 -16 -61 -60zM511 160c20 103 102 165 188 165s144 -62 124 -165
s-102 -165 -188 -165s-144 62 -124 165zM618 160c-9 -44 15 -60 37 -60s52 16 61 60c8 44 -16 60 -38 60s-52 -16 -60 -60zM871 160c20 103 102 165 188 165s144 -62 124 -165s-102 -165 -188 -165s-144 62 -124 165zM978 160c-9 -44 15 -60 37 -60s52 16 61 60
c8 44 -16 60 -38 60s-52 -16 -60 -60z" />
    <glyph glyph-name="section" unicode="&#xa7;" horiz-adv-x="533" 
d="M64 150l149 13c-1 -45 11 -63 77 -63c51 0 80 15 85 43c6 27 -16 29 -66 45l-119 39c-50 16 -96 53 -81 129c13 67 59 90 81 106c-39 22 -47 72 -38 119c22 109 144 154 251 154c144 0 198 -61 188 -150l-148 -12c-3 27 -17 47 -64 47c-55 0 -75 -12 -80 -34
c-4 -25 16 -31 46 -40l118 -37c69 -21 122 -60 105 -147c-8 -43 -48 -86 -75 -102c34 -24 42 -69 32 -117c-22 -115 -136 -158 -260 -158c-147 0 -214 60 -201 165zM259 379c-5 -25 6 -40 26 -46c48 -14 83 -25 85 -25c22 7 41 17 46 42c5 27 -8 41 -33 48l-81 23
c-14 -1 -37 -14 -43 -42z" />
    <glyph glyph-name="currency" unicode="&#xa4;" 
d="M487 97l-54 67c-33 -17 -71 -26 -108 -26c-38 0 -71 9 -99 26l-79 -67l-75 93l85 72c-7 28 -7 61 0 98c8 37 21 69 39 98l-57 73l111 93l54 -68c33 17 71 26 108 26s70 -9 98 -26l80 68l75 -93l-86 -73c7 -29 8 -61 0 -98c-7 -37 -20 -70 -38 -98l57 -72zM289 360
c-11 -59 18 -88 62 -88s85 29 96 88c12 59 -17 88 -61 88c-41 0 -85 -29 -97 -88z" />
    <glyph glyph-name="afii10085" unicode="&#x443;" horiz-adv-x="556" 
d="M10 -195l15 133c16 -7 33 -14 68 -14c39 0 78 14 108 67l8 14l-103 515h153l54 -343l185 343h148l-309 -549c-67 -120 -148 -181 -243 -181c-37 0 -67 8 -84 15z" />
    <glyph glyph-name="afii10102" unicode="&#x455;" horiz-adv-x="515" 
d="M51 150l128 21c-2 -45 36 -71 92 -71c41 0 95 10 103 52c5 24 -11 36 -32 41l-137 27c-66 15 -116 63 -99 149c23 119 131 166 248 166c124 0 201 -73 176 -182h-129c12 53 -37 67 -74 67c-41 0 -87 -12 -94 -47c-4 -17 5 -31 31 -36l134 -25c54 -12 128 -49 107 -156
c-22 -115 -125 -171 -259 -171c-127 0 -204 70 -195 165z" />
    <glyph glyph-name="afii10054" unicode="&#x405;" horiz-adv-x="647" 
d="M79 230l155 8c-9 -85 32 -113 115 -113c64 0 122 22 133 79c8 41 -9 60 -63 79c-35 13 -111 34 -151 47c-119 38 -127 118 -114 186c28 149 165 219 296 219c170 0 263 -71 231 -221h-157c11 52 -20 81 -97 81c-65 0 -110 -27 -116 -65c-6 -27 2 -43 34 -56
c30 -13 98 -33 163 -52c100 -30 162 -93 138 -213c-30 -152 -183 -224 -320 -224c-191 0 -266 92 -247 245z" />
    <glyph glyph-name="afii10105" unicode="&#x458;" horiz-adv-x="261" 
d="M-100 -196l42 124c16 -5 24 -6 34 -6c56 0 71 52 81 105l95 493h150l-105 -548c-21 -106 -100 -182 -211 -182c-23 0 -66 5 -86 14zM314 584h-150l27 136h150z" />
    <glyph glyph-name="afii10103" unicode="&#x456;" horiz-adv-x="258" 
d="M311 584h-150l27 136h150zM200 0h-150l99 520h150z" />
    <glyph glyph-name="uni0406" unicode="&#x406;" horiz-adv-x="300" 
d="M230 0h-160l138 720h160z" />
    <glyph glyph-name="afii10057" unicode="&#x408;" horiz-adv-x="572" 
d="M63 223l157 22c-12 -73 -5 -120 60 -120c76 0 95 55 111 138l88 457h161l-93 -482c-36 -187 -156 -253 -294 -253c-131 0 -226 65 -190 238z" />
    <glyph glyph-name="afii10104" unicode="&#x457;" horiz-adv-x="258" 
d="M211 584h-150l27 136h150zM200 0h-150l99 520h150zM411 584h-150l27 136h150z" />
    <glyph glyph-name="afii10106" unicode="&#x459;" horiz-adv-x="783" 
d="M152 257l51 263h386l-49 -205c40 38 90 43 121 43c71 0 162 -59 137 -186c-25 -125 -130 -187 -236 -187h-22c-113 0 -203 80 -162 263l33 147h-92l-36 -188c-22 -110 -73 -222 -196 -222c-29 0 -70 10 -77 15l22 119c9 -6 23 -11 37 -11c59 -1 69 76 83 149zM647 178
c6 38 -14 75 -69 75c-21 0 -42 -8 -54 -16l-7 -31c-12 -51 0 -99 48 -99c33 0 73 24 82 71z" />
    <glyph glyph-name="afii10107" unicode="&#x45a;" horiz-adv-x="773" 
d="M385 325l44 195h150l-49 -205c40 38 90 43 121 43c71 0 162 -59 137 -186c-25 -125 -130 -187 -236 -187h-22c-103 0 -186 66 -170 215h-123l-37 -200h-150l99 520h150l-38 -195h124zM637 178c6 38 -14 75 -69 75c-21 0 -42 -8 -54 -16l-7 -31c-12 -51 0 -99 48 -99
c33 0 73 24 82 71z" />
    <glyph glyph-name="afii10101" unicode="&#x454;" horiz-adv-x="540" 
d="M345 410c-49 0 -89 -33 -112 -95h127l-20 -105h-128c-3 -65 22 -100 75 -100c48 0 86 25 109 86l144 -21c-55 -139 -165 -190 -277 -190c-134 0 -232 83 -195 275s167 275 301 275c122 0 233 -59 191 -223h-150c13 56 -7 98 -65 98z" />
    <glyph glyph-name="afii10053" unicode="&#x404;" horiz-adv-x="741" 
d="M507 595c-89 0 -167 -57 -209 -155h233l-28 -145h-237c-2 -108 52 -170 145 -170c78 0 139 40 180 125l149 -44c-71 -138 -183 -221 -356 -221c-220 0 -318 158 -275 375c41 217 205 375 425 375c163 0 293 -92 265 -256h-165c6 80 -49 116 -127 116z" />
    <glyph glyph-name="afii10145" unicode="&#x40f;" horiz-adv-x="747" 
d="M656 720h160l-139 -720h-223l-33 -169h-160l33 169h-224l139 720h160l-111 -575h287z" />
    <glyph glyph-name="afii10059" unicode="&#x40a;" horiz-adv-x="1064" 
d="M616 720h160l-46 -240h113c179 0 261 -94 232 -239c-34 -175 -188 -241 -333 -241h-265l57 295h-247l-57 -295h-160l139 720h160l-54 -280h247zM705 350l-41 -210h98c95 0 140 46 151 104c9 47 -5 106 -108 106h-100z" />
    <glyph glyph-name="afii10058" unicode="&#x409;" horiz-adv-x="1073" 
d="M227 412l59 308h509l-46 -240h103c179 0 261 -94 232 -239c-34 -175 -188 -241 -333 -241h-255l111 575h-194l-39 -202c-41 -212 -99 -388 -272 -388c-31 0 -72 8 -87 20l24 147c11 -7 25 -17 50 -17c85 0 106 114 138 277zM724 350l-41 -210h88c95 0 140 46 151 104
c9 47 -5 106 -108 106h-90z" />
    <glyph glyph-name="afii10056" unicode="&#x407;" horiz-adv-x="299" 
d="M229 0h-159l139 720h159zM268 779h-150l27 141h150zM483 779h-150l27 141h150z" />
    <glyph glyph-name="afii10050" unicode="&#x490;" horiz-adv-x="583" 
d="M70 0l139 720h323l26 130h160l-54 -275h-323l-111 -575h-160z" />
    <glyph glyph-name="afii10062" unicode="&#x40e;" horiz-adv-x="705" 
d="M335 196l-187 524h167l125 -371l232 371h161l-361 -561c-79 -124 -158 -174 -249 -174c-55 0 -113 16 -133 41l59 131c15 -13 51 -34 83 -34c33 0 65 12 89 50zM594 920h120c-18 -95 -88 -167 -218 -167s-168 73 -150 167h120c-10 -50 10 -73 48 -73s70 23 80 73z" />
    <glyph glyph-name="afii10110" unicode="&#x45e;" horiz-adv-x="556" 
d="M10 -195l15 133c16 -7 33 -14 68 -14c39 0 78 14 108 67l8 14l-103 515h153l54 -343l185 343h148l-309 -549c-67 -120 -148 -181 -243 -181c-37 0 -67 8 -84 15zM472 720h105c-19 -95 -97 -147 -197 -147s-160 53 -141 147h105c-3 -40 25 -56 53 -56s62 16 75 56z" />
    <glyph glyph-name="afii10052" unicode="&#x403;" horiz-adv-x="583" 
d="M70 0l138 720h483l-28 -145h-323l-110 -575h-160zM678 990l-164 -187h-131l117 187h178z" />
    <glyph glyph-name="afii10061" unicode="&#x40c;" horiz-adv-x="710" 
d="M70 0l138 720h160l-56 -290h34c46 0 70 32 99 69l101 129c72 91 144 92 206 92h37l-38 -147h-36c-33 0 -56 -10 -97 -61l-60 -79c-22 -28 -53 -59 -97 -65c50 -7 99 -57 130 -130l99 -238h-180l-75 194c-28 73 -59 101 -126 101h-23l-56 -295h-160zM698 990l-164 -187
h-131l117 187h178z" />
    <glyph glyph-name="afii10109" unicode="&#x45c;" horiz-adv-x="578" 
d="M50 0l99 520h150l-38 -195h22c30 0 41 3 74 34c24 24 52 78 64 94c43 59 95 67 166 67h31l-40 -133h-16c-35 0 -45 -11 -69 -45c-22 -34 -44 -58 -84 -68l-1 -4c34 -8 58 -46 80 -97l53 -173h-165l-41 149c-13 36 -36 51 -76 51h-22l-37 -200h-150zM598 790l-164 -187
h-131l117 187h178z" />
    <glyph glyph-name="afii10100" unicode="&#x453;" horiz-adv-x="479" 
d="M486 150c-29 -95 -122 -165 -249 -165c-124 0 -206 56 -183 171c21 107 107 146 167 158l124 25c26 5 38 17 42 34c7 35 -22 47 -63 47c-35 0 -64 -14 -79 -57h-129c20 109 111 172 225 172c107 0 197 -47 174 -166c-17 -86 -85 -136 -155 -151l-129 -27
c-21 -4 -40 -15 -45 -39c-8 -42 29 -52 70 -52c56 0 97 26 111 71zM568 790l-164 -187h-131l117 187h178z" />
    <glyph glyph-name="afii10193" unicode="&#x45f;" horiz-adv-x="574" 
d="M464 520h150l-99 -520h-141l14 75c-28 -35 -56 -59 -85 -73l-31 -162h-140l28 153c-87 25 -102 105 -82 208l61 319h150l-60 -315c-12 -60 3 -94 61 -94c52 0 103 42 120 126z" />
    <glyph glyph-name="afii10098" unicode="&#x491;" horiz-adv-x="479" 
d="M177 640h129l-32 -128c17 15 46 23 77 23c87 0 187 -47 164 -166c-17 -86 -85 -136 -155 -151l-129 -27c-21 -4 -40 -15 -45 -39c-8 -42 29 -52 70 -52c56 0 97 26 111 71l119 -21c-29 -95 -122 -165 -249 -165c-124 0 -206 56 -183 171c21 107 107 146 167 158l124 25
c26 5 38 17 42 34c7 35 -22 47 -63 47c-35 0 -64 -14 -79 -57h-129z" />
    <glyph glyph-name="afii10060" unicode="&#x40b;" horiz-adv-x="790" 
d="M412 0h-160l110 575h-222l28 145h604l-28 -145h-222l-38 -194c46 56 89 79 151 79c144 0 171 -92 148 -216l-46 -244h-150l45 240c12 60 -4 94 -62 94c-48 0 -101 -34 -115 -106z" />
    <glyph glyph-name="afii10051" unicode="&#x402;" horiz-adv-x="790" 
d="M472 -1l42 124c16 -5 24 -6 34 -6c56 0 71 52 81 105l3 18c10 60 -4 94 -62 94c-48 0 -101 -34 -115 -106l-43 -228h-160l110 575h-222l28 145h604l-28 -145h-222l-38 -194c46 56 89 79 151 79c144 0 170 -92 148 -216l-14 -77c-21 -106 -100 -182 -211 -182
c-23 0 -66 5 -86 14z" />
    <glyph glyph-name="afii10108" unicode="&#x45b;" horiz-adv-x="624" 
d="M244 0h-150l97 501h-74l23 119h74l14 72l158 43l-22 -115h99l-23 -119h-99l-23 -116c46 57 90 80 152 80c144 0 171 -92 147 -216l-48 -249h-150l47 245c12 60 -4 94 -62 94c-50 0 -98 -38 -117 -114z" />
    <glyph glyph-name="afii10099" unicode="&#x452;" horiz-adv-x="624" 
d="M302 -1l42 124c16 -5 24 -6 34 -6c58 0 73 52 84 105l4 23c12 60 -4 94 -62 94c-50 0 -98 -38 -117 -114l-43 -225h-150l97 501h-74l23 119h74l14 72l158 43l-22 -115h99l-23 -119h-99l-23 -116c46 57 90 80 152 80c144 0 171 -92 147 -216l-16 -82
c-21 -106 -100 -182 -212 -182c-24 0 -66 5 -87 14z" />
    <glyph glyph-name="ydieresis" unicode="&#xff;" horiz-adv-x="556" 
d="M10 -195l15 133c16 -7 33 -14 68 -14c39 0 78 14 108 67l8 14l-103 515h153l54 -343l185 343h148l-309 -549c-67 -120 -148 -181 -243 -181c-37 0 -67 8 -84 15zM342 580h-151l26 140h151zM568 580h-151l26 140h151z" />
    <glyph glyph-name="thorn" unicode="&#xfe;" horiz-adv-x="577" 
d="M160 -200h-150l176 920h150l-49 -261c39 50 81 76 140 76c124 0 206 -93 171 -275s-158 -275 -282 -275c-42 0 -89 13 -109 60zM237 260c-19 -102 12 -150 76 -150s116 48 135 150c20 102 -17 150 -76 150s-115 -48 -135 -150z" />
    <glyph glyph-name="yacute" unicode="&#xfd;" horiz-adv-x="556" 
d="M10 -195l15 133c16 -7 33 -14 68 -14c39 0 78 14 108 67l8 14l-103 515h153l54 -343l185 343h148l-309 -549c-67 -120 -148 -181 -243 -181c-37 0 -67 8 -84 15zM598 790l-164 -187h-131l117 187h178z" />
    <glyph glyph-name="udieresis" unicode="&#xfc;" horiz-adv-x="574" 
d="M464 520h150l-99 -520h-141l14 75c-51 -64 -101 -90 -163 -90c-144 0 -171 92 -147 216l61 319h150l-60 -315c-12 -60 3 -94 61 -94c52 0 103 42 120 126zM357 580h-151l26 140h151zM573 580h-151l26 140h151z" />
    <glyph glyph-name="ucircumflex" unicode="&#xfb;" horiz-adv-x="574" 
d="M464 520h150l-99 -520h-141l14 75c-51 -64 -101 -90 -163 -90c-144 0 -171 92 -147 216l61 319h150l-60 -315c-12 -60 3 -94 61 -94c52 0 103 42 120 126zM364 780h137l94 -180h-141l-39 91l-77 -91h-138z" />
    <glyph glyph-name="uacute" unicode="&#xfa;" horiz-adv-x="574" 
d="M464 520h150l-99 -520h-141l14 75c-51 -64 -101 -90 -163 -90c-144 0 -171 92 -147 216l61 319h150l-60 -315c-12 -60 3 -94 61 -94c52 0 103 42 120 126zM588 790l-164 -187h-131l117 187h178z" />
    <glyph glyph-name="ugrave" unicode="&#xf9;" horiz-adv-x="574" 
d="M464 520h150l-99 -520h-141l14 75c-51 -64 -101 -90 -163 -90c-144 0 -171 92 -147 216l61 319h150l-60 -315c-12 -60 3 -94 61 -94c52 0 103 42 120 126zM402 790l56 -187h-125l-103 187h172z" />
    <glyph glyph-name="oslash" unicode="&#xf8;" horiz-adv-x="572" 
d="M602 465l-31 -31c21 -43 27 -101 13 -174c-37 -192 -172 -275 -311 -275c-46 0 -88 9 -122 27l-27 -27l-73 70l30 30c-21 43 -27 101 -13 175c37 192 172 275 311 275c46 0 87 -9 122 -28l28 28zM218 260c-3 -16 -5 -30 -5 -43l183 184c-12 6 -25 9 -41 9
c-69 0 -119 -53 -137 -150zM434 260c3 15 4 28 5 41l-183 -183c12 -6 25 -8 41 -8c69 0 119 53 137 150z" />
    <glyph glyph-name="divide" unicode="&#xf7;" horiz-adv-x="556" 
d="M564 300h-456l24 125h456zM444 472h-151l29 150h151zM372 102h-151l29 150h151z" />
    <glyph glyph-name="odieresis" unicode="&#xf6;" horiz-adv-x="572" 
d="M68 260c37 192 172 275 311 275s242 -83 205 -275s-172 -275 -311 -275s-242 83 -205 275zM218 260c-18 -97 10 -150 79 -150s119 53 137 150s-10 150 -79 150s-119 -53 -137 -150zM357 580h-151l26 140h151zM573 580h-151l26 140h151z" />
    <glyph glyph-name="otilde" unicode="&#xf5;" horiz-adv-x="572" 
d="M68 260c37 192 172 275 311 275s242 -83 205 -275s-172 -275 -311 -275s-242 83 -205 275zM218 260c-18 -97 10 -150 79 -150s119 53 137 150s-10 150 -79 150s-119 -53 -137 -150zM213 595l25 130c34 30 75 40 103 40c69 0 97 -50 146 -50c28 0 69 10 105 50l-25 -130
c-34 -30 -85 -40 -113 -40c-69 0 -87 50 -136 50c-28 0 -69 -10 -105 -50z" />
    <glyph glyph-name="ocircumflex" unicode="&#xf4;" horiz-adv-x="572" 
d="M68 260c37 192 172 275 311 275s242 -83 205 -275s-172 -275 -311 -275s-242 83 -205 275zM218 260c-18 -97 10 -150 79 -150s119 53 137 150s-10 150 -79 150s-119 -53 -137 -150zM354 780h137l94 -180h-141l-39 91l-77 -91h-138z" />
    <glyph glyph-name="oacute" unicode="&#xf3;" horiz-adv-x="572" 
d="M68 260c37 192 172 275 311 275s242 -83 205 -275s-172 -275 -311 -275s-242 83 -205 275zM218 260c-18 -97 10 -150 79 -150s119 53 137 150s-10 150 -79 150s-119 -53 -137 -150zM598 790l-164 -187h-131l117 187h178z" />
    <glyph glyph-name="ograve" unicode="&#xf2;" horiz-adv-x="572" 
d="M68 260c37 192 172 275 311 275s242 -83 205 -275s-172 -275 -311 -275s-242 83 -205 275zM218 260c-18 -97 10 -150 79 -150s119 53 137 150s-10 150 -79 150s-119 -53 -137 -150zM402 790l56 -187h-125l-103 187h172z" />
    <glyph glyph-name="ntilde" unicode="&#xf1;" horiz-adv-x="584" 
d="M200 0h-150l99 520h141l-14 -75c50 64 100 90 162 90c144 0 171 -92 148 -216l-61 -319h-150l60 315c12 60 -4 94 -62 94c-52 0 -103 -42 -120 -126zM233 595l25 130c34 30 75 40 103 40c69 0 97 -50 146 -50c28 0 69 10 105 50l-25 -130c-34 -30 -85 -40 -113 -40
c-69 0 -87 50 -136 50c-28 0 -69 -10 -105 -50z" />
    <glyph glyph-name="eth" unicode="&#xf0;" horiz-adv-x="561" 
d="M472 784l-24 -64c145 -84 179 -278 133 -480c-41 -182 -180 -255 -309 -255c-99 0 -243 68 -206 260s170 250 259 250c74 0 128 -38 142 -60c-3 38 -17 99 -71 142l-17 -47l-104 38l19 52c-20 4 -42 6 -66 6l37 139c28 0 54 -3 79 -7l23 64zM215 240
c-18 -97 32 -130 81 -130s117 33 135 130c19 97 -31 130 -80 130s-117 -33 -136 -130z" />
    <glyph glyph-name="idieresis" unicode="&#xef;" horiz-adv-x="258" 
d="M211 584h-150l27 136h150zM200 0h-150l99 520h150zM411 584h-150l27 136h150z" />
    <glyph glyph-name="icircumflex" unicode="&#xee;" horiz-adv-x="258" 
d="M200 0h-150l99 520h150zM204 780h137l94 -180h-141l-39 91l-77 -91h-138z" />
    <glyph glyph-name="iacute" unicode="&#xed;" horiz-adv-x="258" 
d="M200 0h-150l99 520h150zM438 790l-164 -187h-131l117 187h178z" />
    <glyph glyph-name="igrave" unicode="&#xec;" horiz-adv-x="258" 
d="M200 0h-150l99 520h150zM272 790l56 -187h-125l-103 187h172z" />
    <glyph glyph-name="edieresis" unicode="&#xeb;" horiz-adv-x="556" 
d="M544 141c-59 -103 -146 -156 -271 -156c-134 0 -242 83 -205 275s178 275 311 275c107 0 213 -48 206 -169c-6 -114 -102 -149 -225 -149h-150c-10 -72 30 -107 97 -107c48 0 84 27 102 60zM351 410c-50 0 -102 -34 -119 -91h137c38 0 62 18 61 47c-1 30 -40 44 -79 44z
M352 580h-151l26 140h151zM578 580h-151l26 140h151z" />
    <glyph glyph-name="ecircumflex" unicode="&#xea;" horiz-adv-x="556" 
d="M544 141c-59 -103 -146 -156 -271 -156c-134 0 -242 83 -205 275s178 275 311 275c107 0 213 -48 206 -169c-6 -114 -102 -149 -225 -149h-150c-10 -72 30 -107 97 -107c48 0 84 27 102 60zM351 410c-50 0 -102 -34 -119 -91h137c38 0 62 18 61 47c-1 30 -40 44 -79 44z
M344 780h137l94 -180h-141l-39 91l-77 -91h-138z" />
    <glyph glyph-name="eacute" unicode="&#xe9;" horiz-adv-x="556" 
d="M544 141c-59 -103 -146 -156 -271 -156c-134 0 -242 83 -205 275s178 275 311 275c107 0 213 -48 206 -169c-6 -114 -102 -149 -225 -149h-150c-10 -72 30 -107 97 -107c48 0 84 27 102 60zM351 410c-50 0 -102 -34 -119 -91h137c38 0 62 18 61 47c-1 30 -40 44 -79 44z
M588 790l-164 -187h-131l117 187h178z" />
    <glyph glyph-name="egrave" unicode="&#xe8;" horiz-adv-x="556" 
d="M544 141c-59 -103 -146 -156 -271 -156c-134 0 -242 83 -205 275s178 275 311 275c107 0 213 -48 206 -169c-6 -114 -102 -149 -225 -149h-150c-10 -72 30 -107 97 -107c48 0 84 27 102 60zM351 410c-50 0 -102 -34 -119 -91h137c38 0 62 18 61 47c-1 30 -40 44 -79 44z
M392 790l56 -187h-125l-103 187h172z" />
    <glyph glyph-name="ccedilla" unicode="&#xe7;" horiz-adv-x="540" 
d="M259 -117c4 23 -2 36 -16 36c-12 0 -21 -6 -26 -21l-47 10l40 82c-106 19 -174 104 -142 270c37 192 167 275 301 275c122 0 233 -59 191 -223h-150c13 56 -7 98 -65 98c-62 0 -109 -53 -127 -150s4 -150 69 -150c48 0 86 25 109 86l144 -21
c-55 -139 -165 -190 -277 -190h-9l-10 -20h9c40 0 69 -24 58 -82c-12 -58 -50 -83 -90 -83c-34 0 -61 16 -61 57l51 11c-1 -15 6 -21 18 -21c15 0 25 13 30 36z" />
    <glyph glyph-name="aring" unicode="&#xe5;" horiz-adv-x="551" 
d="M350 54c-1 -17 0 -41 14 -54h151c-15 19 -21 53 -10 106l39 208c32 161 -49 221 -182 221c-97 0 -206 -37 -255 -157l119 -42c17 38 47 77 105 77c63 0 74 -42 68 -76l-3 -12c-28 -12 -61 -18 -116 -24c-129 -15 -215 -57 -236 -169c-19 -96 50 -147 144 -147
c62 0 110 17 162 69zM379 235l-13 -70c-24 -35 -75 -68 -122 -68c-43 0 -52 22 -49 45c6 41 39 58 87 67c52 10 77 19 97 26zM268 722c15 78 93 143 171 143c79 0 130 -65 115 -143c-16 -79 -92 -143 -171 -143c-78 0 -131 64 -115 143zM361 722c-6 -28 13 -50 40 -50
s52 22 58 50c5 26 -12 48 -39 48s-54 -22 -59 -48z" />
    <glyph glyph-name="adieresis" unicode="&#xe4;" horiz-adv-x="551" 
d="M350 54c-52 -52 -100 -69 -162 -69c-94 0 -163 51 -144 147c21 112 107 154 236 169c55 6 88 12 116 24l3 12c6 34 -5 76 -68 76c-58 0 -88 -39 -105 -77l-119 42c49 120 158 157 255 157c133 0 214 -60 182 -221l-39 -208c-11 -53 -5 -87 10 -106h-151
c-14 13 -15 37 -14 54zM366 165l13 70c-20 -7 -45 -16 -97 -26c-48 -9 -81 -26 -87 -67c-3 -23 6 -45 49 -45c47 0 98 33 122 68zM347 580h-151l26 140h151zM563 580h-151l26 140h151z" />
    <glyph glyph-name="atilde" unicode="&#xe3;" horiz-adv-x="551" 
d="M350 54c-52 -52 -100 -69 -162 -69c-94 0 -163 51 -144 147c21 112 107 154 236 169c55 6 88 12 116 24l3 12c6 34 -5 76 -68 76c-58 0 -88 -39 -105 -77l-119 42c49 120 158 157 255 157c133 0 214 -60 182 -221l-39 -208c-11 -53 -5 -87 10 -106h-151
c-14 13 -15 37 -14 54zM366 165l13 70c-20 -7 -45 -16 -97 -26c-48 -9 -81 -26 -87 -67c-3 -23 6 -45 49 -45c47 0 98 33 122 68zM223 595l25 130c34 30 75 40 103 40c69 0 97 -50 146 -50c28 0 69 10 105 50l-25 -130c-34 -30 -85 -40 -113 -40c-69 0 -87 50 -136 50
c-28 0 -69 -10 -105 -50z" />
    <glyph glyph-name="acircumflex" unicode="&#xe2;" horiz-adv-x="551" 
d="M350 54c-52 -52 -100 -69 -162 -69c-94 0 -163 51 -144 147c21 112 107 154 236 169c55 6 88 12 116 24l3 12c6 34 -5 76 -68 76c-58 0 -88 -39 -105 -77l-119 42c49 120 158 157 255 157c133 0 214 -60 182 -221l-39 -208c-11 -53 -5 -87 10 -106h-151
c-14 13 -15 37 -14 54zM366 165l13 70c-20 -7 -45 -16 -97 -26c-48 -9 -81 -26 -87 -67c-3 -23 6 -45 49 -45c47 0 98 33 122 68zM354 780h137l94 -180h-141l-39 91l-77 -91h-138z" />
    <glyph glyph-name="aacute" unicode="&#xe1;" horiz-adv-x="551" 
d="M350 54c-52 -52 -100 -69 -162 -69c-94 0 -163 51 -144 147c21 112 107 154 236 169c55 6 88 12 116 24l3 12c6 34 -5 76 -68 76c-58 0 -88 -39 -105 -77l-119 42c49 120 158 157 255 157c133 0 214 -60 182 -221l-39 -208c-11 -53 -5 -87 10 -106h-151
c-14 13 -15 37 -14 54zM366 165l13 70c-20 -7 -45 -16 -97 -26c-48 -9 -81 -26 -87 -67c-3 -23 6 -45 49 -45c47 0 98 33 122 68zM578 790l-164 -187h-131l117 187h178z" />
    <glyph glyph-name="agrave" unicode="&#xe0;" horiz-adv-x="551" 
d="M350 54c-52 -52 -100 -69 -162 -69c-94 0 -163 51 -144 147c21 112 107 154 236 169c55 6 88 12 116 24l3 12c6 34 -5 76 -68 76c-58 0 -88 -39 -105 -77l-119 42c49 120 158 157 255 157c133 0 214 -60 182 -221l-39 -208c-11 -53 -5 -87 10 -106h-151
c-14 13 -15 37 -14 54zM366 165l13 70c-20 -7 -45 -16 -97 -26c-48 -9 -81 -26 -87 -67c-3 -23 6 -45 49 -45c47 0 98 33 122 68zM392 790l56 -187h-125l-103 187h172z" />
    <glyph glyph-name="germandbls" unicode="&#xdf;" horiz-adv-x="693" 
d="M324 150l129 21c-3 -45 5 -71 51 -71c31 0 57 20 63 52c5 24 -11 40 -31 46l-60 17c-63 18 -113 68 -97 154c29 150 168 138 178 188c3 15 1 46 -81 46c-63 0 -121 -36 -136 -110l-95 -493h-147l91 472c33 170 161 259 301 259c166 0 227 -71 209 -164
c-25 -126 -179 -121 -193 -194c-3 -17 5 -34 30 -41l56 -15c53 -14 127 -54 106 -161c-23 -115 -105 -171 -219 -171c-117 0 -164 70 -155 165z" />
    <glyph glyph-name="Thorn" unicode="&#xde;" horiz-adv-x="672" 
d="M230 0h-160l142 735h160l-22 -115h115c145 0 274 -66 240 -241c-28 -145 -148 -249 -327 -249h-123zM323 480l-41 -210h110c103 0 140 59 150 106c11 58 -16 104 -111 104h-108z" />
    <glyph glyph-name="Yacute" unicode="&#xdd;" horiz-adv-x="705" 
d="M433 0h-161l55 293l-179 427h175l118 -277l222 277h170l-345 -427zM708 990l-164 -187h-131l117 187h178z" />
    <glyph glyph-name="Udieresis" unicode="&#xdc;" horiz-adv-x="753" 
d="M583 317l78 403h160l-80 -418c-38 -195 -171 -317 -368 -317c-195 0 -283 122 -245 317l80 418h160l-78 -403c-27 -138 18 -187 111 -187s155 49 182 187zM474 780h-151l26 140h151zM715 780h-151l26 140h151z" />
    <glyph glyph-name="Ucircumflex" unicode="&#xdb;" horiz-adv-x="753" 
d="M583 317l78 403h160l-80 -418c-38 -195 -171 -317 -368 -317c-195 0 -283 122 -245 317l80 418h160l-78 -403c-27 -138 18 -187 111 -187s155 49 182 187zM491 980h137l118 -210h-141l-63 121l-113 -121h-138z" />
    <glyph glyph-name="Uacute" unicode="&#xda;" horiz-adv-x="753" 
d="M583 317l78 403h160l-80 -418c-38 -195 -171 -317 -368 -317c-195 0 -283 122 -245 317l80 418h160l-78 -403c-27 -138 18 -187 111 -187s155 49 182 187zM718 990l-164 -187h-131l117 187h178z" />
    <glyph glyph-name="Ugrave" unicode="&#xd9;" horiz-adv-x="753" 
d="M583 317l78 403h160l-80 -418c-38 -195 -171 -317 -368 -317c-195 0 -283 122 -245 317l80 418h160l-78 -403c-27 -138 18 -187 111 -187s155 49 182 187zM532 990l56 -187h-125l-103 187h172z" />
    <glyph glyph-name="Oslash" unicode="&#xd8;" horiz-adv-x="765" 
d="M836 654c-20 -20 -41 -39 -61 -59c30 -63 36 -144 19 -235c-43 -217 -196 -375 -415 -375c-75 0 -136 18 -181 51c-18 -17 -35 -34 -53 -51l-81 81c21 20 41 40 62 60c-29 63 -35 143 -17 234c41 217 195 375 415 375c74 0 133 -18 178 -51c18 17 35 34 53 51zM274 360
c-7 -37 -10 -69 -7 -98c105 102 211 204 316 306c-23 17 -51 27 -86 27c-110 0 -195 -88 -223 -235zM629 360c7 37 9 70 6 99c-106 -102 -211 -205 -317 -307c22 -18 52 -27 88 -27c109 0 194 88 223 235z" />
    <glyph glyph-name="multiply" unicode="&#xd7;" horiz-adv-x="556" 
d="M335 294l-146 -122l-72 88l146 122l-98 123l106 88l98 -122l146 122l72 -88l-147 -123l99 -122l-106 -88z" />
    <glyph glyph-name="Odieresis" unicode="&#xd6;" horiz-adv-x="765" 
d="M109 360c41 217 195 375 415 375c219 0 311 -158 270 -375c-43 -217 -196 -375 -415 -375c-220 0 -313 158 -270 375zM274 360c-29 -147 22 -235 132 -235c109 0 194 88 223 235c28 147 -23 235 -132 235c-110 0 -195 -88 -223 -235zM484 780h-151l26 140h151zM725 780
h-151l26 140h151z" />
    <glyph glyph-name="Otilde" unicode="&#xd5;" horiz-adv-x="765" 
d="M109 360c41 217 195 375 415 375c219 0 311 -158 270 -375c-43 -217 -196 -375 -415 -375c-220 0 -313 158 -270 375zM274 360c-29 -147 22 -235 132 -235c109 0 194 88 223 235c28 147 -23 235 -132 235c-110 0 -195 -88 -223 -235zM347 795l27 140c34 30 85 40 113 40
c69 0 117 -50 166 -50c28 0 79 10 115 50l-27 -140c-34 -30 -95 -40 -123 -40c-69 0 -107 50 -156 50c-28 0 -79 -10 -115 -50z" />
    <glyph glyph-name="Ocircumflex" unicode="&#xd4;" horiz-adv-x="765" 
d="M109 360c41 217 195 375 415 375c219 0 311 -158 270 -375c-43 -217 -196 -375 -415 -375c-220 0 -313 158 -270 375zM274 360c-29 -147 22 -235 132 -235c109 0 194 88 223 235c28 147 -23 235 -132 235c-110 0 -195 -88 -223 -235zM501 980h137l118 -210h-141l-63 121
l-113 -121h-138z" />
    <glyph glyph-name="Oacute" unicode="&#xd3;" horiz-adv-x="765" 
d="M109 360c41 217 195 375 415 375c219 0 311 -158 270 -375c-43 -217 -196 -375 -415 -375c-220 0 -313 158 -270 375zM274 360c-29 -147 22 -235 132 -235c109 0 194 88 223 235c28 147 -23 235 -132 235c-110 0 -195 -88 -223 -235zM748 990l-164 -187h-131l117 187h178
z" />
    <glyph glyph-name="Ograve" unicode="&#xd2;" horiz-adv-x="765" 
d="M109 360c41 217 195 375 415 375c219 0 311 -158 270 -375c-43 -217 -196 -375 -415 -375c-220 0 -313 158 -270 375zM274 360c-29 -147 22 -235 132 -235c109 0 194 88 223 235c28 147 -23 235 -132 235c-110 0 -195 -88 -223 -235zM522 990l56 -187h-125l-103 187h172z
" />
    <glyph glyph-name="Ntilde" unicode="&#xd1;" horiz-adv-x="769" 
d="M226 0h-156l138 720h162l222 -461l89 461h156l-138 -720h-162l-224 461zM347 795l27 140c34 30 85 40 113 40c69 0 117 -50 166 -50c28 0 79 10 115 50l-27 -140c-34 -30 -95 -40 -123 -40c-69 0 -107 50 -156 50c-28 0 -79 -10 -115 -50z" />
    <glyph glyph-name="Eth" unicode="&#xd0;" horiz-adv-x="784" 
d="M390 0h-250l58 300h-130l24 125h130l57 295h239c242 0 341 -126 296 -358c-44 -225 -182 -362 -424 -362zM357 300l-30 -156h65c136 0 227 52 259 219c36 184 -60 212 -178 212h-62l-29 -150h126l-24 -125h-127z" />
    <glyph glyph-name="Idieresis" unicode="&#xcf;" horiz-adv-x="299" 
d="M229 0h-159l139 720h159zM268 779h-150l27 141h150zM483 779h-150l27 141h150z" />
    <glyph glyph-name="Icircumflex" unicode="&#xce;" horiz-adv-x="300" 
d="M230 0h-160l138 720h160zM271 980h137l118 -210h-141l-63 121l-113 -121h-138z" />
    <glyph glyph-name="Iacute" unicode="&#xcd;" horiz-adv-x="300" 
d="M230 0h-160l138 720h160zM508 990l-164 -187h-131l117 187h178z" />
    <glyph glyph-name="Igrave" unicode="&#xcc;" horiz-adv-x="300" 
d="M230 0h-160l138 720h160zM332 990l56 -187h-125l-103 187h172z" />
    <glyph glyph-name="Edieresis" unicode="&#xcb;" horiz-adv-x="657" 
d="M607 0h-537l138 720h527l-28 -145h-367l-26 -135h317l-28 -145h-317l-29 -150h377zM434 780h-151l26 140h151zM675 780h-151l26 140h151z" />
    <glyph glyph-name="Ecircumflex" unicode="&#xca;" horiz-adv-x="667" 
d="M607 0h-537l138 720h527l-28 -145h-367l-26 -135h317l-28 -145h-317l-29 -150h377zM451 980h137l118 -210h-141l-63 121l-113 -121h-138z" />
    <glyph glyph-name="Eacute" unicode="&#xc9;" horiz-adv-x="667" 
d="M607 0h-537l138 720h527l-28 -145h-367l-26 -135h317l-28 -145h-317l-29 -150h377zM688 990l-164 -187h-131l117 187h178z" />
    <glyph glyph-name="Egrave" unicode="&#xc8;" horiz-adv-x="667" 
d="M607 0h-537l138 720h527l-28 -145h-367l-26 -135h317l-28 -145h-317l-29 -150h377zM502 990l56 -187h-125l-103 187h172z" />
    <glyph glyph-name="Ccedilla" unicode="&#xc7;" horiz-adv-x="741" 
d="M384 -142c5 28 -3 43 -19 43c-15 0 -25 -7 -32 -25l-56 12l49 101c-179 25 -256 174 -217 371c41 217 205 375 425 375c163 0 293 -92 265 -256h-165c6 80 -49 116 -127 116c-110 0 -205 -88 -233 -235c-29 -147 27 -235 137 -235c78 0 139 40 180 125l149 -44
c-71 -138 -183 -221 -356 -221h-5l-13 -29h11c48 0 84 -28 70 -98s-61 -100 -109 -100c-41 0 -73 20 -73 69l61 13c0 -18 8 -25 23 -25c18 0 29 15 35 43z" />
    <glyph glyph-name="AE" unicode="&#xc6;" horiz-adv-x="1074" 
d="M180 0h-170l596 720h537l-28 -145h-367l-26 -135h317l-28 -145h-317l-29 -150h377l-28 -145h-537l24 125h-221zM529 270l43 220l-176 -220h133z" />
    <glyph glyph-name="Aring" unicode="&#xc5;" horiz-adv-x="730" 
d="M578 720h-144l-424 -720h163l71 130h287l24 -130h165zM319 262l144 259l46 -259h-190zM397 892c15 78 93 143 171 143c79 0 130 -65 115 -143c-15 -79 -92 -143 -171 -143c-78 0 -130 64 -115 143zM490 892c-6 -28 13 -50 40 -50s52 22 58 50c5 26 -12 48 -39 48
s-54 -22 -59 -48z" />
    <glyph glyph-name="Adieresis" unicode="&#xc4;" horiz-adv-x="730" 
d="M434 720h144l142 -720h-165l-24 130h-287l-71 -130h-163zM463 521l-144 -259h190zM464 780h-151l26 140h151zM705 780h-151l26 140h151z" />
    <glyph glyph-name="Atilde" unicode="&#xc3;" horiz-adv-x="730" 
d="M434 720h144l142 -720h-165l-24 130h-287l-71 -130h-163zM463 521l-144 -259h190zM327 795l27 140c34 30 85 40 113 40c69 0 117 -50 166 -50c28 0 79 10 115 50l-27 -140c-34 -30 -95 -40 -123 -40c-69 0 -107 50 -156 50c-28 0 -79 -10 -115 -50z" />
    <glyph glyph-name="Acircumflex" unicode="&#xc2;" horiz-adv-x="730" 
d="M434 720h144l142 -720h-165l-24 130h-287l-71 -130h-163zM463 521l-144 -259h190zM481 980h137l118 -210h-141l-63 121l-113 -121h-138z" />
    <glyph glyph-name="Aacute" unicode="&#xc1;" horiz-adv-x="730" 
d="M434 720h144l142 -720h-165l-24 130h-287l-71 -130h-163zM463 521l-144 -259h190zM708 990l-164 -187h-131l117 187h178z" />
    <glyph glyph-name="Agrave" unicode="&#xc0;" horiz-adv-x="730" 
d="M434 720h144l142 -720h-165l-24 130h-287l-71 -130h-163zM463 521l-144 -259h190zM532 990l56 -187h-125l-103 187h172z" />
    <glyph glyph-name="questiondown" unicode="&#xbf;" 
d="M285 312h145l-9 -45c-15 -81 -56 -131 -125 -175c-53 -34 -76 -58 -84 -99c-8 -44 19 -68 71 -68c40 0 91 34 104 101l140 -30c-38 -132 -150 -211 -270 -211c-138 0 -225 79 -201 202c19 98 84 137 149 188c41 33 60 45 73 102zM321 520h151l-30 -150h-151z" />
    <glyph glyph-name="yen" unicode="&#xa5;" horiz-adv-x="705" 
d="M433 0h-161l20 108h-150l15 75h150l9 45h-150l14 75h144l-175 417h175l119 -277l221 277h170l-337 -417h144l-14 -75h-150l-9 -45h150l-15 -75h-150z" />
    <glyph glyph-name="cent" unicode="&#xa2;" horiz-adv-x="540" 
d="M203 -115l20 103c-113 15 -188 99 -155 272s142 257 261 272l20 103h75l-20 -102c107 -11 194 -73 156 -221h-150c10 43 0 78 -31 91l-56 -288c31 11 56 36 73 81l144 -21c-50 -125 -143 -178 -242 -188l-20 -102h-75zM218 260c-14 -75 -4 -123 30 -142l55 283
c-41 -19 -72 -67 -85 -141z" />
    <glyph glyph-name="exclamdown" unicode="&#xa1;" horiz-adv-x="259" 
d="M127 292h116l-73 -492h-159zM155 520h151l-30 -150h-151z" />
    <glyph glyph-name="Ydieresis" unicode="&#x178;" horiz-adv-x="705" 
d="M433 0h-161l55 293l-179 427h175l118 -277l222 277h170l-345 -427zM444 780h-151l26 140h151zM685 780h-151l26 140h151z" />
    <glyph glyph-name="zcaron" unicode="&#x17e;" horiz-adv-x="517" 
d="M444 0h-414l23 125l299 270h-228l24 125h409l-24 -125l-304 -270h288zM430 600h-137l-94 180h138l39 -91l77 91h141z" />
    <glyph glyph-name="scaron" unicode="&#x161;" horiz-adv-x="515" 
d="M51 150l128 21c-2 -45 36 -71 92 -71c41 0 95 10 103 52c5 24 -11 36 -32 41l-137 27c-66 15 -116 63 -99 149c23 119 131 166 248 166c124 0 201 -73 176 -182h-129c12 53 -37 67 -74 67c-41 0 -87 -12 -94 -47c-4 -17 5 -31 31 -36l134 -25c54 -12 128 -49 107 -156
c-22 -115 -125 -171 -259 -171c-127 0 -204 70 -195 165zM420 600h-137l-94 180h138l39 -91l77 91h141z" />
    <glyph glyph-name="Zcaron" unicode="&#x17d;" horiz-adv-x="662" 
d="M612 0h-562l27 145l456 430h-353l28 145h532l-28 -145l-461 -430h388zM545 790h-137l-112 190h138l57 -101l99 101h141z" />
    <glyph glyph-name="OE" unicode="&#x152;" horiz-adv-x="1011" 
d="M951 0h-557c-242 0 -328 137 -284 362c45 232 192 358 434 358h536l-28 -145h-337l-26 -135h287l-28 -145h-287l-29 -150h347zM471 144l84 431h-22c-118 0 -224 -28 -260 -212c-32 -167 37 -219 173 -219h25z" />
    <glyph glyph-name="Scaron" unicode="&#x160;" horiz-adv-x="647" 
d="M79 230l155 8c-9 -85 32 -113 115 -113c64 0 122 22 133 79c8 41 -9 60 -63 79c-35 13 -111 34 -151 47c-119 38 -127 118 -114 186c28 149 165 219 296 219c170 0 263 -71 231 -221h-157c11 52 -20 81 -97 81c-65 0 -110 -27 -116 -65c-6 -27 2 -43 34 -56
c30 -13 98 -33 163 -52c100 -30 162 -93 138 -213c-30 -152 -183 -224 -320 -224c-191 0 -266 92 -247 245zM535 790h-137l-112 190h138l57 -101l99 101h141z" />
    <glyph glyph-name="Sacute" unicode="&#x15a;" horiz-adv-x="647" 
d="M79 230l155 8c-9 -85 32 -113 115 -113c64 0 122 22 133 79c8 41 -9 60 -63 79c-35 13 -111 34 -151 47c-119 38 -127 118 -114 186c28 149 165 219 296 219c170 0 263 -71 231 -221h-157c11 52 -20 81 -97 81c-65 0 -110 -27 -116 -65c-6 -27 2 -43 34 -56
c30 -13 98 -33 163 -52c100 -30 162 -93 138 -213c-30 -152 -183 -224 -320 -224c-191 0 -266 92 -247 245zM678 990l-164 -187h-131l117 187h178z" />
    <glyph glyph-name="tcommaaccent" unicode="&#x163;" horiz-adv-x="385" 
d="M348 126l-14 -119c-22 -11 -79 -17 -98 -17c-109 0 -140 60 -121 162l49 249h-74l22 119h74l20 107l159 43l-29 -150h99l-22 -119h-99l-40 -204c-9 -45 -15 -77 32 -77c10 0 25 1 42 6zM167 -220h-77l29 150h151l-29 -150c-17 -85 -68 -133 -128 -157l-25 63
c38 15 68 40 79 94z" />
    <glyph glyph-name="uhungarumlaut" unicode="&#x171;" horiz-adv-x="574" 
d="M464 520h150l-99 -520h-141l14 75c-51 -64 -101 -90 -163 -90c-144 0 -171 92 -147 216l61 319h150l-60 -315c-12 -60 3 -94 61 -94c52 0 103 42 120 126zM468 790l-134 -187h-131l87 187h178zM688 790l-134 -187h-131l87 187h178z" />
    <glyph glyph-name="uring" unicode="&#x16f;" horiz-adv-x="574" 
d="M614 520h-150l-54 -283c-17 -84 -68 -126 -120 -126c-58 0 -73 34 -61 94l60 315h-150l-61 -319c-24 -124 3 -216 147 -216c62 0 112 26 163 90l-14 -75h141zM268 722c15 78 93 143 171 143c79 0 130 -65 115 -143c-16 -79 -92 -143 -171 -143c-78 0 -131 64 -115 143z
M361 722c-6 -28 13 -50 40 -50s52 22 58 50c5 26 -12 48 -39 48s-54 -22 -59 -48z" />
    <glyph glyph-name="rcaron" unicode="&#x159;" horiz-adv-x="462" 
d="M200 0h-150l99 520h141l-17 -90c46 70 87 105 162 105c40 0 66 -7 87 -26l-47 -134c-19 10 -40 20 -71 20c-86 0 -141 -63 -160 -164zM420 600h-137l-94 180h138l39 -91l77 91h141z" />
    <glyph glyph-name="ohungarumlaut" unicode="&#x151;" horiz-adv-x="572" 
d="M68 260c37 192 172 275 311 275s242 -83 205 -275s-172 -275 -311 -275s-242 83 -205 275zM218 260c-18 -97 10 -150 79 -150s119 53 137 150s-10 150 -79 150s-119 -53 -137 -150zM458 790l-134 -187h-131l87 187h178zM678 790l-134 -187h-131l87 187h178z" />
    <glyph glyph-name="ncaron" unicode="&#x148;" horiz-adv-x="584" 
d="M200 0h-150l99 520h141l-14 -75c50 64 100 90 162 90c144 0 171 -92 148 -216l-61 -319h-150l60 315c12 60 -4 94 -62 94c-52 0 -103 -42 -120 -126zM450 600h-137l-94 180h138l39 -91l77 91h141z" />
    <glyph glyph-name="nacute" unicode="&#x144;" horiz-adv-x="584" 
d="M200 0h-150l99 520h141l-14 -75c50 64 100 90 162 90c144 0 171 -92 148 -216l-61 -319h-150l60 315c12 60 -4 94 -62 94c-52 0 -103 -42 -120 -126zM578 790l-164 -187h-131l117 187h178z" />
    <glyph glyph-name="dcroat" unicode="&#x111;" horiz-adv-x="578" 
d="M477 562h-54l18 96h55l12 62h150l-12 -62h55l-18 -96h-56l-107 -562h-140l11 61c-40 -50 -92 -76 -151 -76c-124 0 -206 93 -171 275s158 275 282 275c42 0 89 -13 110 -60zM430 260c20 102 -12 150 -76 150s-115 -48 -135 -150c-19 -102 17 -150 76 -150s116 48 135 150
z" />
    <glyph glyph-name="ecaron" unicode="&#x11b;" horiz-adv-x="556" 
d="M544 141c-59 -103 -146 -156 -271 -156c-134 0 -242 83 -205 275s178 275 311 275c107 0 213 -48 206 -169c-6 -114 -102 -149 -225 -149h-150c-10 -72 30 -107 97 -107c48 0 84 27 102 60zM351 410c-50 0 -102 -34 -119 -91h137c38 0 62 18 61 47c-1 30 -40 44 -79 44z
M450 600h-137l-94 180h138l39 -91l77 91h141z" />
    <glyph glyph-name="eogonek" unicode="&#x119;" horiz-adv-x="556" 
d="M544 141c-42 -73 -101 -103 -171 -142c-27 -15 -61 -39 -68 -79c-7 -38 12 -59 45 -59c30 0 52 16 73 46c19 -22 38 -43 57 -65c-24 -35 -82 -81 -154 -81c-89 0 -143 47 -126 135c7 32 32 73 59 89c-18 1 -36 3 -53 7c-101 24 -169 109 -138 268c37 192 178 275 311 275
c107 0 213 -48 206 -169c-6 -114 -102 -149 -225 -149h-150c-10 -72 30 -107 97 -107c48 0 84 27 102 60c45 -10 90 -19 135 -29zM351 410c-50 0 -102 -34 -119 -91h110c52 0 89 6 88 47c-1 30 -40 44 -79 44z" />
    <glyph glyph-name="ccaron" unicode="&#x10d;" horiz-adv-x="540" 
d="M218 260c-18 -97 4 -150 69 -150c48 0 86 25 109 86l144 -21c-55 -139 -165 -190 -277 -190c-134 0 -232 83 -195 275s167 275 301 275c122 0 233 -59 191 -223h-150c13 56 -7 98 -65 98c-62 0 -109 -53 -127 -150zM440 600h-137l-94 180h138l39 -91l77 91h141z" />
    <glyph glyph-name="cacute" unicode="&#x107;" horiz-adv-x="540" 
d="M218 260c-18 -97 4 -150 69 -150c48 0 86 25 109 86l144 -21c-55 -139 -165 -190 -277 -190c-134 0 -232 83 -195 275s167 275 301 275c122 0 233 -59 191 -223h-150c13 56 -7 98 -65 98c-62 0 -109 -53 -127 -150zM578 790l-164 -187h-131l117 187h178z" />
    <glyph glyph-name="lacute" unicode="&#x13a;" horiz-adv-x="261" 
d="M200 0h-150l133 695l158 40zM488 990l-164 -187h-131l117 187h178z" />
    <glyph glyph-name="abreve" unicode="&#x103;" horiz-adv-x="551" 
d="M350 54c-52 -52 -100 -69 -162 -69c-94 0 -163 51 -144 147c21 112 107 154 236 169c55 6 88 12 116 24l3 12c6 34 -5 76 -68 76c-58 0 -88 -39 -105 -77l-119 42c49 120 158 157 255 157c133 0 214 -60 182 -221l-39 -208c-11 -53 -5 -87 10 -106h-151
c-14 13 -15 37 -14 54zM366 165l13 70c-20 -7 -45 -16 -97 -26c-48 -9 -81 -26 -87 -67c-3 -23 6 -45 49 -45c47 0 98 33 122 68zM452 720h105c-19 -95 -97 -147 -197 -147s-160 53 -141 147h105c-3 -40 25 -56 53 -56s62 16 75 56z" />
    <glyph glyph-name="racute" unicode="&#x155;" horiz-adv-x="462" 
d="M200 0h-150l99 520h141l-17 -90c46 70 87 105 162 105c40 0 66 -7 87 -26l-47 -134c-19 10 -40 20 -71 20c-86 0 -141 -63 -160 -164zM548 790l-164 -187h-131l117 187h178z" />
    <glyph glyph-name="Tcommaaccent" unicode="&#x162;" horiz-adv-x="664" 
d="M412 0h-160l110 575h-222l28 145h604l-28 -145h-222zM294 -220h-77l29 150h151l-29 -150c-17 -85 -68 -133 -128 -157l-25 63c38 15 68 40 79 94z" />
    <glyph glyph-name="Uhungarumlaut" unicode="&#x170;" horiz-adv-x="753" 
d="M583 317l78 403h160l-80 -418c-38 -195 -171 -317 -368 -317c-195 0 -283 122 -245 317l80 418h160l-78 -403c-27 -138 18 -187 111 -187s155 49 182 187zM598 990l-134 -187h-131l87 187h178zM828 990l-134 -187h-131l87 187h178z" />
    <glyph glyph-name="Uring" unicode="&#x16e;" horiz-adv-x="753" 
d="M661 720l-78 -403c-27 -138 -89 -187 -182 -187s-138 49 -111 187l78 403h-160l-80 -418c-38 -195 50 -317 245 -317c197 0 330 122 368 317l80 418h-160zM407 892c15 78 93 143 171 143c79 0 130 -65 115 -143c-15 -79 -92 -143 -171 -143c-78 0 -130 64 -115 143z
M500 892c-6 -28 13 -50 40 -50s52 22 58 50c5 26 -12 48 -39 48s-54 -22 -59 -48z" />
    <glyph glyph-name="Rcaron" unicode="&#x158;" horiz-adv-x="715" 
d="M70 0l138 720h283c156 0 263 -60 232 -217c-21 -110 -107 -180 -215 -194c71 -10 117 -77 133 -142l44 -167h-179l-30 121c-25 104 -65 129 -146 129h-53l-47 -250h-160zM340 575l-37 -190h70c103 0 169 27 183 96c16 84 -53 94 -148 94h-68zM535 790h-137l-112 190h138
l57 -101l99 101h141z" />
    <glyph glyph-name="Ohungarumlaut" unicode="&#x150;" horiz-adv-x="765" 
d="M109 360c41 217 195 375 415 375c219 0 311 -158 270 -375c-43 -217 -196 -375 -415 -375c-220 0 -313 158 -270 375zM274 360c-29 -147 22 -235 132 -235c109 0 194 88 223 235c28 147 -23 235 -132 235c-110 0 -195 -88 -223 -235zM588 990l-134 -187h-131l87 187h178z
M818 990l-134 -187h-131l87 187h178z" />
    <glyph glyph-name="Ncaron" unicode="&#x147;" horiz-adv-x="769" 
d="M226 0h-156l138 720h162l222 -461l89 461h156l-138 -720h-162l-224 461zM595 790h-137l-112 190h138l57 -101l99 101h141z" />
    <glyph glyph-name="Nacute" unicode="&#x143;" horiz-adv-x="769" 
d="M226 0h-156l138 720h162l222 -461l89 461h156l-138 -720h-162l-224 461zM738 990l-164 -187h-131l117 187h178z" />
    <glyph glyph-name="Dcroat" unicode="&#x110;" horiz-adv-x="784" 
d="M390 0h-250l58 300h-130l24 125h130l57 295h239c242 0 341 -126 296 -358c-44 -225 -182 -362 -424 -362zM357 300l-30 -156h65c136 0 227 52 259 219c36 184 -60 212 -178 212h-62l-29 -150h126l-24 -125h-127z" />
    <glyph glyph-name="Dcaron" unicode="&#x10e;" horiz-adv-x="714" 
d="M320 0h-250l138 720h239c242 0 340 -126 296 -358c-44 -225 -181 -362 -423 -362zM340 575l-83 -431h65c136 0 226 52 258 219c36 184 -60 212 -178 212h-62zM515 790h-137l-112 190h138l57 -101l99 101h141z" />
    <glyph glyph-name="Ecaron" unicode="&#x11a;" horiz-adv-x="667" 
d="M607 0h-537l138 720h527l-28 -145h-367l-26 -135h317l-28 -145h-317l-29 -150h377zM565 790h-137l-112 190h138l57 -101l99 101h141z" />
    <glyph glyph-name="Eogonek" unicode="&#x118;" horiz-adv-x="667" 
d="M455 0h-385l139 720h527l-28 -145h-367l-26 -135h317l-28 -145h-317l-29 -150h377l-28 -145h-22c-51 0 -87 -39 -95 -80c-7 -38 12 -59 45 -59c30 0 52 16 73 46l57 -65c-24 -35 -83 -81 -155 -81c-89 0 -141 52 -124 140c8 41 36 81 69 99z" />
    <glyph glyph-name="Ccaron" unicode="&#x10c;" horiz-adv-x="741" 
d="M274 360c-29 -147 27 -235 137 -235c78 0 139 40 180 125l149 -44c-71 -138 -183 -221 -356 -221c-220 0 -318 158 -275 375c41 217 205 375 425 375c163 0 293 -92 265 -256h-165c6 80 -49 116 -127 116c-110 0 -205 -88 -233 -235zM615 790h-137l-112 190h138l57 -101
l99 101h141z" />
    <glyph glyph-name="Cacute" unicode="&#x106;" horiz-adv-x="741" 
d="M274 360c-29 -147 27 -235 137 -235c78 0 139 40 180 125l149 -44c-71 -138 -183 -221 -356 -221c-220 0 -318 158 -275 375c41 217 205 375 425 375c163 0 293 -92 265 -256h-165c6 80 -49 116 -127 116c-110 0 -205 -88 -233 -235zM748 990l-164 -187h-131l117 187h178
z" />
    <glyph glyph-name="Lacute" unicode="&#x139;" horiz-adv-x="638" 
d="M608 0h-538l138 720h160l-111 -575h378zM548 990l-164 -187h-131l117 187h178z" />
    <glyph glyph-name="Abreve" unicode="&#x102;" horiz-adv-x="730" 
d="M434 720h144l142 -720h-165l-24 130h-287l-71 -130h-163zM463 521l-144 -259h190zM604 920h120c-18 -95 -88 -167 -218 -167s-168 73 -150 167h120c-10 -50 10 -73 48 -73s70 23 80 73z" />
    <glyph glyph-name="Racute" unicode="&#x154;" horiz-adv-x="715" 
d="M70 0l138 720h283c156 0 263 -60 232 -217c-21 -110 -107 -180 -215 -194c71 -10 117 -77 133 -142l44 -167h-179l-30 121c-25 104 -65 129 -146 129h-53l-47 -250h-160zM340 575l-37 -190h70c103 0 169 27 183 96c16 84 -53 94 -148 94h-68zM678 990l-164 -187h-131
l117 187h178z" />
    <glyph glyph-name="zdotaccent" unicode="&#x17c;" horiz-adv-x="517" 
d="M444 0h-414l23 125l299 270h-228l24 125h409l-24 -125l-304 -270h288zM431 584h-150l27 136h150z" />
    <glyph glyph-name="Lcaron" unicode="&#x13d;" horiz-adv-x="638" 
d="M608 0h-538l138 720h160l-111 -575h378zM375 790h-137l-112 190h138l57 -101l99 101h141z" />
    <glyph glyph-name="scommaaccent" unicode="&#x219;" horiz-adv-x="515" 
d="M51 150l128 21c-2 -45 36 -71 92 -71c41 0 95 10 103 52c5 24 -11 36 -32 41l-137 27c-66 15 -116 63 -99 149c23 119 131 166 248 166c124 0 201 -73 176 -182h-129c12 53 -37 67 -74 67c-41 0 -87 -12 -94 -47c-4 -17 5 -31 31 -36l134 -25c54 -12 128 -49 107 -156
c-22 -115 -125 -171 -259 -171c-127 0 -204 70 -195 165zM207 -220h-77l29 150h151l-29 -150c-17 -85 -68 -133 -128 -157l-25 63c38 15 68 40 79 94z" />
    <glyph glyph-name="aogonek" unicode="&#x105;" horiz-adv-x="556" 
d="M362 54c-53 -52 -100 -69 -162 -69c-94 0 -164 51 -145 147c22 112 108 154 237 169c55 6 88 12 117 24l2 12c7 34 -4 76 -67 76c-58 0 -89 -39 -106 -77l-119 42c49 120 158 157 255 157c133 0 214 -60 183 -221l-41 -208c-10 -53 -5 -87 10 -106h-31
c-51 0 -95 -29 -105 -80c-7 -38 12 -59 45 -59c30 0 52 16 73 46l57 -65c-24 -35 -80 -81 -152 -81c-89 0 -144 52 -127 140c13 66 59 100 98 119c-9 6 -21 21 -22 34zM378 165l13 70c-19 -7 -45 -16 -97 -26c-48 -9 -81 -26 -87 -67c-3 -23 6 -45 49 -45c47 0 98 33 122 68
z" />
    <glyph glyph-name="lslash" unicode="&#x142;" horiz-adv-x="464" 
d="M304 0h-150l48 248l-92 -49l-41 109l161 86l59 301l157 40l-49 -252l99 53l41 -109l-168 -90z" />
    <glyph glyph-name="Zdotaccent" unicode="&#x17b;" horiz-adv-x="662" 
d="M612 0h-562l27 145l456 430h-353l28 145h532l-28 -145l-461 -430h388zM538 779h-150l27 141h150z" />
    <glyph glyph-name="Scommaaccent" unicode="&#x218;" horiz-adv-x="647" 
d="M79 230l155 8c-9 -85 32 -113 115 -113c64 0 122 22 133 79c8 41 -9 60 -63 79c-35 13 -111 34 -151 47c-119 38 -127 118 -114 186c28 149 165 219 296 219c170 0 263 -71 231 -221h-157c11 52 -20 81 -97 81c-65 0 -110 -27 -116 -65c-6 -27 2 -43 34 -56
c30 -13 98 -33 163 -52c100 -30 162 -93 138 -213c-30 -152 -183 -224 -320 -224c-191 0 -266 92 -247 245zM287 -220h-77l29 150h151l-29 -150c-17 -85 -68 -133 -128 -157l-25 63c38 15 68 40 79 94z" />
    <glyph glyph-name="Aogonek" unicode="&#x104;" horiz-adv-x="730" 
d="M435 720h144l141 -720h-35c-58 0 -97 -39 -105 -80c-7 -38 12 -59 45 -59c30 0 52 16 73 46l57 -65c-24 -35 -80 -81 -152 -81c-89 0 -144 52 -127 140c11 55 43 89 76 111l-20 118h-287l-72 -130h-163zM465 521l-146 -259h190z" />
    <glyph glyph-name="Lslash" unicode="&#x141;" horiz-adv-x="718" 
d="M688 0h-538l47 245l-87 -46l-41 109l156 83l64 329h160l-45 -233l92 49l41 -109l-161 -86l-38 -196h378z" />
    <glyph glyph-name="zacute" unicode="&#x17a;" horiz-adv-x="517" 
d="M444 0h-414l23 125l299 270h-228l24 125h409l-24 -125l-304 -270h288zM568 790l-164 -187h-131l117 187h178z" />
    <glyph glyph-name="sacute" unicode="&#x15b;" horiz-adv-x="515" 
d="M51 150l128 21c-2 -45 36 -71 92 -71c41 0 95 10 103 52c5 24 -11 36 -32 41l-137 27c-66 15 -116 63 -99 149c23 119 131 166 248 166c124 0 201 -73 176 -182h-129c12 53 -37 67 -74 67c-41 0 -87 -12 -94 -47c-4 -17 5 -31 31 -36l134 -25c54 -12 128 -49 107 -156
c-22 -115 -125 -171 -259 -171c-127 0 -204 70 -195 165zM558 790l-164 -187h-131l117 187h178z" />
    <glyph glyph-name="Zacute" unicode="&#x179;" horiz-adv-x="662" 
d="M612 0h-562l27 145l456 430h-353l28 145h532l-28 -145l-461 -430h388zM678 990l-164 -187h-131l117 187h178z" />
    <glyph glyph-name="Tcaron" unicode="&#x164;" horiz-adv-x="664" 
d="M412 0h-160l110 575h-222l28 145h604l-28 -145h-222zM535 790h-137l-112 190h138l57 -101l99 101h141z" />
    <glyph glyph-name="dcaron" unicode="&#x10f;" horiz-adv-x="741" 
d="M514 720h150l-139 -720h-140l11 61c-39 -50 -91 -76 -150 -76c-124 0 -206 93 -171 275s158 275 282 275c42 0 89 -13 110 -60zM436 260c20 102 -12 150 -76 150s-115 -48 -135 -150s17 -150 76 -150s115 48 135 150zM767 570h-77l29 150h151l-29 -150
c-16 -85 -68 -133 -127 -157l-25 63c38 15 68 40 78 94z" />
    <glyph glyph-name="lcaron" unicode="&#x13e;" horiz-adv-x="421" 
d="M205 0h-150l135 695l157 40zM447 570h-77l29 150h151l-29 -150c-16 -85 -68 -133 -127 -157l-25 63c38 15 68 40 78 94z" />
    <glyph glyph-name="tcaron" unicode="&#x165;" horiz-adv-x="521" 
d="M356 126l-14 -119c-22 -11 -79 -17 -98 -17c-109 0 -141 60 -121 162l48 249h-74l24 119h74l20 107l159 43l-29 -150h99l-24 -119h-99l-39 -204c-9 -45 -15 -77 32 -77c10 0 25 1 42 6zM547 570h-77l29 150h151l-29 -150c-16 -85 -68 -133 -127 -157l-25 63
c38 15 68 40 78 94z" />
    <glyph glyph-name="oe" unicode="&#x153;" horiz-adv-x="923" 
d="M68 260c37 192 172 275 311 275c71 0 132 -22 171 -69c57 47 128 69 196 69c107 0 213 -48 206 -169c-6 -114 -102 -149 -225 -149h-150c-10 -72 30 -107 97 -107c48 0 84 27 102 60l135 -29c-59 -103 -146 -156 -271 -156c-69 0 -131 21 -170 68
c-56 -47 -126 -68 -197 -68c-139 0 -242 83 -205 275zM218 260c-18 -97 10 -150 79 -150s119 53 137 150s-10 150 -79 150s-119 -53 -137 -150zM718 410c-50 0 -102 -34 -119 -91h137c38 0 62 18 61 47c-1 30 -40 44 -79 44z" />
    <glyph glyph-name="ae" unicode="&#xe6;" horiz-adv-x="882" 
d="M870 141c-59 -103 -146 -156 -271 -156c-64 0 -121 18 -160 58c-77 -49 -159 -58 -219 -58c-114 0 -175 59 -165 147c13 114 108 154 237 169c55 6 88 12 117 24c1 4 1 8 2 12c7 34 -4 76 -67 76c-58 0 -89 -39 -106 -77c-39 14 -80 28 -119 42c49 120 158 157 255 157
c68 0 122 -16 155 -54c53 37 115 54 176 54c107 0 213 -48 206 -169c-6 -114 -102 -149 -225 -149h-150c-10 -72 30 -107 97 -107c48 0 84 27 102 60c45 -10 90 -19 135 -29zM266 97c48 0 90 13 126 35c-5 22 -7 47 -5 74c0 9 1 19 3 28c-19 -7 -46 -16 -96 -25
c-48 -9 -88 -26 -89 -67c-1 -23 11 -45 61 -45zM677 410c-50 0 -102 -34 -119 -91h110c52 0 89 6 88 47c-1 30 -40 44 -79 44z" />
    </font>
</defs>
</svg>
