<?xml version="1.0" standalone="no"?>
<!DOCTYPE svg PUBLIC "-//W3C//DTD SVG 1.1//EN" "http://www.w3.org/Graphics/SVG/1.1/DTD/svg11.dtd" >
<svg xmlns="http://www.w3.org/2000/svg" xmlns:xlink="http://www.w3.org/1999/xlink" version="1.1">
<metadata>
Created by FontForge 20160407 at Fri Jun  3 16:17:00 2016
 By Jimmy Wärting
Copyright (c) 2009 by abstrkt. All rights reserved.
</metadata>
<defs>
<font id="VremenaGroteskMedium" horiz-adv-x="584" >
  <font-face 
    font-family="Vremena Grotesk Medium"
    font-weight="400"
    font-stretch="normal"
    units-per-em="1000"
    panose-1="0 0 0 0 0 0 0 0 0 0"
    ascent="750"
    descent="-250"
    x-height="520"
    cap-height="720"
    bbox="-61 -367 4625 1035"
    underline-thickness="50"
    underline-position="-100"
    unicode-range="U+0020-2122"
  />
<missing-glyph horiz-adv-x="278" 
 />
    <glyph glyph-name=".notdef" horiz-adv-x="278" 
 />
    <glyph glyph-name=".null" horiz-adv-x="0" 
 />
    <glyph glyph-name="CR" horiz-adv-x="278" 
 />
    <glyph glyph-name="space" unicode=" " horiz-adv-x="278" 
 />
    <glyph glyph-name="afii10069" unicode="&#x434;" horiz-adv-x="604" 
d="M119 338v182h401v-410h69v-243h-127v133h-327v-133h-127v243h19c78 0 92 114 92 228zM187 110h201v300h-144v-106c0 -74 -7 -163 -57 -194z" />
    <glyph glyph-name="afii10070" unicode="&#x435;" horiz-adv-x="554" 
d="M525 223h-365c5 -88 59 -128 128 -128c52 0 92 30 106 77l123 -26c-36 -107 -116 -161 -237 -161c-137 0 -252 89 -252 275s116 275 252 275c139 0 246 -90 246 -257c0 -23 -1 -52 -1 -55zM277 425c-53 0 -106 -37 -115 -109h229c-4 65 -48 109 -114 109z" />
    <glyph glyph-name="afii10072" unicode="&#x436;" horiz-adv-x="771" 
d="M451 207v-207h-132v207h-10c-33 0 -51 -15 -72 -55l-70 -152h-147l89 173c31 51 59 83 94 91v4c-39 10 -56 41 -75 83c-16 35 -19 51 -57 51h-21l-7 118h26c67 0 100 -7 135 -63c10 -16 32 -73 45 -101c17 -36 37 -39 60 -39h10v203h132v-203h11c23 0 43 3 60 39
c13 28 35 85 45 101c35 56 68 63 135 63h26l-7 -118h-21c-39 0 -42 -16 -57 -51c-19 -42 -37 -73 -76 -83v-4c36 -8 64 -40 95 -91l89 -173h-147l-70 152c-21 40 -39 55 -72 55h-11z" />
    <glyph glyph-name="afii10073" unicode="&#x437;" horiz-adv-x="486" 
d="M206 221v96c21 0 39 0 43 1c41 1 57 23 57 53c0 31 -23 57 -68 57c-44 0 -73 -26 -81 -67l-115 23c19 99 94 151 200 151c112 0 196 -53 196 -153c0 -65 -44 -97 -84 -107c54 -9 104 -55 104 -123c0 -118 -104 -167 -213 -167c-118 0 -198 53 -217 161l121 18
c11 -49 47 -72 96 -72c52 0 86 24 86 67c0 53 -43 62 -81 62h-44z" />
    <glyph glyph-name="afii10074" unicode="&#x438;" horiz-adv-x="581" 
d="M58 0v520h132v-332l194 332h139v-520h-132v329l-194 -329h-139z" />
    <glyph glyph-name="afii10075" unicode="&#x439;" horiz-adv-x="581" 
d="M363 720h91c0 -92 -62 -147 -162 -147s-161 56 -161 147h92c5 -43 35 -62 69 -62s66 19 71 62zM58 0v520h132v-332l194 332h139v-520h-132v329l-194 -329h-139z" />
    <glyph glyph-name="afii10076" unicode="&#x43a;" horiz-adv-x="547" 
d="M58 0v520h132v-203h24c30 0 54 5 80 39c19 25 40 85 49 101c31 56 68 68 135 68h27l-10 -118h-19c-39 0 -45 -21 -61 -56c-18 -42 -41 -69 -85 -79v-4c43 -10 83 -45 108 -95l89 -173h-147l-73 152c-22 40 -50 55 -90 55h-27v-207h-132z" />
    <glyph glyph-name="afii10077" unicode="&#x43b;" horiz-adv-x="587" 
d="M118 272v248h411v-520h-132v410h-154v-179c0 -116 -21 -246 -147 -246c-29 0 -66 10 -75 15v107c11 -6 25 -11 39 -11c62 -1 58 97 58 176z" />
    <glyph glyph-name="afii10078" unicode="&#x43c;" horiz-adv-x="722" 
d="M58 0v520h183l119 -367l134 367h170v-520h-132v332l-120 -332h-107l-115 338v-338h-132z" />
    <glyph glyph-name="afii10079" unicode="&#x43d;" horiz-adv-x="572" 
d="M58 0v520h132v-203h192v203h132v-520h-132v207h-192v-207h-132z" />
    <glyph glyph-name="afii10080" unicode="&#x43e;" horiz-adv-x="563" 
d="M28 260c0 186 113 275 253 275c141 0 254 -89 254 -275s-113 -275 -254 -275c-140 0 -253 89 -253 275zM160 260c0 -111 49 -165 121 -165s122 54 122 165c0 110 -50 165 -122 165s-121 -55 -121 -165z" />
    <glyph glyph-name="afii10081" unicode="&#x43f;" horiz-adv-x="571" 
d="M58 0v520h455v-520h-132v410h-191v-410h-132z" />
    <glyph glyph-name="afii10082" unicode="&#x440;" horiz-adv-x="571" 
d="M190 -200h-132v720h122v-64c30 50 77 79 139 79c130 0 224 -99 224 -275s-97 -275 -227 -275c-48 0 -96 17 -126 63v-248zM179 260c0 -111 48 -165 116 -165c69 0 116 54 116 165s-50 165 -115 165c-62 0 -117 -54 -117 -165z" />
    <glyph glyph-name="afii10083" unicode="&#x441;" horiz-adv-x="534" 
d="M160 260c0 -111 44 -165 113 -165c52 0 90 28 103 95l130 -20c-28 -130 -121 -185 -233 -185c-137 0 -245 89 -245 275s108 275 245 275c112 0 205 -56 233 -186l-129 -21c-14 68 -52 97 -104 97c-67 0 -113 -55 -113 -165z" />
    <glyph glyph-name="afii10084" unicode="&#x442;" horiz-adv-x="492" 
d="M20 410v110h452v-110h-160v-411h-132v411h-160z" />
    <glyph glyph-name="afii10085" unicode="&#x443;" horiz-adv-x="542" 
d="M68 -197l-10 117c17 -7 29 -13 58 -13c39 0 65 17 86 69l10 29l-202 515h135l129 -362l128 362h130l-206 -557c-41 -111 -95 -173 -187 -173c-31 0 -52 7 -71 13z" />
    <glyph glyph-name="afii10086" unicode="&#x444;" horiz-adv-x="834" 
d="M475 260c0 -122 40 -165 95 -165s104 43 104 165c0 118 -48 165 -103 165c-45 0 -96 -40 -96 -165zM358 260c0 125 -50 165 -95 165c-55 0 -104 -47 -104 -165c0 -122 49 -165 104 -165s95 43 95 165zM483 -200h-132v248c-19 -33 -54 -63 -116 -63
c-129 0 -207 119 -207 275c0 155 70 275 204 275c69 0 105 -37 119 -62v222l132 40v-262c14 25 50 62 119 62c134 0 204 -120 204 -275c0 -156 -78 -275 -207 -275c-62 0 -97 30 -116 63v-248z" />
    <glyph glyph-name="afii10087" unicode="&#x445;" horiz-adv-x="558" 
d="M168 0h-152l182 266l-170 254h160l94 -160l96 160h149l-165 -251l179 -269h-156l-109 172z" />
    <glyph glyph-name="afii10088" unicode="&#x446;" horiz-adv-x="597" 
d="M58 0v520h132v-410h191v410h132v-410h69v-243h-127v133h-397z" />
    <glyph glyph-name="afii10089" unicode="&#x447;" horiz-adv-x="541" 
d="M36 359v161h132v-117c0 -91 13 -139 88 -139c33 0 69 12 95 34v222h132v-520h-132v198c-36 -25 -80 -38 -126 -38c-132 0 -189 79 -189 199z" />
    <glyph glyph-name="afii10090" unicode="&#x448;" horiz-adv-x="794" 
d="M58 0v520h132v-410h141v410h132v-410h141v410h132v-520h-678z" />
    <glyph glyph-name="afii10091" unicode="&#x449;" horiz-adv-x="820" 
d="M736 520v-410h69v-243h-127v133h-620v520h132v-410h141v410h132v-410h141v410h132z" />
    <glyph glyph-name="afii10092" unicode="&#x44a;" horiz-adv-x="575" 
d="M13 412v108h246v-177h74c111 0 219 -35 219 -169c0 -122 -103 -174 -189 -174h-236v412h-114zM259 243v-136h47c73 0 112 16 112 67c0 52 -38 69 -103 69h-56z" />
    <glyph glyph-name="afii10093" unicode="&#x44b;" horiz-adv-x="733" 
d="M543 0v520h132v-520h-132zM58 0v520h132v-177h74c111 0 219 -35 219 -169c0 -122 -103 -174 -189 -174h-236zM190 243v-136h47c73 0 112 16 112 67c0 52 -38 69 -103 69h-56z" />
    <glyph glyph-name="afii10094" unicode="&#x44c;" horiz-adv-x="506" 
d="M58 0v520h132v-177h74c111 0 219 -35 219 -169c0 -122 -103 -174 -189 -174h-236zM190 243v-136h47c73 0 112 16 112 67c0 52 -38 69 -103 69h-56z" />
    <glyph glyph-name="afii10095" unicode="&#x44d;" horiz-adv-x="534" 
d="M215 214v96h162c-7 78 -55 115 -106 115c-54 0 -97 -27 -109 -97l-129 21c29 130 125 186 238 186c141 0 242 -93 242 -275c0 -186 -108 -275 -249 -275c-112 0 -208 52 -236 185l130 20c13 -67 54 -95 106 -95c57 0 108 31 113 119h-162z" />
    <glyph glyph-name="afii10096" unicode="&#x44e;" horiz-adv-x="775" 
d="M58 0v520h132v-203h74c20 147 123 218 239 218c132 0 244 -89 244 -275s-112 -275 -244 -275c-118 0 -221 72 -240 222h-73v-207h-132zM392 260c0 -111 46 -165 111 -165c66 0 112 54 112 165c0 110 -46 165 -112 165c-65 0 -111 -55 -111 -165z" />
    <glyph glyph-name="afii10097" unicode="&#x44f;" horiz-adv-x="533" 
d="M251 520h224v-520h-125v180h-25c-63 0 -91 -27 -115 -76l-50 -104h-147l64 124c25 49 64 92 117 98c-81 1 -146 56 -146 136c0 105 87 162 203 162zM350 281v136h-74c-69 0 -92 -29 -92 -66c0 -51 37 -70 118 -70h48z" />
    <glyph glyph-name="afii10017" unicode="&#x410;" horiz-adv-x="713" 
d="M294 720h130l279 -720h-146l-53 143h-298l-53 -143h-143zM356 548l-106 -287h211z" />
    <glyph glyph-name="afii10018" unicode="&#x411;" horiz-adv-x="674" 
d="M73 720h511v-127h-371v-142h156c165 0 262 -81 262 -226c0 -172 -125 -225 -263 -225h-295v720zM213 327v-204h153c81 0 122 32 122 105c0 59 -35 99 -127 99h-148z" />
    <glyph glyph-name="afii10019" unicode="&#x412;" horiz-adv-x="681" 
d="M367 0h-294v720h283c146 0 252 -59 252 -187c0 -68 -34 -131 -113 -157c86 -21 143 -83 143 -168c0 -152 -108 -208 -271 -208zM210 607v-183h130c76 0 128 30 128 97c0 70 -60 86 -140 86h-118zM210 311v-198h150c84 0 135 25 135 95c0 76 -62 103 -148 103h-137z" />
    <glyph glyph-name="afii10020" unicode="&#x413;" horiz-adv-x="574" 
d="M73 0v720h474v-127h-334v-593h-140z" />
    <glyph glyph-name="afii10021" unicode="&#x414;" horiz-adv-x="780" 
d="M162 512v208h502v-594h83v-304h-140v178h-457v-178h-140v304h35c115 0 117 223 117 386zM524 126v467h-225v-30c0 -181 1 -393 -91 -437h316z" />
    <glyph glyph-name="afii10022" unicode="&#x415;" horiz-adv-x="657" 
d="M601 0h-528v720h518v-127h-378v-162h328v-127h-328v-177h388v-127z" />
    <glyph glyph-name="afii10024" unicode="&#x416;" horiz-adv-x="1035" 
d="M588 304v-304h-141v304h-22c-66 0 -100 -24 -139 -110l-87 -194h-166l120 238c38 76 102 123 153 130c-43 7 -71 46 -87 74l-47 87c-30 54 -56 62 -89 62h-23v129h47c62 0 102 -8 154 -97l76 -135c22 -39 44 -64 90 -64h20v296h141v-296h20c46 0 68 25 91 64l76 135
c51 89 91 97 153 97h47v-129h-23c-33 0 -59 -8 -88 -62l-48 -87c-15 -28 -43 -67 -87 -74c51 -7 115 -54 153 -130l120 -238h-166l-87 194c-38 86 -73 110 -139 110h-22z" />
    <glyph glyph-name="afii10025" unicode="&#x417;" horiz-adv-x="630" 
d="M248 311v116h68c73 0 102 38 102 91c0 62 -49 95 -111 95c-74 0 -115 -38 -126 -106l-128 25c20 128 117 203 255 203c127 0 246 -69 246 -202c0 -77 -42 -133 -105 -157c90 -16 138 -87 138 -168c0 -158 -137 -223 -271 -223c-135 0 -257 57 -283 217l129 24
c17 -77 62 -121 151 -121c78 0 135 31 135 108c0 74 -60 98 -125 98h-75z" />
    <glyph glyph-name="afii10026" unicode="&#x418;" horiz-adv-x="753" 
d="M223 0h-150v720h140v-512l317 512h150v-720h-140v517z" />
    <glyph glyph-name="afii10027" unicode="&#x419;" horiz-adv-x="753" 
d="M454 920h105c0 -92 -56 -167 -183 -167s-179 76 -179 167h105c1 -50 27 -77 74 -77s76 27 78 77zM223 0h-150v720h140v-512l317 512h150v-720h-140v517z" />
    <glyph glyph-name="afii10028" unicode="&#x41a;" horiz-adv-x="698" 
d="M73 0v720h140v-296h40c46 0 68 25 91 64l79 135c53 89 112 97 174 97h40l-7 -129h-30c-33 0 -57 -8 -88 -62l-50 -87c-16 -28 -44 -67 -88 -74c51 -7 109 -57 154 -130l144 -238h-166l-111 194c-48 82 -87 110 -160 110h-22v-304h-140z" />
    <glyph glyph-name="afii10029" unicode="&#x41b;" horiz-adv-x="744" 
d="M147 412v308h524v-720h-141v593h-246v-193c0 -215 -9 -415 -185 -415c-31 0 -66 8 -84 18l-5 131c12 -7 28 -17 53 -17c88 0 84 132 84 295z" />
    <glyph glyph-name="afii10030" unicode="&#x41c;" horiz-adv-x="905" 
d="M213 0h-140v720h182l198 -548l200 548h179v-720h-141v489l-179 -489h-120l-179 489v-489z" />
    <glyph glyph-name="afii10031" unicode="&#x41d;" horiz-adv-x="739" 
d="M213 0h-140v720h140v-289h313v289h140v-720h-140v304h-313v-304z" />
    <glyph glyph-name="afii10032" unicode="&#x41e;" horiz-adv-x="771" 
d="M43 360c0 214 123 375 343 375c219 0 342 -161 342 -375s-123 -375 -342 -375c-220 0 -343 161 -343 375zM188 360c0 -153 73 -253 198 -253c121 0 196 100 196 253s-75 253 -196 253c-122 0 -198 -100 -198 -253z" />
    <glyph glyph-name="afii10033" unicode="&#x41f;" horiz-adv-x="736" 
d="M213 0h-140v720h590v-720h-140v593h-310v-593z" />
    <glyph glyph-name="afii10034" unicode="&#x420;" horiz-adv-x="667" 
d="M213 0h-140v720h267c145 0 284 -60 284 -232c0 -145 -97 -240 -276 -240h-135v-248zM213 596v-225h127c106 0 141 55 141 114c0 73 -48 111 -143 111h-125z" />
    <glyph glyph-name="afii10035" unicode="&#x421;" horiz-adv-x="739" 
d="M188 360c0 -153 73 -253 198 -253c87 0 145 48 171 138l139 -37c-41 -137 -139 -223 -310 -223c-220 0 -343 161 -343 375s120 375 340 375c163 0 278 -82 313 -224l-139 -37c-21 93 -84 139 -174 139c-122 0 -195 -100 -195 -253z" />
    <glyph glyph-name="afii10036" unicode="&#x422;" horiz-adv-x="650" 
d="M395 0h-140v593h-228v127h596v-127h-228v-593z" />
    <glyph glyph-name="afii10037" unicode="&#x423;" horiz-adv-x="688" 
d="M298 196l-288 524h147l208 -387l171 387h142l-257 -561c-53 -117 -110 -174 -207 -174c-46 0 -103 14 -128 41l34 113c17 -13 50 -32 81 -32c36 0 64 14 83 57z" />
    <glyph glyph-name="afii10038" unicode="&#x424;" horiz-adv-x="838" 
d="M489 -15h-140v93c-178 2 -316 88 -316 282c0 193 138 279 316 282v93h140v-93c178 -3 316 -89 316 -282c0 -194 -138 -280 -316 -282v-93zM660 360c0 117 -76 154 -171 156v-313c86 2 171 39 171 157zM178 360c0 -118 76 -155 171 -157v313c-87 -2 -171 -39 -171 -156z
" />
    <glyph glyph-name="afii10039" unicode="&#x425;" horiz-adv-x="721" 
d="M183 0h-163l264 373l-242 347h173l155 -242l163 242h159l-244 -349l253 -371h-167l-171 266z" />
    <glyph glyph-name="afii10040" unicode="&#x426;" horiz-adv-x="776" 
d="M520 720h140v-594h83v-304h-140v178h-530v720h140v-593h307v593z" />
    <glyph glyph-name="afii10041" unicode="&#x427;" horiz-adv-x="673" 
d="M600 720v-720h-140v283c-48 -26 -104 -39 -175 -39c-191 0 -245 119 -245 291v185h140v-176c0 -122 26 -180 132 -180c60 0 110 12 148 36v320h140z" />
    <glyph glyph-name="afii10042" unicode="&#x428;" horiz-adv-x="960" 
d="M747 720h140v-720h-814v720h140v-593h197v593h140v-593h197v593z" />
    <glyph glyph-name="afii10043" unicode="&#x429;" horiz-adv-x="1003" 
d="M887 720v-594h83v-304h-140v178h-757v720h140v-593h197v593h140v-593h197v593h140z" />
    <glyph glyph-name="afii10044" unicode="&#x42a;" horiz-adv-x="764" 
d="M317 720v-255h132c179 0 276 -88 276 -233c0 -172 -139 -232 -284 -232h-265v593h-156v127h297zM317 348v-225h121c95 0 143 39 143 112c0 59 -35 113 -141 113h-123z" />
    <glyph glyph-name="afii10045" unicode="&#x42b;" horiz-adv-x="923" 
d="M850 0h-140v720h140v-720zM73 720h140v-255h135c179 0 276 -88 276 -233c0 -172 -139 -232 -284 -232h-267v720zM213 348v-225h125c95 0 143 39 143 112c0 59 -35 113 -141 113h-127z" />
    <glyph glyph-name="afii10046" unicode="&#x42c;" horiz-adv-x="664" 
d="M73 720h140v-255h135c179 0 276 -88 276 -233c0 -172 -139 -232 -284 -232h-267v720zM213 348v-225h125c95 0 143 39 143 112c0 59 -35 113 -141 113h-127z" />
    <glyph glyph-name="afii10047" unicode="&#x42d;" horiz-adv-x="739" 
d="M282 311v113h264c-10 115 -80 189 -184 189c-90 0 -158 -46 -179 -139l-135 37c37 142 151 224 314 224c227 0 334 -161 334 -375s-106 -375 -340 -375c-170 0 -273 86 -313 223l139 37c26 -90 87 -138 174 -138c111 0 185 76 190 204h-264z" />
    <glyph glyph-name="afii10048" unicode="&#x42e;" horiz-adv-x="1032" 
d="M213 0h-140v720h140v-289h118c23 177 135 304 327 304c216 0 331 -161 331 -375s-115 -375 -331 -375c-198 0 -309 134 -328 319h-117v-304zM472 360c0 -153 64 -253 186 -253c118 0 185 100 185 253s-67 253 -185 253c-119 0 -186 -100 -186 -253z" />
    <glyph glyph-name="afii10049" unicode="&#x42f;" horiz-adv-x="693" 
d="M620 720v-720h-141v262h-61c-90 0 -140 -37 -184 -141l-51 -121h-166l78 167c30 65 81 129 155 141c-106 12 -182 84 -182 194c0 160 125 218 277 218h275zM479 382v211h-96c-95 0 -171 -14 -171 -105c0 -74 56 -106 169 -106h98z" />
    <glyph glyph-name="a" unicode="a" horiz-adv-x="552" 
d="M362 57c-45 -54 -94 -72 -156 -72c-95 0 -175 49 -175 148c0 112 81 155 204 169c55 6 95 13 121 25v14c0 49 -28 87 -93 87c-60 0 -89 -38 -101 -85l-115 35c26 120 126 157 224 157c134 0 217 -63 217 -215v-214c0 -53 12 -87 30 -106h-133c-15 13 -20 38 -23 57z
M356 157v86c-19 -8 -53 -17 -104 -27c-48 -9 -89 -24 -87 -74c0 -36 25 -57 69 -57c53 0 102 37 122 72z" />
    <glyph glyph-name="b" unicode="b" horiz-adv-x="571" 
d="M58 720h132v-248c30 45 78 63 126 63c130 0 227 -99 227 -275s-94 -275 -224 -275c-62 0 -109 29 -139 79v-64h-122v720zM179 260c0 -111 55 -165 117 -165c65 0 115 54 115 165s-47 165 -116 165c-68 0 -116 -54 -116 -165z" />
    <glyph glyph-name="c" unicode="c" horiz-adv-x="534" 
d="M160 260c0 -111 44 -165 113 -165c52 0 90 28 103 95l130 -20c-28 -130 -121 -185 -233 -185c-137 0 -245 89 -245 275s108 275 245 275c112 0 205 -56 233 -186l-129 -21c-14 68 -52 97 -104 97c-67 0 -113 -55 -113 -165z" />
    <glyph glyph-name="d" unicode="d" horiz-adv-x="571" 
d="M381 720h132v-720h-122v64c-30 -50 -77 -79 -139 -79c-130 0 -224 99 -224 275s97 275 227 275c48 0 96 -18 126 -63v248zM392 260c0 111 -48 165 -116 165c-69 0 -116 -54 -116 -165s50 -165 115 -165c62 0 117 54 117 165z" />
    <glyph glyph-name="e" unicode="e" horiz-adv-x="554" 
d="M525 223h-365c5 -88 59 -128 128 -128c52 0 92 30 106 77l123 -26c-36 -107 -116 -161 -237 -161c-137 0 -252 89 -252 275s116 275 252 275c139 0 246 -90 246 -257c0 -23 -1 -52 -1 -55zM277 425c-53 0 -106 -37 -115 -109h229c-4 65 -48 109 -114 109z" />
    <glyph glyph-name="f" unicode="f" horiz-adv-x="359" 
d="M224 0h-129v416h-78v104h78v21c0 110 50 184 157 184c40 0 89 -8 106 -16l-17 -107c-14 6 -41 10 -57 10c-40 0 -60 -21 -60 -69v-23h108v-104h-108v-416z" />
    <glyph glyph-name="g" unicode="g" horiz-adv-x="571" 
d="M513 26c0 -129 -65 -236 -248 -236c-105 0 -224 53 -224 177l127 -13c6 -40 43 -60 98 -60c81 0 116 48 115 124v30c-30 -40 -78 -56 -126 -56c-130 0 -227 95 -227 271s94 272 224 272c62 0 109 -29 139 -79v64h122v-494zM392 263c0 111 -55 162 -117 162
c-65 0 -115 -51 -115 -162s47 -161 116 -161c68 0 116 50 116 161z" />
    <glyph glyph-name="h" unicode="h" horiz-adv-x="576" 
d="M190 0h-132v720h132v-267c33 57 77 82 142 82c144 0 186 -92 186 -216v-319h-132v315c0 69 -24 109 -88 109c-61 0 -108 -48 -108 -141v-283z" />
    <glyph glyph-name="i" unicode="i" horiz-adv-x="248" 
d="M190 594h-132v126h132v-126zM190 0h-132v520h132v-520z" />
    <glyph glyph-name="j" unicode="j" horiz-adv-x="248" 
d="M-58 -197l18 109c17 -5 25 -6 35 -6c58 0 63 52 63 105v509h132v-548c0 -106 -55 -182 -167 -182c-24 0 -59 5 -81 13zM190 594h-132v126h132v-126z" />
    <glyph glyph-name="k" unicode="k" horiz-adv-x="548" 
d="M58 0v720h132v-403h25c30 0 54 5 80 39c19 25 40 85 49 101c31 56 67 63 135 63h27l-11 -118h-19c-38 0 -45 -16 -60 -51c-19 -42 -39 -69 -78 -79v-4c36 -8 70 -44 101 -95l89 -173h-147l-74 152c-21 40 -49 55 -89 55h-28v-207h-132z" />
    <glyph glyph-name="l" unicode="l" horiz-adv-x="248" 
d="M190 0h-132v695l132 40v-735z" />
    <glyph glyph-name="m" unicode="m" horiz-adv-x="853" 
d="M190 0h-132v520h123v-74c36 64 81 89 150 89c76 0 127 -35 148 -96c33 69 88 96 153 96c100 0 163 -63 163 -179v-356h-132v320c0 58 -15 104 -71 104c-63 0 -99 -52 -99 -130v-294h-132v323c0 71 -28 101 -71 101c-72 0 -100 -67 -100 -155v-269z" />
    <glyph glyph-name="n" unicode="n" horiz-adv-x="576" 
d="M190 0h-132v520h123v-75c38 64 86 90 151 90c144 0 186 -92 186 -216v-319h-132v315c0 69 -24 109 -88 109c-61 0 -108 -48 -108 -141v-283z" />
    <glyph glyph-name="o" unicode="o" horiz-adv-x="563" 
d="M28 260c0 186 113 275 253 275c141 0 254 -89 254 -275s-113 -275 -254 -275c-140 0 -253 89 -253 275zM160 260c0 -111 49 -165 121 -165s122 54 122 165c0 110 -50 165 -122 165s-121 -55 -121 -165z" />
    <glyph glyph-name="p" unicode="p" horiz-adv-x="571" 
d="M190 -200h-132v720h122v-64c30 50 77 79 139 79c130 0 224 -99 224 -275s-97 -275 -227 -275c-48 0 -96 17 -126 63v-248zM179 260c0 -111 48 -165 116 -165c69 0 116 54 116 165s-50 165 -115 165c-62 0 -117 -54 -117 -165z" />
    <glyph glyph-name="q" unicode="q" horiz-adv-x="571" 
d="M513 -200h-132v248c-30 -46 -78 -63 -126 -63c-130 0 -227 99 -227 275s94 275 224 275c62 0 109 -29 139 -79v64h122v-720zM392 260c0 111 -55 165 -117 165c-65 0 -115 -54 -115 -165s47 -165 116 -165c68 0 116 54 116 165z" />
    <glyph glyph-name="r" unicode="r" horiz-adv-x="423" 
d="M190 0h-132v520h123v-90c33 70 70 105 142 105c40 0 68 -8 92 -27l-24 -117c-20 11 -41 20 -72 20c-86 0 -129 -64 -129 -165v-246z" />
    <glyph glyph-name="s" unicode="s" horiz-adv-x="486" 
d="M28 150l114 19c6 -48 40 -81 105 -81c44 0 93 12 93 59c0 29 -19 43 -49 51l-125 29c-68 16 -127 60 -127 146c0 116 97 162 204 162c124 0 196 -68 201 -150l-114 -19c-8 47 -45 66 -91 66c-51 0 -86 -17 -86 -54c0 -22 18 -37 45 -43l126 -29c59 -14 134 -50 134 -154
c0 -115 -96 -167 -214 -167c-127 0 -207 67 -216 165z" />
    <glyph glyph-name="t" unicode="t" horiz-adv-x="365" 
d="M314 111l9 -106c-20 -10 -67 -15 -86 -15c-109 0 -143 60 -143 162v264h-74v104h74v116l132 43v-159h96v-104h-96v-234c0 -45 0 -77 47 -77c10 0 25 1 41 6z" />
    <glyph glyph-name="u" unicode="u" horiz-adv-x="576" 
d="M386 520h132v-520h-123v75c-38 -62 -86 -90 -151 -90c-144 0 -186 92 -186 216v319h132v-315c0 -69 24 -109 88 -109c61 0 108 48 108 141v283z" />
    <glyph glyph-name="v" unicode="v" horiz-adv-x="551" 
d="M334 0h-117l-207 520h134l131 -360l134 360h132z" />
    <glyph glyph-name="w" unicode="w" horiz-adv-x="773" 
d="M288 0h-121l-157 520h133l92 -370l93 370h119l91 -359l98 359h127l-162 -520h-119l-93 364z" />
    <glyph glyph-name="x" unicode="x" horiz-adv-x="558" 
d="M168 0h-152l182 266l-170 254h160l94 -160l96 160h149l-165 -251l179 -269h-156l-109 172z" />
    <glyph glyph-name="y" unicode="y" horiz-adv-x="542" 
d="M68 -197l-10 117c17 -7 29 -13 58 -13c39 0 65 17 86 69l10 29l-202 515h135l129 -362l128 362h130l-206 -557c-41 -111 -95 -173 -187 -173c-31 0 -52 7 -71 13z" />
    <glyph glyph-name="z" unicode="z" horiz-adv-x="502" 
d="M466 0h-430v110l265 300h-246v110h405v-110l-270 -300h276v-110z" />
    <glyph glyph-name="A" unicode="A" horiz-adv-x="713" 
d="M294 720h130l279 -720h-146l-53 143h-298l-53 -143h-143zM356 548l-106 -287h211z" />
    <glyph glyph-name="B" unicode="B" horiz-adv-x="688" 
d="M374 0h-301v720h290c146 0 252 -59 252 -187c0 -68 -34 -131 -113 -157c86 -21 143 -83 143 -168c0 -152 -108 -208 -271 -208zM210 607v-183h137c76 0 128 30 128 97c0 70 -60 86 -140 86h-125zM210 311v-198h157c84 0 135 25 135 95c0 76 -62 103 -148 103h-144z" />
    <glyph glyph-name="C" unicode="C" horiz-adv-x="739" 
d="M188 360c0 -153 73 -253 198 -253c87 0 145 48 171 138l139 -37c-41 -137 -139 -223 -310 -223c-220 0 -343 161 -343 375s120 375 340 375c163 0 278 -82 313 -224l-139 -37c-21 93 -84 139 -174 139c-122 0 -195 -100 -195 -253z" />
    <glyph glyph-name="D" unicode="D" horiz-adv-x="712" 
d="M318 0h-245v720h234c239 0 362 -126 362 -358c0 -225 -112 -362 -351 -362zM213 593v-467h85c148 0 228 64 228 237c0 190 -101 230 -231 230h-82z" />
    <glyph glyph-name="E" unicode="E" horiz-adv-x="664" 
d="M601 0h-528v720h518v-127h-378v-162h328v-127h-328v-177h388v-127z" />
    <glyph glyph-name="F" unicode="F" horiz-adv-x="629" 
d="M213 0h-140v720h506v-127h-366v-162h295v-127h-295v-304z" />
    <glyph glyph-name="G" unicode="G" horiz-adv-x="761" 
d="M188 360c0 -153 80 -253 212 -253c75 0 131 21 162 54v106h-167v112h305v-267c-53 -78 -173 -127 -301 -127c-227 0 -356 161 -356 375s123 375 350 375c163 0 270 -70 305 -220l-139 -38c-24 91 -82 136 -167 136c-129 0 -204 -100 -204 -253z" />
    <glyph glyph-name="H" unicode="H" horiz-adv-x="746" 
d="M213 0h-140v720h140v-289h320v289h140v-720h-140v304h-320v-304z" />
    <glyph glyph-name="I" unicode="I" horiz-adv-x="286" 
d="M213 0h-140v720h140v-720z" />
    <glyph glyph-name="J" unicode="J" horiz-adv-x="555" 
d="M21 214l132 19c2 -73 23 -126 94 -126c82 0 94 61 94 144v469h141v-485c0 -178 -97 -250 -235 -250c-131 0 -229 69 -226 229z" />
    <glyph glyph-name="K" unicode="K" horiz-adv-x="720" 
d="M213 0h-140v720h140v-332l290 332h171l-285 -307l298 -413h-174l-215 315l-85 -91v-224z" />
    <glyph glyph-name="L" unicode="L" horiz-adv-x="629" 
d="M599 0h-526v720h140v-593h386v-127z" />
    <glyph glyph-name="M" unicode="M" horiz-adv-x="905" 
d="M213 0h-140v720h182l198 -548l200 548h179v-720h-141v489l-179 -489h-120l-179 489v-489z" />
    <glyph glyph-name="N" unicode="N" horiz-adv-x="755" 
d="M209 0h-136v720h142l331 -489v489h136v-720h-142l-331 489v-489z" />
    <glyph glyph-name="O" unicode="O" horiz-adv-x="771" 
d="M43 360c0 214 123 375 343 375c219 0 342 -161 342 -375s-123 -375 -342 -375c-220 0 -343 161 -343 375zM188 360c0 -153 73 -253 198 -253c121 0 196 100 196 253s-75 253 -196 253c-122 0 -198 -100 -198 -253z" />
    <glyph glyph-name="P" unicode="P" horiz-adv-x="667" 
d="M213 0h-140v720h267c145 0 284 -60 284 -232c0 -145 -97 -240 -276 -240h-135v-248zM213 596v-225h127c106 0 141 55 141 114c0 73 -48 111 -143 111h-125z" />
    <glyph glyph-name="Q" unicode="Q" horiz-adv-x="771" 
d="M43 360c0 214 123 375 343 375c219 0 342 -161 342 -375c0 -106 -31 -199 -87 -266l65 -73l-89 -80l-71 80c-45 -23 -99 -36 -160 -36c-220 0 -343 161 -343 375zM385 203l89 80l71 -81c24 41 37 95 37 158c0 153 -75 253 -196 253c-122 0 -198 -100 -198 -253
s73 -253 198 -253c26 0 49 5 70 14z" />
    <glyph glyph-name="R" unicode="R" horiz-adv-x="704" 
d="M73 0v720h270c153 0 275 -57 275 -215c0 -110 -69 -178 -179 -194c73 -14 128 -80 159 -144l82 -167h-167l-57 121c-48 102 -95 141 -185 141h-58v-262h-140zM213 593v-211h96c106 0 165 32 165 106c0 89 -72 105 -167 105h-94z" />
    <glyph glyph-name="S" unicode="S" horiz-adv-x="652" 
d="M39 230l136 8c8 -94 65 -131 157 -131c76 0 132 31 132 94c0 42 -21 67 -78 87c-38 14 -132 37 -175 51c-127 39 -149 113 -149 181c0 146 123 215 251 215c167 0 263 -71 273 -221l-138 -7c-9 64 -45 106 -131 106c-68 0 -120 -29 -120 -81c0 -30 14 -50 50 -64
c33 -13 115 -36 184 -55c105 -30 178 -90 178 -207c0 -151 -139 -221 -273 -221c-188 0 -286 89 -297 245z" />
    <glyph glyph-name="T" unicode="T" horiz-adv-x="650" 
d="M395 0h-140v593h-228v127h596v-127h-228v-593z" />
    <glyph glyph-name="U" unicode="U" horiz-adv-x="744" 
d="M530 311v409h141v-418c0 -192 -102 -317 -299 -317c-195 0 -299 125 -299 317v418h140v-409c0 -138 55 -199 160 -199s157 61 157 199z" />
    <glyph glyph-name="V" unicode="V" horiz-adv-x="720" 
d="M421 0h-128l-280 720h147l199 -548l205 548h143z" />
    <glyph glyph-name="W" unicode="W" horiz-adv-x="1003" 
d="M352 0h-161l-178 720h146l122 -563l139 563h163l143 -563l118 563h145l-177 -720h-162l-149 558z" />
    <glyph glyph-name="X" unicode="X" horiz-adv-x="721" 
d="M183 0h-163l264 373l-242 347h173l155 -242l163 242h159l-244 -349l253 -371h-167l-171 266z" />
    <glyph glyph-name="Y" unicode="Y" horiz-adv-x="696" 
d="M419 0h-142v296l-267 424h157l185 -295l182 295h152l-267 -424v-296z" />
    <glyph glyph-name="Z" unicode="Z" horiz-adv-x="665" 
d="M612 0h-559v127l389 466h-369v127h529v-127l-395 -466h405v-127z" />
    <glyph glyph-name="afii10068" unicode="&#x433;" horiz-adv-x="442" 
d="M58 0v520h357v-110h-227v-410h-130z" />
    <glyph glyph-name="zero" unicode="0" 
d="M38 360c0 210 71 375 254 375s254 -165 254 -375s-71 -375 -254 -375s-254 165 -254 375zM421 360c0 51 -5 99 -16 139l-164 -387c14 -11 31 -17 51 -17c88 0 129 119 129 265zM163 360c0 -51 5 -99 15 -138l164 386c-14 11 -31 17 -50 17c-88 0 -129 -119 -129 -265z
" />
    <glyph glyph-name="one" unicode="1" 
d="M401 720v-720h-137v492c-20 -43 -67 -77 -145 -77v127c103 10 172 96 187 178h95z" />
    <glyph glyph-name="two" unicode="2" 
d="M217 127h302v-127h-463c-3 192 86 257 205 350c86 67 129 107 129 172c0 58 -40 91 -96 91c-59 0 -105 -37 -106 -118l-125 17c8 136 91 223 233 223c132 0 226 -71 226 -215c0 -109 -88 -194 -175 -256c-76 -54 -126 -92 -130 -137z" />
    <glyph glyph-name="three" unicode="3" 
d="M230 452h49c58 0 84 38 84 89s-31 82 -80 82c-55 0 -90 -41 -90 -104l-128 19c10 120 100 197 219 197s216 -63 216 -185c0 -78 -41 -130 -108 -151c87 -22 135 -95 135 -190c0 -137 -101 -224 -241 -224c-136 0 -234 80 -239 204l136 13c3 -56 43 -95 103 -95
c63 0 107 43 107 110s-37 118 -114 118h-49v117z" />
    <glyph glyph-name="four" unicode="4" 
d="M459 0h-137v150h-285v123l301 447h121v-447h90v-123h-90v-150zM169 273h153v232z" />
    <glyph glyph-name="five" unicode="5" 
d="M38 187l131 22c9 -62 51 -102 112 -102c79 0 118 60 118 138c0 74 -40 129 -118 129c-50 0 -81 -21 -105 -60l-125 17l69 389h376v-127h-277l-25 -134c24 22 67 37 114 37c148 0 230 -112 230 -251c0 -146 -93 -260 -259 -260c-130 0 -229 76 -241 202z" />
    <glyph glyph-name="six" unicode="6" 
d="M509 564l-116 -31c-16 55 -41 83 -90 83c-86 0 -123 -104 -125 -219c30 46 75 66 131 66c142 0 219 -106 219 -231c0 -131 -81 -247 -226 -247c-195 0 -251 159 -251 350c0 263 93 400 254 400c123 0 186 -75 204 -171zM185 226c0 -68 42 -119 109 -119
c68 0 109 51 109 119s-41 119 -109 119c-62 0 -109 -51 -109 -119z" />
    <glyph glyph-name="seven" unicode="7" 
d="M377 593h-320v127h462v-127c-139 -155 -211 -366 -224 -593h-138c4 211 91 452 220 593z" />
    <glyph glyph-name="eight" unicode="8" 
d="M52 202c0 95 44 161 127 197c-63 25 -99 73 -99 151c0 114 92 185 211 185s212 -71 212 -185c0 -78 -36 -126 -99 -151c83 -36 128 -102 128 -197c0 -130 -101 -217 -241 -217s-239 87 -239 217zM186 220c0 -70 42 -113 105 -113s107 43 107 113c0 72 -44 115 -107 115
s-105 -43 -105 -115zM210 534c0 -51 30 -89 81 -89s82 38 82 89s-31 89 -82 89s-81 -38 -81 -89z" />
    <glyph glyph-name="nine" unicode="9" 
d="M70 156l116 31c16 -55 50 -84 100 -84c86 0 120 106 115 221c-30 -41 -75 -65 -133 -65c-140 0 -217 107 -217 232c0 131 83 244 225 244c195 0 253 -138 253 -350c0 -270 -85 -400 -246 -400c-123 0 -196 75 -213 171zM394 495c0 68 -42 118 -109 118
c-68 0 -110 -50 -110 -118s42 -117 110 -117c62 0 109 49 109 117z" />
    <glyph glyph-name="comma" unicode="," horiz-adv-x="249" 
d="M127 0h-69v135h135v-135c0 -81 -37 -129 -92 -153l-33 56c35 15 59 40 59 97z" />
    <glyph glyph-name="period" unicode="." horiz-adv-x="245" 
d="M189 0h-133v135h133v-135z" />
    <glyph glyph-name="hyphen" unicode="-" horiz-adv-x="370" 
d="M320 199h-270v121h270v-121z" />
    <glyph glyph-name="endash" unicode="&#x2013;" horiz-adv-x="556" 
d="M523 207h-490v110h490v-110z" />
    <glyph glyph-name="emdash" unicode="&#x2014;" horiz-adv-x="770" 
d="M770 207h-770v110h770v-110z" />
    <glyph glyph-name="exclam" unicode="!" horiz-adv-x="253" 
d="M176 213h-98l-22 507h141zM193 0h-133v135h133v-135z" />
    <glyph glyph-name="question" unicode="?" 
d="M347 198h-127v40c0 81 29 134 91 178c46 33 71 64 71 111c0 59 -41 86 -99 86c-49 0 -96 -37 -99 -113l-128 24c12 132 106 211 226 211c138 0 237 -79 237 -202c0 -98 -59 -141 -116 -192c-39 -35 -54 -53 -56 -110v-33zM353 0h-135v135h135v-135z" />
    <glyph glyph-name=".grave" horiz-adv-x="500" 
d="M4225 260c0 -142 69 -200 148 -200c61 0 110 35 129 117l87 -19c-28 -110 -104 -173 -216 -173c-144 0 -238 103 -238 275s94 275 238 275c112 0 188 -64 216 -173l-87 -20c-19 83 -68 118 -129 118c-69 0 -148 -58 -148 -200zM4511 260c0 31 -3 59 -9 82l-55 -12v-140
l55 -13c6 24 9 51 9 83zM4625 150v220l-36 -8c7 -31 12 -65 12 -102c0 -38 -5 -72 -12 -102z" />
    <glyph glyph-name="afii10065" unicode="&#x430;" horiz-adv-x="552" 
d="M362 57c-45 -54 -94 -72 -156 -72c-95 0 -175 49 -175 148c0 112 81 155 204 169c55 6 95 13 121 25v14c0 49 -28 87 -93 87c-60 0 -89 -38 -101 -85l-115 35c26 120 126 157 224 157c134 0 217 -63 217 -215v-214c0 -53 12 -87 30 -106h-133c-15 13 -20 38 -23 57z
M356 157v86c-19 -8 -53 -17 -104 -27c-48 -9 -89 -24 -87 -74c0 -36 25 -57 69 -57c53 0 102 37 122 72z" />
    <glyph glyph-name="afii10066" unicode="&#x431;" horiz-adv-x="568" 
d="M508 744l-12 -131c-15 -14 -48 -18 -70 -20l-136 -10c-95 -7 -133 -72 -142 -154c41 62 107 80 163 80c136 0 229 -94 229 -259c0 -170 -111 -265 -253 -265c-139 0 -256 88 -256 308c0 177 35 404 269 420l136 9c29 3 58 9 72 22zM165 246c0 -107 55 -151 122 -151
c66 0 121 44 121 151s-55 150 -121 150c-64 0 -122 -43 -122 -150z" />
    <glyph glyph-name="afii10067" unicode="&#x432;" horiz-adv-x="520" 
d="M58 0v520h208c97 0 202 -24 202 -139c0 -49 -30 -93 -78 -111c67 -15 102 -73 101 -125c-2 -108 -88 -145 -194 -145h-239zM190 417v-103h34c57 0 110 2 110 54c0 49 -47 49 -97 49h-47zM190 211v-108h55c67 0 111 6 112 53c0 48 -31 55 -119 55h-48z" />
    <glyph glyph-name="periodcentered" unicode="&#xb7;" horiz-adv-x="245" 
d="M189 194h-133v135h133v-135z" />
    <glyph glyph-name="afii10071" unicode="&#x451;" horiz-adv-x="554" 
d="M239 592h-133v128h133v-128zM457 592h-133v128h133v-128zM525 223h-365c5 -88 59 -128 128 -128c52 0 92 30 106 77l123 -26c-36 -107 -116 -161 -237 -161c-137 0 -252 89 -252 275s116 275 252 275c139 0 246 -90 246 -257c0 -23 -1 -52 -1 -55zM277 425
c-53 0 -106 -37 -115 -109h229c-4 65 -48 109 -114 109z" />
    <glyph glyph-name="afii10023" unicode="&#x401;" horiz-adv-x="657" 
d="M285 791h-132v129h132v-129zM513 791h-132v129h132v-129zM601 0h-528v720h518v-127h-378v-162h328v-127h-328v-177h388v-127z" />
    <glyph glyph-name="underscore" unicode="_" horiz-adv-x="668" 
d="M612 0h-556v110h556v-110z" />
    <glyph glyph-name="colon" unicode=":" horiz-adv-x="245" 
d="M189 328h-133v135h133v-135zM189 61h-133v135h133v-135z" />
    <glyph glyph-name="ellipsis" unicode="&#x2026;" horiz-adv-x="641" 
d="M189 0h-133v135h133v-135zM387 0h-133v135h133v-135zM585 0h-133v135h133v-135z" />
    <glyph glyph-name="plus" unicode="+" 
d="M350 307v-193h-117v193h-183v110h183v193h117v-193h184v-110h-184z" />
    <glyph glyph-name="equal" unicode="=" 
d="M520 203h-456v117h456v-117zM520 405h-456v117h456v-117z" />
    <glyph glyph-name="quotedbl" unicode="&#x22;" horiz-adv-x="441" 
d="M176 482h-98l-22 238h141zM364 482h-98l-22 238h141z" />
    <glyph glyph-name="quotesingle" unicode="'" horiz-adv-x="253" 
d="M176 482h-98l-22 238h141z" />
    <glyph glyph-name="bar" unicode="|" horiz-adv-x="272" 
d="M206 -100h-140v920h140v-920z" />
    <glyph glyph-name="brokenbar" unicode="&#xa6;" horiz-adv-x="272" 
d="M206 -100h-140v425h140v-425zM66 410v410h140v-410h-140z" />
    <glyph glyph-name="bracketleft" unicode="[" horiz-adv-x="351" 
d="M325 -128h-259v948h259v-120h-122v-708h122v-120z" />
    <glyph glyph-name="bracketright" unicode="]" horiz-adv-x="351" 
d="M285 -128h-259v120h122v708h-122v120h259v-948z" />
    <glyph glyph-name="slash" unicode="/" horiz-adv-x="381" 
d="M134 -100h-134l246 920h135z" />
    <glyph glyph-name="backslash" unicode="\" horiz-adv-x="381" 
d="M381 -100h-134l-247 920h135z" />
    <glyph glyph-name="semicolon" unicode=";" horiz-adv-x="245" 
d="M189 328h-133v135h133v-135zM125 0h-69v135h136v-135c0 -81 -38 -129 -93 -153l-33 56c35 15 59 40 59 97z" />
    <glyph glyph-name="quotesinglbase" unicode="&#x201a;" horiz-adv-x="249" 
d="M127 0h-69v135h135v-135c0 -81 -37 -129 -92 -153l-33 56c35 15 59 40 59 97z" />
    <glyph glyph-name="quotedblbase" unicode="&#x201e;" horiz-adv-x="434" 
d="M127 0h-69v135h135v-135c0 -81 -37 -129 -92 -153l-33 56c35 15 59 40 59 97zM312 0h-69v135h135v-135c0 -81 -37 -129 -92 -153l-33 56c35 15 59 40 59 97z" />
    <glyph glyph-name="quotedblright" unicode="&#x201d;" horiz-adv-x="434" 
d="M127 585h-69v135h135v-135c0 -81 -37 -129 -92 -153l-33 56c35 15 59 40 59 97zM312 585h-69v135h135v-135c0 -81 -37 -129 -92 -153l-33 56c35 15 59 40 59 97z" />
    <glyph glyph-name="quotedblleft" unicode="&#x201c;" horiz-adv-x="434" 
d="M307 582h70v-135h-136v135c0 81 37 129 92 153l34 -56c-35 -15 -60 -40 -60 -97zM122 582h70v-135h-136v135c0 81 37 129 92 153l34 -56c-35 -15 -60 -40 -60 -97z" />
    <glyph glyph-name="quoteleft" unicode="&#x2018;" horiz-adv-x="249" 
d="M122 582h70v-135h-136v135c0 81 37 129 92 153l34 -56c-35 -15 -60 -40 -60 -97z" />
    <glyph glyph-name="quoteright" unicode="&#x2019;" horiz-adv-x="249" 
d="M127 585h-69v135h135v-135c0 -81 -37 -129 -92 -153l-33 56c35 15 59 40 59 97z" />
    <glyph glyph-name="numbersign" unicode="#" horiz-adv-x="654" 
d="M400 0h-131l52 184h-90l-53 -184h-131l52 184h-99l34 110h97l39 137h-106l34 110h104l51 179h132l-52 -179h90l52 179h132l-52 -179h99l-34 -110h-96l-40 -137h106l-34 -110h-103zM302 431l-40 -137h91l39 137h-90z" />
    <glyph glyph-name="guillemotright" unicode="&#xbb;" horiz-adv-x="453" 
d="M137 432l115 -169l-115 -169h-111l94 169l-94 169h111zM312 432l115 -169l-115 -169h-111l94 169l-94 169h111z" />
    <glyph glyph-name="guillemotleft" unicode="&#xab;" horiz-adv-x="453" 
d="M201 263l115 169h111l-94 -169l94 -169h-111zM26 263l115 169h111l-94 -169l94 -169h-111z" />
    <glyph glyph-name="guilsinglleft" unicode="&#x2039;" horiz-adv-x="329" 
d="M26 263l135 169h142l-134 -169l134 -169h-142z" />
    <glyph glyph-name="guilsinglright" unicode="&#x203a;" horiz-adv-x="329" 
d="M168 432l135 -169l-135 -169h-142l134 169l-134 169h142z" />
    <glyph glyph-name="less" unicode="&#x3c;" 
d="M107 287v125l380 229v-141l-266 -149l266 -151v-142z" />
    <glyph glyph-name="greater" unicode="&#x3e;" 
d="M487 412v-125l-380 -229v142l266 151l-266 149v141z" />
    <glyph glyph-name="dollar" unicode="$" 
d="M252 733v87h75v-88c123 -14 193 -84 202 -218c-46 -2 -92 -5 -138 -7c-7 50 -23 86 -64 100v-172c129 -26 226 -92 226 -229s-108 -211 -226 -220v-86h-75v88c-143 16 -211 104 -221 239c45 3 91 5 136 8c6 -73 35 -110 85 -123v205c-170 31 -199 127 -199 203
c0 134 95 202 199 213zM409 201c0 38 -18 68 -56 87c-8 5 -17 8 -26 12v-191c47 7 82 36 82 92zM188 532c0 -38 18 -62 64 -80v158c-40 -10 -64 -37 -64 -78z" />
    <glyph glyph-name="Euro" unicode="&#x20ac;" 
d="M360 395h-134v-65h134v-75h-131c9 -100 39 -150 103 -150c58 0 84 43 98 126l134 -18c-19 -145 -97 -228 -232 -228c-148 0 -223 109 -239 270h-86v75h81v65h-81v75h86c18 158 93 265 239 265c135 0 214 -84 232 -230l-134 -19c-14 84 -40 129 -98 129
c-63 0 -93 -56 -102 -145h130v-75z" />
    <glyph glyph-name="asciicircum" unicode="^" 
d="M229 720h125l146 -249l-129 -1l-80 150l-82 -150h-126z" />
    <glyph glyph-name="afii10103" unicode="&#x456;" horiz-adv-x="248" 
d="M190 594h-132v126h132v-126zM190 0h-132v520h132v-520z" />
    <glyph glyph-name="uni0406" unicode="&#x406;" horiz-adv-x="286" 
d="M213 0h-140v720h140v-720z" />
    <glyph glyph-name="afii10102" unicode="&#x455;" horiz-adv-x="486" 
d="M28 150l114 19c6 -48 40 -81 105 -81c44 0 93 12 93 59c0 29 -19 43 -49 51l-125 29c-68 16 -127 60 -127 146c0 116 97 162 204 162c124 0 196 -68 201 -150l-114 -19c-8 47 -45 66 -91 66c-51 0 -86 -17 -86 -54c0 -22 18 -37 45 -43l126 -29c59 -14 134 -50 134 -154
c0 -115 -96 -167 -214 -167c-127 0 -207 67 -216 165z" />
    <glyph glyph-name="afii10054" unicode="&#x405;" horiz-adv-x="655" 
d="M39 230l136 8c8 -94 66 -131 158 -131c76 0 134 28 134 94c0 42 -21 67 -78 86c-38 14 -135 39 -178 53c-127 39 -149 112 -149 180c0 146 125 215 253 215c167 0 264 -71 274 -221l-138 -7c-9 64 -46 106 -132 106c-68 0 -122 -29 -122 -81c0 -30 14 -50 50 -63
c33 -13 118 -38 187 -57c105 -30 178 -89 178 -206c0 -152 -141 -221 -275 -221c-188 0 -287 89 -298 245z" />
    <glyph glyph-name="afii10105" unicode="&#x458;" horiz-adv-x="248" 
d="M-58 -197l18 109c17 -5 25 -6 35 -6c58 0 63 52 63 105v509h132v-548c0 -106 -55 -182 -167 -182c-24 0 -59 5 -81 13zM190 594h-132v126h132v-126z" />
    <glyph glyph-name="afii10057" unicode="&#x408;" horiz-adv-x="555" 
d="M21 214l132 19c2 -73 23 -126 94 -126c82 0 94 61 94 144v469h141v-485c0 -178 -97 -250 -235 -250c-131 0 -229 69 -226 229z" />
    <glyph glyph-name="afii10110" unicode="&#x45e;" horiz-adv-x="542" 
d="M68 -197l-10 117c17 -7 29 -13 58 -13c39 0 65 17 86 69l10 29l-202 515h135l129 -362l128 362h130l-206 -557c-41 -111 -95 -173 -187 -173c-31 0 -52 7 -71 13zM345 720h92c0 -92 -62 -147 -162 -147s-161 56 -161 147h91c5 -43 36 -62 70 -62s65 19 70 62z" />
    <glyph glyph-name="afii10062" unicode="&#x40e;" horiz-adv-x="688" 
d="M298 196l-288 524h147l208 -387l171 387h142l-257 -561c-53 -117 -110 -174 -207 -174c-46 0 -103 14 -128 41l34 113c17 -13 50 -32 81 -32c36 0 64 14 83 57zM439 920h105c0 -92 -56 -167 -183 -167s-179 76 -179 167h105c2 -50 27 -77 74 -77s77 27 78 77z" />
    <glyph glyph-name="afii10056" unicode="&#x407;" horiz-adv-x="286" 
d="M213 0h-140v720h140v-720zM111 791h-132v129h132v-129zM307 791h-132v129h132v-129z" />
    <glyph glyph-name="afii10104" unicode="&#x457;" horiz-adv-x="248" 
d="M95 594h-125v126h125v-126zM190 0h-132v520h132v-520zM278 594h-125v126h125v-126z" />
    <glyph glyph-name="braceright" unicode="}" horiz-adv-x="340" 
d="M33 713v101c11 5 44 10 68 10c112 0 149 -76 149 -182v-144c0 -67 35 -90 70 -90v-102c-35 0 -70 -23 -70 -90v-144c0 -106 -37 -182 -149 -182c-24 0 -57 5 -68 10v101h36c51 0 49 52 49 105v151c0 63 40 87 70 100c-30 13 -70 37 -70 100v151c0 53 2 105 -49 105h-36z
" />
    <glyph glyph-name="braceleft" unicode="{" horiz-adv-x="340" 
d="M307 814v-101h-36c-51 0 -49 -52 -49 -105v-151c0 -63 -40 -87 -70 -100c30 -13 70 -37 70 -100v-151c0 -53 -2 -105 49 -105h36v-101c-11 -5 -44 -10 -68 -10c-112 0 -149 76 -149 182v144c0 67 -35 90 -70 90v102c35 0 70 23 70 90v144c0 106 37 182 149 182
c24 0 57 -5 68 -10z" />
    <glyph glyph-name="afii10101" unicode="&#x454;" horiz-adv-x="541" 
d="M325 310v-96h-163c11 -80 52 -119 111 -119c52 0 90 28 103 95l130 -20c-28 -130 -121 -185 -233 -185c-137 0 -245 89 -245 275s108 275 245 275c112 0 205 -56 233 -186l-129 -21c-14 68 -52 97 -104 97c-56 0 -98 -37 -110 -115h162z" />
    <glyph glyph-name="afii10053" unicode="&#x404;" horiz-adv-x="739" 
d="M457 424v-113h-265c13 -125 83 -204 194 -204c87 0 145 48 171 138l139 -37c-41 -137 -139 -223 -310 -223c-220 0 -343 161 -343 375s120 375 340 375c163 0 278 -82 313 -224l-139 -37c-21 93 -84 139 -174 139c-104 0 -173 -74 -190 -189h264z" />
    <glyph glyph-name="ampersand" unicode="&#x26;" horiz-adv-x="636" 
d="M616 0h-146c-12 14 -25 29 -37 44c-45 -37 -102 -59 -172 -59c-149 0 -221 86 -221 196c0 94 53 150 113 193c-18 22 -72 81 -72 176c0 118 86 185 198 185c145 0 188 -98 188 -175c0 -69 -33 -124 -108 -177c-12 -9 -26 -18 -40 -27c34 -41 67 -81 101 -122
c10 35 13 74 10 113h117c4 -76 -10 -151 -42 -214c36 -44 75 -89 111 -133zM241 450l10 -13c77 52 97 77 97 123c0 35 -24 67 -71 67c-51 0 -77 -40 -77 -77c0 -43 16 -69 41 -100zM164 188c0 -62 48 -95 97 -95c42 0 76 13 101 35c-46 55 -93 110 -140 165
c-35 -29 -58 -61 -58 -105z" />
    <glyph glyph-name="parenleft" unicode="(" horiz-adv-x="339" 
d="M50 360c0 169 66 343 178 460h105c-103 -143 -146 -279 -146 -460s43 -317 146 -460h-105c-112 117 -178 291 -178 460z" />
    <glyph glyph-name="parenright" unicode=")" horiz-adv-x="339" 
d="M289 360c0 -169 -66 -343 -178 -460h-105c103 143 146 279 146 460s-43 317 -146 460h105c112 -117 178 -291 178 -460z" />
    <glyph glyph-name="degree" unicode="&#xb0;" horiz-adv-x="364" 
d="M43 596c0 76 63 139 139 139c77 0 139 -63 139 -139c0 -77 -62 -139 -139 -139c-76 0 -139 62 -139 139zM127 596c0 -31 25 -56 55 -56s54 25 54 56c0 29 -24 54 -54 54s-55 -25 -55 -54z" />
    <glyph glyph-name="copyright" unicode="&#xa9;" horiz-adv-x="590" 
d="M35 260c0 162 108 275 260 275s260 -113 260 -275s-108 -275 -260 -275s-260 113 -260 275zM126 260c0 -104 60 -188 169 -188s169 84 169 188c0 103 -60 188 -169 188s-169 -85 -169 -188zM245 260c0 -38 19 -64 50 -64c24 0 40 14 46 38l69 -19
c-12 -63 -53 -95 -115 -95c-79 0 -122 66 -122 140s43 139 122 139c62 0 103 -31 115 -94l-69 -19c-7 22 -23 36 -46 36c-31 0 -50 -26 -50 -62z" />
    <glyph glyph-name="registered" unicode="&#xae;" horiz-adv-x="590" 
d="M35 260c0 162 108 275 260 275s260 -113 260 -275s-108 -275 -260 -275s-260 113 -260 275zM192 133v268h96c54 0 110 -17 110 -78c0 -41 -27 -65 -62 -71c29 -7 46 -32 56 -56l27 -63h-80l-16 45c-14 40 -29 47 -52 47h-7v-92h-72zM264 337v-48h23c29 0 37 8 37 25
s-13 23 -38 23h-22zM126 260c0 -104 60 -188 169 -188s169 84 169 188c0 103 -60 188 -169 188s-169 -85 -169 -188z" />
    <glyph glyph-name="trademark" unicode="&#x2122;" horiz-adv-x="705" 
d="M391 432h-89v203h-87v-203h-89v203h-96v85h399l60 -185l63 185h123v-288h-89v174l-58 -174h-78l-59 174v-174z" />
    <glyph glyph-name="asterisk" unicode="*" horiz-adv-x="404" 
d="M258 735l-17 -105c32 15 64 31 95 46c11 -35 23 -69 34 -104c-35 -6 -70 -12 -105 -17c25 -25 49 -51 74 -76l-89 -64l-48 95l-50 -94l-90 64c25 25 50 51 75 76c-35 6 -68 11 -103 18c11 35 23 69 34 104c31 -16 63 -32 94 -48c-5 35 -10 70 -14 105h110z" />
    <glyph glyph-name="plusminus" unicode="&#xb1;" 
d="M350 394v-140h-117v140h-176v117h176v169h117v-169h177v-117h-177zM527 73h-470v117h470v-117z" />
    <glyph glyph-name="asciitilde" unicode="~" horiz-adv-x="526" 
d="M30 272v135c38 40 87 60 135 60c89 0 127 -90 196 -90c58 0 97 30 135 70v-135c-38 -40 -87 -60 -135 -60c-89 0 -127 90 -196 90c-58 0 -97 -30 -135 -70z" />
    <glyph glyph-name="grave" unicode="`" horiz-adv-x="312" 
d="M193 720l76 -187h-113l-123 187h160z" />
    <glyph glyph-name="percent" horiz-adv-x="807" 
d="M148 0h124l387 720h-125zM33 560c0 103 67 165 153 165s153 -62 153 -165s-67 -165 -153 -165s-153 62 -153 165zM131 560c0 -50 29 -69 55 -69s55 19 55 69s-29 69 -55 69c-25 0 -55 -19 -55 -69zM468 160c0 103 67 165 153 165s153 -62 153 -165s-67 -165 -153 -165
s-153 62 -153 165zM566 160c0 -50 29 -69 55 -69s55 19 55 69s-29 69 -55 69c-25 0 -55 -19 -55 -69z" />
    <glyph glyph-name="dagger" unicode="&#x2020;" horiz-adv-x="392" 
d="M33 500v110h97v110h132v-110h97v-110h-97v-235h-132v235h-97z" />
    <glyph glyph-name="daggerdbl" unicode="&#x2021;" horiz-adv-x="378" 
d="M345 461v-110h-90v-86h-132v86h-90v110h90v63h-90v110h90v86h132v-86h90v-110h-90v-63h90z" />
    <glyph glyph-name="bullet" unicode="&#x2022;" horiz-adv-x="388" 
d="M70 351c0 68 56 123 124 123s124 -55 124 -123c0 -69 -55 -124 -124 -124s-124 55 -124 124z" />
    <glyph glyph-name="paragraph" unicode="&#xb6;" horiz-adv-x="612" 
d="M291 -100h-80v516c-117 3 -198 82 -198 198c0 139 97 206 231 206h356v-85h-81v-835h-139v835h-89v-835z" />
    <glyph glyph-name="afii61352" unicode="&#x2116;" horiz-adv-x="1083" 
d="M747 460c0 103 67 165 153 165s153 -62 153 -165s-67 -165 -153 -165s-153 62 -153 165zM845 460c0 -50 29 -69 55 -69s55 19 55 69s-29 69 -55 69c-25 0 -55 -19 -55 -69zM1053 151h-306v96h306v-96zM209 0h-136v720h142l331 -489v489h136v-720h-142l-331 489v-489z" />
    <glyph glyph-name="at" unicode="@" horiz-adv-x="766" 
d="M538 435v-209c0 -6 -2 -59 33 -59c37 0 55 51 55 111c0 156 -93 246 -243 246c-141 0 -236 -115 -236 -264c0 -150 87 -271 246 -271c53 0 107 17 141 49l73 -74c-51 -52 -145 -74 -214 -74c-220 0 -358 163 -358 370s138 370 348 370c209 0 348 -143 348 -350
c0 -108 -60 -204 -159 -204c-52 0 -86 27 -98 59l-11 -16c-23 -28 -50 -43 -99 -43c-89 0 -150 75 -150 184c0 108 61 184 150 184c40 0 72 -17 92 -43v34h82zM448 260c0 57 -31 93 -70 93c-42 0 -68 -36 -68 -93s26 -94 68 -94c43 0 70 37 70 94z" />
    <glyph glyph-name="perthousand" unicode="&#x2030;" horiz-adv-x="1161" 
d="M148 0h124l387 720h-125zM33 560c0 103 67 165 153 165s153 -62 153 -165s-67 -165 -153 -165s-153 62 -153 165zM131 560c0 -50 29 -69 55 -69s55 19 55 69s-29 69 -55 69c-25 0 -55 -19 -55 -69zM468 160c0 103 67 165 153 165s153 -62 153 -165s-67 -165 -153 -165
s-153 62 -153 165zM566 160c0 -50 29 -69 55 -69s55 19 55 69s-29 69 -55 69c-25 0 -55 -19 -55 -69zM822 160c0 103 67 165 153 165s153 -62 153 -165s-67 -165 -153 -165s-153 62 -153 165zM920 160c0 -50 29 -69 55 -69s55 19 55 69s-29 69 -55 69c-25 0 -55 -19 -55 -69
z" />
    <glyph glyph-name="section" unicode="&#xa7;" horiz-adv-x="521" 
d="M35 150l129 13c8 -48 29 -75 101 -75c51 0 89 15 89 52c0 30 -21 35 -74 50l-127 38c-58 16 -113 55 -113 134c0 61 39 89 61 104c-42 22 -61 68 -61 115c0 109 108 154 215 154c138 0 203 -61 211 -150l-128 -12c-8 36 -32 59 -85 59c-61 0 -85 -17 -85 -45
s25 -35 56 -44l130 -38c73 -21 132 -61 132 -148c0 -43 -29 -85 -53 -101c35 -22 53 -65 53 -113c0 -115 -106 -158 -224 -158c-141 0 -219 60 -227 165zM168 381c0 -28 20 -47 44 -53c77 -22 105 -30 107 -30c19 9 35 21 35 46c0 31 -17 50 -51 59l-95 26
c-20 -4 -40 -20 -40 -48z" />
    <glyph glyph-name="currency" unicode="&#xa4;" 
d="M463 109l-68 68c-29 -18 -65 -28 -102 -28c-38 0 -73 10 -103 28l-67 -68l-81 81l71 72c-14 28 -21 61 -21 98s8 70 21 98l-71 73l81 81l68 -69c29 18 65 28 102 28s72 -10 102 -28l68 69l81 -81l-72 -73c14 -28 21 -61 21 -98s-7 -70 -20 -98l71 -72zM208 360
c0 -64 38 -95 85 -95s85 31 85 95c0 63 -38 95 -85 95c-44 0 -85 -32 -85 -95z" />
    <glyph glyph-name="afii10109" unicode="&#x45c;" horiz-adv-x="547" 
d="M58 520v-520h132v207h27c40 0 68 -15 90 -55l73 -152h147l-89 173c-25 50 -65 85 -108 95v4c44 10 67 37 85 79c16 35 22 56 61 56h19l10 118h-27c-67 0 -104 -12 -135 -68c-9 -16 -30 -76 -49 -101c-26 -34 -50 -39 -80 -39h-24v203h-132zM193 603l76 187h160l-123 -187
h-113z" />
    <glyph glyph-name="afii10100" unicode="&#x453;" horiz-adv-x="442" 
d="M58 520v-520h130v410h227v110h-357zM146 603l76 187h160l-123 -187h-113z" />
    <glyph glyph-name="afii10106" unicode="&#x459;" horiz-adv-x="840" 
d="M118 272v248h405v-177h71c111 0 219 -35 219 -169c0 -122 -103 -174 -189 -174h-233v410h-148v-179c0 -116 -21 -246 -147 -246c-29 0 -66 10 -75 15v107c11 -6 25 -11 39 -11c62 -1 58 97 58 176zM523 243v-136h44c73 0 112 16 112 67c0 52 -38 69 -103 69h-53z" />
    <glyph glyph-name="afii10107" unicode="&#x45a;" horiz-adv-x="821" 
d="M58 0v520h132v-203h186v203h132v-177h71c111 0 219 -35 219 -169c0 -122 -103 -174 -189 -174h-233v207h-186v-207h-132zM508 243v-136h44c73 0 112 16 112 67c0 52 -38 69 -103 69h-53z" />
    <glyph glyph-name="afii10193" unicode="&#x45f;" horiz-adv-x="571" 
d="M513 520v-520h-162v-133h-127v133h-166v520h132v-410h191v410h132z" />
    <glyph glyph-name="afii10098" unicode="&#x491;" horiz-adv-x="442" 
d="M58 0v520h237v110h120v-220h-227v-410h-130z" />
    <glyph glyph-name="afii10050" unicode="&#x490;" horiz-adv-x="574" 
d="M73 0v720h333v130h141v-257h-334v-593h-140z" />
    <glyph glyph-name="afii10059" unicode="&#x40a;" horiz-adv-x="1064" 
d="M486 720h140v-255h122c179 0 276 -88 276 -233c0 -172 -139 -232 -284 -232h-254v304h-273v-304h-140v720h140v-289h273v289zM626 348v-225h112c95 0 143 39 143 112c0 59 -35 113 -141 113h-114z" />
    <glyph glyph-name="afii10058" unicode="&#x409;" horiz-adv-x="1071" 
d="M147 412v308h494v-255h115c179 0 276 -88 276 -233c0 -172 -139 -232 -284 -232h-248v593h-216v-193c0 -215 -9 -415 -185 -415c-31 0 -66 8 -84 18l-5 131c12 -7 28 -17 53 -17c88 0 84 132 84 295zM641 348v-225h104c95 0 143 39 143 112c0 59 -35 113 -141 113h-106z
" />
    <glyph glyph-name="afii10145" unicode="&#x40f;" horiz-adv-x="736" 
d="M523 720h140v-720h-224v-178h-141v178h-225v720h140v-593h310v593z" />
    <glyph glyph-name="afii10061" unicode="&#x40c;" horiz-adv-x="698" 
d="M73 720v-720h140v304h22c73 0 112 -28 160 -110l111 -194h166l-144 238c-45 73 -103 123 -154 130c44 7 72 46 88 74l50 87c31 54 55 62 88 62h30l7 129h-40c-62 0 -121 -8 -174 -97l-79 -135c-23 -39 -45 -64 -91 -64h-40v296h-140zM267 803l76 187h160l-123 -187h-113z
" />
    <glyph glyph-name="afii10052" unicode="&#x403;" horiz-adv-x="574" 
d="M73 720v-720h140v593h334v127h-474zM223 803l76 187h160l-123 -187h-113z" />
    <glyph glyph-name="Idieresis" unicode="&#xcf;" horiz-adv-x="286" 
d="M213 0h-140v720h140v-720zM111 791h-132v129h132v-129zM307 791h-132v129h132v-129z" />
    <glyph glyph-name="idieresis" unicode="&#xef;" horiz-adv-x="248" 
d="M95 594h-125v126h125v-126zM190 0h-132v520h132v-520zM278 594h-125v126h125v-126z" />
    <glyph glyph-name="edieresis" unicode="&#xeb;" horiz-adv-x="554" 
d="M239 592h-133v128h133v-128zM457 592h-133v128h133v-128zM525 223h-365c5 -88 59 -128 128 -128c52 0 92 30 106 77l123 -26c-36 -107 -116 -161 -237 -161c-137 0 -252 89 -252 275s116 275 252 275c139 0 246 -90 246 -257c0 -23 -1 -52 -1 -55zM277 425
c-53 0 -106 -37 -115 -109h229c-4 65 -48 109 -114 109z" />
    <glyph glyph-name="Edieresis" unicode="&#xcb;" horiz-adv-x="657" 
d="M285 791h-132v129h132v-129zM513 791h-132v129h132v-129zM601 0h-528v720h518v-127h-378v-162h328v-127h-328v-177h388v-127z" />
    <glyph glyph-name="ydieresis" unicode="&#xff;" horiz-adv-x="542" 
d="M68 -197l-10 117c17 -7 29 -13 58 -13c39 0 65 17 86 69l10 29l-202 515h135l129 -362l128 362h130l-206 -557c-41 -111 -95 -173 -187 -173c-31 0 -52 7 -71 13zM243 592h-133v128h133v-128zM444 592h-133v128h133v-128z" />
    <glyph glyph-name="thorn" unicode="&#xfe;" horiz-adv-x="571" 
d="M190 -200h-132v860h129v-197c29 44 70 72 132 72c130 0 224 -99 224 -275s-97 -275 -227 -275c-48 0 -96 17 -126 63v-248zM179 260c0 -111 48 -165 116 -165c69 0 116 54 116 165s-50 165 -115 165c-62 0 -117 -54 -117 -165z" />
    <glyph glyph-name="udieresis" unicode="&#xfc;" horiz-adv-x="576" 
d="M386 520h132v-520h-123v75c-38 -62 -86 -90 -151 -90c-144 0 -186 92 -186 216v319h132v-315c0 -69 24 -109 88 -109c61 0 108 48 108 141v283zM250 592h-133v128h133v-128zM452 592h-133v128h133v-128z" />
    <glyph glyph-name="odieresis" unicode="&#xf6;" horiz-adv-x="563" 
d="M28 260c0 186 113 275 253 275c141 0 254 -89 254 -275s-113 -275 -254 -275c-140 0 -253 89 -253 275zM160 260c0 -111 49 -165 121 -165s122 54 122 165c0 110 -50 165 -122 165s-121 -55 -121 -165zM247 592h-133v128h133v-128zM448 592h-133v128h133v-128z" />
    <glyph glyph-name="adieresis" unicode="&#xe4;" horiz-adv-x="552" 
d="M362 57c-45 -54 -94 -72 -156 -72c-95 0 -175 49 -175 148c0 112 81 155 204 169c55 6 95 13 121 25v14c0 49 -28 87 -93 87c-60 0 -89 -38 -101 -85l-115 35c26 120 126 157 224 157c134 0 217 -63 217 -215v-214c0 -53 12 -87 30 -106h-133c-15 13 -20 38 -23 57z
M356 157v86c-19 -8 -53 -17 -104 -27c-48 -9 -89 -24 -87 -74c0 -36 25 -57 69 -57c53 0 102 37 122 72zM238 592h-133v128h133v-128zM436 592h-133v128h133v-128z" />
    <glyph glyph-name="yacute" unicode="&#xfd;" horiz-adv-x="542" 
d="M68 -197c19 -6 40 -13 71 -13c92 0 146 62 187 173l206 557h-130l-128 -362l-129 362h-135l202 -515l-10 -29c-21 -52 -47 -69 -86 -69c-29 0 -41 6 -58 13zM200 603l76 187h160l-123 -187h-113z" />
    <glyph glyph-name="uacute" unicode="&#xfa;" horiz-adv-x="576" 
d="M518 520h-132v-283c0 -93 -47 -141 -108 -141c-64 0 -88 40 -88 109v315h-132v-319c0 -124 42 -216 186 -216c65 0 113 28 151 90v-75h123v520zM206 603l76 187h160l-123 -187h-113z" />
    <glyph glyph-name="oacute" unicode="&#xf3;" horiz-adv-x="563" 
d="M28 260c0 186 113 275 253 275c141 0 254 -89 254 -275s-113 -275 -254 -275c-140 0 -253 89 -253 275zM160 260c0 -111 49 -165 121 -165s122 54 122 165c0 110 -50 165 -122 165s-121 -55 -121 -165zM206 603l76 187h160l-123 -187h-113z" />
    <glyph glyph-name="iacute" unicode="&#xed;" horiz-adv-x="248" 
d="M58 0h132v520h-132v-520zM46 603l76 187h160l-123 -187h-113z" />
    <glyph glyph-name="eacute" unicode="&#xe9;" horiz-adv-x="554" 
d="M525 223h-365c5 -88 59 -128 128 -128c52 0 92 30 106 77l123 -26c-36 -107 -116 -161 -237 -161c-137 0 -252 89 -252 275s116 275 252 275c139 0 246 -90 246 -257c0 -23 -1 -52 -1 -55zM277 425c-53 0 -106 -37 -115 -109h229c-4 65 -48 109 -114 109zM196 603l76 187
h160l-123 -187h-113z" />
    <glyph glyph-name="aacute" unicode="&#xe1;" horiz-adv-x="552" 
d="M362 57c3 -19 8 -44 23 -57h133c-18 19 -30 53 -30 106v214c0 152 -83 215 -217 215c-98 0 -198 -37 -224 -157l115 -35c12 47 41 85 101 85c65 0 93 -38 93 -87v-14c-26 -12 -66 -19 -121 -25c-123 -14 -204 -57 -204 -169c0 -99 80 -148 175 -148c62 0 111 18 156 72z
M356 243v-86c-20 -35 -69 -72 -122 -72c-44 0 -69 21 -69 57c-2 50 39 65 87 74c51 10 85 19 104 27zM176 603l76 187h160l-123 -187h-113z" />
    <glyph glyph-name="agrave" unicode="&#xe0;" horiz-adv-x="552" 
d="M362 57c-45 -54 -94 -72 -156 -72c-95 0 -175 49 -175 148c0 112 81 155 204 169c55 6 95 13 121 25v14c0 49 -28 87 -93 87c-60 0 -89 -38 -101 -85l-115 35c26 120 126 157 224 157c134 0 217 -63 217 -215v-214c0 -53 12 -87 30 -106h-133c-15 13 -20 38 -23 57z
M356 157v86c-19 -8 -53 -17 -104 -27c-48 -9 -89 -24 -87 -74c0 -36 25 -57 69 -57c53 0 102 37 122 72zM266 790l76 -187h-113l-123 187h160z" />
    <glyph glyph-name="egrave" unicode="&#xe8;" horiz-adv-x="554" 
d="M525 223h-365c5 -88 59 -128 128 -128c52 0 92 30 106 77l123 -26c-36 -107 -116 -161 -237 -161c-137 0 -252 89 -252 275s116 275 252 275c139 0 246 -90 246 -257c0 -23 -1 -52 -1 -55zM277 425c-53 0 -106 -37 -115 -109h229c-4 65 -48 109 -114 109zM283 790
l76 -187h-113l-123 187h160z" />
    <glyph glyph-name="igrave" unicode="&#xec;" horiz-adv-x="248" 
d="M190 0h-132v520h132v-520zM130 790l76 -187h-113l-123 187h160z" />
    <glyph glyph-name="ograve" unicode="&#xf2;" horiz-adv-x="563" 
d="M28 260c0 186 113 275 253 275c141 0 254 -89 254 -275s-113 -275 -254 -275c-140 0 -253 89 -253 275zM160 260c0 -111 49 -165 121 -165s122 54 122 165c0 110 -50 165 -122 165s-121 -55 -121 -165zM273 790l76 -187h-113l-123 187h160z" />
    <glyph glyph-name="ugrave" unicode="&#xf9;" horiz-adv-x="576" 
d="M386 520h132v-520h-123v75c-38 -62 -86 -90 -151 -90c-144 0 -186 92 -186 216v319h132v-315c0 -69 24 -109 88 -109c61 0 108 48 108 141v283zM283 790l76 -187h-113l-123 187h160z" />
    <glyph glyph-name="Adieresis" unicode="&#xc4;" horiz-adv-x="713" 
d="M294 720h130l279 -720h-146l-53 143h-298l-53 -143h-143zM356 548l-106 -287h211zM318 791h-132v129h132v-129zM526 791h-132v129h132v-129z" />
    <glyph glyph-name="Odieresis" unicode="&#xd6;" horiz-adv-x="771" 
d="M43 360c0 214 123 375 343 375c219 0 342 -161 342 -375s-123 -375 -342 -375c-220 0 -343 161 -343 375zM188 360c0 -153 73 -253 198 -253c121 0 196 100 196 253s-75 253 -196 253c-122 0 -198 -100 -198 -253zM337 791h-132v129h132v-129zM571 791h-132v129h132v-129
z" />
    <glyph glyph-name="Udieresis" unicode="&#xdc;" horiz-adv-x="744" 
d="M530 311v409h141v-418c0 -192 -102 -317 -299 -317c-195 0 -299 125 -299 317v418h140v-409c0 -138 55 -199 160 -199s157 61 157 199zM323 791h-132v129h132v-129zM554 791h-132v129h132v-129z" />
    <glyph glyph-name="exclamdown" unicode="&#xa1;" horiz-adv-x="253" 
d="M77 307h98l22 -507h-141zM60 520h133v-135h-133v135z" />
    <glyph glyph-name="questiondown" unicode="&#xbf;" 
d="M228 322h127v-40c0 -81 -29 -134 -91 -178c-46 -33 -71 -64 -71 -111c0 -59 41 -86 99 -86c49 0 96 37 99 113l128 -24c-12 -132 -106 -211 -226 -211c-138 0 -237 79 -237 202c0 98 59 141 116 192c39 35 54 53 56 110v33zM221 520h136v-135h-136v135z" />
    <glyph glyph-name="Aacute" unicode="&#xc1;" horiz-adv-x="713" 
d="M424 720h-130l-284 -720h143l53 143h298l53 -143h146zM250 261l106 287l105 -287h-211zM260 803l76 187h160l-123 -187h-113z" />
    <glyph glyph-name="Eacute" unicode="&#xc9;" horiz-adv-x="664" 
d="M73 0h528v127h-388v177h328v127h-328v162h378v127h-518v-720zM259 803l76 187h160l-123 -187h-113z" />
    <glyph glyph-name="Iacute" unicode="&#xcd;" horiz-adv-x="286" 
d="M73 0h140v720h-140v-720zM63 803l76 187h160l-123 -187h-113z" />
    <glyph glyph-name="Oacute" unicode="&#xd3;" horiz-adv-x="771" 
d="M43 360c0 214 123 375 343 375c219 0 342 -161 342 -375s-123 -375 -342 -375c-220 0 -343 161 -343 375zM188 360c0 -153 73 -253 198 -253c121 0 196 100 196 253s-75 253 -196 253c-122 0 -198 -100 -198 -253zM305 803l76 187h160l-123 -187h-113z" />
    <glyph glyph-name="Uacute" unicode="&#xda;" horiz-adv-x="744" 
d="M530 720v-409c0 -138 -52 -199 -157 -199s-160 61 -160 199v409h-140v-418c0 -192 104 -317 299 -317c197 0 299 125 299 317v418h-141zM300 803l76 187h160l-123 -187h-113z" />
    <glyph glyph-name="Yacute" unicode="&#xdd;" horiz-adv-x="696" 
d="M277 0h142v296l267 424h-152l-182 -295l-185 295h-157l267 -424v-296zM273 803l76 187h160l-123 -187h-113z" />
    <glyph glyph-name="Agrave" unicode="&#xc0;" horiz-adv-x="713" 
d="M294 720h130l279 -720h-146l-53 143h-298l-53 -143h-143zM356 548l-106 -287h211zM353 990l76 -187h-113l-123 187h160z" />
    <glyph glyph-name="Egrave" unicode="&#xc8;" horiz-adv-x="664" 
d="M601 0h-528v720h518v-127h-378v-162h328v-127h-328v-177h388v-127zM332 990l76 -187h-113l-123 187h160z" />
    <glyph glyph-name="Ograve" unicode="&#xd2;" horiz-adv-x="771" 
d="M43 360c0 214 123 375 343 375c219 0 342 -161 342 -375s-123 -375 -342 -375c-220 0 -343 161 -343 375zM188 360c0 -153 73 -253 198 -253c121 0 196 100 196 253s-75 253 -196 253c-122 0 -198 -100 -198 -253zM382 990l76 -187h-113l-123 187h160z" />
    <glyph glyph-name="Ugrave" unicode="&#xd9;" horiz-adv-x="744" 
d="M530 311v409h141v-418c0 -192 -102 -317 -299 -317c-195 0 -299 125 -299 317v418h140v-409c0 -138 55 -199 160 -199s157 61 157 199zM363 990l76 -187h-113l-123 187h160z" />
    <glyph glyph-name="Acircumflex" unicode="&#xc2;" horiz-adv-x="713" 
d="M294 720h130l279 -720h-146l-53 143h-298l-53 -143h-143zM356 548l-106 -287h211zM300 991h119l146 -221h-126l-80 131l-82 -131h-123z" />
    <glyph glyph-name="Ecircumflex" unicode="&#xca;" horiz-adv-x="664" 
d="M601 0h-528v720h518v-127h-378v-162h328v-127h-328v-177h388v-127zM278 971h119l146 -201h-126l-80 111l-82 -111h-123z" />
    <glyph glyph-name="Icircumflex" unicode="&#xce;" horiz-adv-x="286" 
d="M213 0h-140v720h140v-720zM85 971h119l146 -201h-126l-80 111l-82 -111h-123z" />
    <glyph glyph-name="Ocircumflex" unicode="&#xd4;" horiz-adv-x="771" 
d="M43 360c0 214 123 375 343 375c219 0 342 -161 342 -375s-123 -375 -342 -375c-220 0 -343 161 -343 375zM188 360c0 -153 73 -253 198 -253c121 0 196 100 196 253s-75 253 -196 253c-122 0 -198 -100 -198 -253zM327 971h119l156 -201h-126l-90 121l-92 -121h-123z" />
    <glyph glyph-name="Ucircumflex" unicode="&#xdb;" horiz-adv-x="744" 
d="M530 311v409h141v-418c0 -192 -102 -317 -299 -317c-195 0 -299 125 -299 317v418h140v-409c0 -138 55 -199 160 -199s157 61 157 199zM315 971h119l156 -201h-126l-90 121l-92 -121h-123z" />
    <glyph glyph-name="Ydieresis" unicode="&#x178;" horiz-adv-x="696" 
d="M419 0h-142v296l-267 424h157l185 -295l182 295h152l-267 -424v-296zM300 791h-132v129h132v-129zM531 791h-132v129h132v-129z" />
    <glyph glyph-name="ucircumflex" unicode="&#xfb;" horiz-adv-x="576" 
d="M386 520h132v-520h-123v75c-38 -62 -86 -90 -151 -90c-144 0 -186 92 -186 216v319h132v-315c0 -69 24 -109 88 -109c61 0 108 48 108 141v283zM228 774h119l126 -174h-126l-60 94l-62 -94h-123z" />
    <glyph glyph-name="ocircumflex" unicode="&#xf4;" horiz-adv-x="563" 
d="M28 260c0 186 113 275 253 275c141 0 254 -89 254 -275s-113 -275 -254 -275c-140 0 -253 89 -253 275zM160 260c0 -111 49 -165 121 -165s122 54 122 165c0 110 -50 165 -122 165s-121 -55 -121 -165zM222 774h119l126 -174h-126l-60 94l-62 -94h-123z" />
    <glyph glyph-name="ecircumflex" unicode="&#xea;" horiz-adv-x="554" 
d="M525 223h-365c5 -88 59 -128 128 -128c52 0 92 30 106 77l123 -26c-36 -107 -116 -161 -237 -161c-137 0 -252 89 -252 275s116 275 252 275c139 0 246 -90 246 -257c0 -23 -1 -52 -1 -55zM277 425c-53 0 -106 -37 -115 -109h229c-4 65 -48 109 -114 109zM221 774h119
l126 -174h-126l-60 94l-62 -94h-123z" />
    <glyph glyph-name="acircumflex" unicode="&#xe2;" horiz-adv-x="552" 
d="M362 57c-45 -54 -94 -72 -156 -72c-95 0 -175 49 -175 148c0 112 81 155 204 169c55 6 95 13 121 25v14c0 49 -28 87 -93 87c-60 0 -89 -38 -101 -85l-115 35c26 120 126 157 224 157c134 0 217 -63 217 -215v-214c0 -53 12 -87 30 -106h-133c-15 13 -20 38 -23 57z
M356 157v86c-19 -8 -53 -17 -104 -27c-48 -9 -89 -24 -87 -74c0 -36 25 -57 69 -57c53 0 102 37 122 72zM205 774h119l126 -174h-126l-60 94l-62 -94h-123z" />
    <glyph glyph-name="Igrave" unicode="&#xcc;" horiz-adv-x="286" 
d="M213 0h-140v720h140v-720zM150 990l76 -187h-113l-123 187h160z" />
    <glyph glyph-name="Scaron" unicode="&#x160;" horiz-adv-x="652" 
d="M39 230l136 8c8 -94 65 -131 157 -131c76 0 132 31 132 94c0 42 -21 67 -78 87c-38 14 -132 37 -175 51c-127 39 -149 113 -149 181c0 146 123 215 251 215c167 0 263 -71 273 -221l-138 -7c-9 64 -45 106 -131 106c-68 0 -120 -29 -120 -81c0 -30 14 -50 50 -64
c33 -13 115 -36 184 -55c105 -30 178 -90 178 -207c0 -151 -139 -221 -273 -221c-188 0 -286 89 -297 245zM378 790h-119l-146 187h126l80 -107l82 107h123z" />
    <glyph glyph-name="Zcaron" unicode="&#x17d;" horiz-adv-x="665" 
d="M612 0h-559v127l389 466h-369v127h529v-127l-395 -466h405v-127zM392 790h-119l-146 187h126l80 -107l82 107h123z" />
    <glyph glyph-name="scaron" unicode="&#x161;" horiz-adv-x="486" 
d="M28 150l114 19c6 -48 40 -81 105 -81c44 0 93 12 93 59c0 29 -19 43 -49 51l-125 29c-68 16 -127 60 -127 146c0 116 97 162 204 162c124 0 196 -68 201 -150l-114 -19c-8 47 -45 66 -91 66c-51 0 -86 -17 -86 -54c0 -22 18 -37 45 -43l126 -29c59 -14 134 -50 134 -154
c0 -115 -96 -167 -214 -167c-127 0 -207 67 -216 165zM297 600h-119l-126 174h126l60 -94l62 94h123z" />
    <glyph glyph-name="zcaron" unicode="&#x17e;" horiz-adv-x="502" 
d="M466 0h-430v110l265 300h-246v110h405v-110l-270 -300h276v-110zM313 600h-119l-126 174h126l60 -94l62 94h123z" />
    <glyph glyph-name="icircumflex" unicode="&#xee;" horiz-adv-x="248" 
d="M190 0h-132v520h132v-520zM66 774h119l126 -174h-126l-60 94l-62 -94h-123z" />
    <glyph glyph-name="Aring" unicode="&#xc5;" horiz-adv-x="713" 
d="M424 720h-130l-284 -720h143l53 143h298l53 -143h146zM250 261l106 287l105 -287h-211zM219 896c0 76 63 139 139 139c77 0 139 -63 139 -139c0 -77 -62 -139 -139 -139c-76 0 -139 62 -139 139zM303 896c0 -31 25 -56 55 -56c31 0 54 25 54 56c0 29 -23 54 -54 54
c-30 0 -55 -25 -55 -54z" />
    <glyph glyph-name="aring" unicode="&#xe5;" horiz-adv-x="552" 
d="M362 57c3 -19 8 -44 23 -57h133c-18 19 -30 53 -30 106v214c0 152 -83 215 -217 215c-98 0 -198 -37 -224 -157l115 -35c12 47 41 85 101 85c65 0 93 -38 93 -87v-14c-26 -12 -66 -19 -121 -25c-123 -14 -204 -57 -204 -169c0 -99 80 -148 175 -148c62 0 111 18 156 72z
M356 243v-86c-20 -35 -69 -72 -122 -72c-44 0 -69 21 -69 57c-2 50 39 65 87 74c51 10 85 19 104 27zM128 726c0 76 63 139 139 139c77 0 139 -63 139 -139c0 -77 -62 -139 -139 -139c-76 0 -139 62 -139 139zM211 726c0 -31 26 -56 56 -56s53 25 53 56c0 29 -23 54 -53 54
s-56 -25 -56 -54z" />
    <glyph glyph-name="rcaron" unicode="&#x159;" horiz-adv-x="423" 
d="M190 0h-132v520h123v-90c33 70 70 105 142 105c40 0 68 -8 92 -27l-24 -117c-20 11 -41 20 -72 20c-86 0 -129 -64 -129 -165v-246zM281 600h-119l-126 174h126l60 -94l62 94h123z" />
    <glyph glyph-name="uhungarumlaut" unicode="&#x171;" horiz-adv-x="576" 
d="M518 520h-132v-283c0 -93 -47 -141 -108 -141c-64 0 -88 40 -88 109v315h-132v-319c0 -124 42 -216 186 -216c65 0 113 28 151 90v-75h123v520zM92 603l76 187h160l-123 -187h-113zM307 603l76 187h160l-123 -187h-113z" />
    <glyph glyph-name="Uhungarumlaut" unicode="&#x170;" horiz-adv-x="744" 
d="M530 720v-409c0 -138 -52 -199 -157 -199s-160 61 -160 199v409h-140v-418c0 -192 104 -317 299 -317c197 0 299 125 299 317v418h-141zM176 803l76 187h160l-123 -187h-113zM410 803l76 187h160l-123 -187h-113z" />
    <glyph glyph-name="Ohungarumlaut" unicode="&#x150;" horiz-adv-x="771" 
d="M43 360c0 214 123 375 343 375c219 0 342 -161 342 -375s-123 -375 -342 -375c-220 0 -343 161 -343 375zM188 360c0 -153 73 -253 198 -253c121 0 196 100 196 253s-75 253 -196 253c-122 0 -198 -100 -198 -253zM195 803l76 187h160l-123 -187h-113zM422 803l76 187
h160l-123 -187h-113z" />
    <glyph glyph-name="uring" unicode="&#x16f;" horiz-adv-x="576" 
d="M518 520h-132v-283c0 -93 -47 -141 -108 -141c-64 0 -88 40 -88 109v315h-132v-319c0 -124 42 -216 186 -216c65 0 113 28 151 90v-75h123v520zM148 726c0 76 63 139 139 139c77 0 139 -63 139 -139c0 -77 -62 -139 -139 -139c-76 0 -139 62 -139 139zM232 726
c0 -31 25 -56 55 -56c31 0 54 25 54 56c0 29 -23 54 -54 54c-30 0 -55 -25 -55 -54z" />
    <glyph glyph-name="ohungarumlaut" unicode="&#x151;" horiz-adv-x="563" 
d="M28 260c0 186 113 275 253 275c141 0 254 -89 254 -275s-113 -275 -254 -275c-140 0 -253 89 -253 275zM160 260c0 -111 49 -165 121 -165s122 54 122 165c0 110 -50 165 -122 165s-121 -55 -121 -165zM93 603l76 187h160l-123 -187h-113zM304 603l76 187h160l-123 -187
h-113z" />
    <glyph glyph-name="ncaron" unicode="&#x148;" horiz-adv-x="576" 
d="M190 0h-132v520h123v-75c38 64 86 90 151 90c144 0 186 -92 186 -216v-319h-132v315c0 69 -24 109 -88 109c-61 0 -108 -48 -108 -141v-283zM334 600h-119l-126 174h126l60 -94l62 94h123z" />
    <glyph glyph-name="nacute" unicode="&#x144;" horiz-adv-x="576" 
d="M58 0h132v283c0 93 47 141 108 141c64 0 88 -40 88 -109v-315h132v319c0 124 -42 216 -186 216c-65 0 -113 -26 -151 -90v75h-123v-520zM183 603l76 187h160l-123 -187h-113z" />
    <glyph glyph-name="ecaron" unicode="&#x11b;" horiz-adv-x="554" 
d="M525 223h-365c5 -88 59 -128 128 -128c52 0 92 30 106 77l123 -26c-36 -107 -116 -161 -237 -161c-137 0 -252 89 -252 275s116 275 252 275c139 0 246 -90 246 -257c0 -23 -1 -52 -1 -55zM277 425c-53 0 -106 -37 -115 -109h229c-4 65 -48 109 -114 109zM338 600h-119
l-126 174h126l60 -94l62 94h123z" />
    <glyph glyph-name="ccaron" unicode="&#x10d;" horiz-adv-x="534" 
d="M160 260c0 -111 44 -165 113 -165c52 0 90 28 103 95l130 -20c-28 -130 -121 -185 -233 -185c-137 0 -245 89 -245 275s108 275 245 275c112 0 205 -56 233 -186l-129 -21c-14 68 -52 97 -104 97c-67 0 -113 -55 -113 -165zM330 600h-119l-126 174h126l60 -94l62 94h123z
" />
    <glyph glyph-name="cacute" unicode="&#x107;" horiz-adv-x="534" 
d="M160 260c0 -111 44 -165 113 -165c52 0 90 28 103 95l130 -20c-28 -130 -121 -185 -233 -185c-137 0 -245 89 -245 275s108 275 245 275c112 0 205 -56 233 -186l-129 -21c-14 68 -52 97 -104 97c-67 0 -113 -55 -113 -165zM188 603l76 187h160l-123 -187h-113z" />
    <glyph glyph-name="lacute" unicode="&#x13a;" horiz-adv-x="248" 
d="M58 0h132v735l-132 -40v-695zM55 803l76 187h160l-123 -187h-113z" />
    <glyph glyph-name="abreve" unicode="&#x103;" horiz-adv-x="552" 
d="M362 57c-45 -54 -94 -72 -156 -72c-95 0 -175 49 -175 148c0 112 81 155 204 169c55 6 95 13 121 25v14c0 49 -28 87 -93 87c-60 0 -89 -38 -101 -85l-115 35c26 120 126 157 224 157c134 0 217 -63 217 -215v-214c0 -53 12 -87 30 -106h-133c-15 13 -20 38 -23 57z
M356 157v86c-19 -8 -53 -17 -104 -27c-48 -9 -89 -24 -87 -74c0 -36 25 -57 69 -57c53 0 102 37 122 72zM345 720h92c0 -92 -63 -147 -163 -147s-160 56 -160 147h91c5 -43 35 -62 69 -62s66 19 71 62z" />
    <glyph glyph-name="racute" unicode="&#x155;" horiz-adv-x="423" 
d="M58 0h132v246c0 101 43 165 129 165c31 0 52 -9 72 -20l24 117c-24 19 -52 27 -92 27c-72 0 -109 -35 -142 -105v90h-123v-520zM133 603l76 187h160l-123 -187h-113z" />
    <glyph glyph-name="Tcommaaccent" unicode="&#x162;" horiz-adv-x="650" 
d="M395 0h-140v593h-228v127h596v-127h-228v-593zM328 -214h-69v135h135v-135c0 -81 -37 -129 -92 -153l-33 56c35 15 59 40 59 97z" />
    <glyph glyph-name="Uring" unicode="&#x16e;" horiz-adv-x="744" 
d="M530 720v-409c0 -138 -52 -199 -157 -199s-160 61 -160 199v409h-140v-418c0 -192 104 -317 299 -317c197 0 299 125 299 317v418h-141zM233 896c0 76 63 139 139 139c77 0 139 -63 139 -139c0 -77 -62 -139 -139 -139c-76 0 -139 62 -139 139zM317 896
c0 -31 25 -56 55 -56s54 25 54 56c0 29 -24 54 -54 54s-55 -25 -55 -54z" />
    <glyph glyph-name="Rcaron" unicode="&#x158;" horiz-adv-x="704" 
d="M73 0v720h270c153 0 275 -57 275 -215c0 -110 -69 -178 -179 -194c73 -14 128 -80 159 -144l82 -167h-167l-57 121c-48 102 -95 141 -185 141h-58v-262h-140zM213 593v-211h96c106 0 165 32 165 106c0 89 -72 105 -167 105h-94zM392 790h-119l-146 187h126l80 -107
l82 107h123z" />
    <glyph glyph-name="Ncaron" unicode="&#x147;" horiz-adv-x="755" 
d="M209 0h-136v720h142l331 -489v489h136v-720h-142l-331 489v-489zM436 790h-119l-146 187h126l80 -107l82 107h123z" />
    <glyph glyph-name="Nacute" unicode="&#x143;" horiz-adv-x="755" 
d="M73 0h136v489l331 -489h142v720h-136v-489l-331 489h-142v-720zM313 803l76 187h160l-123 -187h-113z" />
    <glyph glyph-name="Dcaron" unicode="&#x10e;" horiz-adv-x="712" 
d="M318 0h-245v720h234c239 0 362 -126 362 -358c0 -225 -112 -362 -351 -362zM213 593v-467h85c148 0 228 64 228 237c0 190 -101 230 -231 230h-82zM376 790h-119l-146 187h126l80 -107l82 107h123z" />
    <glyph glyph-name="Ecaron" unicode="&#x11a;" horiz-adv-x="664" 
d="M601 0h-528v720h518v-127h-378v-162h328v-127h-328v-177h388v-127zM392 790h-119l-146 187h126l80 -107l82 107h123z" />
    <glyph glyph-name="Ccaron" unicode="&#x10c;" horiz-adv-x="739" 
d="M188 360c0 -153 73 -253 198 -253c87 0 145 48 171 138l139 -37c-41 -137 -139 -223 -310 -223c-220 0 -343 161 -343 375s120 375 340 375c163 0 278 -82 313 -224l-139 -37c-21 93 -84 139 -174 139c-122 0 -195 -100 -195 -253zM442 790h-119l-146 187h126l80 -107
l82 107h123z" />
    <glyph glyph-name="Cacute" unicode="&#x106;" horiz-adv-x="739" 
d="M188 360c0 -153 73 -253 198 -253c87 0 145 48 171 138l139 -37c-41 -137 -139 -223 -310 -223c-220 0 -343 161 -343 375s120 375 340 375c163 0 278 -82 313 -224l-139 -37c-21 93 -84 139 -174 139c-122 0 -195 -100 -195 -253zM296 803l76 187h160l-123 -187h-113z
" />
    <glyph glyph-name="Lacute" unicode="&#x139;" horiz-adv-x="629" 
d="M73 0h526v127h-386v593h-140v-720zM107 803l76 187h160l-123 -187h-113z" />
    <glyph glyph-name="Abreve" unicode="&#x102;" horiz-adv-x="713" 
d="M294 720h130l279 -720h-146l-53 143h-298l-53 -143h-143zM356 548l-106 -287h211zM440 920h105c0 -92 -56 -167 -183 -167s-179 76 -179 167h105c1 -50 27 -77 74 -77s76 27 78 77z" />
    <glyph glyph-name="Racute" unicode="&#x154;" horiz-adv-x="704" 
d="M73 720v-720h140v262h58c90 0 137 -39 185 -141l57 -121h167l-82 167c-31 64 -86 130 -159 144c110 16 179 84 179 194c0 158 -122 215 -275 215h-270zM213 382v211h94c95 0 167 -16 167 -105c0 -74 -59 -106 -165 -106h-96zM230 803l76 187h160l-123 -187h-113z" />
    <glyph glyph-name="zdotaccent" unicode="&#x17c;" horiz-adv-x="502" 
d="M466 0h-430v110l265 300h-246v110h405v-110l-270 -300h276v-110zM324 594h-132v126h132v-126z" />
    <glyph glyph-name="Lcaron" unicode="&#x13d;" horiz-adv-x="629" 
d="M599 0h-526v720h140v-593h386v-127zM208 790h-119l-146 187h126l80 -107l82 107h123z" />
    <glyph glyph-name="scommaaccent" unicode="&#x219;" horiz-adv-x="486" 
d="M28 150l114 19c6 -48 40 -81 105 -81c44 0 93 12 93 59c0 29 -19 43 -49 51l-125 29c-68 16 -127 60 -127 146c0 116 97 162 204 162c124 0 196 -68 201 -150l-114 -19c-8 47 -45 66 -91 66c-51 0 -86 -17 -86 -54c0 -22 18 -37 45 -43l126 -29c59 -14 134 -50 134 -154
c0 -115 -96 -167 -214 -167c-127 0 -207 67 -216 165zM254 -214h-69v135h136v-135c0 -81 -38 -129 -93 -153l-33 56c35 15 59 40 59 97z" />
    <glyph glyph-name="Zdotaccent" unicode="&#x17b;" horiz-adv-x="665" 
d="M612 0h-559v127l389 466h-369v127h529v-127l-395 -466h405v-127zM396 800h-133v135h133v-135z" />
    <glyph glyph-name="Scommaaccent" unicode="&#x218;" horiz-adv-x="652" 
d="M39 230l136 8c8 -94 65 -131 157 -131c76 0 132 31 132 94c0 42 -21 67 -78 87c-38 14 -132 37 -175 51c-127 39 -149 113 -149 181c0 146 123 215 251 215c167 0 263 -71 273 -221l-138 -7c-9 64 -45 106 -131 106c-68 0 -120 -29 -120 -81c0 -30 14 -50 50 -64
c33 -13 115 -36 184 -55c105 -30 178 -90 178 -207c0 -151 -139 -221 -273 -221c-188 0 -286 89 -297 245zM340 -214h-69v135h135v-135c0 -81 -37 -129 -92 -153l-33 56c35 15 59 40 59 97z" />
    <glyph glyph-name="zacute" unicode="&#x17a;" horiz-adv-x="502" 
d="M36 0h430v110h-276l270 300v110h-405v-110h246l-265 -300v-110zM173 603l76 187h160l-123 -187h-113z" />
    <glyph glyph-name="sacute" unicode="&#x15b;" horiz-adv-x="486" 
d="M28 150c9 -98 89 -165 216 -165c118 0 214 52 214 167c0 104 -75 140 -134 154l-126 29c-27 6 -45 21 -45 43c0 37 35 54 86 54c46 0 83 -19 91 -66l114 19c-5 82 -77 150 -201 150c-107 0 -204 -46 -204 -162c0 -86 59 -130 127 -146l125 -29c30 -8 49 -22 49 -51
c0 -47 -49 -59 -93 -59c-65 0 -99 33 -105 81zM149 603l76 187h160l-123 -187h-113z" />
    <glyph glyph-name="Zacute" unicode="&#x179;" horiz-adv-x="665" 
d="M53 0h559v127h-405l395 466v127h-529v-127h369l-389 -466v-127zM252 803l76 187h160l-123 -187h-113z" />
    <glyph glyph-name="Tcaron" unicode="&#x164;" horiz-adv-x="650" 
d="M395 0h-140v593h-228v127h596v-127h-228v-593zM385 790h-119l-146 187h126l80 -107l82 107h123z" />
    <glyph glyph-name="Sacute" unicode="&#x15a;" horiz-adv-x="652" 
d="M39 230c11 -156 109 -245 297 -245c134 0 273 70 273 221c0 117 -73 177 -178 207c-69 19 -151 42 -184 55c-36 14 -50 34 -50 64c0 52 52 81 120 81c86 0 122 -42 131 -106l138 7c-10 150 -106 221 -273 221c-128 0 -251 -69 -251 -215c0 -68 22 -142 149 -181
c43 -14 137 -37 175 -51c57 -20 78 -45 78 -87c0 -63 -56 -94 -132 -94c-92 0 -149 37 -157 131zM232 803l76 187h160l-123 -187h-113z" />
    <glyph glyph-name="multiply" unicode="&#xd7;" horiz-adv-x="556" 
d="M278 304l-124 -124l-79 78l125 124l-125 125l79 78l124 -125l124 125l79 -78l-126 -125l126 -124l-79 -78z" />
    <glyph glyph-name="tcommaaccent" unicode="&#x163;" horiz-adv-x="365" 
d="M314 111l9 -106c-20 -10 -67 -15 -86 -15c-109 0 -143 60 -143 162v264h-74v104h74v116l132 43v-159h96v-104h-96v-234c0 -45 0 -77 47 -77c10 0 25 1 41 6zM198 -214h-69v135h135v-135c0 -81 -37 -129 -92 -153l-33 56c35 15 59 40 59 97z" />
    <glyph glyph-name="lslash" unicode="&#x142;" horiz-adv-x="439" 
d="M284 0h-132v275l-84 -51l-55 96l139 84v291l132 40v-252l87 53l55 -96l-142 -86v-354z" />
    <glyph glyph-name="Lslash" unicode="&#x141;" horiz-adv-x="703" 
d="M673 0h-526v271l-79 -47l-55 96l134 80v320h140v-235l84 51l55 -96l-139 -84v-229h386v-127z" />
    <glyph glyph-name="lcaron" unicode="&#x13e;" horiz-adv-x="391" 
d="M190 0h-132v695l132 40v-735zM317 585h-69v135h136v-135c0 -81 -38 -129 -93 -153l-33 56c35 15 59 40 59 97z" />
    <glyph glyph-name="tcaron" unicode="&#x165;" horiz-adv-x="491" 
d="M314 111l9 -106c-20 -10 -67 -15 -86 -15c-109 0 -143 60 -143 162v264h-74v104h74v116l132 43v-159h96v-104h-96v-234c0 -45 0 -77 47 -77c10 0 25 1 41 6zM417 585h-69v135h136v-135c0 -81 -38 -129 -93 -153l-33 56c35 15 59 40 59 97z" />
    <glyph glyph-name="dcaron" unicode="&#x10f;" horiz-adv-x="714" 
d="M381 720h132v-720h-122v64c-30 -50 -77 -79 -139 -79c-130 0 -224 99 -224 275s97 275 227 275c48 0 96 -18 126 -63v248zM392 260c0 111 -48 165 -116 165c-69 0 -116 -54 -116 -165s50 -165 115 -165c62 0 117 54 117 165zM640 585h-69v135h136v-135
c0 -81 -38 -129 -93 -153l-33 56c35 15 59 40 59 97z" />
    <glyph glyph-name="dcroat" unicode="&#x111;" horiz-adv-x="571" 
d="M381 566h-61v87h61v67h132v-67h58v-87h-58v-566h-122v64c-30 -50 -77 -79 -139 -79c-130 0 -224 99 -224 275s97 275 227 275c48 0 96 -18 126 -63v94zM392 260c0 111 -48 165 -116 165c-69 0 -116 -54 -116 -165s50 -165 115 -165c62 0 117 54 117 165z" />
    <glyph glyph-name="Dcroat" unicode="&#x110;" horiz-adv-x="788" 
d="M394 0h-245v307h-136v110h136v303h234c239 0 362 -126 362 -358c0 -225 -112 -362 -351 -362zM289 307v-181h85c148 0 228 64 228 237c0 190 -101 230 -231 230h-82v-176h140v-110h-140z" />
    <glyph glyph-name="oslash" unicode="&#xf8;" horiz-adv-x="563" 
d="M516 471l-29 -36c30 -43 48 -102 48 -175c0 -186 -113 -275 -254 -275c-49 0 -95 11 -133 33l-27 -33l-77 64l30 37c-29 43 -46 102 -46 174c0 186 113 275 253 275c48 0 94 -11 132 -32l26 32zM403 260c0 24 -3 44 -8 62l-172 -211c17 -11 37 -16 58 -16
c72 0 122 54 122 165zM160 260c0 -23 2 -43 6 -59l171 209c-16 10 -35 15 -56 15c-72 0 -121 -55 -121 -165z" />
    <glyph glyph-name="Oslash" unicode="&#xd8;" horiz-adv-x="771" 
d="M710 664l-51 -62c45 -65 69 -148 69 -242c0 -214 -123 -375 -342 -375c-79 0 -145 20 -198 57l-47 -57l-85 71l54 64c-44 64 -67 147 -67 240c0 214 123 375 343 375c77 0 142 -20 194 -56l46 56zM582 360c0 46 -8 89 -22 125l-287 -342c31 -24 68 -36 113 -36
c121 0 196 100 196 253zM188 360c0 -46 7 -87 21 -122l285 340c-30 23 -67 35 -108 35c-122 0 -198 -100 -198 -253z" />
    <glyph glyph-name="Thorn" unicode="&#xde;" horiz-adv-x="667" 
d="M213 0h-140v730h140v-122h127c145 0 284 -60 284 -232c0 -145 -97 -240 -276 -240h-135v-136zM213 484v-225h127c106 0 141 55 141 114c0 73 -48 111 -143 111h-125z" />
    <glyph glyph-name="oe" unicode="&#x153;" horiz-adv-x="929" 
d="M28 260c0 186 113 275 253 275c76 0 143 -26 188 -99c46 73 114 99 187 99c138 0 245 -90 245 -257c0 -23 0 -52 -1 -55h-364c5 -88 59 -128 128 -128c52 0 92 30 106 77l123 -26c-36 -107 -116 -161 -237 -161c-74 0 -141 26 -187 99c-45 -73 -112 -99 -188 -99
c-140 0 -253 89 -253 275zM160 260c0 -111 49 -165 121 -165s122 54 122 165c0 110 -50 165 -122 165s-121 -55 -121 -165zM653 425c-54 0 -106 -37 -115 -109h228c-4 65 -47 109 -113 109z" />
    <glyph glyph-name="OE" unicode="&#x152;" horiz-adv-x="1017" 
d="M954 0h-560c-239 0 -351 137 -351 362c0 232 123 358 362 358h539v-127h-348v-162h298v-127h-298v-177h358v-127zM456 126v467h-39c-130 0 -231 -40 -231 -230c0 -173 80 -237 228 -237h42z" />
    <glyph glyph-name="Eth" unicode="&#xd0;" horiz-adv-x="788" 
d="M394 0h-245v307h-136v110h136v303h234c239 0 362 -126 362 -358c0 -225 -112 -362 -351 -362zM289 307v-181h85c148 0 228 64 228 237c0 190 -101 230 -231 230h-82v-176h140v-110h-140z" />
    <glyph glyph-name="ntilde" unicode="&#xf1;" horiz-adv-x="576" 
d="M190 0h-132v520h123v-75c38 64 86 90 151 90c144 0 186 -92 186 -216v-319h-132v315c0 69 -24 109 -88 109c-61 0 -108 -48 -108 -141v-283zM128 599v117c28 30 67 40 95 40c66 0 101 -50 150 -50c25 0 64 10 92 50v-117c-28 -30 -74 -40 -102 -40c-66 0 -94 50 -143 50
c-28 0 -64 -10 -92 -50z" />
    <glyph glyph-name="otilde" unicode="&#xf5;" horiz-adv-x="563" 
d="M28 260c0 186 113 275 253 275c141 0 254 -89 254 -275s-113 -275 -254 -275c-140 0 -253 89 -253 275zM160 260c0 -111 49 -165 121 -165s122 54 122 165c0 110 -50 165 -122 165s-121 -55 -121 -165zM119 599v117c28 30 67 40 95 40c66 0 101 -50 150 -50
c25 0 64 10 92 50v-117c-28 -30 -74 -40 -102 -40c-66 0 -94 50 -143 50c-28 0 -64 -10 -92 -50z" />
    <glyph glyph-name="atilde" unicode="&#xe3;" horiz-adv-x="552" 
d="M362 57c-45 -54 -94 -72 -156 -72c-95 0 -175 49 -175 148c0 112 81 155 204 169c55 6 95 13 121 25v14c0 49 -28 87 -93 87c-60 0 -89 -38 -101 -85l-115 35c26 120 126 157 224 157c134 0 217 -63 217 -215v-214c0 -53 12 -87 30 -106h-133c-15 13 -20 38 -23 57z
M356 157v86c-19 -8 -53 -17 -104 -27c-48 -9 -89 -24 -87 -74c0 -36 25 -57 69 -57c53 0 102 37 122 72zM103 599v117c28 30 67 40 95 40c66 0 101 -50 150 -50c25 0 64 10 92 50v-117c-28 -30 -74 -40 -102 -40c-66 0 -94 50 -143 50c-28 0 -64 -10 -92 -50z" />
    <glyph glyph-name="Ntilde" unicode="&#xd1;" horiz-adv-x="755" 
d="M209 0h-136v720h142l331 -489v489h136v-720h-142l-331 489v-489zM193 799v126c28 30 77 40 105 40c66 0 118 -50 167 -50c25 0 74 10 102 50v-126c-28 -30 -84 -40 -112 -40c-66 0 -111 50 -160 50c-28 0 -74 -10 -102 -50z" />
    <glyph glyph-name="Otilde" unicode="&#xd5;" horiz-adv-x="771" 
d="M43 360c0 214 123 375 343 375c219 0 342 -161 342 -375s-123 -375 -342 -375c-220 0 -343 161 -343 375zM188 360c0 -153 73 -253 198 -253c121 0 196 100 196 253s-75 253 -196 253c-122 0 -198 -100 -198 -253zM199 799v126c28 30 77 40 105 40c66 0 118 -50 167 -50
c25 0 74 10 102 50v-126c-28 -30 -84 -40 -112 -40c-66 0 -111 50 -160 50c-28 0 -74 -10 -102 -50z" />
    <glyph glyph-name="Atilde" unicode="&#xc3;" horiz-adv-x="713" 
d="M294 720h130l279 -720h-146l-53 143h-298l-53 -143h-143zM356 548l-106 -287h211zM177 799v126c28 30 77 40 105 40c66 0 118 -50 167 -50c25 0 74 10 102 50v-126c-28 -30 -84 -40 -112 -40c-66 0 -111 50 -160 50c-28 0 -74 -10 -102 -50z" />
    <glyph glyph-name="AE" unicode="&#xc6;" horiz-adv-x="1071" 
d="M163 0h-150l457 720h528v-127h-378v-162h328v-127h-328v-177h388v-127h-528v139h-231zM480 266v251l-153 -251h153z" />
    <glyph glyph-name="ae" unicode="&#xe6;" horiz-adv-x="882" 
d="M850 223h-365c3 -88 61 -128 128 -128c52 0 92 30 106 77c41 -9 82 -17 123 -26c-36 -107 -116 -161 -237 -161c-68 0 -130 22 -175 65c-63 -51 -139 -65 -201 -65c-115 0 -198 48 -198 148c0 112 81 155 204 169c55 6 92 13 118 25v14c0 49 -25 87 -90 87
c-60 0 -89 -38 -101 -85c-38 11 -77 23 -115 35c26 120 126 157 224 157c73 0 127 -19 164 -61c45 41 105 61 170 61c139 0 246 -90 246 -257c0 -23 -1 -52 -1 -55zM376 130c-13 31 -23 72 -23 113c-19 -8 -50 -17 -101 -27c-48 -9 -89 -24 -87 -74c0 -36 30 -57 82 -57
c55 0 94 17 129 45zM602 425c-54 0 -106 -37 -115 -109h228c-4 65 -47 109 -113 109z" />
    <glyph glyph-name="germandbls" unicode="&#xdf;" horiz-adv-x="672" 
d="M274 150l114 19c6 -48 23 -81 75 -81c34 0 63 22 63 59c0 29 -18 50 -49 58l-65 16c-67 17 -127 66 -127 152c0 145 144 135 144 192c0 18 -14 50 -91 50c-67 0 -114 -38 -114 -116v-499h-129v484c0 161 104 244 235 244c155 0 223 -69 223 -156
c0 -124 -154 -117 -154 -197c0 -22 18 -39 45 -46l66 -16c59 -15 134 -57 134 -161c0 -112 -76 -167 -184 -167c-117 0 -177 67 -186 165z" />
    <glyph glyph-name="eth" unicode="&#xf0;" horiz-adv-x="563" 
d="M414 744l-31 -54c115 -85 159 -243 151 -417c-8 -189 -121 -288 -254 -288c-109 0 -253 75 -251 261s120 255 220 255c74 0 130 -38 151 -64c-9 44 -30 102 -80 145l-35 -61l-86 50l33 56c-27 8 -55 12 -88 12l8 120c54 0 101 -8 143 -22l33 57zM161 243
c-1 -111 67 -148 119 -148c58 0 123 37 124 148c1 110 -64 148 -119 148c-61 0 -123 -38 -124 -148z" />
    <glyph glyph-name="ccedilla" unicode="&#xe7;" horiz-adv-x="534" 
d="M289 -117c0 25 -10 38 -25 38c-13 0 -21 -7 -24 -22l-45 11l26 80c-112 19 -193 108 -193 270c0 186 108 275 245 275c112 0 205 -56 233 -186l-129 -21c-14 68 -52 97 -104 97c-67 0 -113 -55 -113 -165c0 -111 44 -165 113 -165c52 0 90 28 103 95l130 -20
c-28 -130 -121 -185 -233 -185h-11l-7 -20h10c41 0 73 -26 73 -82s-32 -83 -73 -83c-34 0 -62 17 -70 55l45 12c3 -16 11 -22 24 -22c15 0 25 13 25 38z" />
    <glyph glyph-name="Ccedilla" unicode="&#xc7;" horiz-adv-x="739" 
d="M414 -142c0 30 -13 45 -30 45c-16 0 -25 -7 -29 -26l-55 13l33 99c-187 24 -290 175 -290 371c0 214 120 375 340 375c163 0 278 -82 313 -224l-139 -37c-21 93 -84 139 -174 139c-122 0 -195 -100 -195 -253s73 -253 198 -253c87 0 145 48 171 138l139 -37
c-41 -137 -139 -223 -310 -223h-5l-8 -29h11c50 0 89 -30 89 -98s-39 -100 -89 -100c-40 0 -74 21 -84 67l55 14c4 -19 13 -26 29 -26c18 0 30 15 30 45z" />
    <glyph glyph-name="cent" unicode="&#xa2;" horiz-adv-x="534" 
d="M236 -115v102c-120 15 -208 104 -208 273s88 257 208 273v102h75v-102c94 -12 170 -69 195 -184l-129 -21c-10 50 -34 78 -66 90v-317c32 11 55 40 65 89l130 -20c-25 -115 -101 -171 -195 -183v-102h-75zM160 260c0 -90 28 -142 76 -159v317c-46 -18 -76 -69 -76 -158z
" />
    <glyph glyph-name="yen" unicode="&#xa5;" horiz-adv-x="696" 
d="M419 0h-142v108h-150v75h150v48h-150v75h144l-261 414h157l185 -295l182 295h152l-261 -414h144v-75h-150v-48h150v-75h-150v-108z" />
    <glyph glyph-name="divide" unicode="&#xf7;" horiz-adv-x="556" 
d="M500 307h-444v110h444v-110zM344 474h-133v135h133v-135zM344 115h-133v135h133v-135z" />
    <glyph glyph-name="eogonek" unicode="&#x119;" horiz-adv-x="554" 
d="M525 223h-365c5 -88 59 -128 128 -128c52 0 92 30 106 77c41 -9 82 -17 123 -26c-25 -73 -66 -107 -127 -143c-27 -16 -54 -40 -54 -82c0 -38 24 -60 57 -60c30 0 48 15 64 45c21 -20 41 -38 61 -57c-17 -34 -61 -77 -130 -77c-80 0 -142 44 -142 128c0 33 17 71 40 86
c-18 0 -45 2 -60 6c-114 19 -198 109 -198 268c0 186 116 275 252 275c139 0 246 -90 246 -257c0 -23 -1 -52 -1 -55zM277 425c-53 0 -106 -37 -115 -109h229c-4 65 -48 109 -114 109z" />
    <glyph glyph-name="aogonek" unicode="&#x105;" horiz-adv-x="552" 
d="M362 57c-45 -54 -94 -72 -156 -72c-95 0 -175 49 -175 148c0 112 81 155 204 169c55 6 95 13 121 25v14c0 49 -28 87 -93 87c-60 0 -89 -38 -101 -85l-115 35c26 120 126 157 224 157c134 0 217 -63 217 -215v-214c0 -53 12 -87 30 -106h-31c-49 0 -87 -28 -87 -79
c0 -38 24 -60 57 -60c30 0 48 15 64 45l61 -57c-17 -34 -60 -77 -129 -77c-80 0 -143 47 -143 132c0 63 38 98 77 115c-11 8 -21 25 -25 38zM356 157v86c-19 -8 -53 -17 -104 -27c-48 -9 -89 -24 -87 -74c0 -36 25 -57 69 -57c53 0 102 37 122 72z" />
    <glyph glyph-name="Eogonek" unicode="&#x118;" horiz-adv-x="664" 
d="M458 0h-385v720h518v-127h-378v-162h328v-127h-328v-177h388v-127h-25c-50 0 -79 -38 -79 -79c0 -38 24 -60 57 -60c30 0 48 15 64 45l61 -57c-17 -34 -62 -77 -131 -77c-80 0 -141 47 -141 132c0 40 21 79 51 96z" />
    <glyph glyph-name="Aogonek" unicode="&#x104;" horiz-adv-x="713" 
d="M294 720h130l279 -720h-31c-55 0 -88 -38 -88 -79c0 -38 24 -60 57 -60c30 0 48 15 64 45l61 -57c-17 -34 -60 -77 -129 -77c-80 0 -143 47 -143 132c0 54 27 87 58 107l-48 132h-298l-53 -143h-143zM356 548l-106 -287h211z" />
    <glyph glyph-name="afii10060" unicode="&#x40b;" horiz-adv-x="781" 
d="M395 0h-140v593h-228v127h596v-127h-228v-210c34 57 77 82 142 82c144 0 186 -92 186 -216v-249h-132v245c0 69 -24 109 -88 109c-59 0 -106 -46 -108 -134v-220z" />
    <glyph glyph-name="afii10051" unicode="&#x402;" horiz-adv-x="781" 
d="M475 -2l18 109c17 -5 25 -6 35 -6c58 0 63 52 63 105v39c0 69 -24 109 -88 109c-59 0 -106 -46 -108 -134v-220h-140v593h-228v127h596v-127h-228v-210c34 57 77 82 142 82c144 0 186 -92 186 -216v-82c0 -106 -54 -182 -166 -182c-24 0 -60 5 -82 13z" />
    <glyph glyph-name="afii10108" unicode="&#x45b;" horiz-adv-x="612" 
d="M226 0h-132v507h-74v104h74v81l132 43v-124h96v-104h-96v-124c33 57 77 82 142 82c144 0 186 -92 186 -216v-249h-132v245c0 69 -24 109 -88 109c-59 0 -105 -44 -108 -130v-224z" />
    <glyph glyph-name="afii10099" unicode="&#x452;" horiz-adv-x="612" 
d="M306 -2l18 109c17 -5 25 -6 35 -6c58 0 63 52 63 105v39c0 69 -24 109 -88 109c-59 0 -105 -44 -108 -130v-224h-132v507h-74v104h74v81l132 43v-124h96v-104h-96v-124c33 57 77 82 142 82c144 0 186 -92 186 -216v-82c0 -106 -55 -182 -167 -182c-24 0 -59 5 -81 13z
" />
    </font>
</defs>
</svg>
