<?xml version="1.0" standalone="no"?>
<!DOCTYPE svg PUBLIC "-//W3C//DTD SVG 1.1//EN" "http://www.w3.org/Graphics/SVG/1.1/DTD/svg11.dtd" >
<svg xmlns="http://www.w3.org/2000/svg" xmlns:xlink="http://www.w3.org/1999/xlink" version="1.1">
<metadata>
Created by FontForge 20160407 at Fri Jun  3 16:17:00 2016
 By Jimmy Wärting
Copyright (c) 2009 by abstrkt. All rights reserved.
</metadata>
<defs>
<font id="VremenaGroteskItalic" horiz-adv-x="570" >
  <font-face 
    font-family="Vremena Grotesk Italic"
    font-weight="400"
    font-style="italic"
    font-stretch="normal"
    units-per-em="1000"
    panose-1="0 0 0 0 0 0 0 0 0 0"
    ascent="750"
    descent="-250"
    x-height="520"
    cap-height="720"
    bbox="-94 -354 4625 1035"
    underline-thickness="50"
    underline-position="-100"
    unicode-range="U+0020-2122"
  />
<missing-glyph horiz-adv-x="278" 
 />
    <glyph glyph-name=".notdef" horiz-adv-x="278" 
 />
    <glyph glyph-name=".null" horiz-adv-x="0" 
 />
    <glyph glyph-name="CR" horiz-adv-x="278" 
 />
    <glyph glyph-name="space" unicode=" " horiz-adv-x="278" 
 />
    <glyph glyph-name="afii10069" unicode="&#x434;" horiz-adv-x="543" 
d="M230 638l22 97c281 0 364 -215 307 -489c-37 -175 -158 -261 -297 -261c-109 0 -229 84 -196 263s152 260 264 260c74 0 126 -38 145 -68c3 96 -73 198 -245 198zM177 246c-24 -126 48 -169 103 -169c69 0 147 43 171 169c25 127 -41 169 -103 169
c-75 0 -147 -42 -171 -169z" />
    <glyph glyph-name="afii10070" unicode="&#x435;" horiz-adv-x="526" 
d="M526 152c-55 -111 -149 -167 -266 -167c-141 0 -226 96 -192 275c35 179 158 275 298 275c121 0 192 -71 190 -154c-3 -117 -100 -151 -213 -151h-169c-15 -106 39 -153 111 -153c56 0 112 35 140 97zM347 442c-58 0 -125 -41 -155 -130h163c55 0 89 18 90 67
c1 42 -47 63 -98 63z" />
    <glyph glyph-name="afii10072" unicode="&#x436;" horiz-adv-x="756" 
d="M465 216l-40 -216h-111l40 216h-8c-37 0 -65 -15 -97 -60l-107 -156h-126l126 173c40 51 74 81 113 90l1 4c-37 10 -50 44 -61 94c-8 37 -7 58 -50 58h-23l16 101h21c63 0 91 -5 113 -57c7 -16 21 -83 28 -111c11 -41 37 -43 63 -43h9l41 211h111l-41 -211h9
c26 0 46 2 73 43c18 28 57 95 70 111c43 52 81 57 143 57h22l-23 -101h-23c-42 0 -49 -21 -72 -58c-31 -50 -56 -84 -97 -94l-1 -4c35 -9 57 -39 79 -90l60 -173h-126l-48 156c-16 45 -38 60 -75 60h-9z" />
    <glyph glyph-name="afii10073" unicode="&#x437;" horiz-adv-x="462" 
d="M231 228l16 82c27 1 51 1 57 1c42 4 69 28 76 64c8 41 -17 70 -69 70c-51 0 -92 -33 -110 -84l-94 23c38 98 122 151 225 151c108 0 180 -53 160 -153c-10 -56 -52 -93 -98 -107c52 -12 86 -59 74 -127c-22 -112 -132 -163 -237 -163c-118 0 -185 55 -184 161l107 18
c1 -56 31 -90 94 -90c58 0 104 30 114 80c13 68 -46 74 -84 74h-47z" />
    <glyph glyph-name="afii10074" unicode="&#x438;" horiz-adv-x="543" 
d="M472 520h111l-99 -520h-102l14 75c-50 -59 -108 -90 -176 -90c-144 0 -165 92 -141 216l61 319h111l-60 -315c-15 -80 -5 -127 66 -127c72 0 141 55 161 159z" />
    <glyph glyph-name="afii10075" unicode="&#x439;" horiz-adv-x="541" 
d="M480 720h76c-18 -89 -82 -147 -182 -147s-141 59 -124 147h76c-4 -47 22 -69 63 -69s77 22 91 69zM470 520h111l-99 -520h-102l14 75c-49 -59 -107 -90 -176 -90c-144 0 -164 92 -140 216l61 319h111l-60 -315c-15 -80 -5 -127 66 -127c72 0 140 55 160 159z" />
    <glyph glyph-name="afii10076" unicode="&#x43a;" horiz-adv-x="538" 
d="M56 0l99 520h111l-41 -211h29c30 0 50 5 83 43c23 26 61 95 73 111c40 52 83 57 146 57h22l-24 -101h-22c-43 0 -51 -21 -74 -58c-31 -50 -61 -80 -102 -90l-1 -4c36 -9 65 -43 87 -94l60 -173h-126l-50 156c-16 43 -43 60 -83 60h-35l-41 -216h-111z" />
    <glyph glyph-name="afii10077" unicode="&#x43b;" horiz-adv-x="556" 
d="M158 289l45 231h393l-99 -520h-111l82 427h-175l-32 -168c-25 -123 -64 -274 -194 -274c-29 0 -57 10 -64 15l17 93c10 -6 23 -11 37 -11c66 -1 85 121 101 207z" />
    <glyph glyph-name="afii10078" unicode="&#x43c;" horiz-adv-x="697" 
d="M56 0l99 520h162l54 -392l217 392h149l-99 -520h-111l72 375l-207 -375h-93l-58 388l-74 -388h-111z" />
    <glyph glyph-name="afii10079" unicode="&#x43d;" horiz-adv-x="556" 
d="M56 0l99 520h111l-41 -211h219l41 211h111l-99 -520h-111l40 216h-218l-41 -216h-111z" />
    <glyph glyph-name="afii10080" unicode="&#x43e;" horiz-adv-x="546" 
d="M68 260c35 179 159 275 301 275s231 -96 195 -275c-34 -179 -159 -275 -301 -275s-229 96 -195 275zM179 260c-24 -126 27 -183 102 -183c76 0 149 57 172 183c25 126 -26 182 -101 182c-76 0 -149 -56 -173 -182z" />
    <glyph glyph-name="afii10081" unicode="&#x43f;" horiz-adv-x="559" 
d="M167 0h-111l99 520h102l-14 -75c50 64 107 90 175 90c144 0 165 -92 142 -216l-61 -319h-111l60 315c15 79 -2 126 -73 126c-72 0 -134 -55 -155 -158z" />
    <glyph glyph-name="afii10082" unicode="&#x440;" horiz-adv-x="557" 
d="M127 -200h-111l138 720h101l-12 -68c39 50 93 83 159 83c137 0 202 -106 170 -275s-141 -275 -278 -275c-55 0 -98 23 -119 66zM204 260c-23 -122 22 -183 95 -183c74 0 138 61 162 183c24 121 -19 182 -91 182c-65 0 -142 -61 -166 -182z" />
    <glyph glyph-name="afii10083" unicode="&#x441;" horiz-adv-x="522" 
d="M179 260c-24 -126 22 -183 96 -183c56 0 105 32 136 107l104 -21c-51 -119 -147 -178 -259 -178c-140 0 -222 96 -188 275c35 179 154 275 294 275c116 0 209 -59 186 -194h-108c10 74 -35 101 -95 101c-73 0 -142 -56 -166 -182z" />
    <glyph glyph-name="afii10084" unicode="&#x442;" horiz-adv-x="842" 
d="M167 0h-111l99 520h102l-14 -74c48 64 102 89 171 89c76 0 120 -35 129 -96c47 69 110 96 175 96c104 0 151 -63 128 -179l-67 -356h-111l62 323c12 64 8 118 -59 118c-77 0 -125 -62 -141 -144l-56 -297h-111l63 330c14 74 -8 111 -60 111c-90 0 -130 -81 -148 -172z
" />
    <glyph glyph-name="afii10086" unicode="&#x444;" horiz-adv-x="823" 
d="M502 260c-25 -127 6 -183 72 -183c65 0 123 56 148 183c25 125 -12 182 -77 182c-56 0 -118 -54 -143 -182zM400 260c25 128 -16 182 -71 182c-66 0 -124 -57 -149 -182c-25 -127 13 -183 79 -183c65 0 116 56 141 183zM419 -200h-111l47 251c-25 -33 -73 -66 -135 -66
c-134 0 -180 121 -151 275c30 154 118 275 257 275c69 0 101 -41 110 -69l44 229l119 40l-52 -269c19 28 67 69 136 69c139 0 180 -121 150 -275c-29 -154 -123 -275 -257 -275c-62 0 -97 33 -110 66z" />
    <glyph glyph-name="afii10087" unicode="&#x445;" horiz-adv-x="531" 
d="M138 0h-128l233 266l-122 254h129l74 -174l141 174h126l-219 -251l134 -269h-126l-87 186z" />
    <glyph glyph-name="afii10088" unicode="&#x446;" horiz-adv-x="577" 
d="M472 520h111l-72 -375c-13 -66 0 -86 65 -86l-40 -213h-108l26 139c-36 0 -65 44 -58 90c-50 -59 -108 -90 -176 -90c-144 0 -165 92 -141 216l61 319h111l-60 -315c-15 -80 -5 -127 66 -127c72 0 141 55 161 159z" />
    <glyph glyph-name="afii10089" unicode="&#x447;" horiz-adv-x="519" 
d="M103 366l30 154h111l-22 -114c-18 -94 -24 -150 65 -150c33 0 77 10 117 35l44 229h111l-99 -520h-111l39 208c-45 -29 -91 -41 -137 -41c-131 0 -171 79 -148 199z" />
    <glyph glyph-name="afii10090" unicode="&#x448;" horiz-adv-x="827" 
d="M756 520h111l-99 -520h-102l14 74c-49 -64 -103 -89 -172 -89c-76 0 -120 35 -129 96c-47 -69 -110 -96 -175 -96c-104 0 -150 63 -128 179l68 356h111l-62 -324c-13 -63 -15 -118 52 -118c77 0 132 63 148 144l56 298h111l-63 -330c-14 -75 1 -112 53 -112
c90 0 136 81 154 173z" />
    <glyph glyph-name="afii10091" unicode="&#x449;" horiz-adv-x="861" 
d="M756 520h111l-72 -375c-14 -66 0 -86 65 -86l-40 -213h-108l26 139c-36 0 -65 42 -58 88c-49 -63 -103 -88 -172 -88c-76 0 -120 35 -129 96c-47 -69 -110 -96 -175 -96c-104 0 -150 63 -128 179l68 356h111l-62 -324c-13 -63 -15 -118 52 -118c77 0 132 63 148 144
l56 298h111l-63 -330c-14 -75 1 -112 53 -112c90 0 136 81 154 173z" />
    <glyph glyph-name="afii10092" unicode="&#x44a;" horiz-adv-x="555" 
d="M90 429l17 91h232l-52 -223c35 35 79 49 125 49c84 0 176 -63 153 -186c-24 -121 -130 -175 -227 -175h-19c-95 0 -191 79 -156 247l44 197h-117zM452 161c10 54 -16 105 -84 105c-31 0 -65 -13 -94 -34l-6 -30c-17 -92 27 -128 80 -128c46 0 92 32 104 87z" />
    <glyph glyph-name="afii10093" unicode="&#x44b;" horiz-adv-x="680" 
d="M510 0l99 520h111l-99 -520h-111zM363 161c11 54 -16 105 -84 105c-31 0 -65 -13 -94 -34l-6 -30c-16 -92 28 -128 80 -128c46 0 93 32 104 87zM74 232l65 288h111l-51 -223c34 35 78 49 124 49c84 0 176 -63 153 -186c-23 -121 -129 -175 -227 -175h-19
c-94 0 -190 79 -156 247z" />
    <glyph glyph-name="afii10094" unicode="&#x44c;" horiz-adv-x="467" 
d="M74 232l65 288h111l-51 -223c34 35 78 49 124 49c84 0 176 -63 153 -186c-23 -121 -129 -175 -227 -175h-19c-94 0 -190 79 -156 247zM363 161c11 54 -16 105 -84 105c-31 0 -65 -13 -94 -34l-6 -27c-16 -85 25 -131 80 -131c46 0 93 32 104 87z" />
    <glyph glyph-name="afii10095" unicode="&#x44d;" horiz-adv-x="524" 
d="M243 220l16 85h177c9 95 -38 137 -94 137c-60 0 -112 -31 -143 -107l-103 21c50 119 149 179 264 179c142 0 216 -98 181 -275c-34 -179 -154 -275 -296 -275c-112 0 -187 58 -192 178l113 21c1 -75 41 -107 97 -107c65 0 130 40 157 143h-177z" />
    <glyph glyph-name="afii10096" unicode="&#x44e;" horiz-adv-x="769" 
d="M56 0l99 520h111l-41 -211h90c46 147 159 226 280 226c134 0 221 -96 185 -275c-34 -179 -157 -275 -291 -275c-123 0 -204 81 -192 231h-89l-41 -216h-111zM415 260c-24 -126 22 -183 92 -183c71 0 139 57 162 183c25 126 -21 182 -91 182c-71 0 -139 -56 -163 -182z
" />
    <glyph glyph-name="afii10097" unicode="&#x44f;" horiz-adv-x="525" 
d="M342 520h223l-99 -520h-108l36 190h-33c-72 0 -107 -28 -146 -82l-77 -108h-128l91 124c39 51 83 91 130 97c-84 4 -131 57 -115 140c20 105 114 159 226 159zM410 277l30 154h-93c-76 0 -109 -31 -117 -74c-12 -64 36 -80 113 -80h67z" />
    <glyph glyph-name="afii10017" unicode="&#x410;" horiz-adv-x="694" 
d="M430 720h114l140 -720h-124l-30 159h-311l-89 -159h-120zM458 579l-181 -318h236z" />
    <glyph glyph-name="afii10018" unicode="&#x411;" horiz-adv-x="666" 
d="M214 720h497l-20 -106h-380l-33 -174h160c172 0 250 -77 222 -222c-32 -169 -169 -218 -311 -218h-273zM258 336l-45 -232h158c88 0 152 26 169 117c14 73 -23 115 -125 115h-157z" />
    <glyph glyph-name="afii10019" unicode="&#x412;" horiz-adv-x="677" 
d="M360 0h-284l138 720h271c146 0 241 -59 216 -187c-13 -68 -57 -131 -141 -157c81 -21 126 -83 110 -168c-30 -152 -147 -208 -310 -208zM311 621l-39 -204h142c80 0 151 26 165 104c18 84 -51 100 -138 100h-130zM252 318l-42 -219h164c91 0 158 25 174 109
c17 86 -55 110 -145 110h-151z" />
    <glyph glyph-name="afii10020" unicode="&#x413;" horiz-adv-x="563" 
d="M76 0l138 720h464l-21 -106h-346l-117 -614h-118z" />
    <glyph glyph-name="afii10021" unicode="&#x414;" horiz-adv-x="761" 
d="M259 512l41 208h483l-119 -615h80l-56 -294h-118l37 189h-479l-37 -189h-116l54 294h32c115 0 167 244 198 407zM547 105l98 509h-250l-9 -51c-36 -181 -83 -414 -183 -458h344z" />
    <glyph glyph-name="afii10022" unicode="&#x415;" horiz-adv-x="657" 
d="M594 0h-518l138 720h508l-21 -106h-390l-37 -194h340l-21 -106h-340l-40 -208h400z" />
    <glyph glyph-name="afii10024" unicode="&#x416;" horiz-adv-x="1030" 
d="M633 314l-59 -314h-118l59 314h-29c-76 0 -112 -24 -178 -120l-130 -194h-142l172 238c55 76 125 123 177 130c-42 9 -65 56 -75 84l-31 98c-17 57 -47 62 -80 62h-20l21 108h47c62 0 96 -15 128 -103l48 -141c16 -43 40 -59 86 -59h27l58 303h118l-59 -303h27
c46 0 77 16 108 59l103 141c65 88 106 103 168 103h47l-21 -108h-19c-33 0 -65 -5 -106 -62l-68 -98c-20 -28 -61 -75 -107 -84c50 -7 101 -54 127 -130l82 -238h-142l-58 194c-28 96 -55 120 -132 120h-29z" />
    <glyph glyph-name="afii10025" unicode="&#x417;" horiz-adv-x="630" 
d="M311 318l20 101h72c75 0 121 45 132 105c14 72 -41 110 -107 110c-84 0 -139 -49 -166 -127l-105 21c45 128 154 207 292 207c127 0 228 -69 203 -202c-16 -77 -68 -133 -135 -157c87 -16 121 -89 105 -170c-30 -155 -176 -221 -310 -221c-135 0 -242 60 -238 217l112 24
c0 -91 49 -141 143 -141c77 0 157 31 176 124c17 88 -54 109 -119 109h-75z" />
    <glyph glyph-name="afii10026" unicode="&#x418;" horiz-adv-x="738" 
d="M204 0h-128l138 720h118l-105 -544l444 544h128l-138 -720h-118l106 548z" />
    <glyph glyph-name="afii10027" unicode="&#x419;" horiz-adv-x="738" 
d="M637 920h87c-16 -89 -88 -167 -211 -167c-124 0 -160 79 -144 167h88c-7 -50 15 -81 73 -81c57 0 94 31 107 81zM204 0h-128l138 720h118l-105 -544l444 544h128l-138 -720h-118l106 548z" />
    <glyph glyph-name="afii10028" unicode="&#x41a;" horiz-adv-x="684" 
d="M76 0l138 720h118l-58 -303h47c46 0 75 17 107 59l110 141c68 86 116 103 178 103h44l-25 -108h-23c-33 0 -62 -6 -106 -62l-73 -98c-22 -28 -62 -75 -108 -84c50 -7 96 -57 127 -130l99 -238h-136l-75 194c-37 92 -72 120 -152 120h-35l-59 -314h-118z" />
    <glyph glyph-name="afii10029" unicode="&#x41b;" horiz-adv-x="730" 
d="M225 412l60 308h506l-138 -720h-117l117 614h-273l-35 -183c-42 -218 -78 -446 -257 -446c-31 0 -57 7 -73 17l16 111c10 -7 25 -17 50 -17c91 0 113 153 144 316z" />
    <glyph glyph-name="afii10030" unicode="&#x41c;" horiz-adv-x="884" 
d="M194 0h-118l138 720h161l96 -573l319 573h155l-138 -720h-117l103 544l-300 -544h-102l-93 544z" />
    <glyph glyph-name="afii10031" unicode="&#x41d;" horiz-adv-x="731" 
d="M194 0h-118l138 720h118l-58 -300h343l57 300h118l-138 -720h-118l60 314h-343z" />
    <glyph glyph-name="afii10032" unicode="&#x41e;" horiz-adv-x="778" 
d="M115 360c40 210 195 375 415 375c219 0 310 -165 270 -375c-41 -211 -196 -375 -415 -375c-220 0 -311 164 -270 375zM238 360c-31 -160 24 -274 167 -274c135 0 241 114 273 274c30 160 -32 274 -167 274c-136 0 -243 -114 -273 -274z" />
    <glyph glyph-name="afii10033" unicode="&#x41f;" horiz-adv-x="724" 
d="M194 0h-118l138 720h572l-138 -720h-118l117 614h-336z" />
    <glyph glyph-name="afii10034" unicode="&#x420;" horiz-adv-x="662" 
d="M194 0h-118l138 720h259c145 0 270 -53 238 -222c-28 -145 -138 -229 -317 -229h-149zM312 616l-46 -243h145c110 0 164 49 179 122c17 91 -40 121 -135 121h-143z" />
    <glyph glyph-name="afii10035" unicode="&#x421;" horiz-adv-x="736" 
d="M238 360c-31 -160 19 -274 162 -274c97 0 171 58 217 153l113 -28c-63 -136 -182 -226 -349 -226c-220 0 -307 164 -266 375c40 210 192 375 412 375c164 0 284 -91 256 -245h-116c8 100 -55 144 -159 144c-136 0 -240 -114 -270 -274z" />
    <glyph glyph-name="afii10036" unicode="&#x422;" horiz-adv-x="635" 
d="M376 0h-118l118 614h-235l20 106h588l-21 -106h-235z" />
    <glyph glyph-name="afii10037" unicode="&#x423;" horiz-adv-x="669" 
d="M335 196l-187 524h125l141 -406l263 406h120l-371 -561c-70 -108 -127 -174 -231 -174c-35 0 -85 11 -105 41l51 92c15 -13 38 -30 68 -30c37 0 67 17 99 66z" />
    <glyph glyph-name="afii10038" unicode="&#x424;" horiz-adv-x="830" 
d="M470 -15h-118l19 96c-181 2 -304 85 -266 279c36 193 191 275 373 278l19 97h118l-19 -97c181 -3 302 -85 266 -278c-38 -194 -191 -277 -374 -279zM739 360c25 134 -58 174 -163 176l-67 -352c96 2 204 40 230 176zM228 360c-27 -136 57 -174 163 -176l67 352
c-98 -2 -205 -42 -230 -176z" />
    <glyph glyph-name="afii10039" unicode="&#x425;" horiz-adv-x="699" 
d="M158 0h-138l342 373l-176 347h132l122 -259l231 259h131l-314 -346l191 -374h-132l-138 284z" />
    <glyph glyph-name="afii10040" unicode="&#x426;" horiz-adv-x="757" 
d="M661 720h118l-119 -615h80l-56 -294h-118l37 189h-527l138 720h118l-119 -614h330z" />
    <glyph glyph-name="afii10041" unicode="&#x427;" horiz-adv-x="665" 
d="M726 720l-138 -720h-118l55 291c-67 -32 -130 -44 -197 -44c-188 0 -219 116 -186 288l36 185h118l-34 -176c-25 -126 -14 -195 106 -195c63 0 121 11 177 40l63 331h118z" />
    <glyph glyph-name="afii10042" unicode="&#x428;" horiz-adv-x="945" 
d="M888 720h118l-138 -720h-792l138 720h118l-119 -614h220l118 614h118l-119 -614h220z" />
    <glyph glyph-name="afii10043" unicode="&#x429;" horiz-adv-x="984" 
d="M1006 720l-119 -615h80l-56 -294h-118l37 189h-754l138 720h118l-119 -614h220l118 614h118l-119 -614h220l118 614h118z" />
    <glyph glyph-name="afii10044" unicode="&#x42a;" horiz-adv-x="756" 
d="M434 720l-53 -273h143c179 0 256 -81 228 -226c-32 -168 -177 -221 -322 -221h-252l117 614h-158l21 106h276zM362 347l-47 -243h137c95 0 163 30 180 120c15 73 -21 123 -131 123h-139z" />
    <glyph glyph-name="afii10045" unicode="&#x42b;" horiz-adv-x="904" 
d="M828 0h-118l138 720h118zM214 720h118l-53 -273h149c179 0 257 -81 229 -226c-32 -168 -177 -221 -322 -221h-259zM260 347l-47 -243h144c95 0 163 30 180 120c14 73 -22 123 -131 123h-146z" />
    <glyph glyph-name="afii10046" unicode="&#x42c;" horiz-adv-x="660" 
d="M214 720h118l-53 -273h149c179 0 257 -81 229 -226c-32 -168 -177 -221 -322 -221h-259zM260 347l-47 -243h144c95 0 163 30 180 120c14 73 -22 123 -131 123h-146z" />
    <glyph glyph-name="afii10047" unicode="&#x42d;" horiz-adv-x="736" 
d="M338 318l20 99h285c13 129 -41 217 -160 217c-104 0 -185 -57 -224 -154l-111 28c62 141 191 227 355 227c223 0 296 -165 256 -375c-42 -211 -183 -375 -410 -375c-167 0 -253 90 -263 226l124 28c9 -95 61 -153 159 -153c129 0 222 93 255 232h-286z" />
    <glyph glyph-name="afii10048" unicode="&#x42e;" horiz-adv-x="1028" 
d="M194 0h-118l138 720h118l-58 -300h133c55 181 195 315 387 315c213 0 297 -165 257 -375c-42 -211 -189 -375 -402 -375c-198 0 -284 141 -264 329h-132zM515 360c-31 -160 17 -274 153 -274c129 0 229 114 260 274c30 160 -25 274 -154 274s-229 -114 -259 -274z" />
    <glyph glyph-name="afii10049" unicode="&#x42f;" horiz-adv-x="690" 
d="M751 720l-138 -720h-117l52 276h-74c-101 0 -161 -54 -231 -155l-81 -121h-149l119 167c46 63 106 126 183 143c-107 12 -166 85 -145 195c31 160 171 215 319 215h262zM568 378l45 236h-130c-95 0 -175 -22 -193 -117c-16 -80 33 -119 146 -119h132z" />
    <glyph glyph-name="a" unicode="a" horiz-adv-x="528" 
d="M371 60c-59 -55 -118 -75 -180 -75c-96 0 -167 48 -147 150c22 112 115 156 237 169c55 5 108 14 136 26l3 17c13 64 -21 98 -88 98c-62 0 -105 -37 -130 -94l-95 27c49 120 152 157 251 157c137 0 197 -67 170 -208l-43 -221c-11 -53 -6 -87 9 -106h-112
c-14 14 -13 38 -11 60zM382 149l20 104c-24 -9 -71 -20 -123 -28c-54 -9 -109 -23 -120 -84c-9 -51 22 -70 69 -70c60 0 124 43 154 78z" />
    <glyph glyph-name="b" unicode="b" horiz-adv-x="562" 
d="M194 720h111l-48 -252c39 44 89 67 144 67c137 0 204 -106 172 -275s-139 -275 -276 -275c-66 0 -107 32 -128 82l-12 -67h-101zM205 260c-23 -122 30 -183 96 -183c72 0 137 61 161 183c24 121 -18 182 -91 182c-74 0 -142 -61 -166 -182z" />
    <glyph glyph-name="c" unicode="c" horiz-adv-x="522" 
d="M179 260c-24 -126 22 -183 96 -183c56 0 105 32 136 107l104 -21c-51 -119 -147 -178 -259 -178c-140 0 -222 96 -188 275c35 179 154 275 294 275c116 0 209 -59 186 -194h-108c10 74 -35 101 -95 101c-73 0 -142 -56 -166 -182z" />
    <glyph glyph-name="d" unicode="d" horiz-adv-x="552" 
d="M514 720h111l-138 -720h-101l12 67c-39 -50 -93 -82 -159 -82c-137 0 -202 106 -170 275s141 275 278 275c55 0 98 -23 119 -67zM436 260c24 121 -20 182 -94 182c-73 0 -138 -61 -162 -182c-24 -122 20 -183 92 -183c65 0 141 61 164 183z" />
    <glyph glyph-name="e" unicode="e" horiz-adv-x="526" 
d="M526 152c-55 -111 -149 -167 -266 -167c-141 0 -226 96 -192 275c35 179 158 275 298 275c121 0 192 -71 190 -154c-3 -117 -100 -151 -213 -151h-169c-15 -106 39 -153 111 -153c56 0 112 35 140 97zM347 442c-58 0 -125 -41 -155 -130h163c55 0 89 18 90 67
c1 42 -47 63 -98 63z" />
    <glyph glyph-name="f" unicode="f" horiz-adv-x="354" 
d="M-63 -199l35 93c16 -5 24 -6 34 -6c56 0 79 52 89 105l85 440h-78l16 87h78l4 21c21 110 85 177 188 177c37 0 77 -8 92 -16l-34 -90c-13 6 -39 10 -55 10c-47 0 -72 -27 -83 -79l-4 -23h105l-17 -87h-104l-89 -461c-21 -106 -81 -182 -192 -182c-23 0 -50 4 -70 11z" />
    <glyph glyph-name="g" unicode="g" horiz-adv-x="544" 
d="M490 33c-24 -129 -100 -253 -283 -253c-96 0 -183 43 -178 130c4 49 41 96 120 99c-74 38 -106 127 -82 253c33 169 139 273 276 273c66 0 107 -33 128 -83l12 68h101zM435 262c24 121 -30 180 -95 180c-72 0 -138 -59 -162 -180c-23 -122 19 -181 93 -181
c73 0 140 59 164 181zM240 -12c-28 0 -52 5 -74 13c-16 -10 -36 -28 -38 -58c-4 -56 49 -73 96 -73c88 0 138 61 153 148l6 33c-38 -40 -88 -63 -143 -63z" />
    <glyph glyph-name="h" unicode="h" horiz-adv-x="559" 
d="M167 0h-111l138 720h111l-52 -269c43 57 97 84 165 84c144 0 165 -92 142 -216l-61 -319h-111l60 315c15 79 -2 126 -73 126c-72 0 -134 -55 -155 -158z" />
    <glyph glyph-name="i" unicode="i" horiz-adv-x="232" 
d="M284 607h-111l21 113h111zM167 0h-111l99 520h111z" />
    <glyph glyph-name="j" unicode="j" horiz-adv-x="236" 
d="M-94 -199l36 93c16 -5 24 -6 34 -6c56 0 72 52 82 105l101 527h111l-105 -548c-21 -106 -77 -182 -187 -182c-24 0 -52 4 -72 11zM287 607h-111l22 113h111z" />
    <glyph glyph-name="k" unicode="k" horiz-adv-x="538" 
d="M56 0l138 720h111l-80 -411h29c30 0 52 5 85 43c23 26 61 95 73 111c40 52 81 57 144 57h22l-24 -101h-22c-43 0 -51 -21 -74 -58c-31 -50 -61 -80 -102 -90l-1 -4c36 -9 65 -43 87 -94l60 -173h-126l-50 156c-16 43 -43 60 -83 60h-35l-41 -216h-111z" />
    <glyph glyph-name="l" unicode="l" horiz-adv-x="235" 
d="M167 0h-111l133 695l119 40z" />
    <glyph glyph-name="m" unicode="m" horiz-adv-x="842" 
d="M167 0h-111l99 520h102l-14 -74c48 64 102 89 171 89c76 0 120 -35 129 -96c47 69 110 96 175 96c104 0 151 -63 128 -179l-67 -356h-111l62 323c12 64 8 118 -59 118c-77 0 -125 -62 -141 -144l-56 -297h-111l63 330c14 74 -8 111 -60 111c-90 0 -130 -81 -148 -172z
" />
    <glyph glyph-name="n" unicode="n" horiz-adv-x="559" 
d="M167 0h-111l99 520h102l-14 -75c50 64 107 90 175 90c144 0 165 -92 142 -216l-61 -319h-111l60 315c15 79 -2 126 -73 126c-72 0 -134 -55 -155 -158z" />
    <glyph glyph-name="o" unicode="o" horiz-adv-x="546" 
d="M68 260c35 179 159 275 301 275s231 -96 195 -275c-34 -179 -159 -275 -301 -275s-229 96 -195 275zM179 260c-24 -126 27 -183 102 -183c76 0 149 57 172 183c25 126 -26 182 -101 182c-76 0 -149 -56 -173 -182z" />
    <glyph glyph-name="p" unicode="p" horiz-adv-x="557" 
d="M127 -200h-111l138 720h101l-12 -68c39 50 93 83 159 83c137 0 202 -106 170 -275s-141 -275 -278 -275c-55 0 -98 23 -119 66zM204 260c-23 -122 22 -183 95 -183c74 0 138 61 162 183c24 121 -19 182 -91 182c-65 0 -142 -61 -166 -182z" />
    <glyph glyph-name="q" unicode="q" horiz-adv-x="550" 
d="M448 -200h-111l48 251c-39 -43 -89 -66 -144 -66c-137 0 -205 106 -172 275c32 169 139 275 276 275c65 0 107 -33 128 -83l12 68h101zM436 260c24 121 -29 182 -94 182c-72 0 -138 -61 -162 -182c-24 -122 18 -183 92 -183c73 0 141 61 164 183z" />
    <glyph glyph-name="r" unicode="r" horiz-adv-x="429" 
d="M167 0h-111l99 520h102l-17 -90c46 70 94 105 162 105c40 0 66 -8 87 -27l-44 -99c-18 13 -35 22 -66 22c-86 0 -143 -67 -162 -168z" />
    <glyph glyph-name="s" unicode="s" horiz-adv-x="498" 
d="M58 150l103 16c-2 -52 28 -92 103 -92c48 0 112 15 122 67c7 34 -8 52 -49 63l-126 32c-65 17 -118 55 -102 141c23 112 127 158 237 158c124 0 189 -70 168 -166h-99c6 55 -32 77 -89 77c-56 0 -107 -22 -114 -61c-7 -29 16 -45 44 -52l133 -33c59 -16 121 -52 102 -152
c-22 -115 -132 -163 -247 -163c-127 0 -197 63 -186 165z" />
    <glyph glyph-name="t" unicode="t" horiz-adv-x="334" 
d="M297 93l-7 -91c-22 -7 -60 -12 -79 -12c-109 0 -121 60 -102 162l55 281h-74l16 87h74l24 126l119 43l-32 -169h93l-17 -87h-92l-52 -269c-9 -45 -15 -77 32 -77c10 0 25 1 42 6z" />
    <glyph glyph-name="u" unicode="u" horiz-adv-x="543" 
d="M472 520h111l-99 -520h-102l14 75c-50 -59 -108 -90 -176 -90c-144 0 -165 92 -141 216l61 319h111l-60 -315c-15 -80 -5 -127 66 -127c72 0 141 55 161 159z" />
    <glyph glyph-name="v" unicode="v" horiz-adv-x="516" 
d="M299 0h-99l-104 520h113l64 -388l215 388h111z" />
    <glyph glyph-name="w" unicode="w" horiz-adv-x="745" 
d="M257 0h-107l-58 520h112l28 -391l175 391h105l25 -380l181 380h106l-261 -520h-105l-24 381z" />
    <glyph glyph-name="x" unicode="x" horiz-adv-x="531" 
d="M138 0h-128l233 266l-122 254h129l74 -174l141 174h126l-219 -251l134 -269h-126l-87 186z" />
    <glyph glyph-name="y" unicode="y" horiz-adv-x="524" 
d="M3 -198l9 97c16 -6 39 -11 61 -11c39 0 80 19 110 71l27 46l-103 515h114l67 -383l211 383h109l-319 -567c-58 -101 -125 -163 -214 -163c-24 0 -55 5 -72 12z" />
    <glyph glyph-name="z" unicode="z" horiz-adv-x="494" 
d="M428 0h-398l17 92l337 335h-254l18 93h386l-17 -93l-343 -335h308z" />
    <glyph glyph-name="A" unicode="A" horiz-adv-x="694" 
d="M430 720h114l140 -720h-124l-30 159h-311l-89 -159h-120zM458 579l-181 -318h236z" />
    <glyph glyph-name="B" unicode="B" horiz-adv-x="681" 
d="M363 0h-287l138 720h275c146 0 241 -59 216 -187c-13 -68 -58 -131 -142 -157c81 -21 126 -83 110 -168c-30 -152 -147 -208 -310 -208zM311 621l-39 -204h146c79 0 151 26 165 104c17 84 -51 100 -138 100h-134zM252 318l-42 -219h168c91 0 157 25 173 109
c17 86 -55 110 -144 110h-155z" />
    <glyph glyph-name="C" unicode="C" horiz-adv-x="736" 
d="M238 360c-31 -160 19 -274 162 -274c97 0 171 58 217 153l113 -28c-63 -136 -182 -226 -349 -226c-220 0 -307 164 -266 375c40 210 192 375 412 375c164 0 284 -91 256 -245h-116c8 100 -55 144 -159 144c-136 0 -240 -114 -270 -274z" />
    <glyph glyph-name="D" unicode="D" horiz-adv-x="711" 
d="M317 0h-241l138 720h230c235 0 333 -126 289 -358c-44 -225 -181 -362 -416 -362zM311 614l-98 -509h108c162 0 257 78 291 258c38 197 -52 251 -196 251h-105z" />
    <glyph glyph-name="E" unicode="E" horiz-adv-x="660" 
d="M594 0h-518l138 720h508l-21 -106h-390l-37 -194h340l-21 -106h-340l-40 -208h400z" />
    <glyph glyph-name="F" unicode="F" horiz-adv-x="620" 
d="M194 0h-118l138 720h494l-21 -106h-376l-37 -194h316l-21 -106h-316z" />
    <glyph glyph-name="G" unicode="G" horiz-adv-x="760" 
d="M238 360c-31 -160 34 -274 180 -274c72 0 153 24 196 67l23 121h-190l18 98h305l-50 -260c-66 -75 -196 -127 -323 -127c-223 0 -323 164 -282 375c40 210 199 375 422 375c164 0 283 -87 254 -238h-117c17 97 -65 137 -158 137c-139 0 -248 -114 -278 -274z" />
    <glyph glyph-name="H" unicode="H" horiz-adv-x="734" 
d="M194 0h-118l138 720h118l-58 -300h346l58 300h118l-138 -720h-118l59 314h-346z" />
    <glyph glyph-name="I" unicode="I" horiz-adv-x="271" 
d="M194 0h-118l138 720h118z" />
    <glyph glyph-name="J" unicode="J" horiz-adv-x="536" 
d="M59 203l113 16c-12 -73 1 -133 79 -133c89 0 119 68 135 151l93 483h118l-95 -489c-32 -167 -132 -246 -270 -246c-131 0 -204 75 -173 218z" />
    <glyph glyph-name="K" unicode="K" horiz-adv-x="709" 
d="M194 0h-118l138 720h118l-67 -348l383 348h146l-351 -309l230 -411h-147l-176 330l-112 -99z" />
    <glyph glyph-name="L" unicode="L" horiz-adv-x="618" 
d="M588 0h-512l138 720h118l-119 -614h395z" />
    <glyph glyph-name="M" unicode="M" horiz-adv-x="884" 
d="M194 0h-118l138 720h161l96 -573l319 573h155l-138 -720h-117l103 544l-300 -544h-102l-93 544z" />
    <glyph glyph-name="N" unicode="N" horiz-adv-x="740" 
d="M190 0h-114l138 720h120l251 -529l102 529h114l-138 -720h-120l-252 529z" />
    <glyph glyph-name="O" unicode="O" horiz-adv-x="778" 
d="M115 360c40 210 195 375 415 375c219 0 310 -165 270 -375c-41 -211 -196 -375 -415 -375c-220 0 -311 164 -270 375zM238 360c-31 -160 24 -274 167 -274c135 0 241 114 273 274c30 160 -32 274 -167 274c-136 0 -243 -114 -273 -274z" />
    <glyph glyph-name="P" unicode="P" horiz-adv-x="662" 
d="M194 0h-118l138 720h259c145 0 270 -53 238 -222c-28 -145 -138 -229 -317 -229h-149zM312 616l-46 -243h145c110 0 164 49 179 122c17 91 -40 121 -135 121h-143z" />
    <glyph glyph-name="Q" unicode="Q" horiz-adv-x="778" 
d="M115 360c40 210 195 375 415 375c219 0 310 -165 270 -375c-21 -107 -72 -203 -144 -270l55 -80l-93 -69l-57 84c-52 -25 -112 -40 -176 -40c-220 0 -311 164 -270 375zM446 192l91 70l56 -83c41 47 70 110 85 181c30 160 -32 274 -167 274c-136 0 -243 -114 -273 -274
c-31 -160 24 -274 167 -274c35 0 68 8 98 23z" />
    <glyph glyph-name="R" unicode="R" horiz-adv-x="690" 
d="M76 0l138 720h256c148 0 265 -54 234 -213c-22 -110 -98 -176 -217 -194c69 -17 107 -83 128 -146l58 -167h-133l-41 121c-31 101 -70 155 -170 155h-83l-52 -276h-118zM311 614l-44 -236h125c109 0 174 39 190 119c18 93 -52 117 -147 117h-124z" />
    <glyph glyph-name="S" unicode="S" horiz-adv-x="659" 
d="M89 230l116 8c-13 -105 47 -152 149 -152c90 0 159 41 172 111c8 45 -8 76 -61 97c-34 14 -140 41 -180 55c-120 40 -128 109 -115 177c27 141 165 209 290 209c163 0 256 -73 226 -221h-115c13 78 -31 120 -127 120c-72 0 -146 -32 -159 -99c-7 -34 5 -60 41 -74
c31 -13 120 -40 185 -59c100 -30 161 -86 139 -200c-29 -148 -181 -217 -311 -217c-185 0 -271 85 -250 245z" />
    <glyph glyph-name="T" unicode="T" horiz-adv-x="635" 
d="M376 0h-118l118 614h-235l20 106h588l-21 -106h-235z" />
    <glyph glyph-name="U" unicode="U" horiz-adv-x="733" 
d="M597 304l80 416h118l-80 -418c-37 -189 -155 -317 -352 -317c-195 0 -265 128 -229 317l80 418h118l-80 -416c-27 -138 13 -213 132 -213s186 75 213 213z" />
    <glyph glyph-name="V" unicode="V" horiz-adv-x="698" 
d="M403 0h-113l-140 720h124l100 -580l330 580h120z" />
    <glyph glyph-name="W" unicode="W" horiz-adv-x="971" 
d="M323 0h-129l-44 720h121l21 -584l262 584h139l44 -584l240 584h121l-321 -720h-128l-50 593z" />
    <glyph glyph-name="X" unicode="X" horiz-adv-x="699" 
d="M158 0h-138l342 373l-176 347h132l122 -259l231 259h131l-314 -346l191 -374h-132l-138 284z" />
    <glyph glyph-name="Y" unicode="Y" horiz-adv-x="685" 
d="M402 0h-118l57 299l-193 421h136l140 -316l258 316h131l-354 -421z" />
    <glyph glyph-name="Z" unicode="Z" horiz-adv-x="668" 
d="M612 0h-556l20 106l506 508h-388l20 106h526l-21 -106l-512 -508h424z" />
    <glyph glyph-name="afii10068" unicode="&#x433;" horiz-adv-x="470" 
d="M467 150c-28 -102 -117 -165 -238 -165c-104 0 -195 48 -176 163c16 100 95 136 160 152l133 34c30 7 51 22 58 51c8 39 -24 61 -81 61c-49 0 -88 -24 -105 -77l-100 8c24 96 105 158 219 158c101 0 191 -46 169 -158c-16 -86 -81 -122 -153 -140l-125 -32
c-43 -11 -67 -30 -71 -64c-7 -52 44 -67 85 -67c69 0 112 40 129 92z" />
    <glyph glyph-name="zero" unicode="0" 
d="M110 360c43 213 141 375 317 375s213 -162 170 -375c-41 -214 -139 -375 -315 -375s-213 161 -172 375zM490 360c12 61 19 119 15 164l-264 -423c14 -16 33 -24 58 -24c99 0 161 126 191 283zM218 360c-11 -61 -19 -118 -15 -163l264 422c-14 16 -33 23 -58 23
c-98 0 -160 -126 -191 -282z" />
    <glyph glyph-name="one" unicode="1" 
d="M522 720l-139 -720h-116l102 523c-34 -50 -96 -91 -174 -91l21 106c105 10 192 100 222 182h84z" />
    <glyph glyph-name="two" unicode="2" 
d="M202 106h326l-20 -106h-462c32 181 143 243 280 336c99 67 159 118 172 186c14 67 -21 112 -91 112c-73 0 -129 -51 -147 -136l-105 14c34 136 135 223 273 223c132 0 208 -75 181 -215c-22 -109 -129 -198 -228 -260c-86 -54 -162 -102 -179 -154z" />
    <glyph glyph-name="three" unicode="3" 
d="M315 441h46c65 0 106 45 118 103c11 58 -19 96 -78 96c-68 0 -116 -51 -129 -119l-107 16c34 122 135 198 254 198s201 -62 176 -185c-15 -78 -67 -128 -137 -151c82 -23 117 -96 98 -191c-26 -133 -140 -223 -280 -223c-136 0 -216 80 -197 204l118 13
c-9 -67 24 -116 98 -116c77 0 135 53 149 127c15 74 -18 132 -102 132h-45z" />
    <glyph glyph-name="four" unicode="4" 
d="M441 0h-116l31 160h-292l20 105l396 455h100l-88 -455h94l-20 -105h-94zM196 265h180l53 270z" />
    <glyph glyph-name="five" unicode="5" 
d="M73 187l113 15c-4 -70 33 -116 103 -116c87 0 146 69 163 154s-19 144 -106 144c-54 0 -93 -21 -130 -63l-101 13l144 386h365l-20 -106h-281l-65 -170c38 29 86 41 133 41c143 0 205 -109 179 -245c-28 -142 -141 -255 -301 -255c-127 0 -211 76 -196 202z" />
    <glyph glyph-name="six" unicode="6" 
d="M607 560l-107 -20c-3 62 -28 96 -82 96c-110 0 -170 -135 -195 -253c47 62 104 82 164 82c141 0 199 -108 175 -233c-26 -131 -129 -247 -274 -247c-199 0 -216 166 -180 350c50 259 167 400 328 400c123 0 172 -72 171 -175zM203 226c-15 -79 22 -140 96 -140
c82 0 135 61 150 140c16 78 -13 140 -95 140c-69 0 -135 -62 -151 -140z" />
    <glyph glyph-name="seven" unicode="7" 
d="M503 614h-331l20 106h452l-20 -106c-175 -166 -296 -384 -354 -614h-117c46 214 187 459 350 614z" />
    <glyph glyph-name="eight" unicode="8" 
d="M87 201c18 95 80 164 169 198c-58 25 -89 73 -74 151c23 114 125 185 244 185s195 -71 172 -185c-15 -78 -63 -126 -131 -151c77 -34 111 -103 93 -198c-25 -130 -139 -216 -279 -216s-219 86 -194 216zM203 215c-15 -76 20 -129 97 -129s135 53 150 129
c14 77 -22 130 -99 130s-134 -53 -148 -130zM290 541c-12 -58 17 -103 78 -103c62 0 108 45 120 103s-18 103 -79 103c-62 0 -107 -45 -119 -103z" />
    <glyph glyph-name="nine" unicode="9" 
d="M92 159l106 21c4 -62 39 -96 92 -96c111 0 165 137 186 256c-44 -52 -102 -79 -169 -79c-134 0 -193 108 -169 233c26 131 133 241 272 241c198 0 220 -156 182 -350c-51 -263 -160 -400 -321 -400c-123 0 -180 71 -179 174zM496 497c16 79 -22 137 -96 137
c-82 0 -138 -58 -153 -137c-15 -78 18 -137 100 -137c69 0 134 59 149 137z" />
    <glyph glyph-name="comma" unicode="," horiz-adv-x="248" 
d="M127 0h-60l22 117h118l-22 -117c-15 -76 -57 -123 -117 -147l-19 46c38 15 66 40 78 101z" />
    <glyph glyph-name="period" unicode="." horiz-adv-x="238" 
d="M175 0h-112l21 117h112z" />
    <glyph glyph-name="hyphen" unicode="-" horiz-adv-x="370" 
d="M360 208h-270l20 104h270z" />
    <glyph glyph-name="endash" unicode="&#x2013;" horiz-adv-x="556" 
d="M561 216h-483l18 93h483z" />
    <glyph glyph-name="emdash" unicode="&#x2014;" horiz-adv-x="638" 
d="M676 216h-635l19 93h635z" />
    <glyph glyph-name="exclam" unicode="!" horiz-adv-x="246" 
d="M198 195h-77l80 525h120zM179 0h-112l21 117h112z" />
    <glyph glyph-name="question" unicode="?" 
d="M366 187h-106l6 33c16 81 53 137 126 182c51 31 92 71 102 125c15 76 -30 107 -95 107c-60 0 -118 -41 -142 -127l-104 17c38 132 144 211 264 211c138 0 218 -79 194 -202c-19 -98 -89 -145 -158 -196c-51 -37 -69 -63 -82 -120zM338 0h-118l22 117h118z" />
    <glyph glyph-name=".grave" horiz-adv-x="500" 
d="M4225 260c0 -142 69 -200 148 -200c61 0 110 35 129 117l87 -19c-28 -110 -104 -173 -216 -173c-144 0 -238 103 -238 275s94 275 238 275c112 0 188 -64 216 -173l-87 -20c-19 83 -68 118 -129 118c-69 0 -148 -58 -148 -200zM4511 260c0 31 -3 59 -9 82l-55 -12v-140
l55 -13c6 24 9 51 9 83zM4625 150v220l-36 -8c7 -31 12 -65 12 -102c0 -38 -5 -72 -12 -102z" />
    <glyph glyph-name="afii10065" unicode="&#x430;" horiz-adv-x="528" 
d="M371 60c-59 -55 -118 -75 -180 -75c-96 0 -167 48 -147 150c22 112 115 156 237 169c55 5 108 14 136 26l3 17c13 64 -21 98 -88 98c-62 0 -105 -37 -130 -94l-95 27c49 120 152 157 251 157c137 0 197 -67 170 -208l-43 -221c-11 -53 -6 -87 9 -106h-112
c-14 14 -13 38 -11 60zM382 149l20 104c-24 -9 -71 -20 -123 -28c-54 -9 -109 -23 -120 -84c-9 -51 22 -70 69 -70c60 0 124 43 154 78z" />
    <glyph glyph-name="afii10066" unicode="&#x431;" horiz-adv-x="549" 
d="M646 737l-33 -110c-17 -14 -51 -18 -73 -20l-134 -10c-115 -9 -176 -93 -199 -169c55 66 126 86 189 86c135 0 207 -96 176 -261c-33 -170 -158 -268 -300 -268c-139 0 -234 86 -191 311c31 160 115 391 345 408l145 12c29 2 58 8 75 21zM186 249
c-25 -124 32 -172 104 -172s146 48 170 172c24 125 -32 171 -104 171c-65 0 -146 -46 -170 -171z" />
    <glyph glyph-name="afii10067" unicode="&#x432;" horiz-adv-x="475" 
d="M506 386c-7 -50 -43 -97 -101 -115c65 -18 83 -79 72 -131c-20 -93 -107 -155 -220 -155c-178 0 -221 124 -184 291c36 162 123 259 269 259c91 0 178 -45 164 -149zM397 375c9 48 -31 71 -72 71c-48 0 -105 -33 -130 -123l-4 -13h80c57 0 114 4 126 65zM366 145
c8 46 -11 76 -88 76h-107l-2 -11c-18 -98 24 -136 95 -136c54 0 95 31 102 71z" />
    <glyph glyph-name="periodcentered" unicode="&#xb7;" horiz-adv-x="238" 
d="M214 203h-112l23 118h112z" />
    <glyph glyph-name="afii10071" unicode="&#x451;" horiz-adv-x="526" 
d="M526 152c-55 -111 -149 -167 -266 -167c-141 0 -226 96 -192 275c35 179 158 275 298 275c121 0 192 -71 190 -154c-3 -117 -100 -151 -213 -151h-169c-15 -106 39 -153 111 -153c56 0 112 35 140 97zM347 442c-58 0 -125 -41 -155 -130h163c55 0 89 18 90 67
c1 42 -47 63 -98 63zM332 606h-112l21 114h112zM541 606h-112l21 114h112z" />
    <glyph glyph-name="afii10023" unicode="&#x401;" horiz-adv-x="657" 
d="M594 0h-518l138 720h508l-21 -106h-390l-37 -194h340l-21 -106h-340l-40 -208h400zM423 806h-112l21 114h112zM637 806h-112l21 114h112z" />
    <glyph glyph-name="underscore" unicode="_" horiz-adv-x="682" 
d="M619 0h-556l17 92h556z" />
    <glyph glyph-name="colon" unicode=":" horiz-adv-x="238" 
d="M240 335h-112l22 117h112zM188 71h-112l23 118h112z" />
    <glyph glyph-name="ellipsis" unicode="&#x2026;" horiz-adv-x="606" 
d="M175 0h-112l22 117h112zM359 0h-112l22 117h112zM543 0h-112l22 117h112z" />
    <glyph glyph-name="plus" unicode="+" 
d="M394 316l-40 -202h-96l40 202h-187l18 93h186l39 201h96l-39 -201h188l-18 -93h-187z" />
    <glyph glyph-name="equal" unicode="=" 
d="M556 224h-456l19 96h456zM591 405h-456l19 96h456z" />
    <glyph glyph-name="quotedbl" unicode="&#x22;" horiz-adv-x="420" 
d="M255 482h-77l24 238h120zM429 482h-77l24 238h120z" />
    <glyph glyph-name="quotesingle" unicode="'" horiz-adv-x="246" 
d="M255 482h-77l24 238h120z" />
    <glyph glyph-name="bar" unicode="|" horiz-adv-x="264" 
d="M251 -100h-118v920h118v-920z" />
    <glyph glyph-name="brokenbar" unicode="&#xa6;" horiz-adv-x="264" 
d="M251 -100h-118v425h118v-425zM133 410v410h118v-410h-118z" />
    <glyph glyph-name="bracketleft" unicode="[" horiz-adv-x="344" 
d="M288 -114h-238l182 934h238l-20 -103h-122l-141 -729h122z" />
    <glyph glyph-name="bracketright" unicode="]" horiz-adv-x="344" 
d="M248 -114h-237l20 102h122l141 729h-122l20 103h238z" />
    <glyph glyph-name="slash" unicode="/" horiz-adv-x="359" 
d="M92 -100h-111l424 920h113z" />
    <glyph glyph-name="backslash" unicode="\" horiz-adv-x="359" 
d="M339 -100h-112l-68 920h113z" />
    <glyph glyph-name="semicolon" unicode=";" horiz-adv-x="238" 
d="M240 335h-112l22 117h112zM123 0h-60l22 117h118l-22 -117c-15 -76 -56 -123 -116 -147l-20 46c38 15 66 40 78 101z" />
    <glyph glyph-name="quotesinglbase" unicode="&#x201a;" horiz-adv-x="248" 
d="M127 0h-60l22 117h118l-22 -117c-15 -76 -57 -123 -117 -147l-19 46c38 15 66 40 78 101z" />
    <glyph glyph-name="quotedblbase" unicode="&#x201e;" horiz-adv-x="415" 
d="M127 0h-60l22 117h118l-22 -117c-15 -76 -57 -123 -117 -147l-19 46c38 15 66 40 78 101zM294 0h-60l23 117h118l-23 -117c-15 -76 -56 -123 -116 -147l-20 46c38 15 66 40 78 101z" />
    <glyph glyph-name="quotedblright" unicode="&#x201d;" horiz-adv-x="415" 
d="M243 602h-60l23 118h118l-23 -118c-14 -75 -56 -123 -116 -147l-19 47c38 15 66 40 77 100zM411 602h-60l22 118h118l-22 -118c-15 -75 -57 -123 -116 -147l-19 47c38 15 66 40 77 100z" />
    <glyph glyph-name="quotedblleft" unicode="&#x201c;" horiz-adv-x="415" 
d="M402 588h60l-23 -118h-118l23 118c15 76 57 123 116 147l20 -47c-38 -15 -67 -40 -78 -100zM235 588h60l-23 -118h-118l23 118c15 76 56 123 115 147l20 -47c-38 -15 -66 -40 -77 -100z" />
    <glyph glyph-name="quoteleft" unicode="&#x2018;" horiz-adv-x="248" 
d="M238 588h60l-22 -118h-118l22 118c15 76 56 123 116 147l19 -47c-38 -15 -66 -40 -77 -100z" />
    <glyph glyph-name="quoteright" unicode="&#x2019;" horiz-adv-x="248" 
d="M127 602h-60v118h118v-118c0 -75 -33 -123 -88 -147l-28 47c35 15 58 40 58 100z" />
    <glyph glyph-name="numbersign" unicode="#" horiz-adv-x="605" 
d="M354 0h-110l94 194h-91l-94 -194h-110l94 194h-100l45 93h99l72 151h-104l45 92h103l91 190h111l-91 -190h90l91 190h111l-91 -190h99l-45 -92h-98l-73 -151h104l-45 -93h-103zM364 438l-73 -151h91l72 151h-90z" />
    <glyph glyph-name="guillemotright" unicode="&#xbb;" horiz-adv-x="432" 
d="M209 432l83 -169l-148 -169h-93l127 169l-62 169h93zM367 432l83 -169l-148 -169h-94l127 169l-62 169h94z" />
    <glyph glyph-name="guillemotleft" unicode="&#xab;" horiz-adv-x="432" 
d="M241 263l147 169h94l-126 -169l61 -169h-94zM84 263l147 169h93l-126 -169l61 -169h-93z" />
    <glyph glyph-name="guilsinglleft" unicode="&#x2039;" horiz-adv-x="315" 
d="M84 263l167 169h114l-166 -169l101 -169h-114z" />
    <glyph glyph-name="guilsinglright" unicode="&#x203a;" horiz-adv-x="315" 
d="M230 432l103 -169l-168 -169h-114l167 169l-102 169h114z" />
    <glyph glyph-name="less" unicode="&#x3c;" 
d="M157 294l21 111l424 229l-23 -120l-315 -163l252 -165l-24 -121z" />
    <glyph glyph-name="greater" unicode="&#x3e;" 
d="M558 405l-21 -111l-425 -229l24 121l315 165l-252 163l23 120z" />
    <glyph glyph-name="dollar" unicode="$" 
d="M386 733l17 87h75l-17 -88c111 -14 166 -85 149 -218c-39 -2 -79 -5 -118 -7c5 63 -5 108 -51 122l-40 -205c118 -29 197 -92 172 -222c-26 -131 -137 -209 -257 -216l-17 -86h-75l17 88c-132 18 -179 105 -163 235c39 3 78 5 117 8c-10 -81 14 -124 66 -139l47 236
c-153 37 -161 123 -146 198c24 127 125 195 224 207zM451 197c9 48 -6 83 -50 104c-7 3 -15 6 -22 9l-44 -223c57 8 103 43 116 110zM277 535c-8 -44 8 -72 53 -92l36 187c-45 -10 -78 -41 -89 -95z" />
    <glyph glyph-name="Euro" unicode="&#x20ac;" 
d="M429 395h-145l-7 -35l-5 -30h145l-15 -75h-142c-11 -107 6 -171 81 -171c68 0 105 56 136 147l110 -18c-50 -142 -134 -228 -265 -228c-145 0 -192 109 -177 270h-93l15 75h88l5 30l7 35h-88l15 75h93c49 158 137 265 280 265c131 0 184 -88 177 -230l-117 -19
c5 93 -10 150 -79 150c-73 0 -117 -67 -145 -166h141z" />
    <glyph glyph-name="asciicircum" unicode="^" 
d="M368 720h111l94 -249l-115 -1l-52 160l-117 -160h-112z" />
    <glyph glyph-name="braceright" unicode="}" horiz-adv-x="329" 
d="M179 734l15 80c12 5 36 10 60 10c112 0 130 -76 109 -182l-29 -155c-13 -67 18 -90 53 -90l-17 -81c-35 0 -74 -23 -87 -90l-31 -154c-20 -106 -68 -182 -180 -182c-24 0 -46 5 -56 10l16 80h36c55 0 66 52 77 105l32 172c13 63 57 87 90 100c-28 13 -63 37 -51 100
l34 172c10 53 19 105 -35 105h-36z" />
    <glyph glyph-name="braceleft" unicode="{" horiz-adv-x="329" 
d="M451 814l-16 -80h-36c-54 0 -66 -52 -76 -105l-34 -172c-12 -63 -57 -87 -89 -100c27 -13 63 -37 50 -100l-33 -172c-10 -53 -19 -105 36 -105h36l-16 -80c-12 -5 -36 -10 -60 -10c-112 0 -130 76 -110 182l31 154c13 67 -18 90 -53 90l16 81c35 0 74 23 87 90l30 155
c21 106 69 182 181 182c24 0 46 -5 56 -10z" />
    <glyph glyph-name="ampersand" unicode="&#x26;" horiz-adv-x="635" 
d="M615 0h-132c-13 17 -25 34 -37 51c-54 -41 -117 -66 -189 -66c-149 0 -204 86 -183 192c18 93 84 148 155 190c-8 11 -63 76 -42 183c24 121 124 185 233 185c145 0 169 -98 154 -175c-14 -73 -66 -134 -169 -193c-8 -5 -19 -11 -29 -16c31 -45 61 -89 91 -134
c21 40 35 86 43 130h103c-12 -76 -42 -153 -88 -215c29 -45 60 -88 90 -132zM324 432l6 -10c93 52 128 83 139 138c8 39 -10 81 -68 81c-62 0 -100 -47 -109 -91c-10 -52 6 -80 32 -118zM184 181c-13 -66 31 -102 87 -102c50 0 92 17 126 45c-40 57 -79 115 -119 172
c-49 -32 -85 -67 -94 -115z" />
    <glyph glyph-name="parenleft" unicode="(" horiz-adv-x="325" 
d="M119 360c33 169 136 339 268 460h84c-128 -147 -200 -279 -236 -460c-35 -181 -14 -314 57 -460h-84c-85 120 -121 291 -89 460z" />
    <glyph glyph-name="parenright" unicode=")" horiz-adv-x="325" 
d="M344 360c-32 -169 -135 -340 -267 -460h-84c128 146 200 279 235 460c36 181 15 313 -56 460h84c85 -121 121 -291 88 -460z" />
    <glyph glyph-name="degree" unicode="&#xb0;" horiz-adv-x="362" 
d="M156 600c0 74 62 135 135 135c74 0 135 -61 135 -135s-61 -134 -135 -134c-73 0 -135 60 -135 134zM229 600c0 -34 29 -61 62 -61c34 0 60 27 60 61s-26 61 -60 61c-33 0 -62 -27 -62 -61z" />
    <glyph glyph-name="copyright" unicode="&#xa9;" horiz-adv-x="590" 
d="M85 260c0 162 108 275 260 275s260 -113 260 -275s-108 -275 -260 -275s-260 113 -260 275zM169 260c0 -108 62 -197 176 -197s176 89 176 197s-62 197 -176 197s-176 -89 -176 -197zM287 260c0 -44 21 -75 58 -75c28 0 46 17 53 44l68 -16c-14 -66 -56 -99 -121 -99
c-83 0 -127 68 -127 146c0 77 44 146 127 146c65 0 107 -34 121 -99l-68 -16c-7 26 -26 43 -53 43c-37 0 -58 -31 -58 -74z" />
    <glyph glyph-name="registered" unicode="&#xae;" horiz-adv-x="590" 
d="M85 260c0 162 108 275 260 275s260 -113 260 -275s-108 -275 -260 -275s-260 113 -260 275zM242 128v278h96c56 0 111 -18 111 -81c0 -43 -28 -67 -65 -74c30 -8 46 -34 58 -58l31 -65h-75l-20 46c-17 41 -31 53 -61 53h-7v-99h-68zM310 347v-61h27c32 0 43 12 43 32
c0 23 -17 29 -44 29h-26zM169 260c0 -108 62 -197 176 -197s176 89 176 197s-62 197 -176 197s-176 -89 -176 -197z" />
    <glyph glyph-name="trademark" unicode="&#x2122;" horiz-adv-x="673" 
d="M453 432h-79l42 213h-87l-42 -213h-78l42 213h-96l14 75h378l23 -192l100 192h112l-56 -288h-78l37 191l-99 -191h-71l-25 191z" />
    <glyph glyph-name="asterisk" unicode="*" horiz-adv-x="411" 
d="M347 735l-14 -112c34 16 68 31 102 47c10 -31 20 -61 29 -92c-36 -6 -73 -14 -110 -20c25 -28 51 -55 76 -83l-78 -56l-54 98l-56 -97l-77 56c25 27 51 55 76 82c-36 7 -72 15 -108 22c10 31 20 61 29 92c34 -16 68 -32 101 -48c-3 37 -8 74 -12 111h96z" />
    <glyph glyph-name="plusminus" unicode="&#xb1;" 
d="M410 404l-29 -150h-96l29 150h-183l20 96h183l34 180h96l-34 -180h184l-20 -96h-184zM534 94h-463l18 96h463z" />
    <glyph glyph-name="asciitilde" unicode="~" horiz-adv-x="526" 
d="M84 281l23 118c46 40 99 60 147 60c89 0 109 -90 178 -90c58 0 103 30 149 70l-23 -118c-46 -40 -99 -60 -147 -60c-89 0 -109 90 -178 90c-58 0 -103 -30 -149 -70z" />
    <glyph glyph-name="grave" unicode="`" horiz-adv-x="298" 
d="M265 720l76 -187h-92l-123 187h139z" />
    <glyph glyph-name="percent" horiz-adv-x="789" 
d="M148 0h106l526 720h-107zM144 560c20 103 96 165 182 165s137 -62 117 -165s-95 -165 -181 -165s-138 62 -118 165zM232 560c-11 -57 17 -80 47 -80c31 0 66 23 77 80c12 57 -16 79 -46 79c-28 0 -66 -22 -78 -79zM485 160c20 103 95 165 181 165s138 -62 118 -165
s-96 -165 -182 -165s-137 62 -117 165zM572 160c-11 -57 16 -80 47 -80c30 0 66 23 77 80s-16 79 -47 79c-27 0 -66 -22 -77 -79z" />
    <glyph glyph-name="dagger" unicode="&#x2020;" horiz-adv-x="378" 
d="M136 517l18 93h97l21 110h111l-21 -110h97l-18 -93h-97l-45 -235h-111l45 235h-97z" />
    <glyph glyph-name="daggerdbl" unicode="&#x2021;" horiz-adv-x="371" 
d="M425 468l-18 -93h-94l-18 -93h-111l18 93h-93l18 93h94l12 66h-93l18 93h93l18 93h111l-18 -93h94l-18 -93h-94l-12 -66h93z" />
    <glyph glyph-name="bullet" unicode="&#x2022;" horiz-adv-x="388" 
d="M126 351c0 34 12 63 36 87s53 36 88 36s64 -12 88 -36s36 -53 36 -87c0 -35 -12 -64 -36 -88s-53 -36 -88 -36s-64 12 -88 36s-36 53 -36 88z" />
    <glyph glyph-name="paragraph" unicode="&#xb6;" horiz-adv-x="584" 
d="M271 -100h-80l100 516c-116 3 -182 82 -159 198c27 139 137 206 271 206h328l-17 -85h-81l-162 -835h-111l162 835h-89z" />
    <glyph glyph-name="afii61352" unicode="&#x2116;" horiz-adv-x="1058" 
d="M818 460c20 103 96 165 182 165s137 -62 117 -165s-95 -165 -181 -165s-138 62 -118 165zM906 460c-12 -57 16 -80 46 -80c31 0 66 23 78 80c11 57 -16 79 -47 79c-28 0 -66 -22 -77 -79zM1059 158h-299l16 85h299zM190 0h-114l139 720h120l251 -528l102 528h114
l-139 -720h-120l-250 527z" />
    <glyph glyph-name="at" unicode="@" horiz-adv-x="755" 
d="M622 445l-45 -232c-1 -7 -15 -67 22 -67c39 0 67 62 80 133c32 162 -42 261 -197 261c-145 0 -267 -122 -299 -280c-30 -158 36 -283 200 -283c52 0 110 16 153 50l57 -63c-62 -52 -158 -74 -227 -74c-220 0 -321 163 -281 370s205 370 415 370c209 0 314 -143 274 -350
c-20 -105 -89 -215 -190 -215c-47 0 -81 30 -83 66l-15 -18c-28 -30 -63 -48 -111 -48c-98 0 -143 79 -120 195c23 115 98 195 196 195c46 0 76 -22 92 -53l8 43h71zM506 260c13 73 -18 114 -61 114c-48 0 -89 -41 -103 -114s11 -114 58 -114c48 0 92 41 106 114z" />
    <glyph glyph-name="perthousand" unicode="&#x2030;" horiz-adv-x="1136" 
d="M148 0h106l526 720h-107zM144 560c20 103 96 165 182 165s137 -62 117 -165s-95 -165 -181 -165s-138 62 -118 165zM232 560c-11 -57 17 -80 47 -80c31 0 66 23 77 80c12 57 -16 79 -46 79c-28 0 -66 -22 -78 -79zM485 160c20 103 95 165 181 165s138 -62 118 -165
s-96 -165 -182 -165s-137 62 -117 165zM572 160c-11 -57 16 -80 47 -80c30 0 66 23 77 80s-16 79 -47 79c-27 0 -66 -22 -77 -79zM832 160c20 103 95 165 181 165s138 -62 118 -165s-96 -165 -182 -165s-137 62 -117 165zM919 160c-11 -57 16 -80 47 -80c30 0 66 23 77 80
s-16 79 -47 79c-27 0 -66 -22 -77 -79z" />
    <glyph glyph-name="section" unicode="&#xa7;" horiz-adv-x="507" 
d="M64 150l110 13c-2 -52 19 -89 98 -89c51 0 106 15 115 62c7 34 -11 42 -62 57l-119 35c-60 18 -111 58 -94 141c10 54 51 87 79 103c-35 20 -48 62 -39 109c22 109 131 154 238 154c131 0 185 -61 175 -150l-109 -12c1 46 -25 73 -85 73c-68 0 -103 -22 -110 -57
c-6 -31 21 -41 51 -50l127 -39c69 -21 118 -61 101 -148c-8 -43 -43 -84 -70 -100c27 -21 39 -61 29 -109c-22 -115 -136 -158 -247 -158c-134 0 -201 60 -188 165zM221 384c-6 -32 15 -55 42 -62c104 -30 118 -35 120 -35c21 10 38 25 43 50c7 35 -6 60 -47 72l-102 29
c-29 -8 -50 -26 -56 -54z" />
    <glyph glyph-name="currency" unicode="&#xa4;" 
d="M479 123l-54 68c-33 -19 -71 -29 -108 -29c-38 0 -71 10 -97 29l-81 -68l-54 67l85 72c-9 27 -10 60 -3 98c8 38 22 70 42 98l-57 73l80 67l54 -69c33 19 70 29 108 29c37 0 70 -10 96 -29l82 69l54 -67l-86 -73c9 -28 11 -60 3 -98c-7 -38 -21 -71 -41 -98l57 -72z
M263 360c-13 -69 21 -102 72 -102c52 0 99 33 112 102c14 69 -20 102 -71 102c-48 0 -99 -33 -113 -102z" />
    <glyph glyph-name="afii10085" unicode="&#x443;" horiz-adv-x="524" 
d="M3 -198l9 97c16 -6 39 -11 61 -11c39 0 80 19 110 71l27 46l-103 515h114l67 -383l211 383h109l-319 -567c-58 -101 -125 -163 -214 -163c-24 0 -55 5 -72 12z" />
    <glyph glyph-name="afii10102" unicode="&#x455;" horiz-adv-x="498" 
d="M58 150l103 16c-2 -52 28 -92 103 -92c48 0 112 15 122 67c7 34 -8 52 -49 63l-126 32c-65 17 -118 55 -102 141c23 112 127 158 237 158c124 0 189 -70 168 -166h-99c6 55 -32 77 -89 77c-56 0 -107 -22 -114 -61c-7 -29 16 -45 44 -52l133 -33c59 -16 121 -52 102 -152
c-22 -115 -132 -163 -247 -163c-127 0 -197 63 -186 165z" />
    <glyph glyph-name="afii10054" unicode="&#x405;" horiz-adv-x="659" 
d="M89 230l116 8c-13 -105 47 -152 149 -152c90 0 159 41 172 111c8 45 -8 76 -61 97c-34 14 -140 41 -180 55c-120 40 -128 109 -115 177c27 141 165 209 290 209c163 0 256 -73 226 -221h-115c13 78 -31 120 -127 120c-72 0 -146 -32 -159 -99c-7 -34 5 -60 41 -74
c31 -13 120 -40 185 -59c100 -30 161 -86 139 -200c-29 -148 -181 -217 -311 -217c-185 0 -271 85 -250 245z" />
    <glyph glyph-name="afii10105" unicode="&#x458;" horiz-adv-x="236" 
d="M-94 -199l36 93c16 -5 24 -6 34 -6c56 0 72 52 82 105l101 527h111l-105 -548c-21 -106 -77 -182 -187 -182c-24 0 -52 4 -72 11zM287 607h-111l22 113h111z" />
    <glyph glyph-name="afii10103" unicode="&#x456;" horiz-adv-x="232" 
d="M284 607h-111l21 113h111zM167 0h-111l99 520h111z" />
    <glyph glyph-name="uni0406" unicode="&#x406;" horiz-adv-x="271" 
d="M194 0h-118l138 720h118z" />
    <glyph glyph-name="afii10057" unicode="&#x408;" horiz-adv-x="536" 
d="M59 203l113 16c-12 -73 1 -133 79 -133c89 0 119 68 135 151l93 483h118l-95 -489c-32 -167 -132 -246 -270 -246c-131 0 -204 75 -173 218z" />
    <glyph glyph-name="afii10104" unicode="&#x457;" horiz-adv-x="232" 
d="M203 607h-111l22 113h111zM167 0h-111l99 520h111zM364 607h-111l22 113h111z" />
    <glyph glyph-name="afii10106" unicode="&#x459;" horiz-adv-x="767" 
d="M158 289l45 231h347l-52 -223c35 35 79 49 125 49c84 0 176 -63 153 -186c-23 -121 -129 -175 -227 -175h-19c-95 0 -190 79 -156 247l44 195h-125l-32 -168c-25 -123 -64 -274 -194 -274c-29 0 -57 10 -64 15l17 93c10 -6 23 -11 37 -11c66 -1 85 121 101 207zM663 161
c11 54 -16 105 -84 105c-31 0 -65 -13 -94 -34l-6 -27c-16 -85 25 -131 80 -131c46 0 93 32 104 87z" />
    <glyph glyph-name="afii10107" unicode="&#x45a;" horiz-adv-x="760" 
d="M384 309l48 211h111l-51 -223c34 35 79 49 125 49c84 0 175 -63 152 -186c-23 -121 -129 -175 -227 -175h-19c-91 0 -186 76 -158 231h-157l-41 -216h-111l99 520h111l-41 -211h159zM656 161c11 54 -15 105 -83 105c-32 0 -66 -13 -95 -34l-5 -27
c-17 -85 24 -131 79 -131c46 0 93 32 104 87z" />
    <glyph glyph-name="afii10101" unicode="&#x454;" horiz-adv-x="522" 
d="M345 442c-63 0 -124 -42 -154 -137h168l-16 -85h-169c-9 -99 35 -143 101 -143c56 0 105 32 136 107l104 -21c-51 -119 -147 -178 -259 -178c-140 0 -222 96 -188 275c35 179 154 275 294 275c116 0 209 -59 186 -194h-108c10 74 -35 101 -95 101z" />
    <glyph glyph-name="afii10053" unicode="&#x404;" horiz-adv-x="736" 
d="M508 634c-119 0 -212 -87 -254 -214h280l-21 -106h-281c-14 -135 39 -228 168 -228c97 0 171 58 217 153l113 -28c-63 -136 -182 -226 -349 -226c-220 0 -307 164 -266 375c40 210 192 375 412 375c164 0 284 -91 256 -245h-116c8 100 -55 144 -159 144z" />
    <glyph glyph-name="afii10145" unicode="&#x40f;" horiz-adv-x="724" 
d="M669 720h118l-139 -720h-227l-36 -189h-118l37 189h-228l139 720h118l-119 -614h336z" />
    <glyph glyph-name="afii10059" unicode="&#x40a;" horiz-adv-x="1064" 
d="M635 720h118l-52 -273h132c179 0 257 -81 229 -226c-33 -168 -178 -221 -323 -221h-243l61 314h-302l-61 -314h-118l139 720h118l-58 -300h303zM682 347l-48 -243h127c95 0 163 30 181 120c14 73 -22 123 -131 123h-129z" />
    <glyph glyph-name="afii10058" unicode="&#x409;" horiz-adv-x="1070" 
d="M227 412l59 308h476l-52 -273h129c179 0 257 -81 229 -226c-34 -168 -179 -221 -324 -221h-238l119 614h-243l-36 -183c-42 -218 -78 -446 -257 -446c-31 0 -58 7 -74 17l16 111c11 -7 25 -17 50 -17c92 0 114 153 146 316zM691 347l-48 -243h124c95 0 163 30 180 120
c15 73 -21 123 -130 123h-126z" />
    <glyph glyph-name="afii10056" unicode="&#x407;" horiz-adv-x="270" 
d="M194 0h-118l139 720h118zM261 805h-111l22 115h111zM434 805h-111l21 115h111z" />
    <glyph glyph-name="afii10050" unicode="&#x490;" horiz-adv-x="563" 
d="M76 0l139 720h346l26 130h118l-46 -236h-346l-119 -614h-118z" />
    <glyph glyph-name="afii10062" unicode="&#x40e;" horiz-adv-x="669" 
d="M335 196l-187 524h125l141 -406l263 406h120l-371 -561c-70 -108 -127 -174 -231 -174c-35 0 -85 11 -105 41l51 92c15 -13 38 -30 68 -30c37 0 67 17 99 66zM600 920h88c-17 -89 -88 -167 -212 -167c-123 0 -160 79 -143 167h87c-6 -50 16 -81 73 -81c58 0 94 31 107 81
z" />
    <glyph glyph-name="afii10110" unicode="&#x45e;" horiz-adv-x="524" 
d="M3 -198l9 97c16 -6 39 -11 61 -11c39 0 80 19 110 71l27 46l-103 515h114l67 -383l211 383h109l-319 -567c-58 -101 -125 -163 -214 -163c-24 0 -55 5 -72 12zM470 720h76c-18 -89 -82 -147 -182 -147s-141 59 -124 147h76c-4 -47 22 -69 63 -69s77 22 91 69z" />
    <glyph glyph-name="afii10052" unicode="&#x403;" horiz-adv-x="563" 
d="M76 0l138 720h464l-21 -106h-346l-117 -614h-118zM658 990l-170 -187h-92l123 187h139z" />
    <glyph glyph-name="afii10061" unicode="&#x40c;" horiz-adv-x="684" 
d="M76 0l138 720h118l-58 -303h47c46 0 75 17 107 59l110 141c68 86 116 103 178 103h44l-25 -108h-23c-33 0 -62 -6 -106 -62l-73 -98c-22 -28 -62 -75 -108 -84c50 -7 96 -57 127 -130l99 -238h-136l-75 194c-37 92 -72 120 -152 120h-35l-59 -314h-118zM672 990
l-171 -187h-92l124 187h139z" />
    <glyph glyph-name="afii10109" unicode="&#x45c;" horiz-adv-x="538" 
d="M56 0l99 520h111l-41 -211h29c30 0 50 5 83 43c23 26 61 95 73 111c40 52 83 57 146 57h22l-24 -101h-22c-43 0 -51 -21 -74 -58c-31 -50 -61 -80 -102 -90l-1 -4c36 -9 65 -43 87 -94l60 -173h-126l-50 156c-16 43 -43 60 -83 60h-35l-41 -216h-111zM559 790l-171 -187
h-92l124 187h139z" />
    <glyph glyph-name="afii10100" unicode="&#x453;" horiz-adv-x="470" 
d="M467 150c-28 -102 -117 -165 -238 -165c-104 0 -195 48 -176 163c16 100 95 136 160 152l133 34c30 7 51 22 58 51c8 39 -24 61 -81 61c-49 0 -88 -24 -105 -77l-100 8c24 96 105 158 219 158c101 0 191 -46 169 -158c-16 -86 -81 -122 -153 -140l-125 -32
c-43 -11 -67 -30 -71 -64c-7 -52 44 -67 85 -67c69 0 112 40 129 92zM548 790l-170 -187h-92l123 187h139z" />
    <glyph glyph-name="afii10193" unicode="&#x45f;" horiz-adv-x="543" 
d="M472 520h111l-99 -520h-102l14 75c-33 -38 -69 -66 -109 -78l-29 -151h-107l26 143c-106 17 -119 101 -98 212l61 319h111l-60 -315c-15 -80 -5 -127 66 -127c72 0 141 55 161 159z" />
    <glyph glyph-name="afii10098" unicode="&#x491;" horiz-adv-x="470" 
d="M176 640h101l-30 -131c24 19 58 26 94 26c93 0 185 -48 165 -158c-16 -86 -81 -122 -153 -140l-125 -32c-43 -11 -67 -30 -71 -64c-7 -52 44 -67 85 -67c69 0 112 40 129 92l96 -16c-28 -102 -117 -165 -238 -165c-104 0 -195 48 -176 163c16 100 95 136 160 152l133 34
c30 7 51 22 58 51c8 39 -24 61 -81 61c-49 0 -88 -24 -105 -77h-101z" />
    <glyph glyph-name="afii10060" unicode="&#x40b;" horiz-adv-x="763" 
d="M376 0h-118l118 614h-235l20 106h588l-21 -106h-235l-45 -237c42 56 96 83 165 83c144 0 164 -92 141 -216l-46 -244h-111l45 240c16 79 -2 126 -73 126c-66 0 -131 -45 -148 -134z" />
    <glyph glyph-name="afii10051" unicode="&#x402;" horiz-adv-x="763" 
d="M481 -4l36 93c16 -5 24 -6 34 -6c56 0 71 52 81 105l10 52c16 79 -2 126 -73 126c-66 0 -131 -45 -148 -134l-45 -232h-118l118 614h-235l20 106h588l-21 -106h-235l-45 -237c42 56 96 83 165 83c144 0 165 -92 141 -216l-14 -77c-21 -106 -78 -182 -188 -182
c-24 0 -51 4 -71 11z" />
    <glyph glyph-name="afii10108" unicode="&#x45b;" horiz-adv-x="598" 
d="M205 0h-111l100 513h-74l16 87h74l18 92l119 43l-26 -135h93l-17 -87h-92l-27 -132c42 57 97 84 166 84c144 0 164 -92 140 -216l-48 -249h-111l47 245c16 79 -2 126 -73 126c-69 0 -129 -51 -152 -149z" />
    <glyph glyph-name="afii10099" unicode="&#x452;" horiz-adv-x="598" 
d="M308 -4l35 93c16 -5 25 -6 35 -6c58 0 73 52 83 105l11 57c16 79 -2 126 -73 126c-69 0 -129 -51 -152 -149l-42 -222h-111l100 513h-74l16 87h74l18 92l119 43l-26 -135h93l-17 -87h-92l-27 -132c42 57 97 84 166 84c144 0 164 -92 140 -216l-16 -82
c-21 -106 -77 -182 -189 -182c-24 0 -51 4 -71 11z" />
    <glyph glyph-name="ydieresis" unicode="&#xff;" horiz-adv-x="524" 
d="M3 -198l9 97c16 -6 39 -11 61 -11c39 0 80 19 110 71l27 46l-103 515h114l67 -383l211 383h109l-319 -567c-58 -101 -125 -163 -214 -163c-24 0 -55 5 -72 12zM322 606h-112l21 114h112zM524 606h-112l21 114h112z" />
    <glyph glyph-name="thorn" unicode="&#xfe;" horiz-adv-x="557" 
d="M127 -200h-111l176 920h111l-50 -268c39 50 83 83 149 83c137 0 202 -106 170 -275s-141 -275 -278 -275c-55 0 -98 23 -119 66zM204 260c-23 -122 22 -183 95 -183c74 0 138 61 162 183c24 121 -19 182 -91 182c-65 0 -142 -61 -166 -182z" />
    <glyph glyph-name="yacute" unicode="&#xfd;" horiz-adv-x="524" 
d="M3 -198l9 97c16 -6 39 -11 61 -11c39 0 80 19 110 71l27 46l-103 515h114l67 -383l211 383h109l-319 -567c-58 -101 -125 -163 -214 -163c-24 0 -55 5 -72 12zM559 790l-171 -187h-92l124 187h139z" />
    <glyph glyph-name="udieresis" unicode="&#xfc;" horiz-adv-x="543" 
d="M472 520h111l-99 -520h-102l14 75c-50 -59 -108 -90 -176 -90c-144 0 -165 92 -141 216l61 319h111l-60 -315c-15 -80 -5 -127 66 -127c72 0 141 55 161 159zM336 606h-112l21 114h112zM529 606h-112l21 114h112z" />
    <glyph glyph-name="ucircumflex" unicode="&#xfb;" horiz-adv-x="543" 
d="M472 520h111l-99 -520h-102l14 75c-50 -59 -108 -90 -176 -90c-144 0 -165 92 -141 216l61 319h111l-60 -315c-15 -80 -5 -127 66 -127c72 0 141 55 161 159zM366 767h98l90 -167h-108l-45 97l-84 -97h-106z" />
    <glyph glyph-name="uacute" unicode="&#xfa;" horiz-adv-x="543" 
d="M472 520h111l-99 -520h-102l14 75c-50 -59 -108 -90 -176 -90c-144 0 -165 92 -141 216l61 319h111l-60 -315c-15 -80 -5 -127 66 -127c72 0 141 55 161 159zM555 790l-170 -187h-92l123 187h139z" />
    <glyph glyph-name="ugrave" unicode="&#xf9;" horiz-adv-x="543" 
d="M472 520h111l-99 -520h-102l14 75c-50 -59 -108 -90 -176 -90c-144 0 -165 92 -141 216l61 319h111l-60 -315c-15 -80 -5 -127 66 -127c72 0 141 55 161 159zM369 790l56 -187h-86l-103 187h133z" />
    <glyph glyph-name="oslash" unicode="&#xf8;" horiz-adv-x="546" 
d="M600 479l-47 -46c20 -45 25 -103 11 -173c-34 -179 -159 -275 -301 -275c-52 0 -95 13 -129 37l-37 -37l-57 56l42 41c-22 45 -28 105 -14 178c35 179 159 275 301 275c53 0 98 -14 133 -40l41 40zM179 260c-7 -34 -7 -62 -3 -85l247 242c-19 17 -44 25 -71 25
c-76 0 -149 -56 -173 -182zM453 260c6 31 7 57 5 79l-245 -239c19 -16 42 -23 68 -23c76 0 149 57 172 183z" />
    <glyph glyph-name="divide" unicode="&#xf7;" horiz-adv-x="556" 
d="M554 316h-430l18 93h430zM426 477h-112l22 118h112zM358 130h-112l23 117h112z" />
    <glyph glyph-name="odieresis" unicode="&#xf6;" horiz-adv-x="546" 
d="M68 260c35 179 159 275 301 275s231 -96 195 -275c-34 -179 -159 -275 -301 -275s-229 96 -195 275zM179 260c-24 -126 27 -183 102 -183c76 0 149 57 172 183c25 126 -26 182 -101 182c-76 0 -149 -56 -173 -182zM343 606h-112l20 114h112zM535 606h-112l21 114h112z
" />
    <glyph glyph-name="otilde" unicode="&#xf5;" horiz-adv-x="546" 
d="M68 260c35 179 159 275 301 275s231 -96 195 -275c-34 -179 -159 -275 -301 -275s-229 96 -195 275zM179 260c-24 -126 27 -183 102 -183c76 0 149 57 172 183c25 126 -26 182 -101 182c-76 0 -149 -56 -173 -182zM218 605l19 100c34 30 75 40 103 40
c62 0 84 -50 133 -50c22 0 63 10 98 50l-19 -100c-34 -30 -78 -40 -106 -40c-63 0 -81 50 -130 50c-28 0 -62 -10 -98 -50z" />
    <glyph glyph-name="ocircumflex" unicode="&#xf4;" horiz-adv-x="546" 
d="M68 260c35 179 159 275 301 275s231 -96 195 -275c-34 -179 -159 -275 -301 -275s-229 96 -195 275zM179 260c-24 -126 27 -183 102 -183c76 0 149 57 172 183c25 126 -26 182 -101 182c-76 0 -149 -56 -173 -182zM369 767h98l90 -167h-108l-45 97l-84 -97h-106z" />
    <glyph glyph-name="oacute" unicode="&#xf3;" horiz-adv-x="546" 
d="M68 260c35 179 159 275 301 275s231 -96 195 -275c-34 -179 -159 -275 -301 -275s-229 96 -195 275zM179 260c-24 -126 27 -183 102 -183c76 0 149 57 172 183c25 126 -26 182 -101 182c-76 0 -149 -56 -173 -182zM565 790l-170 -187h-92l123 187h139z" />
    <glyph glyph-name="ograve" unicode="&#xf2;" horiz-adv-x="546" 
d="M68 260c35 179 159 275 301 275s231 -96 195 -275c-34 -179 -159 -275 -301 -275s-229 96 -195 275zM179 260c-24 -126 27 -183 102 -183c76 0 149 57 172 183c25 126 -26 182 -101 182c-76 0 -149 -56 -173 -182zM376 790l56 -187h-86l-103 187h133z" />
    <glyph glyph-name="ntilde" unicode="&#xf1;" horiz-adv-x="559" 
d="M167 0h-111l99 520h102l-14 -75c50 64 107 90 175 90c144 0 165 -92 142 -216l-61 -319h-111l60 315c15 79 -2 126 -73 126c-72 0 -134 -55 -155 -158zM231 605l20 100c33 30 74 40 102 40c63 0 85 -50 134 -50c21 0 62 10 98 50l-19 -100c-34 -30 -79 -40 -107 -40
c-62 0 -80 50 -129 50c-28 0 -63 -10 -99 -50z" />
    <glyph glyph-name="eth" unicode="&#xf0;" horiz-adv-x="543" 
d="M447 792l-25 -67c143 -81 180 -272 137 -479c-37 -175 -158 -261 -297 -261c-109 0 -229 84 -196 263s152 260 264 260c74 0 126 -38 145 -68c2 60 -28 133 -91 180l-20 -56l-81 29l23 63c-23 8 -48 12 -76 12l22 97c33 0 62 -4 90 -10l24 66zM177 246
c-24 -126 48 -169 103 -169c69 0 147 43 171 169c25 127 -41 169 -103 169c-75 0 -147 -42 -171 -169z" />
    <glyph glyph-name="idieresis" unicode="&#xef;" horiz-adv-x="232" 
d="M203 607h-111l22 113h111zM167 0h-111l99 520h111zM364 607h-111l22 113h111z" />
    <glyph glyph-name="icircumflex" unicode="&#xee;" horiz-adv-x="232" 
d="M167 0h-111l99 520h111zM212 767h98l91 -167h-109l-44 97l-85 -97h-105z" />
    <glyph glyph-name="iacute" unicode="&#xed;" horiz-adv-x="232" 
d="M167 0h-111l99 520h111zM418 790l-170 -187h-92l123 187h139z" />
    <glyph glyph-name="igrave" unicode="&#xec;" horiz-adv-x="232" 
d="M167 0h-111l99 520h111zM233 790l56 -187h-86l-103 187h133z" />
    <glyph glyph-name="edieresis" unicode="&#xeb;" horiz-adv-x="526" 
d="M526 152c-55 -111 -149 -167 -266 -167c-141 0 -226 96 -192 275c35 179 158 275 298 275c121 0 192 -71 190 -154c-3 -117 -100 -151 -213 -151h-169c-15 -106 39 -153 111 -153c56 0 112 35 140 97zM347 442c-58 0 -125 -41 -155 -130h163c55 0 89 18 90 67
c1 42 -47 63 -98 63zM332 606h-112l21 114h112zM541 606h-112l21 114h112z" />
    <glyph glyph-name="ecircumflex" unicode="&#xea;" horiz-adv-x="526" 
d="M526 152c-55 -111 -149 -167 -266 -167c-141 0 -226 96 -192 275c35 179 158 275 298 275c121 0 192 -71 190 -154c-3 -117 -100 -151 -213 -151h-169c-15 -106 39 -153 111 -153c56 0 112 35 140 97zM347 442c-58 0 -125 -41 -155 -130h163c55 0 89 18 90 67
c1 42 -47 63 -98 63zM359 767h98l90 -167h-108l-45 97l-84 -97h-106z" />
    <glyph glyph-name="eacute" unicode="&#xe9;" horiz-adv-x="526" 
d="M526 152c-55 -111 -149 -167 -266 -167c-141 0 -226 96 -192 275c35 179 158 275 298 275c121 0 192 -71 190 -154c-3 -117 -100 -151 -213 -151h-169c-15 -106 39 -153 111 -153c56 0 112 35 140 97zM347 442c-58 0 -125 -41 -155 -130h163c55 0 89 18 90 67
c1 42 -47 63 -98 63zM562 790l-171 -187h-92l124 187h139z" />
    <glyph glyph-name="egrave" unicode="&#xe8;" horiz-adv-x="526" 
d="M526 152c-55 -111 -149 -167 -266 -167c-141 0 -226 96 -192 275c35 179 158 275 298 275c121 0 192 -71 190 -154c-3 -117 -100 -151 -213 -151h-169c-15 -106 39 -153 111 -153c56 0 112 35 140 97zM347 442c-58 0 -125 -41 -155 -130h163c55 0 89 18 90 67
c1 42 -47 63 -98 63zM366 790l56 -187h-86l-103 187h133z" />
    <glyph glyph-name="ccedilla" unicode="&#xe7;" horiz-adv-x="522" 
d="M255 -117c5 28 -5 40 -20 40c-14 0 -24 -7 -31 -24l-39 13l44 77c-112 19 -172 113 -141 271c35 179 154 275 294 275c116 0 209 -59 186 -194h-108c10 74 -35 101 -95 101c-73 0 -142 -56 -166 -182s22 -183 96 -183c56 0 105 32 136 107l104 -21
c-51 -119 -147 -178 -259 -178h-12l-11 -20h10c42 0 67 -28 56 -82c-10 -54 -46 -83 -88 -83c-34 0 -56 18 -57 54l43 12c1 -16 9 -23 22 -23c16 0 30 12 36 40z" />
    <glyph glyph-name="aring" unicode="&#xe5;" horiz-adv-x="528" 
d="M371 60c-2 -22 -3 -46 11 -60h112c-15 19 -20 53 -9 106l43 221c27 141 -33 208 -170 208c-99 0 -202 -37 -251 -157l95 -27c25 57 68 94 130 94c67 0 101 -34 88 -98l-3 -17c-28 -12 -81 -21 -136 -26c-122 -13 -215 -57 -237 -169c-20 -102 51 -150 147 -150
c62 0 121 20 180 75zM402 253l-20 -104c-30 -35 -94 -78 -154 -78c-47 0 -78 19 -69 70c11 61 66 75 120 84c52 8 99 19 123 28zM269 730c14 74 87 135 161 135s122 -61 108 -135c-15 -74 -86 -134 -161 -134c-73 0 -123 60 -108 134zM341 730c-6 -34 17 -61 50 -61
c34 0 66 27 73 61c6 34 -15 61 -49 61s-67 -27 -74 -61z" />
    <glyph glyph-name="adieresis" unicode="&#xe4;" horiz-adv-x="528" 
d="M371 60c-59 -55 -118 -75 -180 -75c-96 0 -167 48 -147 150c22 112 115 156 237 169c55 5 108 14 136 26l3 17c13 64 -21 98 -88 98c-62 0 -105 -37 -130 -94l-95 27c49 120 152 157 251 157c137 0 197 -67 170 -208l-43 -221c-11 -53 -6 -87 9 -106h-112
c-14 14 -13 38 -11 60zM382 149l20 104c-24 -9 -71 -20 -123 -28c-54 -9 -109 -23 -120 -84c-9 -51 22 -70 69 -70c60 0 124 43 154 78zM333 606h-112l20 114h112zM525 606h-112l21 114h112z" />
    <glyph glyph-name="atilde" unicode="&#xe3;" horiz-adv-x="528" 
d="M371 60c-59 -55 -118 -75 -180 -75c-96 0 -167 48 -147 150c22 112 115 156 237 169c55 5 108 14 136 26l3 17c13 64 -21 98 -88 98c-62 0 -105 -37 -130 -94l-95 27c49 120 152 157 251 157c137 0 197 -67 170 -208l-43 -221c-11 -53 -6 -87 9 -106h-112
c-14 14 -13 38 -11 60zM382 149l20 104c-24 -9 -71 -20 -123 -28c-54 -9 -109 -23 -120 -84c-9 -51 22 -70 69 -70c60 0 124 43 154 78zM215 605l19 100c34 30 75 40 103 40c62 0 84 -50 133 -50c22 0 63 10 98 50l-19 -100c-34 -30 -78 -40 -106 -40c-63 0 -81 50 -130 50
c-28 0 -62 -10 -98 -50z" />
    <glyph glyph-name="acircumflex" unicode="&#xe2;" horiz-adv-x="528" 
d="M371 60c-59 -55 -118 -75 -180 -75c-96 0 -167 48 -147 150c22 112 115 156 237 169c55 5 108 14 136 26l3 17c13 64 -21 98 -88 98c-62 0 -105 -37 -130 -94l-95 27c49 120 152 157 251 157c137 0 197 -67 170 -208l-43 -221c-11 -53 -6 -87 9 -106h-112
c-14 14 -13 38 -11 60zM382 149l20 104c-24 -9 -71 -20 -123 -28c-54 -9 -109 -23 -120 -84c-9 -51 22 -70 69 -70c60 0 124 43 154 78zM356 767h98l90 -167h-108l-45 97l-84 -97h-106z" />
    <glyph glyph-name="aacute" unicode="&#xe1;" horiz-adv-x="528" 
d="M371 60c-59 -55 -118 -75 -180 -75c-96 0 -167 48 -147 150c22 112 115 156 237 169c55 5 108 14 136 26l3 17c13 64 -21 98 -88 98c-62 0 -105 -37 -130 -94l-95 27c49 120 152 157 251 157c137 0 197 -67 170 -208l-43 -221c-11 -53 -6 -87 9 -106h-112
c-14 14 -13 38 -11 60zM382 149l20 104c-24 -9 -71 -20 -123 -28c-54 -9 -109 -23 -120 -84c-9 -51 22 -70 69 -70c60 0 124 43 154 78zM558 790l-170 -187h-92l123 187h139z" />
    <glyph glyph-name="agrave" unicode="&#xe0;" horiz-adv-x="528" 
d="M371 60c-59 -55 -118 -75 -180 -75c-96 0 -167 48 -147 150c22 112 115 156 237 169c55 5 108 14 136 26l3 17c13 64 -21 98 -88 98c-62 0 -105 -37 -130 -94l-95 27c49 120 152 157 251 157c137 0 197 -67 170 -208l-43 -221c-11 -53 -6 -87 9 -106h-112
c-14 14 -13 38 -11 60zM382 149l20 104c-24 -9 -71 -20 -123 -28c-54 -9 -109 -23 -120 -84c-9 -51 22 -70 69 -70c60 0 124 43 154 78zM366 790l56 -187h-86l-103 187h133z" />
    <glyph glyph-name="germandbls" unicode="&#xdf;" horiz-adv-x="647" 
d="M278 150l103 16c-3 -52 11 -92 70 -92c37 0 79 25 88 67c7 34 -6 62 -47 71l-62 15c-66 16 -116 64 -100 150c27 141 175 131 188 198c4 20 -11 54 -83 54c-71 0 -122 -41 -138 -123l-98 -506h-108l97 497c29 151 141 227 262 227c141 0 188 -65 173 -146
c-24 -122 -176 -113 -192 -200c-6 -29 16 -46 44 -53l69 -17c59 -15 120 -60 100 -160c-21 -109 -112 -163 -213 -163c-117 0 -164 63 -153 165z" />
    <glyph glyph-name="Thorn" unicode="&#xde;" horiz-adv-x="662" 
d="M194 0h-118l141 725h117l-25 -131h141c145 0 270 -53 237 -222c-28 -145 -137 -229 -316 -229h-149zM289 490l-47 -243h145c110 0 165 49 180 122c17 91 -39 121 -134 121h-144z" />
    <glyph glyph-name="Yacute" unicode="&#xdd;" horiz-adv-x="685" 
d="M402 0h-118l57 299l-193 421h136l140 -316l258 316h131l-354 -421zM688 990l-170 -187h-92l123 187h139z" />
    <glyph glyph-name="Udieresis" unicode="&#xdc;" horiz-adv-x="733" 
d="M597 304l80 416h118l-80 -418c-37 -189 -155 -317 -352 -317c-195 0 -265 128 -229 317l80 418h118l-80 -416c-27 -138 13 -213 132 -213s186 75 213 213zM463 806h-112l21 114h112zM677 806h-112l21 114h112z" />
    <glyph glyph-name="Ucircumflex" unicode="&#xdb;" horiz-adv-x="733" 
d="M597 304l80 416h118l-80 -418c-37 -189 -155 -317 -352 -317c-195 0 -265 128 -229 317l80 418h118l-80 -416c-27 -138 13 -213 132 -213s186 75 213 213zM495 960h98l115 -190h-108l-70 121l-119 -121h-106z" />
    <glyph glyph-name="Uacute" unicode="&#xda;" horiz-adv-x="733" 
d="M597 304l80 416h118l-80 -418c-37 -189 -155 -317 -352 -317c-195 0 -265 128 -229 317l80 418h118l-80 -416c-27 -138 13 -213 132 -213s186 75 213 213zM698 990l-170 -187h-92l123 187h139z" />
    <glyph glyph-name="Ugrave" unicode="&#xd9;" horiz-adv-x="733" 
d="M597 304l80 416h118l-80 -418c-37 -189 -155 -317 -352 -317c-195 0 -265 128 -229 317l80 418h118l-80 -416c-27 -138 13 -213 132 -213s186 75 213 213zM499 990l56 -187h-86l-103 187h133z" />
    <glyph glyph-name="Oslash" unicode="&#xd8;" horiz-adv-x="778" 
d="M845 675c-24 -23 -47 -45 -71 -68c35 -66 45 -152 26 -247c-41 -211 -196 -375 -415 -375c-80 0 -145 22 -190 61c-22 -21 -42 -41 -63 -61l-60 60c23 22 46 44 70 67c-37 65 -45 152 -27 248c41 210 195 375 415 375c82 0 145 -23 190 -63c22 21 43 42 65 63zM238 360
c-11 -58 -11 -111 2 -153c131 127 262 253 392 380c-29 30 -69 47 -121 47c-136 0 -243 -114 -273 -274zM678 360c10 56 9 108 -5 149c-130 -126 -261 -253 -391 -379c28 -29 69 -44 123 -44c135 0 241 114 273 274z" />
    <glyph glyph-name="multiply" unicode="&#xd7;" horiz-adv-x="556" 
d="M339 317l-152 -127l-53 65l152 127l-102 128l79 65l101 -127l153 127l52 -65l-152 -128l102 -127l-78 -65z" />
    <glyph glyph-name="Odieresis" unicode="&#xd6;" horiz-adv-x="778" 
d="M115 360c40 210 195 375 415 375c219 0 310 -165 270 -375c-41 -211 -196 -375 -415 -375c-220 0 -311 164 -270 375zM238 360c-31 -160 24 -274 167 -274c135 0 241 114 273 274c30 160 -32 274 -167 274c-136 0 -243 -114 -273 -274zM492 806h-112l21 114h112zM707 806
h-112l21 114h112z" />
    <glyph glyph-name="Otilde" unicode="&#xd5;" horiz-adv-x="778" 
d="M115 360c40 210 195 375 415 375c219 0 310 -165 270 -375c-41 -211 -196 -375 -415 -375c-220 0 -311 164 -270 375zM238 360c-31 -160 24 -274 167 -274c135 0 241 114 273 274c30 160 -32 274 -167 274c-136 0 -243 -114 -273 -274zM368 805l22 108
c33 30 84 40 112 40c62 0 98 -50 147 -50c22 0 73 10 108 50l-21 -108c-34 -30 -88 -40 -116 -40c-63 0 -94 50 -143 50c-28 0 -73 -10 -109 -50z" />
    <glyph glyph-name="Ocircumflex" unicode="&#xd4;" horiz-adv-x="778" 
d="M115 360c40 210 195 375 415 375c219 0 310 -165 270 -375c-41 -211 -196 -375 -415 -375c-220 0 -311 164 -270 375zM238 360c-31 -160 24 -274 167 -274c135 0 241 114 273 274c30 160 -32 274 -167 274c-136 0 -243 -114 -273 -274zM518 960h98l115 -190h-108l-70 121
l-119 -121h-106z" />
    <glyph glyph-name="Oacute" unicode="&#xd3;" horiz-adv-x="778" 
d="M115 360c40 210 195 375 415 375c219 0 310 -165 270 -375c-41 -211 -196 -375 -415 -375c-220 0 -311 164 -270 375zM238 360c-31 -160 24 -274 167 -274c135 0 241 114 273 274c30 160 -32 274 -167 274c-136 0 -243 -114 -273 -274zM735 990l-171 -187h-92l124 187
h139z" />
    <glyph glyph-name="Ograve" unicode="&#xd2;" horiz-adv-x="778" 
d="M115 360c40 210 195 375 415 375c219 0 310 -165 270 -375c-41 -211 -196 -375 -415 -375c-220 0 -311 164 -270 375zM238 360c-31 -160 24 -274 167 -274c135 0 241 114 273 274c30 160 -32 274 -167 274c-136 0 -243 -114 -273 -274zM502 990l56 -187h-86l-103 187h133
z" />
    <glyph glyph-name="Ntilde" unicode="&#xd1;" horiz-adv-x="740" 
d="M190 0h-114l138 720h120l251 -529l102 529h114l-138 -720h-120l-252 529zM342 805l22 108c33 30 84 40 112 40c62 0 98 -50 147 -50c22 0 73 10 108 50l-21 -108c-34 -30 -88 -40 -116 -40c-63 0 -94 50 -143 50c-28 0 -73 -10 -109 -50z" />
    <glyph glyph-name="Eth" unicode="&#xd0;" horiz-adv-x="794" 
d="M400 0h-241l61 316h-142l17 93h143l60 311h230c235 0 334 -126 289 -358c-44 -225 -182 -362 -417 -362zM338 316l-41 -211h107c162 0 258 78 292 258c39 197 -52 251 -196 251h-104l-40 -205h155l-17 -93h-156z" />
    <glyph glyph-name="Idieresis" unicode="&#xcf;" horiz-adv-x="270" 
d="M194 0h-118l139 720h118zM261 805h-111l22 115h111zM434 805h-111l21 115h111z" />
    <glyph glyph-name="Icircumflex" unicode="&#xce;" horiz-adv-x="271" 
d="M194 0h-118l138 720h118zM273 960h98l115 -190h-108l-70 121l-119 -121h-106z" />
    <glyph glyph-name="Iacute" unicode="&#xcd;" horiz-adv-x="271" 
d="M194 0h-118l138 720h118zM488 990l-170 -187h-92l123 187h139z" />
    <glyph glyph-name="Igrave" unicode="&#xcc;" horiz-adv-x="271" 
d="M194 0h-118l138 720h118zM299 990l56 -187h-86l-103 187h133z" />
    <glyph glyph-name="Edieresis" unicode="&#xcb;" horiz-adv-x="657" 
d="M594 0h-518l138 720h508l-21 -106h-390l-37 -194h340l-21 -106h-340l-40 -208h400zM423 806h-112l21 114h112zM637 806h-112l21 114h112z" />
    <glyph glyph-name="Ecircumflex" unicode="&#xca;" horiz-adv-x="660" 
d="M594 0h-518l138 720h508l-21 -106h-390l-37 -194h340l-21 -106h-340l-40 -208h400zM468 960h98l115 -190h-108l-70 121l-119 -121h-106z" />
    <glyph glyph-name="Eacute" unicode="&#xc9;" horiz-adv-x="660" 
d="M594 0h-518l138 720h508l-21 -106h-390l-37 -194h340l-21 -106h-340l-40 -208h400zM668 990l-170 -187h-92l123 187h139z" />
    <glyph glyph-name="Egrave" unicode="&#xc8;" horiz-adv-x="660" 
d="M594 0h-518l138 720h508l-21 -106h-390l-37 -194h340l-21 -106h-340l-40 -208h400zM476 990l56 -187h-86l-103 187h133z" />
    <glyph glyph-name="Ccedilla" unicode="&#xc7;" horiz-adv-x="736" 
d="M389 -142c6 33 -7 48 -25 48c-16 0 -28 -9 -37 -29l-47 16l54 95c-186 21 -258 177 -219 372c40 210 192 375 412 375c164 0 284 -91 256 -245h-116c8 100 -55 144 -159 144c-136 0 -240 -114 -270 -274c-31 -160 19 -274 162 -274c97 0 171 58 217 153l113 -28
c-63 -136 -182 -226 -349 -226h-3l-17 -29h13c50 0 80 -33 68 -98c-13 -65 -57 -100 -107 -100c-41 0 -67 22 -68 65l52 14c2 -19 10 -27 26 -27c19 0 37 15 44 48z" />
    <glyph glyph-name="AE" unicode="&#xc6;" horiz-adv-x="1067" 
d="M144 0h-128l596 720h518l-20 -106h-390l-38 -194h340l-20 -106h-340l-41 -208h400l-20 -106h-518l30 156h-242zM534 262l56 286l-234 -286h178z" />
    <glyph glyph-name="Aring" unicode="&#xc5;" horiz-adv-x="694" 
d="M544 720h-114l-420 -720h120l89 159h311l30 -159h124zM277 261l181 318l55 -318h-236zM388 900c14 74 88 135 161 135c75 0 122 -61 108 -135s-86 -134 -161 -134c-73 0 -122 60 -108 134zM461 900c-7 -34 16 -61 49 -61c35 0 66 27 73 61s-15 61 -49 61
c-33 0 -66 -27 -73 -61z" />
    <glyph glyph-name="Adieresis" unicode="&#xc4;" horiz-adv-x="694" 
d="M430 720h114l140 -720h-124l-30 159h-311l-89 -159h-120zM458 579l-181 -318h236zM446 806h-112l21 114h112zM661 806h-112l21 114h112z" />
    <glyph glyph-name="Atilde" unicode="&#xc3;" horiz-adv-x="694" 
d="M430 720h114l140 -720h-124l-30 159h-311l-89 -159h-120zM458 579l-181 -318h236zM361 805l22 108c33 30 84 40 112 40c62 0 98 -50 147 -50c22 0 73 10 108 50l-21 -108c-34 -30 -88 -40 -116 -40c-63 0 -94 50 -143 50c-28 0 -73 -10 -109 -50z" />
    <glyph glyph-name="Acircumflex" unicode="&#xc2;" horiz-adv-x="694" 
d="M430 720h114l140 -720h-124l-30 159h-311l-89 -159h-120zM458 579l-181 -318h236zM478 960h98l116 -190h-109l-69 121l-120 -121h-105z" />
    <glyph glyph-name="Aacute" unicode="&#xc1;" horiz-adv-x="694" 
d="M430 720h114l140 -720h-124l-30 159h-311l-89 -159h-120zM458 579l-181 -318h236zM675 990l-170 -187h-92l123 187h139z" />
    <glyph glyph-name="Agrave" unicode="&#xc0;" horiz-adv-x="694" 
d="M430 720h114l140 -720h-124l-30 159h-311l-89 -159h-120zM458 579l-181 -318h236zM506 990l56 -187h-86l-103 187h133z" />
    <glyph glyph-name="questiondown" unicode="&#xbf;" 
d="M295 333h106l-6 -34c-16 -81 -53 -136 -126 -181c-51 -31 -92 -71 -103 -125c-14 -77 31 -107 96 -107c60 0 118 40 142 127l103 -17c-38 -132 -143 -211 -263 -211c-138 0 -219 79 -195 202c19 98 90 145 159 196c51 37 69 63 82 120zM324 520h118l-23 -118h-118z" />
    <glyph glyph-name="yen" unicode="&#xa5;" horiz-adv-x="685" 
d="M402 0h-118l20 108h-150l15 75h150l10 51h-150l14 75h143l-187 411h136l140 -316l258 316h131l-347 -411h144l-14 -75h-150l-10 -51h150l-15 -75h-150z" />
    <glyph glyph-name="cent" unicode="&#xa2;" horiz-adv-x="522" 
d="M196 -115l20 103c-116 17 -179 111 -148 272c32 161 132 256 254 272l20 103h75l-20 -103c99 -11 172 -70 151 -191h-108c7 59 -20 88 -61 97l-69 -356c41 11 77 43 101 102l104 -21c-46 -107 -127 -165 -224 -176l-20 -102h-75zM179 260c-19 -102 7 -158 56 -176l69 351
c-57 -17 -106 -73 -125 -175z" />
    <glyph glyph-name="exclamdown" unicode="&#xa1;" horiz-adv-x="246" 
d="M146 324h77l-79 -524h-120zM168 520h112l-24 -118h-112z" />
    <glyph glyph-name="Ydieresis" unicode="&#x178;" horiz-adv-x="685" 
d="M402 0h-118l57 299l-193 421h136l140 -316l258 316h131l-354 -421zM433 806h-112l21 114h112zM647 806h-112l21 114h112z" />
    <glyph glyph-name="zcaron" unicode="&#x17e;" horiz-adv-x="494" 
d="M428 0h-398l17 92l337 335h-254l18 93h386l-17 -93l-343 -335h308zM400 600h-98l-90 167h105l45 -98l84 98h109z" />
    <glyph glyph-name="scaron" unicode="&#x161;" horiz-adv-x="498" 
d="M58 150l103 16c-2 -52 28 -92 103 -92c48 0 112 15 122 67c7 34 -8 52 -49 63l-126 32c-65 17 -118 55 -102 141c23 112 127 158 237 158c124 0 189 -70 168 -166h-99c6 55 -32 77 -89 77c-56 0 -107 -22 -114 -61c-7 -29 16 -45 44 -52l133 -33c59 -16 121 -52 102 -152
c-22 -115 -132 -163 -247 -163c-127 0 -197 63 -186 165zM397 600h-98l-91 167h105l45 -98l84 98h109z" />
    <glyph glyph-name="Zcaron" unicode="&#x17d;" horiz-adv-x="668" 
d="M612 0h-556l20 106l506 508h-388l20 106h526l-21 -106l-512 -508h424zM530 790h-98l-107 183h105l62 -114l107 114h109z" />
    <glyph glyph-name="OE" unicode="&#x152;" horiz-adv-x="1024" 
d="M957 0h-563c-236 0 -322 137 -278 362c45 232 192 358 428 358h542l-20 -106h-359l-38 -194h310l-21 -106h-309l-41 -208h370zM490 105l99 509h-58c-144 0 -255 -54 -294 -251c-34 -180 30 -258 192 -258h61z" />
    <glyph glyph-name="Scaron" unicode="&#x160;" horiz-adv-x="659" 
d="M89 230l116 8c-13 -105 47 -152 149 -152c90 0 159 41 172 111c8 45 -8 76 -61 97c-34 14 -140 41 -180 55c-120 40 -128 109 -115 177c27 141 165 209 290 209c163 0 256 -73 226 -221h-115c13 78 -31 120 -127 120c-72 0 -146 -32 -159 -99c-7 -34 5 -60 41 -74
c31 -13 120 -40 185 -59c100 -30 161 -86 139 -200c-29 -148 -181 -217 -311 -217c-185 0 -271 85 -250 245zM520 790h-98l-107 183h105l62 -114l107 114h109z" />
    <glyph glyph-name="Sacute" unicode="&#x15a;" horiz-adv-x="659" 
d="M89 230l116 8c-13 -105 47 -152 149 -152c90 0 159 41 172 111c8 45 -8 76 -61 97c-34 14 -140 41 -180 55c-120 40 -128 109 -115 177c27 141 165 209 290 209c163 0 256 -73 226 -221h-115c13 78 -31 120 -127 120c-72 0 -146 -32 -159 -99c-7 -34 5 -60 41 -74
c31 -13 120 -40 185 -59c100 -30 161 -86 139 -200c-29 -148 -181 -217 -311 -217c-185 0 -271 85 -250 245zM652 990l-171 -187h-92l124 187h139z" />
    <glyph glyph-name="tcommaaccent" unicode="&#x163;" horiz-adv-x="334" 
d="M297 93l-7 -91c-22 -7 -60 -12 -79 -12c-109 0 -121 60 -102 162l55 281h-74l16 87h74l24 126l119 43l-32 -169h93l-17 -87h-92l-52 -269c-9 -45 -15 -77 32 -77c10 0 25 1 42 6zM154 -207h-60l22 117h118l-22 -117c-15 -76 -57 -123 -117 -147l-19 46
c38 15 66 40 78 101z" />
    <glyph glyph-name="uhungarumlaut" unicode="&#x171;" horiz-adv-x="543" 
d="M472 520h111l-99 -520h-102l14 75c-50 -59 -108 -90 -176 -90c-144 0 -165 92 -141 216l61 319h111l-60 -315c-15 -80 -5 -127 66 -127c72 0 141 55 161 159zM448 790l-147 -187h-92l100 187h139zM649 790l-147 -187h-92l100 187h139z" />
    <glyph glyph-name="uring" unicode="&#x16f;" horiz-adv-x="543" 
d="M583 520h-111l-54 -283c-20 -104 -89 -159 -161 -159c-71 0 -81 47 -66 127l60 315h-111l-61 -319c-24 -124 -3 -216 141 -216c68 0 126 31 176 90l-14 -75h102zM262 730c14 74 88 135 161 135c75 0 123 -61 108 -135c-14 -74 -86 -134 -160 -134s-124 60 -109 134z
M335 730c-7 -34 16 -61 50 -61s65 27 72 61s-15 61 -49 61c-33 0 -66 -27 -73 -61z" />
    <glyph glyph-name="rcaron" unicode="&#x159;" horiz-adv-x="429" 
d="M167 0h-111l99 520h102l-17 -90c46 70 94 105 162 105c40 0 66 -8 87 -27l-44 -99c-18 13 -35 22 -66 22c-86 0 -143 -67 -162 -168zM384 600h-98l-91 167h105l45 -98l84 98h109z" />
    <glyph glyph-name="ohungarumlaut" unicode="&#x151;" horiz-adv-x="546" 
d="M68 260c35 179 159 275 301 275s231 -96 195 -275c-34 -179 -159 -275 -301 -275s-229 96 -195 275zM179 260c-24 -126 27 -183 102 -183c76 0 149 57 172 183c25 126 -26 182 -101 182c-76 0 -149 -56 -173 -182zM438 790l-147 -187h-92l100 187h139zM639 790l-147 -187
h-92l100 187h139z" />
    <glyph glyph-name="ncaron" unicode="&#x148;" horiz-adv-x="559" 
d="M167 0h-111l99 520h102l-14 -75c50 64 107 90 175 90c144 0 165 -92 142 -216l-61 -319h-111l60 315c15 79 -2 126 -73 126c-72 0 -134 -55 -155 -158zM427 600h-98l-91 167h105l45 -98l84 98h109z" />
    <glyph glyph-name="nacute" unicode="&#x144;" horiz-adv-x="559" 
d="M167 0h-111l99 520h102l-14 -75c50 64 107 90 175 90c144 0 165 -92 142 -216l-61 -319h-111l60 315c15 79 -2 126 -73 126c-72 0 -134 -55 -155 -158zM558 790l-170 -187h-92l123 187h139z" />
    <glyph glyph-name="dcroat" unicode="&#x111;" horiz-adv-x="552" 
d="M485 572h-67l15 76h68l13 72h111l-13 -72h61l-14 -76h-63l-109 -572h-101l12 67c-39 -50 -93 -82 -159 -82c-137 0 -202 106 -170 275s141 275 278 275c55 0 98 -23 119 -67zM436 260c24 121 -20 182 -94 182c-73 0 -138 -61 -162 -182c-24 -122 20 -183 92 -183
c65 0 141 61 164 183z" />
    <glyph glyph-name="ecaron" unicode="&#x11b;" horiz-adv-x="526" 
d="M526 152c-55 -111 -149 -167 -266 -167c-141 0 -226 96 -192 275c35 179 158 275 298 275c121 0 192 -71 190 -154c-3 -117 -100 -151 -213 -151h-169c-15 -106 39 -153 111 -153c56 0 112 35 140 97zM347 442c-58 0 -125 -41 -155 -130h163c55 0 89 18 90 67
c1 42 -47 63 -98 63zM414 600h-98l-91 167h105l45 -98l84 98h109z" />
    <glyph glyph-name="eogonek" unicode="&#x119;" horiz-adv-x="526" 
d="M526 152c-37 -74 -92 -107 -155 -147c-30 -20 -58 -40 -65 -82c-7 -38 11 -62 44 -62c30 0 52 13 74 43c13 -16 28 -32 42 -48c-23 -31 -70 -72 -135 -72c-70 0 -123 40 -107 122c6 31 27 64 51 80c-13 0 -26 0 -38 1c-129 9 -202 106 -169 273c34 179 158 275 298 275
c121 0 192 -71 190 -154c-2 -117 -101 -151 -213 -151h-169c-15 -106 39 -153 111 -153c56 0 112 35 140 97c34 -8 67 -15 101 -22zM347 442c-58 0 -125 -41 -155 -130h153c59 0 98 14 100 67c1 42 -47 63 -98 63z" />
    <glyph glyph-name="ccaron" unicode="&#x10d;" horiz-adv-x="522" 
d="M179 260c-24 -126 22 -183 96 -183c56 0 105 32 136 107l104 -21c-51 -119 -147 -178 -259 -178c-140 0 -222 96 -188 275c35 179 154 275 294 275c116 0 209 -59 186 -194h-108c10 74 -35 101 -95 101c-73 0 -142 -56 -166 -182zM417 600h-98l-91 167h105l45 -98l84 98
h109z" />
    <glyph glyph-name="cacute" unicode="&#x107;" horiz-adv-x="522" 
d="M179 260c-24 -126 22 -183 96 -183c56 0 105 32 136 107l104 -21c-51 -119 -147 -178 -259 -178c-140 0 -222 96 -188 275c35 179 154 275 294 275c116 0 209 -59 186 -194h-108c10 74 -35 101 -95 101c-73 0 -142 -56 -166 -182zM552 790l-171 -187h-92l124 187h139z
" />
    <glyph glyph-name="lacute" unicode="&#x13a;" horiz-adv-x="235" 
d="M167 0h-111l133 695l119 40zM462 990l-171 -187h-92l124 187h139z" />
    <glyph glyph-name="abreve" unicode="&#x103;" horiz-adv-x="528" 
d="M371 60c-59 -55 -118 -75 -180 -75c-96 0 -167 48 -147 150c22 112 115 156 237 169c55 5 108 14 136 26l3 17c13 64 -21 98 -88 98c-62 0 -105 -37 -130 -94l-95 27c49 120 152 157 251 157c137 0 197 -67 170 -208l-43 -221c-11 -53 -6 -87 9 -106h-112
c-14 14 -13 38 -11 60zM382 149l20 104c-24 -9 -71 -20 -123 -28c-54 -9 -109 -23 -120 -84c-9 -51 22 -70 69 -70c60 0 124 43 154 78zM457 720h75c-17 -89 -82 -147 -182 -147s-140 59 -123 147h76c-5 -47 21 -69 62 -69s77 22 92 69z" />
    <glyph glyph-name="racute" unicode="&#x155;" horiz-adv-x="429" 
d="M167 0h-111l99 520h102l-17 -90c46 70 94 105 162 105c40 0 66 -8 87 -27l-44 -99c-18 13 -35 22 -66 22c-86 0 -143 -67 -162 -168zM509 790l-171 -187h-92l124 187h139z" />
    <glyph glyph-name="Tcommaaccent" unicode="&#x162;" horiz-adv-x="635" 
d="M376 0h-118l118 614h-235l20 106h588l-21 -106h-235zM281 -207h-60l22 117h118l-22 -117c-15 -76 -57 -123 -117 -147l-19 46c38 15 66 40 78 101z" />
    <glyph glyph-name="Uhungarumlaut" unicode="&#x170;" horiz-adv-x="733" 
d="M597 304l80 416h118l-80 -418c-37 -189 -155 -317 -352 -317c-195 0 -265 128 -229 317l80 418h118l-80 -416c-27 -138 13 -213 132 -213s186 75 213 213zM585 990l-147 -187h-92l100 187h139zM789 990l-147 -187h-92l100 187h139z" />
    <glyph glyph-name="Uring" unicode="&#x16e;" horiz-adv-x="733" 
d="M677 720l-80 -416c-27 -138 -94 -213 -213 -213s-159 75 -132 213l80 416h-118l-80 -418c-36 -189 34 -317 229 -317c197 0 315 128 352 317l80 418h-118zM404 900c15 74 88 135 162 135s122 -61 107 -135c-14 -74 -86 -134 -160 -134s-123 60 -109 134zM477 900
c-6 -34 16 -61 50 -61s66 27 72 61c7 34 -14 61 -48 61s-67 -27 -74 -61z" />
    <glyph glyph-name="Rcaron" unicode="&#x158;" horiz-adv-x="690" 
d="M76 0l138 720h256c148 0 265 -54 234 -213c-22 -110 -98 -176 -217 -194c69 -17 107 -83 128 -146l58 -167h-133l-41 121c-31 101 -70 155 -170 155h-83l-52 -276h-118zM311 614l-44 -236h125c109 0 174 39 190 119c18 93 -52 117 -147 117h-124zM501 790h-98l-107 183
h105l61 -114l108 114h109z" />
    <glyph glyph-name="Ohungarumlaut" unicode="&#x150;" horiz-adv-x="778" 
d="M115 360c40 210 195 375 415 375c219 0 310 -165 270 -375c-41 -211 -196 -375 -415 -375c-220 0 -311 164 -270 375zM238 360c-31 -160 24 -274 167 -274c135 0 241 114 273 274c30 160 -32 274 -167 274c-136 0 -243 -114 -273 -274zM594 990l-147 -187h-92l100 187
h139zM798 990l-147 -187h-92l100 187h139z" />
    <glyph glyph-name="Ncaron" unicode="&#x147;" horiz-adv-x="740" 
d="M190 0h-114l138 720h120l251 -529l102 529h114l-138 -720h-120l-252 529zM567 790h-98l-107 183h105l62 -114l107 114h109z" />
    <glyph glyph-name="Nacute" unicode="&#x143;" horiz-adv-x="740" 
d="M190 0h-114l138 720h120l251 -529l102 529h114l-138 -720h-120l-252 529zM705 990l-170 -187h-92l123 187h139z" />
    <glyph glyph-name="Dcroat" unicode="&#x110;" horiz-adv-x="794" 
d="M400 0h-241l61 316h-142l17 93h143l60 311h230c235 0 334 -126 289 -358c-44 -225 -182 -362 -417 -362zM338 316l-41 -211h107c162 0 258 78 292 258c39 197 -52 251 -196 251h-104l-40 -205h155l-17 -93h-156z" />
    <glyph glyph-name="Dcaron" unicode="&#x10e;" horiz-adv-x="711" 
d="M317 0h-241l138 720h230c235 0 333 -126 289 -358c-44 -225 -181 -362 -416 -362zM311 614l-98 -509h108c162 0 257 78 291 258c38 197 -52 251 -196 251h-105zM500 790h-98l-107 183h105l62 -114l107 114h109z" />
    <glyph glyph-name="Ecaron" unicode="&#x11a;" horiz-adv-x="660" 
d="M594 0h-518l138 720h508l-21 -106h-390l-37 -194h340l-21 -106h-340l-40 -208h400zM537 790h-98l-107 183h105l62 -114l107 114h109z" />
    <glyph glyph-name="Eogonek" unicode="&#x118;" horiz-adv-x="660" 
d="M461 0h-385l139 720h508l-20 -106h-390l-38 -194h340l-20 -106h-340l-41 -208h400l-20 -106h-29c-47 0 -86 -37 -94 -77c-7 -38 11 -62 44 -62c30 0 52 13 74 43l42 -48c-23 -31 -70 -72 -135 -72c-70 0 -122 42 -106 123c8 40 37 77 71 93z" />
    <glyph glyph-name="Ccaron" unicode="&#x10c;" horiz-adv-x="736" 
d="M238 360c-31 -160 19 -274 162 -274c97 0 171 58 217 153l113 -28c-63 -136 -182 -226 -349 -226c-220 0 -307 164 -266 375c40 210 192 375 412 375c164 0 284 -91 256 -245h-116c8 100 -55 144 -159 144c-136 0 -240 -114 -270 -274zM587 790h-98l-107 183h105l62 -114
l107 114h109z" />
    <glyph glyph-name="Cacute" unicode="&#x106;" horiz-adv-x="736" 
d="M238 360c-31 -160 19 -274 162 -274c97 0 171 58 217 153l113 -28c-63 -136 -182 -226 -349 -226c-220 0 -307 164 -266 375c40 210 192 375 412 375c164 0 284 -91 256 -245h-116c8 100 -55 144 -159 144c-136 0 -240 -114 -270 -274zM722 990l-171 -187h-92l124 187
h139z" />
    <glyph glyph-name="Lacute" unicode="&#x139;" horiz-adv-x="618" 
d="M588 0h-512l138 720h118l-119 -614h395zM515 990l-170 -187h-92l123 187h139z" />
    <glyph glyph-name="Abreve" unicode="&#x102;" horiz-adv-x="694" 
d="M430 720h114l140 -720h-124l-30 159h-311l-89 -159h-120zM458 579l-181 -318h236zM617 920h87c-16 -89 -88 -167 -211 -167c-124 0 -160 79 -144 167h88c-7 -50 15 -81 73 -81c57 0 94 31 107 81z" />
    <glyph glyph-name="Racute" unicode="&#x154;" horiz-adv-x="690" 
d="M76 0l138 720h256c148 0 265 -54 234 -213c-22 -110 -98 -176 -217 -194c69 -17 107 -83 128 -146l58 -167h-133l-41 121c-31 101 -70 155 -170 155h-83l-52 -276h-118zM311 614l-44 -236h125c109 0 174 39 190 119c18 93 -52 117 -147 117h-124zM652 990l-171 -187h-92
l124 187h139z" />
    <glyph glyph-name="zdotaccent" unicode="&#x17c;" horiz-adv-x="494" 
d="M428 0h-398l17 92l337 335h-254l18 93h386l-17 -93l-343 -335h308zM400 607h-111l22 113h111z" />
    <glyph glyph-name="Lcaron" unicode="&#x13d;" horiz-adv-x="618" 
d="M588 0h-512l138 720h118l-119 -614h395zM341 790h-98l-107 183h105l61 -114l108 114h109z" />
    <glyph glyph-name="scommaaccent" unicode="&#x219;" horiz-adv-x="498" 
d="M58 150l103 16c-2 -52 28 -92 103 -92c48 0 112 15 122 67c7 34 -8 52 -49 63l-126 32c-65 17 -118 55 -102 141c23 112 127 158 237 158c124 0 189 -70 168 -166h-99c6 55 -32 77 -89 77c-56 0 -107 -22 -114 -61c-7 -29 16 -45 44 -52l133 -33c59 -16 121 -52 102 -152
c-22 -115 -132 -163 -247 -163c-127 0 -197 63 -186 165zM207 -207h-60l22 117h118l-22 -117c-15 -76 -57 -123 -117 -147l-19 46c38 15 66 40 78 101z" />
    <glyph glyph-name="aogonek" unicode="&#x105;" horiz-adv-x="548" 
d="M386 60c-59 -55 -118 -75 -180 -75c-95 0 -167 48 -147 150c22 112 115 156 237 169c56 5 108 14 136 26l4 17c13 64 -21 98 -88 98c-63 0 -105 -37 -131 -94l-95 27c49 120 152 157 251 157c137 0 197 -67 170 -208l-43 -221c-10 -53 -7 -87 8 -106h-30
c-47 0 -91 -27 -100 -77c-7 -38 11 -62 44 -62c30 0 52 13 74 43l42 -48c-23 -31 -69 -72 -135 -72c-69 0 -122 42 -107 123c12 61 56 95 101 111c-8 11 -12 29 -11 42zM397 149l21 104c-24 -9 -72 -20 -124 -28c-54 -9 -109 -23 -120 -84c-10 -51 23 -70 70 -70
c60 0 123 43 153 78z" />
    <glyph glyph-name="lslash" unicode="&#x142;" horiz-adv-x="409" 
d="M260 0h-111l59 306l-97 -53l-30 80l148 82l55 280l118 40l-49 -253l97 53l31 -80l-148 -82z" />
    <glyph glyph-name="Zdotaccent" unicode="&#x17b;" horiz-adv-x="668" 
d="M612 0h-556l20 106l506 508h-388l20 106h526l-21 -106l-512 -508h424zM524 805h-111l22 115h111z" />
    <glyph glyph-name="Scommaaccent" unicode="&#x218;" horiz-adv-x="659" 
d="M89 230l116 8c-13 -105 47 -152 149 -152c90 0 159 41 172 111c8 45 -8 76 -61 97c-34 14 -140 41 -180 55c-120 40 -128 109 -115 177c27 141 165 209 290 209c163 0 256 -73 226 -221h-115c13 78 -31 120 -127 120c-72 0 -146 -32 -159 -99c-7 -34 5 -60 41 -74
c31 -13 120 -40 185 -59c100 -30 161 -86 139 -200c-29 -148 -181 -217 -311 -217c-185 0 -271 85 -250 245zM300 -207h-60l22 117h118l-22 -117c-15 -76 -57 -123 -117 -147l-19 46c38 15 66 40 78 101z" />
    <glyph glyph-name="Aogonek" unicode="&#x104;" horiz-adv-x="694" 
d="M431 720h114l139 -720h-27c-52 0 -94 -36 -102 -77c-7 -38 11 -62 44 -62c30 0 52 13 74 43l42 -48c-23 -31 -69 -72 -135 -72c-69 0 -122 42 -107 123c11 53 47 86 84 104l-26 148h-311l-90 -159h-120zM459 579l-182 -318h237z" />
    <glyph glyph-name="Lslash" unicode="&#x141;" horiz-adv-x="685" 
d="M655 0h-512l59 302l-91 -49l-30 80l141 78l60 309h118l-46 -237l96 52l31 -80l-148 -81l-52 -268h395z" />
    <glyph glyph-name="zacute" unicode="&#x17a;" horiz-adv-x="494" 
d="M428 0h-398l17 92l337 335h-254l18 93h386l-17 -93l-343 -335h308zM535 790l-170 -187h-92l123 187h139z" />
    <glyph glyph-name="sacute" unicode="&#x15b;" horiz-adv-x="498" 
d="M58 150l103 16c-2 -52 28 -92 103 -92c48 0 112 15 122 67c7 34 -8 52 -49 63l-126 32c-65 17 -118 55 -102 141c23 112 127 158 237 158c124 0 189 -70 168 -166h-99c6 55 -32 77 -89 77c-56 0 -107 -22 -114 -61c-7 -29 16 -45 44 -52l133 -33c59 -16 121 -52 102 -152
c-22 -115 -132 -163 -247 -163c-127 0 -197 63 -186 165zM532 790l-171 -187h-92l124 187h139z" />
    <glyph glyph-name="Zacute" unicode="&#x179;" horiz-adv-x="668" 
d="M612 0h-556l20 106l506 508h-388l20 106h526l-21 -106l-512 -508h424zM658 990l-170 -187h-92l123 187h139z" />
    <glyph glyph-name="Tcaron" unicode="&#x164;" horiz-adv-x="635" 
d="M376 0h-118l118 614h-235l20 106h588l-21 -106h-235zM507 790h-98l-107 183h105l62 -114l107 114h109z" />
    <glyph glyph-name="dcaron" unicode="&#x10f;" horiz-adv-x="682" 
d="M527 720h111l-139 -720h-101l12 67c-39 -50 -93 -82 -158 -82c-137 0 -203 106 -171 275c34 169 142 275 279 275c55 0 97 -23 119 -67zM449 260c24 121 -20 182 -94 182s-139 -61 -163 -182c-23 -122 19 -183 91 -183c66 0 142 61 166 183zM737 602h-60l22 118h118
l-22 -118c-15 -75 -56 -123 -116 -147l-19 47c38 15 66 40 77 100z" />
    <glyph glyph-name="lcaron" unicode="&#x13e;" horiz-adv-x="355" 
d="M172 0h-111l135 695l118 40zM411 602h-61l23 118h118l-23 -118c-14 -75 -56 -123 -116 -147l-19 47c38 15 66 40 78 100z" />
    <glyph glyph-name="tcaron" unicode="&#x165;" horiz-adv-x="455" 
d="M310 93l-7 -91c-22 -7 -60 -12 -79 -12c-109 0 -121 60 -101 162l54 281h-74l18 87h74l24 126l120 43l-33 -169h92l-17 -87h-93l-52 -269c-9 -45 -15 -77 32 -77c10 0 25 1 42 6zM511 602h-61l23 118h118l-23 -118c-14 -75 -56 -123 -116 -147l-19 47c38 15 66 40 78 100
z" />
    <glyph glyph-name="oe" unicode="&#x153;" horiz-adv-x="913" 
d="M68 260c35 179 159 275 301 275c80 0 143 -31 176 -90c55 59 128 90 207 90c122 0 193 -71 190 -154c-3 -117 -100 -151 -212 -151h-170c-14 -106 39 -153 111 -153c57 0 113 35 141 97l100 -22c-55 -111 -148 -167 -266 -167c-80 0 -140 31 -173 90
c-55 -59 -129 -90 -210 -90c-142 0 -229 96 -195 275zM179 260c-24 -126 27 -183 102 -183c76 0 149 57 172 183c25 126 -26 182 -101 182c-76 0 -149 -56 -173 -182zM734 442c-58 0 -126 -41 -156 -130h163c55 0 89 18 90 67c1 42 -47 63 -97 63z" />
    <glyph glyph-name="ae" unicode="&#xe6;" horiz-adv-x="870" 
d="M869 152c-55 -111 -148 -167 -265 -167c-72 0 -128 24 -162 72c-70 -52 -144 -72 -210 -72c-115 0 -184 52 -173 150c13 113 115 156 237 169c56 5 102 14 130 26c1 5 2 11 3 17c13 64 -14 98 -81 98c-63 0 -105 -37 -131 -94c-32 9 -64 18 -95 27
c49 120 152 157 251 157c79 0 125 -24 151 -69c51 45 116 69 186 69c121 0 192 -71 189 -154c-2 -117 -100 -151 -212 -151h-170c-14 -106 39 -153 111 -153c57 0 113 35 141 97c33 -8 67 -15 100 -22zM260 71c60 0 106 19 150 53c-7 27 -8 58 -5 92c1 11 2 23 5 36
c-24 -10 -66 -20 -116 -27c-54 -9 -115 -24 -121 -84c-5 -51 32 -70 87 -70zM691 442c-58 0 -126 -41 -156 -130h154c58 0 98 14 99 67c1 42 -47 63 -97 63z" />
    </font>
</defs>
</svg>
