<?xml version="1.0" standalone="no"?>
<!DOCTYPE svg PUBLIC "-//W3C//DTD SVG 1.1//EN" "http://www.w3.org/Graphics/SVG/1.1/DTD/svg11.dtd" >
<svg xmlns="http://www.w3.org/2000/svg" xmlns:xlink="http://www.w3.org/1999/xlink" version="1.1">
<metadata>
Created by FontForge 20160407 at Fri Jun  3 16:17:03 2016
 By Jimmy Wärting
Copyright (c) 2009 by abstrkt. All rights reserved.
</metadata>
<defs>
<font id="VremenaGrotesk" horiz-adv-x="570" >
  <font-face 
    font-family="Vremena Grotesk"
    font-weight="400"
    font-stretch="normal"
    units-per-em="1000"
    panose-1="0 0 0 0 0 0 0 0 0 0"
    ascent="750"
    descent="-250"
    x-height="520"
    cap-height="720"
    bbox="-55 -354 4625 1035"
    underline-thickness="50"
    underline-position="-100"
    unicode-range="U+0020-2122"
  />
<missing-glyph horiz-adv-x="278" 
 />
    <glyph glyph-name=".notdef" horiz-adv-x="278" 
 />
    <glyph glyph-name=".null" horiz-adv-x="0" 
 />
    <glyph glyph-name="CR" horiz-adv-x="278" 
 />
    <glyph glyph-name="space" unicode=" " horiz-adv-x="278" 
 />
    <glyph glyph-name="afii10069" unicode="&#x434;" horiz-adv-x="593" 
d="M126 359v161h383v-428h69v-232h-106v140h-355v-140h-106v232h19c89 0 96 163 96 267zM169 92h229v335h-165v-95c0 -85 -7 -198 -64 -240z" />
    <glyph glyph-name="afii10070" unicode="&#x435;" horiz-adv-x="549" 
d="M516 230h-374c7 -106 69 -153 141 -153c57 0 107 35 122 97l105 -22c-33 -111 -116 -167 -234 -167c-140 0 -245 96 -245 275s105 275 245 275c148 0 241 -102 241 -261c0 -13 0 -39 -1 -44zM275 442c-58 0 -117 -41 -130 -130h257c-4 77 -52 130 -127 130z" />
    <glyph glyph-name="afii10072" unicode="&#x436;" horiz-adv-x="746" 
d="M429 216v-216h-111v216h-9c-37 0 -62 -15 -85 -60l-78 -156h-126l92 173c31 51 60 81 97 90v4c-39 10 -58 44 -79 94c-16 37 -19 58 -62 58h-22l-4 101h22c62 0 95 -5 128 -57c10 -16 36 -83 49 -111c19 -41 41 -43 68 -43h9v211h111v-211h8c27 0 50 2 68 43
c13 28 40 95 50 111c32 52 65 57 128 57h21l-3 -101h-23c-43 0 -46 -21 -61 -58c-21 -50 -40 -84 -79 -94v-4c37 -9 65 -39 96 -90l92 -173h-126l-77 156c-24 45 -49 60 -86 60h-8z" />
    <glyph glyph-name="afii10073" unicode="&#x437;" horiz-adv-x="482" 
d="M199 228v82c27 1 51 1 57 1c41 4 64 28 64 64c0 41 -30 70 -82 70s-86 -33 -95 -84l-98 23c19 98 93 151 196 151c108 0 190 -53 190 -153c0 -56 -34 -93 -78 -107c54 -12 98 -59 98 -127c0 -112 -100 -163 -205 -163c-118 0 -196 55 -215 161l103 18
c12 -56 49 -90 112 -90c59 0 98 30 98 80c0 68 -60 74 -98 74h-47z" />
    <glyph glyph-name="afii10074" unicode="&#x438;" 
d="M61 0v520h111v-364l219 364h118v-520h-111v361l-219 -361h-118z" />
    <glyph glyph-name="afii10075" unicode="&#x439;" 
d="M367 720h76c0 -89 -55 -147 -155 -147s-151 59 -151 147h76c5 -47 34 -69 75 -69s74 22 79 69zM61 0v520h111v-364l219 364h118v-520h-111v361l-219 -361h-118z" />
    <glyph glyph-name="afii10076" unicode="&#x43a;" horiz-adv-x="532" 
d="M61 0v520h111v-211h34c30 0 58 5 84 43c18 26 43 95 52 111c29 52 62 62 125 62h22l-5 -101h-22c-43 0 -48 -26 -63 -63c-21 -50 -47 -81 -88 -90v-4c41 -10 81 -43 108 -94l93 -173h-126l-80 156c-24 43 -54 60 -94 60h-40v-216h-111z" />
    <glyph glyph-name="afii10077" unicode="&#x43b;" horiz-adv-x="579" 
d="M124 289v231h393v-520h-111v427h-175v-168c0 -123 -10 -274 -140 -274c-29 0 -59 10 -68 15v93c11 -6 25 -11 39 -11c66 -1 62 121 62 207z" />
    <glyph glyph-name="afii10078" unicode="&#x43c;" horiz-adv-x="704" 
d="M61 0v520h162l129 -392l142 392h149v-520h-111v375l-135 -375h-93l-132 388v-388h-111z" />
    <glyph glyph-name="afii10079" unicode="&#x43d;" horiz-adv-x="564" 
d="M61 0v520h111v-211h219v211h111v-520h-111v216h-219v-216h-111z" />
    <glyph glyph-name="afii10080" unicode="&#x43e;" horiz-adv-x="559" 
d="M31 260c0 179 106 275 249 275c142 0 248 -96 248 -275s-106 -275 -248 -275c-143 0 -249 96 -249 275zM142 260c0 -126 62 -183 138 -183c75 0 137 57 137 183s-62 182 -137 182c-76 0 -138 -56 -138 -182z" />
    <glyph glyph-name="afii10081" unicode="&#x43f;" horiz-adv-x="560" 
d="M61 0v520h438v-520h-111v427h-216v-427h-111z" />
    <glyph glyph-name="afii10082" unicode="&#x440;" horiz-adv-x="560" 
d="M172 -200h-111v720h101v-68c30 50 78 83 144 83c137 0 223 -106 223 -275s-88 -275 -225 -275c-55 0 -102 23 -132 66v-251zM161 260c0 -122 56 -183 130 -183s127 61 127 183c0 121 -54 182 -126 182c-66 0 -131 -61 -131 -182z" />
    <glyph glyph-name="afii10083" unicode="&#x441;" horiz-adv-x="529" 
d="M142 260c0 -126 57 -183 131 -183c56 0 100 32 116 107l108 -21c-28 -119 -112 -178 -224 -178c-141 0 -242 96 -242 275s101 275 242 275c112 0 196 -60 224 -179l-108 -21c-16 76 -60 107 -116 107c-73 0 -131 -56 -131 -182z" />
    <glyph glyph-name="afii10084" unicode="&#x442;" horiz-adv-x="478" 
d="M20 427v93h438v-93h-164v-428h-111v428h-163z" />
    <glyph glyph-name="afii10085" unicode="&#x443;" horiz-adv-x="521" 
d="M64 -198l-10 97c17 -6 33 -11 55 -11c39 0 65 19 86 71l17 46l-202 515h114l140 -383l138 383h109l-210 -567c-38 -101 -84 -163 -173 -163c-24 0 -45 5 -64 12z" />
    <glyph glyph-name="afii10086" unicode="&#x444;" horiz-adv-x="827" 
d="M464 260c0 -127 41 -183 107 -183c65 0 113 56 113 183c0 125 -47 182 -113 182c-55 0 -107 -54 -107 -182zM362 260c0 128 -51 182 -107 182c-65 0 -113 -57 -113 -182c0 -127 48 -183 114 -183c65 0 106 56 106 183zM469 -200h-111v251c-19 -33 -61 -66 -123 -66
c-133 0 -204 121 -204 275s65 275 204 275c69 0 109 -41 123 -69v229l111 40v-269c14 28 54 69 123 69c139 0 203 -121 203 -275s-70 -275 -203 -275c-62 0 -104 33 -123 66v-251z" />
    <glyph glyph-name="afii10087" unicode="&#x445;" horiz-adv-x="537" 
d="M146 0h-128l183 266l-171 254h134l107 -174l109 174h125l-171 -251l185 -269h-131l-122 186z" />
    <glyph glyph-name="afii10088" unicode="&#x446;" horiz-adv-x="583" 
d="M61 0v520h111v-428h216v428h111v-428h69v-232h-106v140h-401z" />
    <glyph glyph-name="afii10089" unicode="&#x447;" horiz-adv-x="526" 
d="M38 366v154h111v-114c0 -94 13 -150 102 -150c33 0 67 10 102 35v229h111v-520h-111v208c-38 -29 -83 -41 -129 -41c-131 0 -186 79 -186 199z" />
    <glyph glyph-name="afii10090" unicode="&#x448;" horiz-adv-x="780" 
d="M61 0v520h111v-428h162v428h111v-428h162v428h111v-520h-657z" />
    <glyph glyph-name="afii10091" unicode="&#x449;" horiz-adv-x="802" 
d="M718 520v-428h69v-232h-106v140h-620v520h111v-428h162v428h111v-428h162v428h111z" />
    <glyph glyph-name="afii10092" unicode="&#x44a;" horiz-adv-x="577" 
d="M16 429v91h231v-191h88c111 0 215 -33 215 -163c0 -119 -99 -166 -185 -166h-229v429h-120zM247 243v-154h75c73 0 115 20 115 77c0 56 -41 77 -106 77h-84z" />
    <glyph glyph-name="afii10093" unicode="&#x44b;" horiz-adv-x="714" 
d="M542 0v520h111v-520h-111zM61 0v520h111v-191h88c111 0 216 -33 216 -163c0 -119 -100 -166 -186 -166h-229zM172 243v-154h75c73 0 116 20 116 77c0 56 -42 77 -107 77h-84z" />
    <glyph glyph-name="afii10094" unicode="&#x44c;" horiz-adv-x="502" 
d="M61 0v520h111v-191h88c111 0 216 -33 216 -163c0 -119 -100 -166 -186 -166h-229zM172 243v-154h75c73 0 116 20 116 77c0 56 -42 77 -107 77h-84z" />
    <glyph glyph-name="afii10095" unicode="&#x44d;" horiz-adv-x="529" 
d="M210 220v85h177c-10 95 -65 137 -121 137c-60 0 -106 -31 -122 -107l-108 21c29 119 115 179 230 179c142 0 235 -98 235 -275c0 -179 -101 -275 -243 -275c-112 0 -199 58 -227 178l109 21c16 -75 61 -107 118 -107c64 0 121 40 129 143h-177z" />
    <glyph glyph-name="afii10096" unicode="&#x44e;" horiz-adv-x="768" 
d="M61 0v520h111v-211h90c17 147 115 226 236 226c134 0 238 -96 238 -275s-104 -275 -238 -275c-123 0 -220 81 -236 231h-90v-216h-111zM371 260c0 -126 57 -183 127 -183c71 0 127 57 127 183s-56 182 -127 182c-70 0 -127 -56 -127 -182z" />
    <glyph glyph-name="afii10097" unicode="&#x44f;" horiz-adv-x="534" 
d="M250 520h222v-520h-107v190h-33c-72 0 -102 -28 -130 -82l-58 -108h-128l69 124c28 51 65 91 111 97c-84 4 -142 57 -142 140c0 105 83 159 196 159zM365 277v154h-94c-76 0 -102 -31 -102 -74c0 -64 51 -80 128 -80h68z" />
    <glyph glyph-name="afii10017" unicode="&#x410;" horiz-adv-x="694" 
d="M292 720h114l278 -720h-124l-60 159h-311l-59 -159h-120zM347 579l-120 -318h237z" />
    <glyph glyph-name="afii10018" unicode="&#x411;" horiz-adv-x="666" 
d="M76 720h497v-106h-379v-174h160c172 0 265 -77 265 -222c0 -169 -128 -218 -270 -218h-273v720zM194 336v-232h158c88 0 146 26 146 117c0 73 -45 115 -148 115h-156z" />
    <glyph glyph-name="afii10019" unicode="&#x412;" horiz-adv-x="677" 
d="M360 0h-284v720h271c146 0 252 -59 252 -187c0 -68 -32 -131 -111 -157c86 -21 143 -83 143 -168c0 -152 -108 -208 -271 -208zM192 621v-204h143c79 0 145 26 145 104c0 84 -70 100 -157 100h-131zM192 318v-219h164c91 0 153 25 153 109c0 86 -76 110 -166 110h-151z
" />
    <glyph glyph-name="afii10020" unicode="&#x413;" horiz-adv-x="563" 
d="M76 0v720h464v-106h-346v-614h-118z" />
    <glyph glyph-name="afii10021" unicode="&#x414;" horiz-adv-x="761" 
d="M162 512v208h483v-615h80v-294h-118v189h-479v-189h-118v294h31c115 0 121 244 121 407zM527 105v509h-249v-51c0 -181 -3 -414 -95 -458h344z" />
    <glyph glyph-name="afii10022" unicode="&#x415;" horiz-adv-x="657" 
d="M594 0h-518v720h508v-106h-390v-194h340v-106h-340v-208h400v-106z" />
    <glyph glyph-name="afii10024" unicode="&#x416;" horiz-adv-x="1030" 
d="M574 314v-314h-118v314h-29c-76 0 -108 -24 -155 -120l-94 -194h-142l127 238c41 76 101 123 152 130c-44 9 -76 56 -91 84l-49 98c-30 57 -60 62 -93 62h-20v108h47c62 0 100 -15 148 -103l76 -141c23 -43 50 -59 96 -59h27v303h118v-303h27c46 0 73 16 96 59l76 141
c49 88 86 103 148 103h47v-108h-20c-33 0 -63 -5 -93 -62l-49 -98c-15 -28 -47 -75 -91 -84c51 -7 111 -54 152 -130l127 -238h-142l-94 194c-47 96 -79 120 -155 120h-29z" />
    <glyph glyph-name="afii10025" unicode="&#x417;" horiz-adv-x="630" 
d="M251 318v101h72c75 0 112 45 112 105c0 72 -62 110 -128 110c-84 0 -130 -49 -142 -127l-109 21c20 128 114 207 252 207c127 0 242 -69 242 -202c0 -77 -42 -133 -105 -157c90 -16 138 -89 138 -170c0 -155 -133 -221 -267 -221c-135 0 -254 60 -280 217l108 24
c17 -91 76 -141 171 -141c77 0 150 31 150 124c0 88 -74 109 -139 109h-75z" />
    <glyph glyph-name="afii10026" unicode="&#x418;" horiz-adv-x="738" 
d="M204 0h-128v720h118v-544l339 544h128v-720h-118v548z" />
    <glyph glyph-name="afii10027" unicode="&#x419;" horiz-adv-x="738" 
d="M461 920h87c0 -89 -56 -167 -179 -167c-124 0 -176 79 -176 167h88c3 -50 30 -81 88 -81c57 0 89 31 92 81zM204 0h-128v720h118v-544l339 544h128v-720h-118v548z" />
    <glyph glyph-name="afii10028" unicode="&#x41a;" horiz-adv-x="684" 
d="M76 0v720h118v-303h47c46 0 72 17 97 59l82 141c51 86 96 103 158 103h44l-4 -108h-23c-33 0 -61 -6 -93 -62l-56 -98c-16 -28 -46 -75 -91 -84c51 -7 107 -57 152 -130l144 -238h-142l-111 194c-55 92 -95 120 -175 120h-29v-314h-118z" />
    <glyph glyph-name="afii10029" unicode="&#x41b;" horiz-adv-x="730" 
d="M147 412v308h506v-720h-117v614h-273v-183c0 -218 8 -446 -171 -446c-31 0 -59 7 -77 17l-5 111c12 -7 28 -17 53 -17c91 0 84 153 84 316z" />
    <glyph glyph-name="afii10030" unicode="&#x41c;" horiz-adv-x="884" 
d="M194 0h-118v720h161l206 -573l209 573h155v-720h-117v544l-197 -544h-102l-197 544v-544z" />
    <glyph glyph-name="afii10031" unicode="&#x41d;" horiz-adv-x="731" 
d="M194 0h-118v720h118v-300h342v300h118v-720h-118v314h-342v-314z" />
    <glyph glyph-name="afii10032" unicode="&#x41e;" horiz-adv-x="778" 
d="M46 360c0 210 123 375 343 375c219 0 342 -165 342 -375c0 -211 -123 -375 -342 -375c-220 0 -343 164 -343 375zM169 360c0 -160 78 -274 220 -274c135 0 220 114 220 274s-85 274 -220 274c-136 0 -220 -114 -220 -274z" />
    <glyph glyph-name="afii10033" unicode="&#x41f;" horiz-adv-x="724" 
d="M194 0h-118v720h572v-720h-118v614h-336v-614z" />
    <glyph glyph-name="afii10034" unicode="&#x420;" horiz-adv-x="662" 
d="M194 0h-118v720h259c145 0 281 -53 281 -222c0 -145 -94 -229 -273 -229h-149v-269zM194 616v-243h146c109 0 155 49 155 122c0 91 -62 121 -157 121h-144z" />
    <glyph glyph-name="afii10035" unicode="&#x421;" horiz-adv-x="736" 
d="M169 360c0 -160 73 -274 216 -274c97 0 159 58 187 153l118 -28c-36 -136 -138 -226 -305 -226c-220 0 -339 164 -339 375c0 210 117 375 337 375c164 0 274 -86 307 -227l-118 -28c-21 97 -85 154 -189 154c-136 0 -214 -114 -214 -274z" />
    <glyph glyph-name="afii10036" unicode="&#x422;" horiz-adv-x="635" 
d="M376 0h-118v614h-235v106h588v-106h-235v-614z" />
    <glyph glyph-name="afii10037" unicode="&#x423;" horiz-adv-x="669" 
d="M298 196l-288 524h125l219 -406l185 406h120l-263 -561c-49 -108 -93 -174 -197 -174c-35 0 -88 11 -113 41l34 92c17 -13 43 -30 73 -30c37 0 64 17 86 66z" />
    <glyph glyph-name="afii10038" unicode="&#x424;" horiz-adv-x="830" 
d="M474 -15h-118v96c-182 2 -320 85 -320 279c0 193 138 275 320 278v97h118v-97c181 -3 319 -85 319 -278c0 -194 -138 -277 -319 -279v-96zM670 360c0 134 -91 174 -196 176v-352c96 2 196 40 196 176zM159 360c0 -136 91 -174 197 -176v352c-98 -2 -197 -42 -197 -176z
" />
    <glyph glyph-name="afii10039" unicode="&#x425;" horiz-adv-x="709" 
d="M158 0h-138l271 373l-243 347h142l171 -259l182 259h131l-247 -346l262 -374h-142l-192 284z" />
    <glyph glyph-name="afii10040" unicode="&#x426;" horiz-adv-x="757" 
d="M523 720h118v-615h80v-294h-118v189h-527v720h118v-614h329v614z" />
    <glyph glyph-name="afii10041" unicode="&#x427;" horiz-adv-x="665" 
d="M588 720v-720h-118v291c-61 -32 -121 -44 -189 -44c-187 0 -241 116 -241 288v185h118v-176c0 -126 23 -195 143 -195c64 0 119 11 169 40v331h118z" />
    <glyph glyph-name="afii10042" unicode="&#x428;" horiz-adv-x="945" 
d="M750 720h118v-720h-792v720h118v-614h219v614h118v-614h219v614z" />
    <glyph glyph-name="afii10043" unicode="&#x429;" horiz-adv-x="984" 
d="M868 720v-615h80v-294h-118v189h-754v720h118v-614h219v614h118v-614h219v614h118z" />
    <glyph glyph-name="afii10044" unicode="&#x42a;" horiz-adv-x="756" 
d="M296 720v-273h142c179 0 273 -81 273 -226c0 -168 -136 -221 -281 -221h-252v614h-158v106h276zM296 347v-243h137c95 0 157 30 157 120c0 73 -45 123 -155 123h-139z" />
    <glyph glyph-name="afii10045" unicode="&#x42b;" horiz-adv-x="904" 
d="M828 0h-118v720h118v-720zM76 720h118v-273h149c179 0 273 -81 273 -226c0 -168 -136 -221 -281 -221h-259v720zM194 347v-243h144c95 0 157 30 157 120c0 73 -46 123 -155 123h-146z" />
    <glyph glyph-name="afii10046" unicode="&#x42c;" horiz-adv-x="660" 
d="M76 720h118v-273h149c179 0 273 -81 273 -226c0 -168 -136 -221 -281 -221h-259v720zM194 347v-243h144c95 0 157 30 157 120c0 73 -46 123 -155 123h-146z" />
    <glyph glyph-name="afii10047" unicode="&#x42d;" horiz-adv-x="736" 
d="M278 318v99h286c-12 129 -83 217 -202 217c-104 0 -173 -57 -194 -154l-117 28c34 141 147 227 311 227c223 0 328 -165 328 -375c0 -211 -110 -375 -337 -375c-167 0 -270 90 -307 226l118 28c28 -95 92 -153 189 -153c130 0 204 93 211 232h-286z" />
    <glyph glyph-name="afii10048" unicode="&#x42e;" horiz-adv-x="1028" 
d="M194 0h-118v720h118v-300h133c20 181 134 315 326 315c213 0 329 -165 329 -375c0 -211 -116 -375 -329 -375c-198 0 -312 141 -327 329h-132v-314zM446 360c0 -160 71 -274 207 -274c129 0 206 114 206 274s-77 274 -206 274s-207 -114 -207 -274z" />
    <glyph glyph-name="afii10049" unicode="&#x42f;" horiz-adv-x="690" 
d="M613 720v-720h-117v276h-82c-101 0 -152 -54 -201 -155l-60 -121h-140l88 167c33 63 81 126 155 143c-109 12 -182 85 -182 195c0 160 129 215 277 215h262zM496 378v236h-130c-95 0 -171 -22 -171 -117c0 -80 56 -119 169 -119h132z" />
    <glyph glyph-name="a" unicode="a" horiz-adv-x="548" 
d="M375 60c-49 -55 -104 -75 -166 -75c-95 0 -176 48 -176 150c0 112 85 156 204 169c55 5 106 14 132 26v17c0 64 -40 98 -107 98c-63 0 -98 -37 -113 -94l-100 27c26 120 122 157 221 157c137 0 210 -67 210 -208v-221c0 -53 10 -87 28 -106h-112c-15 14 -19 38 -21 60z
M369 149v104c-22 -9 -68 -20 -118 -28c-52 -9 -105 -23 -104 -84c0 -51 37 -70 83 -70c60 0 115 43 139 78z" />
    <glyph glyph-name="b" unicode="b" horiz-adv-x="560" 
d="M61 720h111v-252c30 44 77 67 132 67c137 0 225 -106 225 -275s-86 -275 -223 -275c-66 0 -114 32 -144 82v-67h-101v720zM161 260c0 -122 65 -183 131 -183c72 0 126 61 126 183c0 121 -53 182 -127 182s-130 -61 -130 -182z" />
    <glyph glyph-name="c" unicode="c" horiz-adv-x="529" 
d="M142 260c0 -126 57 -183 131 -183c56 0 100 32 116 107l108 -21c-28 -119 -112 -178 -224 -178c-141 0 -242 96 -242 275s101 275 242 275c112 0 196 -60 224 -179l-108 -21c-16 76 -60 107 -116 107c-73 0 -131 -56 -131 -182z" />
    <glyph glyph-name="d" unicode="d" horiz-adv-x="560" 
d="M388 720h111v-720h-101v67c-30 -50 -78 -82 -143 -82c-137 0 -224 106 -224 275s89 275 226 275c55 0 101 -23 131 -67v252zM399 260c0 121 -56 182 -130 182c-73 0 -127 -61 -127 -182c0 -122 55 -183 127 -183c65 0 130 61 130 183z" />
    <glyph glyph-name="e" unicode="e" horiz-adv-x="549" 
d="M516 230h-374c7 -106 69 -153 141 -153c57 0 107 35 122 97l105 -22c-33 -111 -116 -167 -234 -167c-140 0 -245 96 -245 275s105 275 245 275c148 0 241 -102 241 -261c0 -13 0 -39 -1 -44zM275 442c-58 0 -117 -41 -130 -130h257c-4 77 -52 130 -127 130z" />
    <glyph glyph-name="f" unicode="f" horiz-adv-x="331" 
d="M199 0h-108v433h-78v87h78v21c0 110 50 177 154 177c36 0 78 -8 95 -16l-17 -90c-14 6 -41 10 -57 10c-47 0 -67 -27 -67 -79v-23h105v-87h-105v-433z" />
    <glyph glyph-name="g" unicode="g" horiz-adv-x="560" 
d="M499 33c0 -129 -55 -243 -238 -243c-101 0 -213 53 -213 177l106 -13c5 -48 50 -74 108 -74c88 0 128 51 126 138v33c-30 -40 -76 -63 -131 -63c-137 0 -226 105 -226 274s87 273 224 273c65 0 113 -33 143 -83v68h101v-487zM399 262c0 121 -65 180 -130 180
c-72 0 -127 -59 -127 -180c0 -122 54 -181 127 -181c74 0 130 59 130 181z" />
    <glyph glyph-name="h" unicode="h" horiz-adv-x="565" 
d="M172 0h-111v720h111v-269c32 57 81 84 149 84c144 0 183 -92 183 -216v-319h-111v315c0 79 -27 126 -98 126s-123 -55 -123 -158v-283z" />
    <glyph glyph-name="i" unicode="i" horiz-adv-x="234" 
d="M172 607h-111v113h111v-113zM172 0h-111v520h111v-520z" />
    <glyph glyph-name="j" unicode="j" horiz-adv-x="234" 
d="M-55 -199l18 93c17 -5 25 -6 36 -6c57 0 62 52 62 105v527h111v-548c0 -106 -42 -182 -154 -182c-24 0 -51 4 -73 11zM172 607h-111v113h111v-113z" />
    <glyph glyph-name="k" unicode="k" horiz-adv-x="527" 
d="M61 0v720h111v-411h29c30 0 58 5 84 43c18 26 43 95 52 111c29 52 62 57 125 57h22l-5 -101h-22c-43 0 -47 -21 -63 -58c-21 -50 -45 -80 -84 -90v-4c37 -9 73 -43 104 -94l93 -173h-126l-79 156c-25 43 -55 60 -95 60h-35v-216h-111z" />
    <glyph glyph-name="l" unicode="l" horiz-adv-x="234" 
d="M172 0h-111v695l111 40v-735z" />
    <glyph glyph-name="m" unicode="m" horiz-adv-x="846" 
d="M172 0h-111v520h102v-74c36 64 85 89 154 89c76 0 127 -35 148 -96c33 69 91 96 156 96c104 0 163 -63 163 -179v-356h-111v323c0 64 -15 118 -81 118c-77 0 -113 -62 -113 -144v-297h-111v330c0 74 -29 111 -82 111c-89 0 -114 -81 -114 -172v-269z" />
    <glyph glyph-name="n" unicode="n" horiz-adv-x="565" 
d="M172 0h-111v520h102v-75c38 64 90 90 158 90c144 0 183 -92 183 -216v-319h-111v315c0 79 -27 126 -98 126s-123 -55 -123 -158v-283z" />
    <glyph glyph-name="o" unicode="o" horiz-adv-x="559" 
d="M31 260c0 179 106 275 249 275c142 0 248 -96 248 -275s-106 -275 -248 -275c-143 0 -249 96 -249 275zM142 260c0 -126 62 -183 138 -183c75 0 137 57 137 183s-62 182 -137 182c-76 0 -138 -56 -138 -182z" />
    <glyph glyph-name="p" unicode="p" horiz-adv-x="560" 
d="M172 -200h-111v720h101v-68c30 50 78 83 144 83c137 0 223 -106 223 -275s-88 -275 -225 -275c-55 0 -102 23 -132 66v-251zM161 260c0 -122 56 -183 130 -183s127 61 127 183c0 121 -54 182 -126 182c-66 0 -131 -61 -131 -182z" />
    <glyph glyph-name="q" unicode="q" horiz-adv-x="560" 
d="M499 -200h-111v251c-30 -43 -76 -66 -131 -66c-137 0 -226 106 -226 275s87 275 224 275c65 0 113 -33 143 -83v68h101v-720zM399 260c0 121 -65 182 -130 182c-72 0 -127 -61 -127 -182c0 -122 54 -183 127 -183c74 0 130 61 130 183z" />
    <glyph glyph-name="r" unicode="r" horiz-adv-x="404" 
d="M172 0h-111v520h102v-90c33 70 74 105 142 105c40 0 68 -8 92 -27l-25 -99c-20 13 -40 22 -71 22c-86 0 -129 -67 -129 -168v-263z" />
    <glyph glyph-name="s" unicode="s" horiz-adv-x="489" 
d="M31 150l101 16c7 -52 41 -92 117 -92c47 0 105 15 105 67c0 34 -18 52 -60 63l-126 32c-68 17 -129 55 -129 141c0 112 96 158 203 158c124 0 193 -65 199 -150l-100 -16c-8 53 -46 77 -102 77c-63 0 -100 -22 -100 -61c0 -29 26 -45 55 -52l133 -33
c62 -16 131 -52 131 -152c0 -115 -101 -163 -212 -163c-127 0 -206 63 -215 165z" />
    <glyph glyph-name="t" unicode="t" horiz-adv-x="343" 
d="M293 93l10 -91c-20 -7 -58 -12 -77 -12c-109 0 -132 60 -132 162v281h-74v87h74v126l111 43v-169h92v-87h-92v-269c0 -45 0 -77 47 -77c10 0 25 1 41 6z" />
    <glyph glyph-name="u" unicode="u" horiz-adv-x="565" 
d="M393 520h111v-520h-102v75c-38 -59 -90 -90 -158 -90c-144 0 -183 92 -183 216v319h111v-315c0 -80 27 -127 98 -127c72 0 123 55 123 159v283z" />
    <glyph glyph-name="v" unicode="v" horiz-adv-x="523" 
d="M312 0h-100l-202 520h113l138 -388l141 388h111z" />
    <glyph glyph-name="w" unicode="w" horiz-adv-x="752" 
d="M274 0h-107l-157 520h112l102 -391l100 391h105l98 -380l109 380h106l-162 -520h-105l-97 381z" />
    <glyph glyph-name="x" unicode="x" horiz-adv-x="537" 
d="M146 0h-128l183 266l-171 254h134l107 -174l109 174h125l-171 -251l185 -269h-131l-122 186z" />
    <glyph glyph-name="y" unicode="y" horiz-adv-x="521" 
d="M64 -198l-10 97c17 -6 33 -11 55 -11c39 0 65 19 86 71l17 46l-202 515h114l140 -383l138 383h109l-210 -567c-38 -101 -84 -163 -173 -163c-24 0 -45 5 -64 12z" />
    <glyph glyph-name="z" unicode="z" horiz-adv-x="501" 
d="M462 0h-424v92l286 335h-267v93h399v-93l-291 -335h297v-92z" />
    <glyph glyph-name="A" unicode="A" horiz-adv-x="694" 
d="M292 720h114l278 -720h-124l-60 159h-311l-59 -159h-120zM347 579l-120 -318h237z" />
    <glyph glyph-name="B" unicode="B" horiz-adv-x="681" 
d="M363 0h-287v720h275c146 0 252 -59 252 -187c0 -68 -33 -131 -112 -157c86 -21 143 -83 143 -168c0 -152 -108 -208 -271 -208zM192 621v-204h146c80 0 146 26 146 104c0 84 -71 100 -158 100h-134zM192 318v-219h168c91 0 152 25 152 109c0 86 -76 110 -165 110h-155z
" />
    <glyph glyph-name="C" unicode="C" horiz-adv-x="736" 
d="M169 360c0 -160 73 -274 216 -274c97 0 159 58 187 153l118 -28c-36 -136 -138 -226 -305 -226c-220 0 -339 164 -339 375c0 210 117 375 337 375c164 0 274 -86 307 -227l-118 -28c-21 97 -85 154 -189 154c-136 0 -214 -114 -214 -274z" />
    <glyph glyph-name="D" unicode="D" horiz-adv-x="711" 
d="M317 0h-241v720h230c235 0 358 -126 358 -358c0 -225 -112 -362 -347 -362zM194 614v-509h107c162 0 242 78 242 258c0 197 -101 251 -245 251h-104z" />
    <glyph glyph-name="E" unicode="E" horiz-adv-x="660" 
d="M594 0h-518v720h508v-106h-390v-194h340v-106h-340v-208h400v-106z" />
    <glyph glyph-name="F" unicode="F" horiz-adv-x="620" 
d="M194 0h-118v720h494v-106h-376v-194h316v-106h-316v-314z" />
    <glyph glyph-name="G" unicode="G" horiz-adv-x="760" 
d="M169 360c0 -160 88 -274 234 -274c72 0 148 24 182 67v121h-190v98h305v-260c-52 -75 -172 -127 -299 -127c-223 0 -355 164 -355 375c0 210 123 375 347 375c164 0 268 -73 301 -217l-117 -31c-29 104 -92 147 -185 147c-140 0 -223 -114 -223 -274z" />
    <glyph glyph-name="H" unicode="H" horiz-adv-x="734" 
d="M194 0h-118v720h118v-300h346v300h118v-720h-118v314h-346v-314z" />
    <glyph glyph-name="I" unicode="I" horiz-adv-x="271" 
d="M194 0h-118v720h118v-720z" />
    <glyph glyph-name="J" unicode="J" horiz-adv-x="536" 
d="M21 203l109 16c2 -73 28 -133 106 -133c89 0 105 68 105 151v483h118v-489c0 -167 -85 -246 -223 -246c-131 0 -218 75 -215 218z" />
    <glyph glyph-name="K" unicode="K" horiz-adv-x="709" 
d="M194 0h-118v720h118v-350l316 350h146l-292 -309l309 -411h-150l-237 329l-92 -98v-231z" />
    <glyph glyph-name="L" unicode="L" horiz-adv-x="618" 
d="M588 0h-512v720h118v-614h394v-106z" />
    <glyph glyph-name="M" unicode="M" horiz-adv-x="884" 
d="M194 0h-118v720h161l206 -573l209 573h155v-720h-117v544l-197 -544h-102l-197 544v-544z" />
    <glyph glyph-name="N" unicode="N" horiz-adv-x="740" 
d="M190 0h-114v720h120l353 -528v528h114v-720h-120l-353 527v-527z" />
    <glyph glyph-name="O" unicode="O" horiz-adv-x="778" 
d="M46 360c0 210 123 375 343 375c219 0 342 -165 342 -375c0 -211 -123 -375 -342 -375c-220 0 -343 164 -343 375zM169 360c0 -160 78 -274 220 -274c135 0 220 114 220 274s-85 274 -220 274c-136 0 -220 -114 -220 -274z" />
    <glyph glyph-name="P" unicode="P" horiz-adv-x="662" 
d="M194 0h-118v720h259c145 0 281 -53 281 -222c0 -145 -94 -229 -273 -229h-149v-269zM194 616v-243h146c109 0 155 49 155 122c0 91 -62 121 -157 121h-144z" />
    <glyph glyph-name="Q" unicode="Q" horiz-adv-x="778" 
d="M46 360c0 210 123 375 343 375c219 0 342 -165 342 -375c0 -107 -32 -203 -92 -270l70 -80l-78 -69l-75 84c-46 -25 -103 -40 -167 -40c-220 0 -343 164 -343 375zM409 192l79 70l72 -83c32 47 49 110 49 181c0 160 -85 274 -220 274c-136 0 -220 -114 -220 -274
s78 -274 220 -274c35 0 67 8 94 23z" />
    <glyph glyph-name="R" unicode="R" horiz-adv-x="690" 
d="M76 0v720h256c148 0 275 -54 275 -213c0 -110 -64 -176 -180 -194c73 -17 123 -83 157 -146l89 -167h-140l-62 121c-52 101 -101 155 -201 155h-76v-276h-118zM194 614v-236h125c110 0 168 39 168 119c0 93 -75 117 -170 117h-123z" />
    <glyph glyph-name="S" unicode="S" horiz-adv-x="659" 
d="M45 230l115 8c8 -105 76 -152 179 -152c90 0 149 41 149 111c0 45 -21 76 -78 97c-38 14 -149 41 -192 55c-128 40 -149 109 -149 177c0 141 125 209 250 209c163 0 260 -71 270 -221l-117 -7c-9 78 -53 127 -149 127c-72 0 -140 -32 -140 -99c0 -34 17 -60 55 -74
c33 -13 127 -40 196 -59c105 -30 178 -86 178 -200c0 -148 -139 -217 -269 -217c-185 0 -287 85 -298 245z" />
    <glyph glyph-name="T" unicode="T" horiz-adv-x="635" 
d="M376 0h-118v614h-235v106h588v-106h-235v-614z" />
    <glyph glyph-name="U" unicode="U" horiz-adv-x="733" 
d="M539 304v416h118v-418c0 -189 -93 -317 -290 -317c-195 0 -291 128 -291 317v418h118v-416c0 -138 55 -213 174 -213s171 75 171 213z" />
    <glyph glyph-name="V" unicode="V" horiz-adv-x="698" 
d="M403 0h-113l-278 720h124l212 -580l218 580h120z" />
    <glyph glyph-name="W" unicode="W" horiz-adv-x="971" 
d="M323 0h-129l-182 720h121l133 -584l150 584h139l156 -584l128 584h121l-183 -720h-128l-163 593z" />
    <glyph glyph-name="X" unicode="X" horiz-adv-x="709" 
d="M158 0h-138l271 373l-243 347h142l171 -259l182 259h131l-247 -346l262 -374h-142l-192 284z" />
    <glyph glyph-name="Y" unicode="Y" horiz-adv-x="685" 
d="M402 0h-118v299l-274 421h136l201 -316l197 316h131l-273 -421v-299z" />
    <glyph glyph-name="Z" unicode="Z" horiz-adv-x="668" 
d="M612 0h-556v106l409 508h-389v106h526v-106l-414 -508h424v-106z" />
    <glyph glyph-name="afii10068" unicode="&#x433;" horiz-adv-x="431" 
d="M61 0v520h347v-93h-238v-427h-109z" />
    <glyph glyph-name="zero" unicode="0" 
d="M41 360c0 213 68 375 244 375s243 -162 243 -375c0 -214 -67 -375 -243 -375s-244 161 -244 375zM421 360c0 61 -6 119 -20 164l-179 -423c16 -16 38 -24 63 -24c98 0 136 126 136 283zM149 360c0 -61 5 -118 18 -163l180 422c-16 16 -37 23 -62 23
c-99 0 -136 -126 -136 -282z" />
    <glyph glyph-name="one" unicode="1" 
d="M383 720v-720h-116v523c-23 -50 -77 -91 -155 -91v106c103 10 172 100 187 182h84z" />
    <glyph glyph-name="two" unicode="2" 
d="M182 106h326v-106h-462c-3 181 96 243 215 336c86 67 136 118 136 186c0 67 -43 112 -113 112c-73 0 -119 -51 -120 -136l-108 14c8 136 92 223 230 223c132 0 222 -75 222 -215c0 -109 -90 -198 -177 -260c-76 -54 -142 -102 -149 -154z" />
    <glyph glyph-name="three" unicode="3" 
d="M230 441h45c65 0 98 45 98 103s-37 96 -95 96c-69 0 -107 -51 -107 -119l-110 16c10 122 97 198 216 198s212 -62 212 -185c0 -78 -42 -128 -108 -151c87 -23 135 -96 135 -191c0 -133 -97 -223 -237 -223c-136 0 -231 80 -236 204l115 13c3 -67 47 -116 121 -116
c77 0 124 53 124 127s-44 132 -128 132h-45v96z" />
    <glyph glyph-name="four" unicode="4" 
d="M441 0h-116v160h-292v105l308 455h100v-455h94v-105h-94v-160zM145 265h180v270z" />
    <glyph glyph-name="five" unicode="5" 
d="M37 187l111 15c9 -70 54 -116 125 -116c87 0 133 69 133 154s-47 144 -134 144c-53 0 -89 -21 -117 -63l-104 13l69 386h365v-106h-280l-33 -170c32 29 78 41 125 41c143 0 227 -109 227 -245c0 -142 -92 -255 -252 -255c-127 0 -225 76 -235 202z" />
    <glyph glyph-name="six" unicode="6" 
d="M498 560l-102 -20c-16 62 -47 96 -101 96c-110 0 -144 -135 -146 -253c35 62 89 82 149 82c141 0 219 -108 219 -233c0 -131 -81 -247 -226 -247c-199 0 -248 166 -248 350c0 259 90 400 251 400c123 0 185 -72 204 -175zM160 226c0 -79 49 -140 123 -140
c82 0 123 61 123 140c0 78 -41 140 -123 140c-69 0 -123 -62 -123 -140z" />
    <glyph glyph-name="seven" unicode="7" 
d="M384 614h-331v106h452v-106c-143 -166 -222 -384 -235 -614h-117c4 214 98 459 231 614z" />
    <glyph glyph-name="eight" unicode="8" 
d="M48 201c0 95 48 164 131 198c-63 25 -103 73 -103 151c0 114 89 185 208 185s208 -71 208 -185c0 -78 -39 -126 -102 -151c83 -34 131 -103 131 -198c0 -130 -97 -216 -237 -216s-236 86 -236 216zM161 215c0 -76 46 -129 123 -129s124 53 124 129c0 77 -47 130 -124 130
s-123 -53 -123 -130zM185 541c0 -58 37 -103 99 -103c61 0 99 45 99 103s-38 103 -99 103c-62 0 -99 -45 -99 -103z" />
    <glyph glyph-name="nine" unicode="9" 
d="M62 159l102 21c15 -62 57 -96 111 -96c110 0 137 137 136 256c-35 -52 -88 -79 -154 -79c-134 0 -214 108 -214 233c0 131 86 241 225 241c198 0 250 -156 250 -350c0 -263 -83 -400 -244 -400c-123 0 -193 71 -212 174zM400 497c0 79 -49 137 -123 137
c-82 0 -126 -58 -126 -137c0 -78 44 -137 126 -137c69 0 123 59 123 137z" />
    <glyph glyph-name="comma" unicode="," horiz-adv-x="248" 
d="M127 0h-60v117h118v-117c0 -76 -33 -123 -88 -147l-28 46c35 15 58 40 58 101z" />
    <glyph glyph-name="period" unicode="." horiz-adv-x="238" 
d="M175 0h-112v117h112v-117z" />
    <glyph glyph-name="hyphen" unicode="-" horiz-adv-x="370" 
d="M320 208h-270v104h270v-104z" />
    <glyph glyph-name="endash" unicode="&#x2013;" horiz-adv-x="556" 
d="M519 216h-483v93h483v-93z" />
    <glyph glyph-name="emdash" unicode="&#x2014;" horiz-adv-x="735" 
d="M735 216h-735v93h735v-93z" />
    <glyph glyph-name="exclam" unicode="!" horiz-adv-x="246" 
d="M162 195h-77l-22 525h120zM179 0h-112v117h112v-117z" />
    <glyph glyph-name="question" unicode="?" 
d="M329 187h-106v33c0 81 28 137 91 182c46 31 78 71 78 125c0 76 -51 107 -116 107c-60 0 -110 -41 -117 -127l-107 17c12 132 103 211 223 211c138 0 233 -79 233 -202c0 -98 -61 -145 -120 -196c-43 -37 -57 -63 -59 -120v-30zM338 0h-118v117h118v-117z" />
    <glyph glyph-name=".grave" horiz-adv-x="500" 
d="M4225 260c0 -142 69 -200 148 -200c61 0 110 35 129 117l87 -19c-28 -110 -104 -173 -216 -173c-144 0 -238 103 -238 275s94 275 238 275c112 0 188 -64 216 -173l-87 -20c-19 83 -68 118 -129 118c-69 0 -148 -58 -148 -200zM4511 260c0 31 -3 59 -9 82l-55 -12v-140
l55 -13c6 24 9 51 9 83zM4625 150v220l-36 -8c7 -31 12 -65 12 -102c0 -38 -5 -72 -12 -102z" />
    <glyph glyph-name="afii10065" unicode="&#x430;" horiz-adv-x="548" 
d="M375 60c-49 -55 -104 -75 -166 -75c-95 0 -176 48 -176 150c0 112 85 156 204 169c55 5 106 14 132 26v17c0 64 -40 98 -107 98c-63 0 -98 -37 -113 -94l-100 27c26 120 122 157 221 157c137 0 210 -67 210 -208v-221c0 -53 10 -87 28 -106h-112c-15 14 -19 38 -21 60z
M369 149v104c-22 -9 -68 -20 -118 -28c-52 -9 -105 -23 -104 -84c0 -51 37 -70 83 -70c60 0 115 43 139 78z" />
    <glyph glyph-name="afii10066" unicode="&#x431;" horiz-adv-x="563" 
d="M502 737l-11 -110c-14 -14 -48 -18 -70 -20l-132 -10c-112 -9 -148 -93 -155 -169c41 66 109 86 172 86c134 0 226 -96 226 -261c0 -170 -107 -268 -249 -268c-138 0 -250 86 -250 311c0 160 29 391 256 408l142 12c29 2 57 8 71 21zM146 249c0 -124 66 -172 137 -172
c72 0 138 48 138 172c0 125 -66 171 -138 171c-65 0 -137 -46 -137 -171z" />
    <glyph glyph-name="afii10067" unicode="&#x432;" horiz-adv-x="520" 
d="M61 0v520h201c97 0 202 -24 202 -139c0 -49 -26 -90 -71 -111c60 -15 96 -73 94 -125c-3 -108 -88 -145 -194 -145h-232zM172 431v-124h59c57 0 120 3 120 64c0 58 -55 60 -112 60h-67zM172 218v-129h80c67 0 121 4 122 63c0 61 -42 66 -130 66h-72z" />
    <glyph glyph-name="periodcentered" unicode="&#xb7;" horiz-adv-x="238" 
d="M175 203h-112v118h112v-118z" />
    <glyph glyph-name="afii10071" unicode="&#x451;" horiz-adv-x="549" 
d="M229 606h-112v114h112v-114zM438 606h-112v114h112v-114zM516 230h-374c7 -106 69 -153 141 -153c57 0 107 35 122 97l105 -22c-33 -111 -116 -167 -234 -167c-140 0 -245 96 -245 275s105 275 245 275c148 0 241 -102 241 -261c0 -13 0 -39 -1 -44zM275 442
c-58 0 -117 -41 -130 -130h257c-4 77 -52 130 -127 130z" />
    <glyph glyph-name="afii10023" unicode="&#x401;" horiz-adv-x="657" 
d="M280 805h-111v115h111v-115zM494 805h-111v115h111v-115zM594 0h-518v720h508v-106h-390v-194h340v-106h-340v-208h400v-106z" />
    <glyph glyph-name="underscore" unicode="_" horiz-adv-x="682" 
d="M619 0h-556v92h556v-92z" />
    <glyph glyph-name="colon" unicode=":" horiz-adv-x="238" 
d="M175 335h-112v117h112v-117zM175 71h-112v118h112v-118z" />
    <glyph glyph-name="ellipsis" unicode="&#x2026;" horiz-adv-x="606" 
d="M175 0h-112v117h112v-117zM359 0h-112v117h112v-117zM543 0h-112v117h112v-117z" />
    <glyph glyph-name="plus" unicode="+" 
d="M332 316v-202h-96v202h-186v93h186v201h96v-201h188v-93h-188z" />
    <glyph glyph-name="equal" unicode="=" 
d="M513 224h-456v96h456v-96zM513 405h-456v96h456v-96z" />
    <glyph glyph-name="quotedbl" unicode="&#x22;" horiz-adv-x="420" 
d="M162 482h-77l-22 238h120zM336 482h-77l-22 238h120z" />
    <glyph glyph-name="quotesingle" unicode="'" horiz-adv-x="246" 
d="M162 482h-77l-22 238h120z" />
    <glyph glyph-name="bar" unicode="|" horiz-adv-x="264" 
d="M191 -100h-118v920h118v-920z" />
    <glyph glyph-name="brokenbar" unicode="&#xa6;" horiz-adv-x="264" 
d="M191 -100h-118v425h118v-425zM73 410v410h118v-410h-118z" />
    <glyph glyph-name="bracketleft" unicode="[" horiz-adv-x="344" 
d="M311 -114h-238v934h238v-103h-122v-729h122v-102z" />
    <glyph glyph-name="bracketright" unicode="]" horiz-adv-x="344" 
d="M271 -114h-238v102h122v729h-122v103h238v-934z" />
    <glyph glyph-name="slash" unicode="/" horiz-adv-x="359" 
d="M112 -100h-112l246 920h113z" />
    <glyph glyph-name="backslash" unicode="\" horiz-adv-x="359" 
d="M359 -100h-112l-247 920h113z" />
    <glyph glyph-name="semicolon" unicode=";" horiz-adv-x="238" 
d="M175 335h-112v117h112v-117zM123 0h-60v117h118v-117c0 -76 -32 -123 -87 -147l-29 46c35 15 58 40 58 101z" />
    <glyph glyph-name="quotesinglbase" unicode="&#x201a;" horiz-adv-x="248" 
d="M127 0h-60v117h118v-117c0 -76 -33 -123 -88 -147l-28 46c35 15 58 40 58 101z" />
    <glyph glyph-name="quotedblbase" unicode="&#x201e;" horiz-adv-x="415" 
d="M127 0h-60v117h118v-117c0 -76 -33 -123 -88 -147l-28 46c35 15 58 40 58 101zM294 0h-60v117h118v-117c0 -76 -32 -123 -87 -147l-29 46c35 15 58 40 58 101z" />
    <glyph glyph-name="quotedblright" unicode="&#x201d;" horiz-adv-x="415" 
d="M127 602h-60v118h118v-118c0 -75 -33 -123 -88 -147l-28 47c35 15 58 40 58 100zM294 602h-60v118h118v-118c0 -75 -32 -123 -87 -147l-29 47c35 15 58 40 58 100z" />
    <glyph glyph-name="quotedblleft" unicode="&#x201c;" horiz-adv-x="415" 
d="M288 588h60v-118h-118v118c0 76 33 123 88 147l28 -47c-35 -15 -58 -40 -58 -100zM121 588h60v-118h-118v118c0 76 32 123 87 147l29 -47c-35 -15 -58 -40 -58 -100z" />
    <glyph glyph-name="quoteleft" unicode="&#x2018;" horiz-adv-x="248" 
d="M121 588h60v-118h-118v118c0 76 32 123 87 147l29 -47c-35 -15 -58 -40 -58 -100z" />
    <glyph glyph-name="quoteright" unicode="&#x2019;" horiz-adv-x="248" 
d="M127 602h-60v118h118v-118c0 -75 -33 -123 -88 -147l-28 47c35 15 58 40 58 100z" />
    <glyph glyph-name="numbersign" unicode="#" horiz-adv-x="605" 
d="M354 0h-110l56 194h-91l-56 -194h-110l56 194h-99l27 93h99l42 151h-104l27 92h104l54 190h111l-54 -190h90l54 190h111l-54 -190h98l-27 -92h-98l-43 -151h104l-27 -93h-104zM279 438l-43 -151h91l42 151h-90z" />
    <glyph glyph-name="guillemotright" unicode="&#xbb;" horiz-adv-x="432" 
d="M126 432l115 -169l-115 -169h-93l94 169l-94 169h93zM284 432l115 -169l-115 -169h-94l94 169l-94 169h94z" />
    <glyph glyph-name="guillemotleft" unicode="&#xab;" horiz-adv-x="432" 
d="M190 263l115 169h94l-94 -169l94 -169h-94zM33 263l115 169h93l-94 -169l94 -169h-93z" />
    <glyph glyph-name="guilsinglleft" unicode="&#x2039;" horiz-adv-x="315" 
d="M33 263l135 169h114l-134 -169l134 -169h-114z" />
    <glyph glyph-name="guilsinglright" unicode="&#x203a;" horiz-adv-x="315" 
d="M147 432l135 -169l-135 -169h-114l134 169l-134 169h114z" />
    <glyph glyph-name="less" unicode="&#x3c;" 
d="M100 294v111l380 229v-120l-284 -163l284 -165v-121z" />
    <glyph glyph-name="greater" unicode="&#x3e;" 
d="M480 405v-111l-380 -229v121l283 165l-283 163v120z" />
    <glyph glyph-name="dollar" unicode="$" 
d="M244 733v87h75v-88c114 -14 183 -85 192 -218c-39 -2 -78 -5 -117 -7c-7 63 -26 108 -75 122v-205c124 -29 215 -92 215 -222c0 -131 -96 -209 -215 -216v-86h-75v88c-136 18 -199 105 -209 235c38 3 77 5 115 8c6 -81 39 -124 94 -139v236c-159 37 -184 123 -184 198
c0 127 87 195 184 207zM413 197c0 48 -22 83 -70 104l-24 9v-223c55 8 94 43 94 110zM174 535c0 -44 21 -72 70 -92v187c-43 -10 -70 -41 -70 -95z" />
    <glyph glyph-name="Euro" unicode="&#x20ac;" 
d="M353 395h-145v-65h145v-75h-142c9 -107 39 -171 114 -171c68 0 94 56 108 147l113 -18c-22 -142 -90 -228 -221 -228c-145 0 -213 109 -229 270h-93v75h88v65h-88v75h93c18 158 86 265 229 265c131 0 200 -88 221 -230l-113 -19c-14 93 -40 150 -108 150
c-74 0 -104 -67 -113 -166h141v-75z" />
    <glyph glyph-name="asciicircum" unicode="^" 
d="M229 720h111l142 -249l-115 -1l-83 160l-86 -160h-112z" />
    <glyph glyph-name="afii10103" unicode="&#x456;" horiz-adv-x="234" 
d="M172 607h-111v113h111v-113zM172 0h-111v520h111v-520z" />
    <glyph glyph-name="uni0406" unicode="&#x406;" horiz-adv-x="271" 
d="M194 0h-118v720h118v-720z" />
    <glyph glyph-name="afii10102" unicode="&#x455;" horiz-adv-x="489" 
d="M31 150l101 16c7 -52 41 -92 117 -92c47 0 105 15 105 67c0 34 -18 52 -60 63l-126 32c-68 17 -129 55 -129 141c0 112 96 158 203 158c124 0 193 -65 199 -150l-100 -16c-8 53 -46 77 -102 77c-63 0 -100 -22 -100 -61c0 -29 26 -45 55 -52l133 -33
c62 -16 131 -52 131 -152c0 -115 -101 -163 -212 -163c-127 0 -206 63 -215 165z" />
    <glyph glyph-name="afii10054" unicode="&#x405;" horiz-adv-x="665" 
d="M45 230l115 8c8 -105 80 -152 182 -152c90 0 153 35 153 111c0 45 -22 75 -78 96c-38 14 -156 44 -199 58c-128 40 -149 107 -149 175c0 141 128 209 253 209c163 0 264 -71 274 -221l-117 -7c-9 78 -57 127 -153 127c-72 0 -143 -32 -143 -99c0 -34 17 -58 55 -72
c33 -13 134 -43 203 -62c105 -30 178 -85 178 -199c0 -152 -142 -217 -273 -217c-184 0 -290 85 -301 245z" />
    <glyph glyph-name="afii10105" unicode="&#x458;" horiz-adv-x="234" 
d="M-55 -199l18 93c17 -5 25 -6 36 -6c57 0 62 52 62 105v527h111v-548c0 -106 -42 -182 -154 -182c-24 0 -51 4 -73 11zM172 607h-111v113h111v-113z" />
    <glyph glyph-name="afii10057" unicode="&#x408;" horiz-adv-x="536" 
d="M21 203l109 16c2 -73 28 -133 106 -133c89 0 105 68 105 151v483h118v-489c0 -167 -85 -246 -223 -246c-131 0 -218 75 -215 218z" />
    <glyph glyph-name="afii10110" unicode="&#x45e;" horiz-adv-x="521" 
d="M64 -198l-10 97c17 -6 33 -11 55 -11c39 0 65 19 86 71l17 46l-202 515h114l140 -383l138 383h109l-210 -567c-38 -101 -84 -163 -173 -163c-24 0 -45 5 -64 12zM344 720h75c0 -89 -54 -147 -154 -147s-151 59 -151 147h76c5 -47 34 -69 75 -69s74 22 79 69z" />
    <glyph glyph-name="afii10062" unicode="&#x40e;" horiz-adv-x="669" 
d="M298 196l-288 524h125l219 -406l185 406h120l-263 -561c-49 -108 -93 -174 -197 -174c-35 0 -88 11 -113 41l34 92c17 -13 43 -30 73 -30c37 0 64 17 86 66zM439 920h87c0 -89 -56 -167 -179 -167c-124 0 -176 79 -176 167h88c3 -50 30 -81 88 -81c57 0 88 31 92 81z" />
    <glyph glyph-name="afii10056" unicode="&#x407;" horiz-adv-x="270" 
d="M194 0h-118v720h118v-720zM105 805h-111v115h111v-115zM277 805h-111v115h111v-115z" />
    <glyph glyph-name="afii10104" unicode="&#x457;" horiz-adv-x="234" 
d="M89 607h-108v113h108v-113zM172 0h-111v520h111v-520zM253 607h-108v113h108v-113z" />
    <glyph glyph-name="braceright" unicode="}" horiz-adv-x="329" 
d="M36 734v80c11 5 34 10 58 10c112 0 145 -76 145 -182v-155c0 -67 35 -90 70 -90v-81c-35 0 -70 -23 -70 -90v-154c0 -106 -33 -182 -145 -182c-24 0 -47 5 -58 10v80h36c55 0 56 52 56 105v172c0 63 40 87 70 100c-30 13 -70 37 -70 100v172c0 53 -1 105 -56 105h-36z
" />
    <glyph glyph-name="braceleft" unicode="{" horiz-adv-x="329" 
d="M293 814v-80h-36c-55 0 -56 -52 -56 -105v-172c0 -63 -40 -87 -70 -100c30 -13 70 -37 70 -100v-172c0 -53 1 -105 56 -105h36v-80c-11 -5 -34 -10 -58 -10c-112 0 -145 76 -145 182v154c0 67 -35 90 -70 90v81c35 0 70 23 70 90v155c0 106 33 182 145 182
c24 0 47 -5 58 -10z" />
    <glyph glyph-name="afii10101" unicode="&#x454;" horiz-adv-x="532" 
d="M322 305v-85h-178c11 -99 64 -143 129 -143c56 0 100 32 116 107l108 -21c-28 -119 -112 -178 -224 -178c-141 0 -242 96 -242 275s101 275 242 275c112 0 196 -60 224 -179l-108 -21c-16 76 -60 107 -116 107c-63 0 -116 -42 -128 -137h177z" />
    <glyph glyph-name="afii10053" unicode="&#x404;" horiz-adv-x="736" 
d="M458 417v-99h-287c12 -137 83 -232 214 -232c97 0 159 58 187 153l118 -28c-36 -136 -138 -226 -305 -226c-220 0 -339 164 -339 375c0 210 117 375 337 375c164 0 274 -86 307 -227l-118 -28c-21 97 -85 154 -189 154c-120 0 -194 -88 -210 -217h285z" />
    <glyph glyph-name="ampersand" unicode="&#x26;" horiz-adv-x="635" 
d="M615 0h-132c-15 17 -31 34 -46 51c-46 -41 -105 -66 -177 -66c-149 0 -220 86 -220 192c0 93 56 148 119 190c-11 11 -78 76 -78 183c0 121 88 185 197 185c145 0 188 -98 188 -175c0 -73 -40 -134 -132 -193c-7 -5 -16 -11 -25 -16c39 -45 78 -89 117 -134
c13 40 18 86 17 130h103c3 -76 -13 -153 -46 -215c37 -45 77 -88 115 -132zM240 432l8 -10c83 52 113 83 113 138c0 39 -27 81 -84 81c-62 0 -91 -47 -91 -91c0 -52 20 -80 54 -118zM149 181c0 -66 51 -102 107 -102c50 0 89 17 117 45c-50 57 -101 115 -151 172
c-44 -32 -73 -67 -73 -115z" />
    <glyph glyph-name="parenleft" unicode="(" horiz-adv-x="325" 
d="M50 360c0 169 69 339 178 460h84c-100 -147 -146 -279 -146 -460s46 -314 146 -460h-84c-109 120 -178 291 -178 460z" />
    <glyph glyph-name="parenright" unicode=")" horiz-adv-x="325" 
d="M275 360c0 -169 -70 -340 -178 -460h-84c99 146 146 279 146 460s-47 313 -146 460h84c108 -121 178 -291 178 -460z" />
    <glyph glyph-name="degree" unicode="&#xb0;" horiz-adv-x="362" 
d="M46 600c0 74 62 135 135 135c74 0 135 -61 135 -135s-61 -134 -135 -134c-73 0 -135 60 -135 134zM119 600c0 -34 29 -61 62 -61c34 0 60 27 60 61s-26 61 -60 61c-33 0 -62 -27 -62 -61z" />
    <glyph glyph-name="copyright" unicode="&#xa9;" horiz-adv-x="590" 
d="M35 260c0 162 108 275 260 275s260 -113 260 -275s-108 -275 -260 -275s-260 113 -260 275zM119 260c0 -108 62 -197 176 -197s176 89 176 197s-62 197 -176 197s-176 -89 -176 -197zM237 260c0 -44 21 -75 58 -75c28 0 46 17 53 44l68 -16c-14 -66 -56 -99 -121 -99
c-83 0 -127 68 -127 146c0 77 44 146 127 146c65 0 107 -34 121 -99l-68 -16c-7 26 -26 43 -53 43c-37 0 -58 -31 -58 -74z" />
    <glyph glyph-name="registered" unicode="&#xae;" horiz-adv-x="590" 
d="M35 260c0 162 108 275 260 275s260 -113 260 -275s-108 -275 -260 -275s-260 113 -260 275zM192 128v278h96c56 0 111 -18 111 -81c0 -43 -28 -67 -65 -74c30 -8 46 -34 58 -58l31 -65h-75l-20 46c-17 41 -31 53 -61 53h-7v-99h-68zM260 347v-61h27c32 0 43 12 43 32
c0 23 -17 29 -44 29h-26zM119 260c0 -108 62 -197 176 -197s176 89 176 197s-62 197 -176 197s-176 -89 -176 -197z" />
    <glyph glyph-name="trademark" unicode="&#x2122;" horiz-adv-x="673" 
d="M370 432h-79v213h-87v-213h-78v213h-96v75h378l60 -192l63 192h112v-288h-78v191l-62 -191h-71l-62 191v-191z" />
    <glyph glyph-name="asterisk" unicode="*" horiz-adv-x="411" 
d="M254 735l-15 -112c34 16 69 31 103 47c9 -31 20 -61 29 -92c-37 -6 -74 -14 -110 -20c25 -28 50 -55 75 -83l-77 -56l-54 98l-56 -97l-78 56c26 27 51 55 76 82c-36 7 -71 15 -107 22c9 31 20 61 29 92c33 -16 67 -32 101 -48l-12 111h96z" />
    <glyph glyph-name="plusminus" unicode="&#xb1;" 
d="M332 404v-150h-96v150h-183v96h183v180h96v-180h184v-96h-184zM516 94h-463v96h463v-96z" />
    <glyph glyph-name="asciitilde" unicode="~" horiz-adv-x="526" 
d="M30 281v118c38 40 87 60 135 60c89 0 127 -90 196 -90c58 0 97 30 135 70v-118c-38 -40 -87 -60 -135 -60c-89 0 -127 90 -196 90c-58 0 -97 -30 -135 -70z" />
    <glyph glyph-name="grave" unicode="`" horiz-adv-x="298" 
d="M175 720l76 -187h-92l-123 187h139z" />
    <glyph glyph-name="percent" horiz-adv-x="789" 
d="M148 0h106l387 720h-107zM36 560c0 103 64 165 150 165s149 -62 149 -165s-63 -165 -149 -165s-150 62 -150 165zM124 560c0 -57 32 -80 62 -80s62 23 62 80s-32 79 -62 79c-28 0 -62 -22 -62 -79zM454 160c0 103 63 165 149 165s150 -62 150 -165s-64 -165 -150 -165
s-149 62 -149 165zM541 160c0 -57 32 -80 62 -80c31 0 62 23 62 80s-31 79 -62 79c-27 0 -62 -22 -62 -79z" />
    <glyph glyph-name="dagger" unicode="&#x2020;" horiz-adv-x="378" 
d="M36 517v93h97v110h111v-110h97v-93h-97v-235h-111v235h-97z" />
    <glyph glyph-name="daggerdbl" unicode="&#x2021;" horiz-adv-x="371" 
d="M334 468v-93h-93v-93h-111v93h-94v93h94v66h-94v93h94v93h111v-93h93v-93h-93v-66h93z" />
    <glyph glyph-name="bullet" unicode="&#x2022;" horiz-adv-x="388" 
d="M70 351c0 68 56 123 124 123s124 -55 124 -123c0 -69 -55 -124 -124 -124s-124 55 -124 124z" />
    <glyph glyph-name="paragraph" unicode="&#xb6;" horiz-adv-x="584" 
d="M291 -100h-80v516c-117 3 -198 82 -198 198c0 139 97 206 231 206h328v-85h-81v-835h-111v835h-89v-835z" />
    <glyph glyph-name="afii61352" unicode="&#x2116;" horiz-adv-x="1058" 
d="M729 460c0 103 64 165 150 165s149 -62 149 -165s-63 -165 -149 -165s-150 62 -150 165zM817 460c0 -57 32 -80 62 -80s62 23 62 80s-32 79 -62 79c-28 0 -62 -22 -62 -79zM1028 158h-299v85h299v-85zM190 0h-114v720h120l353 -528v528h114v-720h-120l-353 527v-527z" />
    <glyph glyph-name="at" unicode="@" horiz-adv-x="755" 
d="M536 445v-232c0 -7 -2 -67 35 -67c39 0 55 62 55 133c0 162 -94 261 -248 261c-146 0 -245 -122 -245 -280s90 -283 255 -283c52 0 107 16 143 50l69 -63c-51 -52 -143 -74 -212 -74c-220 0 -353 163 -353 370s133 370 343 370c209 0 342 -143 342 -350
c0 -105 -47 -215 -148 -215c-48 0 -86 30 -96 66l-11 -18c-23 -30 -54 -48 -102 -48c-98 0 -158 79 -158 195c0 115 60 195 158 195c46 0 80 -22 102 -53v43h71zM456 260c0 73 -41 114 -83 114c-48 0 -81 -41 -81 -114s33 -114 81 -114c47 0 83 41 83 114z" />
    <glyph glyph-name="perthousand" unicode="&#x2030;" horiz-adv-x="1136" 
d="M148 0h106l387 720h-107zM36 560c0 103 64 165 150 165s149 -62 149 -165s-63 -165 -149 -165s-150 62 -150 165zM124 560c0 -57 32 -80 62 -80s62 23 62 80s-32 79 -62 79c-28 0 -62 -22 -62 -79zM454 160c0 103 63 165 149 165s150 -62 150 -165s-64 -165 -150 -165
s-149 62 -149 165zM541 160c0 -57 32 -80 62 -80c31 0 62 23 62 80s-31 79 -62 79c-27 0 -62 -22 -62 -79zM801 160c0 103 63 165 149 165s150 -62 150 -165s-64 -165 -150 -165s-149 62 -149 165zM888 160c0 -57 32 -80 62 -80c31 0 62 23 62 80s-31 79 -62 79
c-27 0 -62 -22 -62 -79z" />
    <glyph glyph-name="section" unicode="&#xa7;" horiz-adv-x="507" 
d="M35 150l108 13c8 -52 36 -89 115 -89c51 0 103 15 103 62c0 34 -19 42 -72 57l-127 35c-64 18 -122 58 -122 141c0 54 35 87 60 103c-39 20 -60 62 -60 109c0 109 101 154 208 154c131 0 196 -61 204 -150l-107 -12c-8 46 -39 73 -99 73c-68 0 -99 -22 -99 -57
c0 -31 29 -41 60 -50l135 -39c73 -21 130 -61 130 -148c0 -43 -27 -84 -51 -100c32 -21 51 -61 51 -109c0 -115 -106 -158 -217 -158c-134 0 -212 60 -220 165zM147 384c0 -32 26 -55 54 -62c110 -30 125 -35 127 -35c19 10 33 25 33 50c0 35 -17 60 -61 72l-108 29
c-27 -8 -45 -26 -45 -54z" />
    <glyph glyph-name="currency" unicode="&#xa4;" 
d="M456 123l-68 68c-30 -19 -65 -29 -102 -29c-38 0 -73 10 -103 29l-67 -68l-67 67l71 72c-15 27 -22 60 -22 98s8 70 22 98l-71 73l67 67l68 -69c29 19 64 29 102 29c37 0 72 -10 102 -29l68 69l67 -67l-72 -73c15 -28 23 -60 23 -98s-8 -71 -22 -98l71 -72zM194 360
c0 -69 41 -102 92 -102s92 33 92 102s-41 102 -92 102c-48 0 -92 -33 -92 -102z" />
    <glyph glyph-name="afii10109" unicode="&#x45c;" horiz-adv-x="532" 
d="M61 520v-520h111v216h40c40 0 70 -17 94 -60l80 -156h126l-93 173c-27 51 -67 84 -108 94v4c41 9 67 40 88 90c15 37 20 63 63 63h22l5 101h-22c-63 0 -96 -10 -125 -62c-9 -16 -34 -85 -52 -111c-26 -38 -54 -43 -84 -43h-34v211h-111zM196 603l76 187h139l-123 -187
h-92z" />
    <glyph glyph-name="afii10100" unicode="&#x453;" horiz-adv-x="431" 
d="M61 520v-520h109v427h238v93h-347zM153 603l76 187h139l-123 -187h-92z" />
    <glyph glyph-name="afii10106" unicode="&#x459;" horiz-adv-x="825" 
d="M124 289v231h380v-191h82c111 0 215 -33 215 -163c0 -119 -99 -166 -185 -166h-223v427h-162v-168c0 -123 -10 -274 -140 -274c-29 0 -59 10 -68 15v93c11 -6 25 -11 39 -11c66 -1 62 121 62 207zM504 243v-154h69c73 0 115 20 115 77c0 56 -41 77 -106 77h-78z" />
    <glyph glyph-name="afii10107" unicode="&#x45a;" horiz-adv-x="813" 
d="M61 0v520h111v-211h206v211h111v-191h82c111 0 215 -33 215 -163c0 -119 -99 -166 -185 -166h-223v216h-206v-216h-111zM489 243v-154h69c73 0 115 20 115 77c0 56 -41 77 -106 77h-78z" />
    <glyph glyph-name="afii10193" unicode="&#x45f;" horiz-adv-x="560" 
d="M499 520v-520h-162v-140h-106v140h-170v520h111v-428h216v428h111z" />
    <glyph glyph-name="afii10098" unicode="&#x491;" horiz-adv-x="431" 
d="M61 0v520h248v110h99v-203h-238v-427h-109z" />
    <glyph glyph-name="afii10050" unicode="&#x490;" horiz-adv-x="563" 
d="M76 0v720h346v130h118v-236h-346v-614h-118z" />
    <glyph glyph-name="afii10059" unicode="&#x40a;" horiz-adv-x="1064" 
d="M496 720h118v-273h133c179 0 272 -81 272 -226c0 -168 -135 -221 -280 -221h-243v314h-302v-314h-118v720h118v-300h302v300zM614 347v-243h127c95 0 157 30 157 120c0 73 -45 123 -155 123h-129z" />
    <glyph glyph-name="afii10058" unicode="&#x409;" horiz-adv-x="1070" 
d="M147 412v308h476v-273h129c179 0 273 -81 273 -226c0 -168 -136 -221 -281 -221h-238v614h-243v-183c0 -218 8 -446 -171 -446c-31 0 -59 7 -77 17l-5 111c12 -7 28 -17 53 -17c91 0 84 153 84 316zM623 347v-243h124c95 0 157 30 157 120c0 73 -45 123 -155 123h-126z
" />
    <glyph glyph-name="afii10145" unicode="&#x40f;" horiz-adv-x="724" 
d="M530 720h118v-720h-227v-189h-117v189h-228v720h118v-614h336v614z" />
    <glyph glyph-name="afii10061" unicode="&#x40c;" horiz-adv-x="684" 
d="M76 720v-720h118v314h29c80 0 120 -28 175 -120l111 -194h142l-144 238c-45 73 -101 123 -152 130c45 9 75 56 91 84l56 98c32 56 60 62 93 62h23l4 108h-44c-62 0 -107 -17 -158 -103l-82 -141c-25 -42 -51 -59 -97 -59h-47v303h-118zM263 803l76 187h139l-123 -187h-92
z" />
    <glyph glyph-name="afii10052" unicode="&#x403;" horiz-adv-x="563" 
d="M76 720v-720h118v614h346v106h-464zM226 803l76 187h139l-123 -187h-92z" />
    <glyph glyph-name="Idieresis" unicode="&#xcf;" horiz-adv-x="270" 
d="M194 0h-118v720h118v-720zM105 805h-111v115h111v-115zM277 805h-111v115h111v-115z" />
    <glyph glyph-name="idieresis" unicode="&#xef;" horiz-adv-x="234" 
d="M89 607h-108v113h108v-113zM172 0h-111v520h111v-520zM253 607h-108v113h108v-113z" />
    <glyph glyph-name="edieresis" unicode="&#xeb;" horiz-adv-x="549" 
d="M229 606h-112v114h112v-114zM438 606h-112v114h112v-114zM516 230h-374c7 -106 69 -153 141 -153c57 0 107 35 122 97l105 -22c-33 -111 -116 -167 -234 -167c-140 0 -245 96 -245 275s105 275 245 275c148 0 241 -102 241 -261c0 -13 0 -39 -1 -44zM275 442
c-58 0 -117 -41 -130 -130h257c-4 77 -52 130 -127 130z" />
    <glyph glyph-name="Edieresis" unicode="&#xcb;" horiz-adv-x="657" 
d="M280 805h-111v115h111v-115zM494 805h-111v115h111v-115zM594 0h-518v720h508v-106h-390v-194h340v-106h-340v-208h400v-106z" />
    <glyph glyph-name="ydieresis" unicode="&#xff;" horiz-adv-x="521" 
d="M64 -198l-10 97c17 -6 33 -11 55 -11c39 0 65 19 86 71l17 46l-202 515h114l140 -383l138 383h109l-210 -567c-38 -101 -84 -163 -173 -163c-24 0 -45 5 -64 12zM224 606h-112v114h112v-114zM419 606h-112v114h112v-114z" />
    <glyph glyph-name="thorn" unicode="&#xfe;" horiz-adv-x="560" 
d="M172 -200h-111v790h105v-134c29 47 74 79 140 79c137 0 223 -106 223 -275s-88 -275 -225 -275c-55 0 -102 23 -132 66v-251zM161 260c0 -122 56 -183 130 -183s127 61 127 183c0 121 -54 182 -126 182c-66 0 -131 -61 -131 -182z" />
    <glyph glyph-name="udieresis" unicode="&#xfc;" horiz-adv-x="565" 
d="M393 520h111v-520h-102v75c-38 -59 -90 -90 -158 -90c-144 0 -183 92 -183 216v319h111v-315c0 -80 27 -127 98 -127c72 0 123 55 123 159v283zM239 606h-112v114h112v-114zM435 606h-112v114h112v-114z" />
    <glyph glyph-name="odieresis" unicode="&#xf6;" horiz-adv-x="559" 
d="M31 260c0 179 106 275 249 275c142 0 248 -96 248 -275s-106 -275 -248 -275c-143 0 -249 96 -249 275zM142 260c0 -126 62 -183 138 -183c75 0 137 57 137 183s-62 182 -137 182c-76 0 -138 -56 -138 -182zM237 606h-112v114h112v-114zM433 606h-112v114h112v-114z" />
    <glyph glyph-name="adieresis" unicode="&#xe4;" horiz-adv-x="548" 
d="M375 60c-49 -55 -104 -75 -166 -75c-95 0 -176 48 -176 150c0 112 85 156 204 169c55 5 106 14 132 26v17c0 64 -40 98 -107 98c-63 0 -98 -37 -113 -94l-100 27c26 120 122 157 221 157c137 0 210 -67 210 -208v-221c0 -53 10 -87 28 -106h-112c-15 14 -19 38 -21 60z
M369 149v104c-22 -9 -68 -20 -118 -28c-52 -9 -105 -23 -104 -84c0 -51 37 -70 83 -70c60 0 115 43 139 78zM231 606h-112v114h112v-114zM420 606h-112v114h112v-114z" />
    <glyph glyph-name="yacute" unicode="&#xfd;" horiz-adv-x="521" 
d="M64 -198c19 -7 40 -12 64 -12c89 0 135 62 173 163l210 567h-109l-138 -383l-140 383h-114l202 -515l-17 -46c-21 -52 -47 -71 -86 -71c-22 0 -38 5 -55 11zM200 603l76 187h139l-123 -187h-92z" />
    <glyph glyph-name="uacute" unicode="&#xfa;" horiz-adv-x="565" 
d="M504 520h-111v-283c0 -104 -51 -159 -123 -159c-71 0 -98 47 -98 127v315h-111v-319c0 -124 39 -216 183 -216c68 0 120 31 158 90v-75h102v520zM213 603l76 187h139l-123 -187h-92z" />
    <glyph glyph-name="oacute" unicode="&#xf3;" horiz-adv-x="559" 
d="M31 260c0 179 106 275 249 275c142 0 248 -96 248 -275s-106 -275 -248 -275c-143 0 -249 96 -249 275zM142 260c0 -126 62 -183 138 -183c75 0 137 57 137 183s-62 182 -137 182c-76 0 -138 -56 -138 -182zM213 603l76 187h139l-123 -187h-92z" />
    <glyph glyph-name="iacute" unicode="&#xed;" horiz-adv-x="234" 
d="M61 0h111v520h-111v-520zM53 603l76 187h139l-123 -187h-92z" />
    <glyph glyph-name="eacute" unicode="&#xe9;" horiz-adv-x="549" 
d="M516 230h-374c7 -106 69 -153 141 -153c57 0 107 35 122 97l105 -22c-33 -111 -116 -167 -234 -167c-140 0 -245 96 -245 275s105 275 245 275c148 0 241 -102 241 -261c0 -13 0 -39 -1 -44zM275 442c-58 0 -117 -41 -130 -130h257c-4 77 -52 130 -127 130zM203 603
l76 187h139l-123 -187h-92z" />
    <glyph glyph-name="aacute" unicode="&#xe1;" horiz-adv-x="548" 
d="M375 60c2 -22 6 -46 21 -60h112c-18 19 -28 53 -28 106v221c0 141 -73 208 -210 208c-99 0 -195 -37 -221 -157l100 -27c15 57 50 94 113 94c67 0 107 -34 107 -98v-17c-26 -12 -77 -21 -132 -26c-119 -13 -204 -57 -204 -169c0 -102 81 -150 176 -150
c62 0 117 20 166 75zM369 253v-104c-24 -35 -79 -78 -139 -78c-46 0 -83 19 -83 70c-1 61 52 75 104 84c50 8 96 19 118 28zM183 603l76 187h139l-123 -187h-92z" />
    <glyph glyph-name="agrave" unicode="&#xe0;" horiz-adv-x="548" 
d="M375 60c-49 -55 -104 -75 -166 -75c-95 0 -176 48 -176 150c0 112 85 156 204 169c55 5 106 14 132 26v17c0 64 -40 98 -107 98c-63 0 -98 -37 -113 -94l-100 27c26 120 122 157 221 157c137 0 210 -67 210 -208v-221c0 -53 10 -87 28 -106h-112c-15 14 -19 38 -21 60z
M369 149v104c-22 -9 -68 -20 -118 -28c-52 -9 -105 -23 -104 -84c0 -51 37 -70 83 -70c60 0 115 43 139 78zM252 790l76 -187h-92l-123 187h139z" />
    <glyph glyph-name="egrave" unicode="&#xe8;" horiz-adv-x="549" 
d="M516 230h-374c7 -106 69 -153 141 -153c57 0 107 35 122 97l105 -22c-33 -111 -116 -167 -234 -167c-140 0 -245 96 -245 275s105 275 245 275c148 0 241 -102 241 -261c0 -13 0 -39 -1 -44zM275 442c-58 0 -117 -41 -130 -130h257c-4 77 -52 130 -127 130zM265 790
l76 -187h-92l-123 187h139z" />
    <glyph glyph-name="igrave" unicode="&#xec;" horiz-adv-x="234" 
d="M172 0h-111v520h111v-520zM109 790l76 -187h-92l-123 187h139z" />
    <glyph glyph-name="ograve" unicode="&#xf2;" horiz-adv-x="559" 
d="M31 260c0 179 106 275 249 275c142 0 248 -96 248 -275s-106 -275 -248 -275c-143 0 -249 96 -249 275zM142 260c0 -126 62 -183 138 -183c75 0 137 57 137 183s-62 182 -137 182c-76 0 -138 -56 -138 -182zM255 790l76 -187h-92l-123 187h139z" />
    <glyph glyph-name="ugrave" unicode="&#xf9;" horiz-adv-x="565" 
d="M393 520h111v-520h-102v75c-38 -59 -90 -90 -158 -90c-144 0 -183 92 -183 216v319h111v-315c0 -80 27 -127 98 -127c72 0 123 55 123 159v283zM265 790l76 -187h-92l-123 187h139z" />
    <glyph glyph-name="Adieresis" unicode="&#xc4;" horiz-adv-x="694" 
d="M292 720h114l278 -720h-124l-60 159h-311l-59 -159h-120zM347 579l-120 -318h237zM303 805h-111v115h111v-115zM501 805h-111v115h111v-115z" />
    <glyph glyph-name="Odieresis" unicode="&#xd6;" horiz-adv-x="778" 
d="M46 360c0 210 123 375 343 375c219 0 342 -165 342 -375c0 -211 -123 -375 -342 -375c-220 0 -343 164 -343 375zM169 360c0 -160 78 -274 220 -274c135 0 220 114 220 274s-85 274 -220 274c-136 0 -220 -114 -220 -274zM333 805h-111v115h111v-115zM560 805h-111v115
h111v-115z" />
    <glyph glyph-name="Udieresis" unicode="&#xdc;" horiz-adv-x="733" 
d="M539 304v416h118v-418c0 -189 -93 -317 -290 -317c-195 0 -291 128 -291 317v418h118v-416c0 -138 55 -213 174 -213s171 75 171 213zM312 805h-111v115h111v-115zM532 805h-111v115h111v-115z" />
    <glyph glyph-name="exclamdown" unicode="&#xa1;" horiz-adv-x="246" 
d="M84 324h77l22 -524h-120zM67 520h112v-118h-112v118z" />
    <glyph glyph-name="questiondown" unicode="&#xbf;" 
d="M231 333h106v-34c0 -81 -27 -136 -91 -181c-45 -31 -78 -71 -78 -125c0 -77 52 -107 117 -107c59 0 110 40 116 127l107 -17c-12 -132 -102 -211 -222 -211c-138 0 -234 79 -234 202c0 98 62 145 121 196c43 37 56 63 58 120v30zM223 520h118v-118h-118v118z" />
    <glyph glyph-name="Aacute" unicode="&#xc1;" horiz-adv-x="694" 
d="M406 720h-114l-282 -720h120l59 159h311l60 -159h124zM227 261l120 318l117 -318h-237zM260 803l76 187h139l-123 -187h-92z" />
    <glyph glyph-name="Eacute" unicode="&#xc9;" horiz-adv-x="660" 
d="M76 0h518v106h-400v208h340v106h-340v194h390v106h-508v-720zM269 803l76 187h139l-123 -187h-92z" />
    <glyph glyph-name="Iacute" unicode="&#xcd;" horiz-adv-x="271" 
d="M76 0h118v720h-118v-720zM66 803l76 187h139l-123 -187h-92z" />
    <glyph glyph-name="Oacute" unicode="&#xd3;" horiz-adv-x="778" 
d="M46 360c0 210 123 375 343 375c219 0 342 -165 342 -375c0 -211 -123 -375 -342 -375c-220 0 -343 164 -343 375zM169 360c0 -160 78 -274 220 -274c135 0 220 114 220 274s-85 274 -220 274c-136 0 -220 -114 -220 -274zM322 803l76 187h139l-123 -187h-92z" />
    <glyph glyph-name="Uacute" unicode="&#xda;" horiz-adv-x="733" 
d="M539 720v-416c0 -138 -52 -213 -171 -213s-174 75 -174 213v416h-118v-418c0 -189 96 -317 291 -317c197 0 290 128 290 317v418h-118zM300 803l76 187h139l-123 -187h-92z" />
    <glyph glyph-name="Yacute" unicode="&#xdd;" horiz-adv-x="685" 
d="M284 0h118v299l273 421h-131l-197 -316l-201 316h-136l274 -421v-299zM276 803l76 187h139l-123 -187h-92z" />
    <glyph glyph-name="Agrave" unicode="&#xc0;" horiz-adv-x="694" 
d="M292 720h114l278 -720h-124l-60 159h-311l-59 -159h-120zM347 579l-120 -318h237zM335 990l76 -187h-92l-123 187h139z" />
    <glyph glyph-name="Egrave" unicode="&#xc8;" horiz-adv-x="660" 
d="M594 0h-518v720h508v-106h-390v-194h340v-106h-340v-208h400v-106zM325 990l76 -187h-92l-123 187h139z" />
    <glyph glyph-name="Ograve" unicode="&#xd2;" horiz-adv-x="778" 
d="M46 360c0 210 123 375 343 375c219 0 342 -165 342 -375c0 -211 -123 -375 -342 -375c-220 0 -343 164 -343 375zM169 360c0 -160 78 -274 220 -274c135 0 220 114 220 274s-85 274 -220 274c-136 0 -220 -114 -220 -274zM375 990l76 -187h-92l-123 187h139z" />
    <glyph glyph-name="Ugrave" unicode="&#xd9;" horiz-adv-x="733" 
d="M539 304v416h118v-418c0 -189 -93 -317 -290 -317c-195 0 -291 128 -291 317v418h118v-416c0 -138 55 -213 174 -213s171 75 171 213zM345 990l76 -187h-92l-123 187h139z" />
    <glyph glyph-name="Acircumflex" unicode="&#xc2;" horiz-adv-x="694" 
d="M292 720h114l278 -720h-124l-60 159h-311l-59 -159h-120zM347 579l-120 -318h237zM300 980h98l142 -210h-108l-84 131l-85 -131h-106z" />
    <glyph glyph-name="Ecircumflex" unicode="&#xca;" horiz-adv-x="660" 
d="M594 0h-518v720h508v-106h-390v-194h340v-106h-340v-208h400v-106zM287 960h98l142 -190h-108l-84 111l-85 -111h-106z" />
    <glyph glyph-name="Icircumflex" unicode="&#xce;" horiz-adv-x="271" 
d="M194 0h-118v720h118v-720zM88 960h98l142 -190h-108l-84 111l-85 -111h-106z" />
    <glyph glyph-name="Ocircumflex" unicode="&#xd4;" horiz-adv-x="778" 
d="M46 360c0 210 123 375 343 375c219 0 342 -165 342 -375c0 -211 -123 -375 -342 -375c-220 0 -343 164 -343 375zM169 360c0 -160 78 -274 220 -274c135 0 220 114 220 274s-85 274 -220 274c-136 0 -220 -114 -220 -274zM342 960h98l152 -190h-108l-94 121l-95 -121
h-106z" />
    <glyph glyph-name="Ucircumflex" unicode="&#xdb;" horiz-adv-x="733" 
d="M539 304v416h118v-418c0 -189 -93 -317 -290 -317c-195 0 -291 128 -291 317v418h118v-416c0 -138 55 -213 174 -213s171 75 171 213zM319 960h98l152 -190h-108l-94 121l-95 -121h-106z" />
    <glyph glyph-name="Ydieresis" unicode="&#x178;" horiz-adv-x="685" 
d="M402 0h-118v299l-274 421h136l201 -316l197 316h131l-273 -421v-299zM288 805h-111v115h111v-115zM508 805h-111v115h111v-115z" />
    <glyph glyph-name="ucircumflex" unicode="&#xfb;" horiz-adv-x="565" 
d="M393 520h111v-520h-102v75c-38 -59 -90 -90 -158 -90c-144 0 -183 92 -183 216v319h111v-315c0 -80 27 -127 98 -127c72 0 123 55 123 159v283zM234 767h98l123 -167h-109l-63 97l-66 -97h-105z" />
    <glyph glyph-name="ocircumflex" unicode="&#xf4;" horiz-adv-x="559" 
d="M31 260c0 179 106 275 249 275c142 0 248 -96 248 -275s-106 -275 -248 -275c-143 0 -249 96 -249 275zM142 260c0 -126 62 -183 138 -183c75 0 137 57 137 183s-62 182 -137 182c-76 0 -138 -56 -138 -182zM231 767h98l123 -167h-109l-63 97l-66 -97h-105z" />
    <glyph glyph-name="ecircumflex" unicode="&#xea;" horiz-adv-x="549" 
d="M516 230h-374c7 -106 69 -153 141 -153c57 0 107 35 122 97l105 -22c-33 -111 -116 -167 -234 -167c-140 0 -245 96 -245 275s105 275 245 275c148 0 241 -102 241 -261c0 -13 0 -39 -1 -44zM275 442c-58 0 -117 -41 -130 -130h257c-4 77 -52 130 -127 130zM229 767h98
l122 -167h-108l-64 97l-65 -97h-106z" />
    <glyph glyph-name="acircumflex" unicode="&#xe2;" horiz-adv-x="548" 
d="M375 60c-49 -55 -104 -75 -166 -75c-95 0 -176 48 -176 150c0 112 85 156 204 169c55 5 106 14 132 26v17c0 64 -40 98 -107 98c-63 0 -98 -37 -113 -94l-100 27c26 120 122 157 221 157c137 0 210 -67 210 -208v-221c0 -53 10 -87 28 -106h-112c-15 14 -19 38 -21 60z
M369 149v104c-22 -9 -68 -20 -118 -28c-52 -9 -105 -23 -104 -84c0 -51 37 -70 83 -70c60 0 115 43 139 78zM211 767h98l123 -167h-109l-63 97l-66 -97h-105z" />
    <glyph glyph-name="Igrave" unicode="&#xcc;" horiz-adv-x="271" 
d="M194 0h-118v720h118v-720zM129 990l76 -187h-92l-123 187h139z" />
    <glyph glyph-name="Scaron" unicode="&#x160;" horiz-adv-x="659" 
d="M45 230l115 8c8 -105 76 -152 179 -152c90 0 149 41 149 111c0 45 -21 76 -78 97c-38 14 -149 41 -192 55c-128 40 -149 109 -149 177c0 141 125 209 250 209c163 0 260 -71 270 -221l-117 -7c-9 78 -53 127 -149 127c-72 0 -140 -32 -140 -99c0 -34 17 -60 55 -74
c33 -13 127 -40 196 -59c105 -30 178 -86 178 -200c0 -148 -139 -217 -269 -217c-185 0 -287 85 -298 245zM374 790h-98l-143 183h109l83 -114l86 114h105z" />
    <glyph glyph-name="Zcaron" unicode="&#x17d;" horiz-adv-x="668" 
d="M612 0h-556v106l409 508h-389v106h526v-106l-414 -508h424v-106zM381 790h-98l-143 183h109l83 -114l86 114h105z" />
    <glyph glyph-name="scaron" unicode="&#x161;" horiz-adv-x="489" 
d="M31 150l101 16c7 -52 41 -92 117 -92c47 0 105 15 105 67c0 34 -18 52 -60 63l-126 32c-68 17 -129 55 -129 141c0 112 96 158 203 158c124 0 193 -65 199 -150l-100 -16c-8 53 -46 77 -102 77c-63 0 -100 -22 -100 -61c0 -29 26 -45 55 -52l133 -33
c62 -16 131 -52 131 -152c0 -115 -101 -163 -212 -163c-127 0 -206 63 -215 165zM287 600h-98l-122 167h108l64 -98l65 98h106z" />
    <glyph glyph-name="zcaron" unicode="&#x17e;" horiz-adv-x="501" 
d="M462 0h-424v92l286 335h-267v93h399v-93l-291 -335h297v-92zM301 600h-98l-123 167h109l63 -98l66 98h105z" />
    <glyph glyph-name="icircumflex" unicode="&#xee;" horiz-adv-x="234" 
d="M172 0h-111v520h111v-520zM69 767h98l123 -167h-109l-63 97l-66 -97h-105z" />
    <glyph glyph-name="Aring" unicode="&#xc5;" horiz-adv-x="694" 
d="M406 720h-114l-282 -720h120l59 159h311l60 -159h124zM227 261l120 318l117 -318h-237zM214 900c0 74 61 135 134 135c75 0 135 -61 135 -135s-60 -134 -135 -134c-73 0 -134 60 -134 134zM286 900c0 -34 29 -61 62 -61c34 0 60 27 60 61s-26 61 -60 61
c-33 0 -62 -27 -62 -61z" />
    <glyph glyph-name="aring" unicode="&#xe5;" horiz-adv-x="548" 
d="M375 60c2 -22 6 -46 21 -60h112c-18 19 -28 53 -28 106v221c0 141 -73 208 -210 208c-99 0 -195 -37 -221 -157l100 -27c15 57 50 94 113 94c67 0 107 -34 107 -98v-17c-26 -12 -77 -21 -132 -26c-119 -13 -204 -57 -204 -169c0 -102 81 -150 176 -150
c62 0 117 20 166 75zM369 253v-104c-24 -35 -79 -78 -139 -78c-46 0 -83 19 -83 70c-1 61 52 75 104 84c50 8 96 19 118 28zM127 730c0 74 61 135 135 135s134 -61 134 -135s-60 -134 -134 -134s-135 60 -135 134zM200 730c0 -34 28 -61 62 -61s60 27 60 61s-26 61 -60 61
s-62 -27 -62 -61z" />
    <glyph glyph-name="rcaron" unicode="&#x159;" horiz-adv-x="404" 
d="M172 0h-111v520h102v-90c33 70 74 105 142 105c40 0 68 -8 92 -27l-25 -99c-20 13 -40 22 -71 22c-86 0 -129 -67 -129 -168v-263zM264 600h-98l-122 167h108l64 -98l65 98h106z" />
    <glyph glyph-name="uhungarumlaut" unicode="&#x171;" horiz-adv-x="565" 
d="M504 520h-111v-283c0 -104 -51 -159 -123 -159c-71 0 -98 47 -98 127v315h-111v-319c0 -124 39 -216 183 -216c68 0 120 31 158 90v-75h102v520zM106 603l76 187h139l-123 -187h-92zM303 603l76 187h139l-123 -187h-92z" />
    <glyph glyph-name="Uhungarumlaut" unicode="&#x170;" horiz-adv-x="733" 
d="M539 720v-416c0 -138 -52 -213 -171 -213s-174 75 -174 213v416h-118v-418c0 -189 96 -317 291 -317c197 0 290 128 290 317v418h-118zM183 803l76 187h139l-123 -187h-92zM410 803l76 187h139l-123 -187h-92z" />
    <glyph glyph-name="Ohungarumlaut" unicode="&#x150;" horiz-adv-x="778" 
d="M46 360c0 210 123 375 343 375c219 0 342 -165 342 -375c0 -211 -123 -375 -342 -375c-220 0 -343 164 -343 375zM169 360c0 -160 78 -274 220 -274c135 0 220 114 220 274s-85 274 -220 274c-136 0 -220 -114 -220 -274zM212 803l76 187h139l-123 -187h-92zM436 803
l76 187h139l-123 -187h-92z" />
    <glyph glyph-name="uring" unicode="&#x16f;" horiz-adv-x="565" 
d="M504 520h-111v-283c0 -104 -51 -159 -123 -159c-71 0 -98 47 -98 127v315h-111v-319c0 -124 39 -216 183 -216c68 0 120 31 158 90v-75h102v520zM149 730c0 74 61 135 134 135c75 0 135 -61 135 -135s-60 -134 -135 -134c-73 0 -134 60 -134 134zM221 730
c0 -34 29 -61 62 -61c34 0 61 27 61 61s-27 61 -61 61c-33 0 -62 -27 -62 -61z" />
    <glyph glyph-name="ohungarumlaut" unicode="&#x151;" horiz-adv-x="559" 
d="M31 260c0 179 106 275 249 275c142 0 248 -96 248 -275s-106 -275 -248 -275c-143 0 -249 96 -249 275zM142 260c0 -126 62 -183 138 -183c75 0 137 57 137 183s-62 182 -137 182c-76 0 -138 -56 -138 -182zM107 603l76 187h139l-123 -187h-92zM308 603l76 187h139
l-123 -187h-92z" />
    <glyph glyph-name="ncaron" unicode="&#x148;" horiz-adv-x="565" 
d="M172 0h-111v520h102v-75c38 64 90 90 158 90c144 0 183 -92 183 -216v-319h-111v315c0 79 -27 126 -98 126s-123 -55 -123 -158v-283zM316 600h-98l-122 167h108l64 -98l65 98h106z" />
    <glyph glyph-name="nacute" unicode="&#x144;" horiz-adv-x="565" 
d="M61 0h111v283c0 103 52 158 123 158s98 -47 98 -126v-315h111v319c0 124 -39 216 -183 216c-68 0 -120 -26 -158 -90v75h-102v-520zM186 603l76 187h139l-123 -187h-92z" />
    <glyph glyph-name="ecaron" unicode="&#x11b;" horiz-adv-x="549" 
d="M516 230h-374c7 -106 69 -153 141 -153c57 0 107 35 122 97l105 -22c-33 -111 -116 -167 -234 -167c-140 0 -245 96 -245 275s105 275 245 275c148 0 241 -102 241 -261c0 -13 0 -39 -1 -44zM275 442c-58 0 -117 -41 -130 -130h257c-4 77 -52 130 -127 130zM324 600h-98
l-123 167h109l63 -98l66 98h105z" />
    <glyph glyph-name="ccaron" unicode="&#x10d;" horiz-adv-x="529" 
d="M142 260c0 -126 57 -183 131 -183c56 0 100 32 116 107l108 -21c-28 -119 -112 -178 -224 -178c-141 0 -242 96 -242 275s101 275 242 275c112 0 196 -60 224 -179l-108 -21c-16 76 -60 107 -116 107c-73 0 -131 -56 -131 -182zM318 600h-98l-123 167h109l63 -98l66 98
h105z" />
    <glyph glyph-name="cacute" unicode="&#x107;" horiz-adv-x="529" 
d="M142 260c0 -126 57 -183 131 -183c56 0 100 32 116 107l108 -21c-28 -119 -112 -178 -224 -178c-141 0 -242 96 -242 275s101 275 242 275c112 0 196 -60 224 -179l-108 -21c-16 76 -60 107 -116 107c-73 0 -131 -56 -131 -182zM194 603l76 187h139l-123 -187h-92z" />
    <glyph glyph-name="lacute" unicode="&#x13a;" horiz-adv-x="234" 
d="M61 0h111v735l-111 -40v-695zM58 803l76 187h139l-123 -187h-92z" />
    <glyph glyph-name="abreve" unicode="&#x103;" horiz-adv-x="548" 
d="M375 60c-49 -55 -104 -75 -166 -75c-95 0 -176 48 -176 150c0 112 85 156 204 169c55 5 106 14 132 26v17c0 64 -40 98 -107 98c-63 0 -98 -37 -113 -94l-100 27c26 120 122 157 221 157c137 0 210 -67 210 -208v-221c0 -53 10 -87 28 -106h-112c-15 14 -19 38 -21 60z
M369 149v104c-22 -9 -68 -20 -118 -28c-52 -9 -105 -23 -104 -84c0 -51 37 -70 83 -70c60 0 115 43 139 78zM358 720h76c0 -89 -54 -147 -154 -147s-152 59 -152 147h76c5 -47 35 -69 76 -69s73 22 78 69z" />
    <glyph glyph-name="racute" unicode="&#x155;" horiz-adv-x="404" 
d="M61 0h111v263c0 101 43 168 129 168c31 0 51 -9 71 -22l25 99c-24 19 -52 27 -92 27c-68 0 -109 -35 -142 -105v90h-102v-520zM136 603l76 187h139l-123 -187h-92z" />
    <glyph glyph-name="Tcommaaccent" unicode="&#x162;" horiz-adv-x="635" 
d="M376 0h-118v614h-235v106h588v-106h-235v-614zM319 -207h-60v117h118v-117c0 -76 -32 -123 -87 -147l-29 46c35 15 58 40 58 101z" />
    <glyph glyph-name="Uring" unicode="&#x16e;" horiz-adv-x="733" 
d="M539 720v-416c0 -138 -52 -213 -171 -213s-174 75 -174 213v416h-118v-418c0 -189 96 -317 291 -317c197 0 290 128 290 317v418h-118zM232 900c0 74 61 135 135 135s134 -61 134 -135s-60 -134 -134 -134s-135 60 -135 134zM305 900c0 -34 28 -61 62 -61s60 27 60 61
s-26 61 -60 61s-62 -27 -62 -61z" />
    <glyph glyph-name="Rcaron" unicode="&#x158;" horiz-adv-x="690" 
d="M76 0v720h256c148 0 275 -54 275 -213c0 -110 -64 -176 -180 -194c73 -17 123 -83 157 -146l89 -167h-140l-62 121c-52 101 -101 155 -201 155h-76v-276h-118zM194 614v-236h125c110 0 168 39 168 119c0 93 -75 117 -170 117h-123zM381 790h-98l-143 183h109l83 -114
l86 114h105z" />
    <glyph glyph-name="Ncaron" unicode="&#x147;" horiz-adv-x="740" 
d="M190 0h-114v720h120l353 -528v528h114v-720h-120l-353 527v-527zM418 790h-98l-142 183h108l84 -114l85 114h106z" />
    <glyph glyph-name="Nacute" unicode="&#x143;" horiz-adv-x="740" 
d="M76 0h114v527l353 -527h120v720h-114v-528l-353 528h-120v-720zM316 803l76 187h139l-123 -187h-92z" />
    <glyph glyph-name="Dcaron" unicode="&#x10e;" horiz-adv-x="711" 
d="M317 0h-241v720h230c235 0 358 -126 358 -358c0 -225 -112 -362 -347 -362zM194 614v-509h107c162 0 242 78 242 258c0 197 -101 251 -245 251h-104zM358 790h-98l-143 183h109l83 -114l86 114h105z" />
    <glyph glyph-name="Ecaron" unicode="&#x11a;" horiz-adv-x="660" 
d="M594 0h-518v720h508v-106h-390v-194h340v-106h-340v-208h400v-106zM381 790h-98l-142 183h108l84 -114l85 114h106z" />
    <glyph glyph-name="Ccaron" unicode="&#x10c;" horiz-adv-x="736" 
d="M169 360c0 -160 73 -274 216 -274c97 0 159 58 187 153l118 -28c-36 -136 -138 -226 -305 -226c-220 0 -339 164 -339 375c0 210 117 375 337 375c164 0 274 -86 307 -227l-118 -28c-21 97 -85 154 -189 154c-136 0 -214 -114 -214 -274zM431 790h-98l-142 183h108
l84 -114l85 114h106z" />
    <glyph glyph-name="Cacute" unicode="&#x106;" horiz-adv-x="736" 
d="M169 360c0 -160 73 -274 216 -274c97 0 159 58 187 153l118 -28c-36 -136 -138 -226 -305 -226c-220 0 -339 164 -339 375c0 210 117 375 337 375c164 0 274 -86 307 -227l-118 -28c-21 97 -85 154 -189 154c-136 0 -214 -114 -214 -274zM303 803l76 187h139l-123 -187
h-92z" />
    <glyph glyph-name="Lacute" unicode="&#x139;" horiz-adv-x="618" 
d="M76 0h512v106h-394v614h-118v-720zM103 803l76 187h139l-123 -187h-92z" />
    <glyph glyph-name="Abreve" unicode="&#x102;" horiz-adv-x="694" 
d="M292 720h114l278 -720h-124l-60 159h-311l-59 -159h-120zM347 579l-120 -318h237zM443 920h87c0 -89 -56 -167 -179 -167c-124 0 -176 79 -176 167h88c3 -50 30 -81 88 -81c57 0 89 31 92 81z" />
    <glyph glyph-name="Racute" unicode="&#x154;" horiz-adv-x="690" 
d="M76 720v-720h118v276h76c100 0 149 -54 201 -155l62 -121h140l-89 167c-34 63 -84 129 -157 146c116 18 180 84 180 194c0 159 -127 213 -275 213h-256zM194 378v236h123c95 0 170 -24 170 -117c0 -80 -58 -119 -168 -119h-125zM230 803l76 187h139l-123 -187h-92z" />
    <glyph glyph-name="zdotaccent" unicode="&#x17c;" horiz-adv-x="501" 
d="M462 0h-424v92l286 335h-267v93h399v-93l-291 -335h297v-92zM309 607h-111v113h111v-113z" />
    <glyph glyph-name="Lcaron" unicode="&#x13d;" horiz-adv-x="618" 
d="M588 0h-512v720h118v-614h394v-106zM189 790h-98l-143 183h109l83 -114l86 114h105z" />
    <glyph glyph-name="scommaaccent" unicode="&#x219;" horiz-adv-x="489" 
d="M31 150l101 16c7 -52 41 -92 117 -92c47 0 105 15 105 67c0 34 -18 52 -60 63l-126 32c-68 17 -129 55 -129 141c0 112 96 158 203 158c124 0 193 -65 199 -150l-100 -16c-8 53 -46 77 -102 77c-63 0 -100 -22 -100 -61c0 -29 26 -45 55 -52l133 -33
c62 -16 131 -52 131 -152c0 -115 -101 -163 -212 -163c-127 0 -206 63 -215 165zM254 -207h-60v117h117v-117c0 -76 -32 -123 -87 -147l-28 46c35 15 58 40 58 101z" />
    <glyph glyph-name="Zdotaccent" unicode="&#x17b;" horiz-adv-x="668" 
d="M612 0h-556v106l409 508h-389v106h526v-106l-414 -508h424v-106zM390 800h-112v117h112v-117z" />
    <glyph glyph-name="Scommaaccent" unicode="&#x218;" horiz-adv-x="659" 
d="M45 230l115 8c8 -105 76 -152 179 -152c90 0 149 41 149 111c0 45 -21 76 -78 97c-38 14 -149 41 -192 55c-128 40 -149 109 -149 177c0 141 125 209 250 209c163 0 260 -71 270 -221l-117 -7c-9 78 -53 127 -149 127c-72 0 -140 -32 -140 -99c0 -34 17 -60 55 -74
c33 -13 127 -40 196 -59c105 -30 178 -86 178 -200c0 -148 -139 -217 -269 -217c-185 0 -287 85 -298 245zM345 -207h-60v117h118v-117c0 -76 -32 -123 -87 -147l-29 46c35 15 58 40 58 101z" />
    <glyph glyph-name="zacute" unicode="&#x17a;" horiz-adv-x="501" 
d="M38 0h424v92h-297l291 335v93h-399v-93h267l-286 -335v-92zM176 603l76 187h139l-123 -187h-92z" />
    <glyph glyph-name="sacute" unicode="&#x15b;" horiz-adv-x="489" 
d="M31 150c9 -102 88 -165 215 -165c111 0 212 48 212 163c0 100 -69 136 -131 152l-133 33c-29 7 -55 23 -55 52c0 39 37 61 100 61c56 0 94 -24 102 -77l100 16c-6 85 -75 150 -199 150c-107 0 -203 -46 -203 -158c0 -86 61 -124 129 -141l126 -32c42 -11 60 -29 60 -63
c0 -52 -58 -67 -105 -67c-76 0 -110 40 -117 92zM159 603l76 187h139l-123 -187h-92z" />
    <glyph glyph-name="Zacute" unicode="&#x179;" horiz-adv-x="668" 
d="M56 0h556v106h-424l414 508v106h-526v-106h389l-409 -508v-106zM266 803l76 187h139l-123 -187h-92z" />
    <glyph glyph-name="Tcaron" unicode="&#x164;" horiz-adv-x="635" 
d="M376 0h-118v614h-235v106h588v-106h-235v-614zM367 790h-98l-143 183h109l83 -114l86 114h105z" />
    <glyph glyph-name="Sacute" unicode="&#x15a;" horiz-adv-x="659" 
d="M45 230c11 -160 113 -245 298 -245c130 0 269 69 269 217c0 114 -73 170 -178 200c-69 19 -163 46 -196 59c-38 14 -55 40 -55 74c0 67 68 99 140 99c96 0 140 -49 149 -127l117 7c-10 150 -107 221 -270 221c-125 0 -250 -68 -250 -209c0 -68 21 -137 149 -177
c43 -14 154 -41 192 -55c57 -21 78 -52 78 -97c0 -70 -59 -111 -149 -111c-103 0 -171 47 -179 152zM246 803l76 187h139l-123 -187h-92z" />
    <glyph glyph-name="multiply" unicode="&#xd7;" horiz-adv-x="556" 
d="M278 317l-127 -127l-66 65l127 127l-127 128l66 65l127 -127l127 127l66 -65l-128 -128l128 -127l-66 -65z" />
    <glyph glyph-name="tcommaaccent" unicode="&#x163;" horiz-adv-x="343" 
d="M293 93l10 -91c-20 -7 -58 -12 -77 -12c-109 0 -132 60 -132 162v281h-74v87h74v126l111 43v-169h92v-87h-92v-269c0 -45 0 -77 47 -77c10 0 25 1 41 6zM189 -207h-60v117h118v-117c0 -76 -32 -123 -87 -147l-29 46c35 15 58 40 58 101z" />
    <glyph glyph-name="lslash" unicode="&#x142;" horiz-adv-x="409" 
d="M260 0h-111v306l-86 -53l-47 80l133 82v280l111 40v-253l86 53l47 -80l-133 -82v-373z" />
    <glyph glyph-name="Lslash" unicode="&#x141;" horiz-adv-x="685" 
d="M655 0h-512v302l-80 -49l-47 80l127 77v310h118v-238l85 53l47 -80l-132 -81v-268h394v-106z" />
    <glyph glyph-name="lcaron" unicode="&#x13e;" horiz-adv-x="355" 
d="M172 0h-111v695l111 40v-735zM294 602h-60v118h118v-118c0 -75 -32 -123 -87 -147l-29 47c35 15 58 40 58 100z" />
    <glyph glyph-name="tcaron" unicode="&#x165;" horiz-adv-x="455" 
d="M293 93l10 -91c-20 -7 -58 -12 -77 -12c-109 0 -132 60 -132 162v281h-74v87h74v126l111 43v-169h92v-87h-92v-269c0 -45 0 -77 47 -77c10 0 25 1 41 6zM394 602h-60v118h118v-118c0 -75 -32 -123 -87 -147l-29 47c35 15 58 40 58 100z" />
    <glyph glyph-name="dcaron" unicode="&#x10f;" horiz-adv-x="682" 
d="M388 720h111v-720h-101v67c-30 -50 -78 -82 -143 -82c-137 0 -224 106 -224 275s89 275 226 275c55 0 101 -23 131 -67v252zM399 260c0 121 -56 182 -130 182c-73 0 -127 -61 -127 -182c0 -122 55 -183 127 -183c65 0 130 61 130 183zM621 602h-61v118h118v-118
c0 -75 -32 -123 -87 -147l-28 47c35 15 58 40 58 100z" />
    <glyph glyph-name="dcroat" unicode="&#x111;" horiz-adv-x="560" 
d="M388 572h-68v76h68v72h111v-72h61v-76h-61v-572h-101v67c-30 -50 -78 -82 -143 -82c-137 0 -224 106 -224 275s89 275 226 275c55 0 101 -23 131 -67v104zM399 260c0 121 -56 182 -130 182c-73 0 -127 -61 -127 -182c0 -122 55 -183 127 -183c65 0 130 61 130 183z" />
    <glyph glyph-name="Dcroat" unicode="&#x110;" horiz-adv-x="794" 
d="M400 0h-241v316h-143v93h143v311h230c235 0 358 -126 358 -358c0 -225 -112 -362 -347 -362zM277 316v-211h107c162 0 242 78 242 258c0 197 -101 251 -245 251h-104v-205h155v-93h-155z" />
    <glyph glyph-name="oslash" unicode="&#xf8;" horiz-adv-x="559" 
d="M516 479l-36 -43c31 -45 48 -104 48 -176c0 -179 -106 -275 -248 -275c-53 0 -101 14 -140 39l-32 -39l-67 56l36 44c-29 45 -46 103 -46 175c0 179 106 275 249 275c51 0 98 -14 137 -38l32 38zM417 260c0 33 -5 61 -13 84l-200 -242c22 -17 48 -25 76 -25
c75 0 137 57 137 183zM142 260c0 -32 4 -59 12 -81l199 240c-22 16 -47 23 -73 23c-76 0 -138 -56 -138 -182z" />
    <glyph glyph-name="Oslash" unicode="&#xd8;" horiz-adv-x="778" 
d="M712 675l-56 -67c50 -65 75 -152 75 -248c0 -211 -123 -375 -342 -375c-82 0 -150 23 -204 62l-52 -62l-71 60l58 69c-49 65 -74 150 -74 246c0 210 123 375 343 375c80 0 148 -23 201 -61l51 61zM609 360c0 57 -12 109 -34 152l-320 -380c35 -30 80 -46 134 -46
c135 0 220 114 220 274zM169 360c0 -57 11 -109 31 -151l318 379c-34 30 -78 46 -129 46c-136 0 -220 -114 -220 -274z" />
    <glyph glyph-name="Thorn" unicode="&#xde;" horiz-adv-x="662" 
d="M194 0h-118v725h118v-131h141c145 0 281 -53 281 -222c0 -145 -94 -229 -273 -229h-149v-143zM194 490v-243h146c109 0 155 49 155 122c0 91 -62 121 -157 121h-144z" />
    <glyph glyph-name="oe" unicode="&#x153;" horiz-adv-x="935" 
d="M31 260c0 179 106 275 249 275c80 0 148 -31 192 -110c44 79 111 110 190 110c148 0 241 -102 241 -261c0 -13 0 -39 -1 -44h-374c7 -106 69 -153 141 -153c57 0 106 35 122 97l105 -22c-34 -111 -116 -167 -234 -167c-79 0 -146 31 -190 110
c-44 -79 -112 -110 -192 -110c-143 0 -249 96 -249 275zM142 260c0 -126 62 -183 138 -183c75 0 137 57 137 183s-62 182 -137 182c-76 0 -138 -56 -138 -182zM661 442c-58 0 -118 -41 -130 -130h257c-4 77 -52 130 -127 130z" />
    <glyph glyph-name="OE" unicode="&#x152;" horiz-adv-x="1024" 
d="M957 0h-563c-236 0 -348 137 -348 362c0 232 123 358 359 358h542v-106h-359v-194h309v-106h-309v-208h369v-106zM470 105v509h-58c-144 0 -245 -54 -245 -251c0 -180 80 -258 242 -258h61z" />
    <glyph glyph-name="Eth" unicode="&#xd0;" horiz-adv-x="794" 
d="M400 0h-241v316h-143v93h143v311h230c235 0 358 -126 358 -358c0 -225 -112 -362 -347 -362zM277 316v-211h107c162 0 242 78 242 258c0 197 -101 251 -245 251h-104v-205h155v-93h-155z" />
    <glyph glyph-name="ntilde" unicode="&#xf1;" horiz-adv-x="565" 
d="M172 0h-111v520h102v-75c38 64 90 90 158 90c144 0 183 -92 183 -216v-319h-111v315c0 79 -27 126 -98 126s-123 -55 -123 -158v-283zM126 605v100c28 30 67 40 95 40c63 0 94 -50 143 -50c22 0 61 10 89 50v-100c-28 -30 -71 -40 -99 -40c-62 0 -90 50 -139 50
c-28 0 -61 -10 -89 -50z" />
    <glyph glyph-name="otilde" unicode="&#xf5;" horiz-adv-x="559" 
d="M31 260c0 179 106 275 249 275c142 0 248 -96 248 -275s-106 -275 -248 -275c-143 0 -249 96 -249 275zM142 260c0 -126 62 -183 138 -183c75 0 137 57 137 183s-62 182 -137 182c-76 0 -138 -56 -138 -182zM121 605v100c28 30 67 40 95 40c62 0 94 -50 143 -50
c21 0 60 10 88 50v-100c-28 -30 -70 -40 -98 -40c-63 0 -91 50 -140 50c-28 0 -60 -10 -88 -50z" />
    <glyph glyph-name="atilde" unicode="&#xe3;" horiz-adv-x="548" 
d="M375 60c-49 -55 -104 -75 -166 -75c-95 0 -176 48 -176 150c0 112 85 156 204 169c55 5 106 14 132 26v17c0 64 -40 98 -107 98c-63 0 -98 -37 -113 -94l-100 27c26 120 122 157 221 157c137 0 210 -67 210 -208v-221c0 -53 10 -87 28 -106h-112c-15 14 -19 38 -21 60z
M369 149v104c-22 -9 -68 -20 -118 -28c-52 -9 -105 -23 -104 -84c0 -51 37 -70 83 -70c60 0 115 43 139 78zM107 605v100c28 30 67 40 95 40c62 0 94 -50 143 -50c21 0 60 10 88 50v-100c-28 -30 -70 -40 -98 -40c-63 0 -91 50 -140 50c-28 0 -60 -10 -88 -50z" />
    <glyph glyph-name="Ntilde" unicode="&#xd1;" horiz-adv-x="740" 
d="M190 0h-114v720h120l353 -528v528h114v-720h-120l-353 527v-527zM193 805v108c28 30 77 40 105 40c62 0 107 -50 156 -50c22 0 71 10 99 50v-108c-28 -30 -81 -40 -109 -40c-62 0 -104 50 -153 50c-28 0 -70 -10 -98 -50z" />
    <glyph glyph-name="Otilde" unicode="&#xd5;" horiz-adv-x="778" 
d="M46 360c0 210 123 375 343 375c219 0 342 -165 342 -375c0 -211 -123 -375 -342 -375c-220 0 -343 164 -343 375zM169 360c0 -160 78 -274 220 -274c135 0 220 114 220 274s-85 274 -220 274c-136 0 -220 -114 -220 -274zM206 805v108c28 30 77 40 105 40
c62 0 107 -50 156 -50c22 0 71 10 99 50v-108c-28 -30 -81 -40 -109 -40c-62 0 -104 50 -153 50c-28 0 -70 -10 -98 -50z" />
    <glyph glyph-name="Atilde" unicode="&#xc3;" horiz-adv-x="694" 
d="M292 720h114l278 -720h-124l-60 159h-311l-59 -159h-120zM347 579l-120 -318h237zM170 805v108c28 30 77 40 105 40c62 0 107 -50 156 -50c22 0 71 10 99 50v-108c-28 -30 -81 -40 -109 -40c-62 0 -104 50 -153 50c-28 0 -70 -10 -98 -50z" />
    <glyph glyph-name="AE" unicode="&#xc6;" horiz-adv-x="1067" 
d="M144 0h-128l457 720h518v-106h-390v-194h340v-106h-340v-208h400v-106h-518v156h-242zM483 262v286l-177 -286h177z" />
    <glyph glyph-name="ae" unicode="&#xe6;" horiz-adv-x="886" 
d="M847 230h-374c5 -106 70 -153 141 -153c55 0 106 35 122 97c34 -8 69 -15 104 -22c-33 -111 -116 -167 -233 -167c-71 0 -133 25 -176 72c-60 -52 -130 -72 -196 -72c-115 0 -202 44 -202 150c0 112 85 156 204 169c55 5 99 14 125 26v17c0 64 -33 98 -100 98
c-63 0 -98 -37 -113 -94c-33 9 -67 18 -100 27c26 120 122 157 221 157c80 0 130 -23 164 -69c43 45 103 69 173 69c148 0 241 -102 241 -261c0 -13 -1 -39 -1 -44zM386 126c-16 36 -24 79 -24 127c-21 -9 -61 -20 -111 -28c-52 -9 -105 -23 -104 -84c0 -51 44 -70 100 -70
c61 0 102 20 139 55zM605 442c-57 0 -117 -41 -129 -130h256c-4 77 -52 130 -127 130z" />
    <glyph glyph-name="germandbls" unicode="&#xdf;" horiz-adv-x="647" 
d="M249 150l101 16c7 -52 28 -92 87 -92c37 0 75 25 75 67c0 34 -18 62 -60 71l-66 15c-69 16 -129 64 -129 150c0 141 150 131 150 198c0 20 -21 54 -94 54c-70 0 -114 -41 -114 -123v-506h-108v497c0 151 97 227 218 227c141 0 202 -65 202 -146
c0 -122 -154 -113 -154 -200c0 -29 26 -46 55 -53l73 -17c62 -15 131 -60 131 -160c0 -109 -81 -163 -182 -163c-117 0 -176 63 -185 165z" />
    <glyph glyph-name="eth" unicode="&#xf0;" horiz-adv-x="558" 
d="M396 743l-31 -55c119 -83 167 -240 161 -412c-7 -185 -110 -291 -249 -291c-114 0 -246 84 -245 263c2 179 108 260 220 260c74 0 131 -38 156 -68c-8 55 -39 116 -94 160l-39 -67l-74 43l36 64c-29 9 -60 15 -96 15l5 97c53 0 100 -9 142 -24l34 58zM143 246
c-1 -126 79 -169 134 -169c69 0 140 43 141 169c2 127 -72 169 -134 169c-75 0 -139 -42 -141 -169z" />
    <glyph glyph-name="ccedilla" unicode="&#xe7;" horiz-adv-x="529" 
d="M291 -117c0 28 -13 40 -28 40c-13 0 -22 -7 -26 -24l-41 13l28 77c-114 20 -193 113 -193 271c0 179 101 275 242 275c112 0 196 -60 224 -179l-108 -21c-16 76 -60 107 -116 107c-73 0 -131 -56 -131 -182s57 -183 131 -183c56 0 100 32 116 107l108 -21
c-28 -119 -112 -178 -224 -178h-13l-7 -20h10c42 0 72 -28 72 -82s-30 -83 -72 -83c-34 0 -59 18 -67 54l41 12c4 -16 13 -23 26 -23c16 0 28 12 28 40z" />
    <glyph glyph-name="Ccedilla" unicode="&#xc7;" horiz-adv-x="736" 
d="M417 -142c0 33 -16 48 -35 48c-15 0 -26 -9 -31 -29l-49 16l35 95c-189 22 -291 177 -291 372c0 210 117 375 337 375c164 0 274 -86 307 -227l-118 -28c-21 97 -85 154 -189 154c-136 0 -214 -114 -214 -274s73 -274 216 -274c97 0 159 58 187 153l118 -28
c-36 -136 -138 -226 -305 -226h-4l-11 -29h13c50 0 87 -33 87 -98s-37 -100 -87 -100c-41 0 -71 22 -81 65l49 14c5 -19 16 -27 31 -27c20 0 35 15 35 48z" />
    <glyph glyph-name="cent" unicode="&#xa2;" horiz-adv-x="529" 
d="M236 -115v103c-121 15 -205 109 -205 272c0 162 84 257 205 272v103h75v-103c93 -12 161 -71 186 -176l-108 -21c-12 58 -41 89 -78 101v-353c37 11 65 44 78 101l108 -21c-25 -105 -93 -164 -186 -175v-103h-75zM142 260c0 -104 39 -161 94 -177v353
c-55 -16 -94 -72 -94 -176z" />
    <glyph glyph-name="yen" unicode="&#xa5;" horiz-adv-x="685" 
d="M402 0h-118v108h-150v75h150v51h-150v75h143l-267 411h136l201 -316l197 316h131l-267 -411h144v-75h-150v-51h150v-75h-150v-108z" />
    <glyph glyph-name="divide" unicode="&#xf7;" horiz-adv-x="556" 
d="M493 316h-430v93h430v-93zM333 477h-112v118h112v-118zM333 130h-112v117h112v-117z" />
    <glyph glyph-name="eogonek" unicode="&#x119;" horiz-adv-x="549" 
d="M516 230h-374c7 -106 69 -153 141 -153c57 0 107 35 122 97c35 -8 70 -15 105 -22c-23 -75 -63 -107 -121 -146c-29 -19 -53 -40 -53 -83c0 -38 24 -62 57 -62c30 0 49 13 65 43l51 -48c-16 -31 -56 -72 -121 -72c-70 0 -130 40 -130 122c0 31 15 64 36 81
c-13 -1 -33 0 -44 1c-129 10 -219 106 -219 272c0 179 105 275 245 275c148 0 241 -102 241 -261c0 -13 0 -39 -1 -44zM275 442c-58 0 -117 -41 -130 -130h257c-4 77 -52 130 -127 130z" />
    <glyph glyph-name="aogonek" unicode="&#x105;" horiz-adv-x="548" 
d="M375 60c-49 -55 -104 -75 -166 -75c-95 0 -176 48 -176 150c0 112 85 156 204 169c55 5 106 14 132 26v17c0 64 -40 98 -107 98c-63 0 -98 -37 -113 -94l-100 27c26 120 122 157 221 157c137 0 210 -67 210 -208v-221c0 -53 10 -87 28 -106h-30c-47 0 -85 -27 -85 -77
c0 -38 24 -62 57 -62c30 0 49 13 65 43l51 -48c-16 -31 -55 -72 -120 -72c-70 0 -131 42 -131 123c0 61 37 95 79 111c-10 11 -17 29 -19 42zM369 149v104c-22 -9 -68 -20 -118 -28c-52 -9 -105 -23 -104 -84c0 -51 37 -70 83 -70c60 0 115 43 139 78z" />
    <glyph glyph-name="Eogonek" unicode="&#x118;" horiz-adv-x="660" 
d="M461 0h-385v720h508v-106h-390v-194h340v-106h-340v-208h400v-106h-29c-47 0 -79 -37 -79 -77c0 -38 24 -62 57 -62c30 0 49 13 65 43l52 -48c-17 -31 -56 -72 -122 -72c-69 0 -129 42 -129 123c0 40 21 77 52 93z" />
    <glyph glyph-name="Aogonek" unicode="&#x104;" horiz-adv-x="694" 
d="M292 720h114l278 -720h-27c-52 0 -87 -36 -87 -77c0 -38 24 -62 57 -62c30 0 49 13 65 43l51 -48c-16 -31 -55 -72 -120 -72c-70 0 -131 42 -131 123c0 53 30 86 63 104l-55 148h-311l-59 -159h-120zM347 579l-120 -318h237z" />
    <glyph glyph-name="afii10060" unicode="&#x40b;" horiz-adv-x="769" 
d="M376 0h-118v614h-235v106h588v-106h-235v-233c31 57 81 84 149 84c144 0 183 -92 183 -216v-249h-111v245c0 79 -27 126 -98 126c-70 0 -121 -52 -123 -151v-220z" />
    <glyph glyph-name="afii10051" unicode="&#x402;" horiz-adv-x="769" 
d="M480 -4l18 93c17 -5 26 -6 36 -6c58 0 63 52 63 105v57c0 79 -27 126 -98 126c-70 0 -121 -52 -123 -151v-220h-118v614h-235v106h588v-106h-235v-233c31 57 81 84 149 84c144 0 183 -92 183 -216v-82c0 -106 -43 -182 -155 -182c-24 0 -51 4 -73 11z" />
    <glyph glyph-name="afii10108" unicode="&#x45b;" horiz-adv-x="598" 
d="M205 0h-111v513h-74v87h74v92l111 43v-135h92v-87h-92v-132c31 57 80 84 149 84c144 0 182 -92 182 -216v-249h-111v245c0 79 -26 126 -97 126c-70 0 -120 -51 -123 -149v-222z" />
    <glyph glyph-name="afii10099" unicode="&#x452;" horiz-adv-x="598" 
d="M309 -4l18 93c17 -5 25 -6 35 -6c58 0 63 52 63 105v57c0 79 -26 126 -97 126c-70 0 -120 -51 -123 -149v-222h-111v513h-74v87h74v92l111 43v-135h92v-87h-92v-132c31 57 80 84 149 84c144 0 182 -92 182 -216v-82c0 -106 -42 -182 -154 -182c-24 0 -51 4 -73 11z" />
    </font>
</defs>
</svg>
